G04 EAGLE Gerber RS-274X export*
G75*
%MOMM*%
%FSLAX34Y34*%
%LPD*%
%INSolderpaste Top*%
%IPPOS*%
%AMOC8*
5,1,8,0,0,1.08239X$1,22.5*%
G01*
%ADD10R,1.100000X1.000000*%
%ADD11R,1.000000X1.100000*%
%ADD12R,1.800000X2.200000*%
%ADD13R,0.600000X1.150000*%
%ADD14R,0.300000X1.150000*%
%ADD15C,0.152500*%
%ADD16R,0.800000X2.000000*%
%ADD17R,2.400000X0.600000*%
%ADD18R,2.400000X0.635000*%
%ADD19R,0.900000X0.900000*%
%ADD20C,0.067500*%
%ADD21R,0.790000X0.260000*%
%ADD22R,0.260000X0.790000*%
%ADD23R,0.590000X0.980000*%
%ADD24C,0.018900*%
%ADD25C,0.155000*%
%ADD26R,0.775000X0.875000*%
%ADD27R,0.800000X0.800000*%


D10*
X98656Y269081D03*
X115656Y269081D03*
X220894Y273844D03*
X237894Y273844D03*
X237894Y251619D03*
X220894Y251619D03*
X72794Y119063D03*
X55794Y119063D03*
X174856Y152400D03*
X191856Y152400D03*
X72000Y97631D03*
X55000Y97631D03*
X135169Y249238D03*
X152169Y249238D03*
X33900Y173831D03*
X16900Y173831D03*
X33900Y153194D03*
X16900Y153194D03*
X62938Y300831D03*
X79938Y300831D03*
X98656Y292100D03*
X115656Y292100D03*
X11344Y280988D03*
X28344Y280988D03*
D11*
X136525Y370119D03*
X136525Y387119D03*
X112713Y370119D03*
X112713Y387119D03*
D10*
X212956Y300831D03*
X229956Y300831D03*
D11*
X185738Y341875D03*
X185738Y324875D03*
D10*
X215338Y158750D03*
X232338Y158750D03*
D12*
X149325Y152400D03*
X98325Y152400D03*
D13*
X91031Y76919D03*
X155031Y76919D03*
X99031Y76919D03*
X147031Y76919D03*
D14*
X125531Y76919D03*
X120531Y76919D03*
X130531Y76919D03*
X135531Y76919D03*
X140531Y76919D03*
X115531Y76919D03*
X110531Y76919D03*
X105531Y76919D03*
D15*
X232287Y132536D02*
X232287Y141912D01*
X236863Y141912D01*
X236863Y132536D01*
X232287Y132536D01*
X232287Y133985D02*
X236863Y133985D01*
X236863Y135434D02*
X232287Y135434D01*
X232287Y136883D02*
X236863Y136883D01*
X236863Y138332D02*
X232287Y138332D01*
X232287Y139781D02*
X236863Y139781D01*
X236863Y141230D02*
X232287Y141230D01*
X223137Y120512D02*
X223137Y111136D01*
X223137Y120512D02*
X227713Y120512D01*
X227713Y111136D01*
X223137Y111136D01*
X223137Y112585D02*
X227713Y112585D01*
X227713Y114034D02*
X223137Y114034D01*
X223137Y115483D02*
X227713Y115483D01*
X227713Y116932D02*
X223137Y116932D01*
X223137Y118381D02*
X227713Y118381D01*
X227713Y119830D02*
X223137Y119830D01*
X213987Y132536D02*
X213987Y141912D01*
X218563Y141912D01*
X218563Y132536D01*
X213987Y132536D01*
X213987Y133985D02*
X218563Y133985D01*
X218563Y135434D02*
X213987Y135434D01*
X213987Y136883D02*
X218563Y136883D01*
X218563Y138332D02*
X213987Y138332D01*
X213987Y139781D02*
X218563Y139781D01*
X218563Y141230D02*
X213987Y141230D01*
D11*
X153756Y346869D03*
X136756Y346869D03*
X165331Y126206D03*
X182331Y126206D03*
X119308Y347186D03*
X102308Y347186D03*
D10*
X59531Y32775D03*
X59531Y49775D03*
X185738Y28806D03*
X185738Y45806D03*
D11*
X194238Y273844D03*
X177238Y273844D03*
X195031Y250825D03*
X178031Y250825D03*
X182331Y105569D03*
X165331Y105569D03*
X135169Y272256D03*
X152169Y272256D03*
D16*
X200388Y379413D03*
X158388Y379413D03*
X48850Y381794D03*
X90850Y381794D03*
D17*
X15875Y302419D03*
D18*
X15875Y353219D03*
D19*
X53975Y220663D03*
X53975Y234663D03*
X67975Y234663D03*
X67975Y206663D03*
X67975Y220663D03*
X39975Y220663D03*
X39975Y234663D03*
X39975Y206663D03*
X53975Y206663D03*
D20*
X37488Y192450D02*
X35462Y192450D01*
X35462Y199876D01*
X37488Y199876D01*
X37488Y192450D01*
X37488Y193091D02*
X35462Y193091D01*
X35462Y193732D02*
X37488Y193732D01*
X37488Y194373D02*
X35462Y194373D01*
X35462Y195014D02*
X37488Y195014D01*
X37488Y195655D02*
X35462Y195655D01*
X35462Y196296D02*
X37488Y196296D01*
X37488Y196937D02*
X35462Y196937D01*
X35462Y197578D02*
X37488Y197578D01*
X37488Y198219D02*
X35462Y198219D01*
X35462Y198860D02*
X37488Y198860D01*
X37488Y199501D02*
X35462Y199501D01*
X40462Y192450D02*
X42488Y192450D01*
X40462Y192450D02*
X40462Y199876D01*
X42488Y199876D01*
X42488Y192450D01*
X42488Y193091D02*
X40462Y193091D01*
X40462Y193732D02*
X42488Y193732D01*
X42488Y194373D02*
X40462Y194373D01*
X40462Y195014D02*
X42488Y195014D01*
X42488Y195655D02*
X40462Y195655D01*
X40462Y196296D02*
X42488Y196296D01*
X42488Y196937D02*
X40462Y196937D01*
X40462Y197578D02*
X42488Y197578D01*
X42488Y198219D02*
X40462Y198219D01*
X40462Y198860D02*
X42488Y198860D01*
X42488Y199501D02*
X40462Y199501D01*
X45462Y192450D02*
X47488Y192450D01*
X45462Y192450D02*
X45462Y199876D01*
X47488Y199876D01*
X47488Y192450D01*
X47488Y193091D02*
X45462Y193091D01*
X45462Y193732D02*
X47488Y193732D01*
X47488Y194373D02*
X45462Y194373D01*
X45462Y195014D02*
X47488Y195014D01*
X47488Y195655D02*
X45462Y195655D01*
X45462Y196296D02*
X47488Y196296D01*
X47488Y196937D02*
X45462Y196937D01*
X45462Y197578D02*
X47488Y197578D01*
X47488Y198219D02*
X45462Y198219D01*
X45462Y198860D02*
X47488Y198860D01*
X47488Y199501D02*
X45462Y199501D01*
X50462Y192450D02*
X52488Y192450D01*
X50462Y192450D02*
X50462Y199876D01*
X52488Y199876D01*
X52488Y192450D01*
X52488Y193091D02*
X50462Y193091D01*
X50462Y193732D02*
X52488Y193732D01*
X52488Y194373D02*
X50462Y194373D01*
X50462Y195014D02*
X52488Y195014D01*
X52488Y195655D02*
X50462Y195655D01*
X50462Y196296D02*
X52488Y196296D01*
X52488Y196937D02*
X50462Y196937D01*
X50462Y197578D02*
X52488Y197578D01*
X52488Y198219D02*
X50462Y198219D01*
X50462Y198860D02*
X52488Y198860D01*
X52488Y199501D02*
X50462Y199501D01*
X55462Y192450D02*
X57488Y192450D01*
X55462Y192450D02*
X55462Y199876D01*
X57488Y199876D01*
X57488Y192450D01*
X57488Y193091D02*
X55462Y193091D01*
X55462Y193732D02*
X57488Y193732D01*
X57488Y194373D02*
X55462Y194373D01*
X55462Y195014D02*
X57488Y195014D01*
X57488Y195655D02*
X55462Y195655D01*
X55462Y196296D02*
X57488Y196296D01*
X57488Y196937D02*
X55462Y196937D01*
X55462Y197578D02*
X57488Y197578D01*
X57488Y198219D02*
X55462Y198219D01*
X55462Y198860D02*
X57488Y198860D01*
X57488Y199501D02*
X55462Y199501D01*
X60462Y192450D02*
X62488Y192450D01*
X60462Y192450D02*
X60462Y199876D01*
X62488Y199876D01*
X62488Y192450D01*
X62488Y193091D02*
X60462Y193091D01*
X60462Y193732D02*
X62488Y193732D01*
X62488Y194373D02*
X60462Y194373D01*
X60462Y195014D02*
X62488Y195014D01*
X62488Y195655D02*
X60462Y195655D01*
X60462Y196296D02*
X62488Y196296D01*
X62488Y196937D02*
X60462Y196937D01*
X60462Y197578D02*
X62488Y197578D01*
X62488Y198219D02*
X60462Y198219D01*
X60462Y198860D02*
X62488Y198860D01*
X62488Y199501D02*
X60462Y199501D01*
X65462Y192450D02*
X67488Y192450D01*
X65462Y192450D02*
X65462Y199876D01*
X67488Y199876D01*
X67488Y192450D01*
X67488Y193091D02*
X65462Y193091D01*
X65462Y193732D02*
X67488Y193732D01*
X67488Y194373D02*
X65462Y194373D01*
X65462Y195014D02*
X67488Y195014D01*
X67488Y195655D02*
X65462Y195655D01*
X65462Y196296D02*
X67488Y196296D01*
X67488Y196937D02*
X65462Y196937D01*
X65462Y197578D02*
X67488Y197578D01*
X67488Y198219D02*
X65462Y198219D01*
X65462Y198860D02*
X67488Y198860D01*
X67488Y199501D02*
X65462Y199501D01*
X70462Y192450D02*
X72488Y192450D01*
X70462Y192450D02*
X70462Y199876D01*
X72488Y199876D01*
X72488Y192450D01*
X72488Y193091D02*
X70462Y193091D01*
X70462Y193732D02*
X72488Y193732D01*
X72488Y194373D02*
X70462Y194373D01*
X70462Y195014D02*
X72488Y195014D01*
X72488Y195655D02*
X70462Y195655D01*
X70462Y196296D02*
X72488Y196296D01*
X72488Y196937D02*
X70462Y196937D01*
X70462Y197578D02*
X72488Y197578D01*
X72488Y198219D02*
X70462Y198219D01*
X70462Y198860D02*
X72488Y198860D01*
X72488Y199501D02*
X70462Y199501D01*
X70462Y241450D02*
X72488Y241450D01*
X70462Y241450D02*
X70462Y248876D01*
X72488Y248876D01*
X72488Y241450D01*
X72488Y242091D02*
X70462Y242091D01*
X70462Y242732D02*
X72488Y242732D01*
X72488Y243373D02*
X70462Y243373D01*
X70462Y244014D02*
X72488Y244014D01*
X72488Y244655D02*
X70462Y244655D01*
X70462Y245296D02*
X72488Y245296D01*
X72488Y245937D02*
X70462Y245937D01*
X70462Y246578D02*
X72488Y246578D01*
X72488Y247219D02*
X70462Y247219D01*
X70462Y247860D02*
X72488Y247860D01*
X72488Y248501D02*
X70462Y248501D01*
X67488Y241450D02*
X65462Y241450D01*
X65462Y248876D01*
X67488Y248876D01*
X67488Y241450D01*
X67488Y242091D02*
X65462Y242091D01*
X65462Y242732D02*
X67488Y242732D01*
X67488Y243373D02*
X65462Y243373D01*
X65462Y244014D02*
X67488Y244014D01*
X67488Y244655D02*
X65462Y244655D01*
X65462Y245296D02*
X67488Y245296D01*
X67488Y245937D02*
X65462Y245937D01*
X65462Y246578D02*
X67488Y246578D01*
X67488Y247219D02*
X65462Y247219D01*
X65462Y247860D02*
X67488Y247860D01*
X67488Y248501D02*
X65462Y248501D01*
X62488Y241450D02*
X60462Y241450D01*
X60462Y248876D01*
X62488Y248876D01*
X62488Y241450D01*
X62488Y242091D02*
X60462Y242091D01*
X60462Y242732D02*
X62488Y242732D01*
X62488Y243373D02*
X60462Y243373D01*
X60462Y244014D02*
X62488Y244014D01*
X62488Y244655D02*
X60462Y244655D01*
X60462Y245296D02*
X62488Y245296D01*
X62488Y245937D02*
X60462Y245937D01*
X60462Y246578D02*
X62488Y246578D01*
X62488Y247219D02*
X60462Y247219D01*
X60462Y247860D02*
X62488Y247860D01*
X62488Y248501D02*
X60462Y248501D01*
X57488Y241450D02*
X55462Y241450D01*
X55462Y248876D01*
X57488Y248876D01*
X57488Y241450D01*
X57488Y242091D02*
X55462Y242091D01*
X55462Y242732D02*
X57488Y242732D01*
X57488Y243373D02*
X55462Y243373D01*
X55462Y244014D02*
X57488Y244014D01*
X57488Y244655D02*
X55462Y244655D01*
X55462Y245296D02*
X57488Y245296D01*
X57488Y245937D02*
X55462Y245937D01*
X55462Y246578D02*
X57488Y246578D01*
X57488Y247219D02*
X55462Y247219D01*
X55462Y247860D02*
X57488Y247860D01*
X57488Y248501D02*
X55462Y248501D01*
X52488Y241450D02*
X50462Y241450D01*
X50462Y248876D01*
X52488Y248876D01*
X52488Y241450D01*
X52488Y242091D02*
X50462Y242091D01*
X50462Y242732D02*
X52488Y242732D01*
X52488Y243373D02*
X50462Y243373D01*
X50462Y244014D02*
X52488Y244014D01*
X52488Y244655D02*
X50462Y244655D01*
X50462Y245296D02*
X52488Y245296D01*
X52488Y245937D02*
X50462Y245937D01*
X50462Y246578D02*
X52488Y246578D01*
X52488Y247219D02*
X50462Y247219D01*
X50462Y247860D02*
X52488Y247860D01*
X52488Y248501D02*
X50462Y248501D01*
X47488Y241450D02*
X45462Y241450D01*
X45462Y248876D01*
X47488Y248876D01*
X47488Y241450D01*
X47488Y242091D02*
X45462Y242091D01*
X45462Y242732D02*
X47488Y242732D01*
X47488Y243373D02*
X45462Y243373D01*
X45462Y244014D02*
X47488Y244014D01*
X47488Y244655D02*
X45462Y244655D01*
X45462Y245296D02*
X47488Y245296D01*
X47488Y245937D02*
X45462Y245937D01*
X45462Y246578D02*
X47488Y246578D01*
X47488Y247219D02*
X45462Y247219D01*
X45462Y247860D02*
X47488Y247860D01*
X47488Y248501D02*
X45462Y248501D01*
X42488Y241450D02*
X40462Y241450D01*
X40462Y248876D01*
X42488Y248876D01*
X42488Y241450D01*
X42488Y242091D02*
X40462Y242091D01*
X40462Y242732D02*
X42488Y242732D01*
X42488Y243373D02*
X40462Y243373D01*
X40462Y244014D02*
X42488Y244014D01*
X42488Y244655D02*
X40462Y244655D01*
X40462Y245296D02*
X42488Y245296D01*
X42488Y245937D02*
X40462Y245937D01*
X40462Y246578D02*
X42488Y246578D01*
X42488Y247219D02*
X40462Y247219D01*
X40462Y247860D02*
X42488Y247860D01*
X42488Y248501D02*
X40462Y248501D01*
X37488Y241450D02*
X35462Y241450D01*
X35462Y248876D01*
X37488Y248876D01*
X37488Y241450D01*
X37488Y242091D02*
X35462Y242091D01*
X35462Y242732D02*
X37488Y242732D01*
X37488Y243373D02*
X35462Y243373D01*
X35462Y244014D02*
X37488Y244014D01*
X37488Y244655D02*
X35462Y244655D01*
X35462Y245296D02*
X37488Y245296D01*
X37488Y245937D02*
X35462Y245937D01*
X35462Y246578D02*
X37488Y246578D01*
X37488Y247219D02*
X35462Y247219D01*
X35462Y247860D02*
X37488Y247860D01*
X37488Y248501D02*
X35462Y248501D01*
X33188Y237150D02*
X25762Y237150D01*
X25762Y239176D01*
X33188Y239176D01*
X33188Y237150D01*
X33188Y237791D02*
X25762Y237791D01*
X25762Y238432D02*
X33188Y238432D01*
X33188Y239073D02*
X25762Y239073D01*
X25762Y232150D02*
X33188Y232150D01*
X25762Y232150D02*
X25762Y234176D01*
X33188Y234176D01*
X33188Y232150D01*
X33188Y232791D02*
X25762Y232791D01*
X25762Y233432D02*
X33188Y233432D01*
X33188Y234073D02*
X25762Y234073D01*
X25762Y227150D02*
X33188Y227150D01*
X25762Y227150D02*
X25762Y229176D01*
X33188Y229176D01*
X33188Y227150D01*
X33188Y227791D02*
X25762Y227791D01*
X25762Y228432D02*
X33188Y228432D01*
X33188Y229073D02*
X25762Y229073D01*
X25762Y222150D02*
X33188Y222150D01*
X25762Y222150D02*
X25762Y224176D01*
X33188Y224176D01*
X33188Y222150D01*
X33188Y222791D02*
X25762Y222791D01*
X25762Y223432D02*
X33188Y223432D01*
X33188Y224073D02*
X25762Y224073D01*
X25762Y217150D02*
X33188Y217150D01*
X25762Y217150D02*
X25762Y219176D01*
X33188Y219176D01*
X33188Y217150D01*
X33188Y217791D02*
X25762Y217791D01*
X25762Y218432D02*
X33188Y218432D01*
X33188Y219073D02*
X25762Y219073D01*
X25762Y212150D02*
X33188Y212150D01*
X25762Y212150D02*
X25762Y214176D01*
X33188Y214176D01*
X33188Y212150D01*
X33188Y212791D02*
X25762Y212791D01*
X25762Y213432D02*
X33188Y213432D01*
X33188Y214073D02*
X25762Y214073D01*
X25762Y207150D02*
X33188Y207150D01*
X25762Y207150D02*
X25762Y209176D01*
X33188Y209176D01*
X33188Y207150D01*
X33188Y207791D02*
X25762Y207791D01*
X25762Y208432D02*
X33188Y208432D01*
X33188Y209073D02*
X25762Y209073D01*
X25762Y202150D02*
X33188Y202150D01*
X25762Y202150D02*
X25762Y204176D01*
X33188Y204176D01*
X33188Y202150D01*
X33188Y202791D02*
X25762Y202791D01*
X25762Y203432D02*
X33188Y203432D01*
X33188Y204073D02*
X25762Y204073D01*
X74762Y202150D02*
X82188Y202150D01*
X74762Y202150D02*
X74762Y204176D01*
X82188Y204176D01*
X82188Y202150D01*
X82188Y202791D02*
X74762Y202791D01*
X74762Y203432D02*
X82188Y203432D01*
X82188Y204073D02*
X74762Y204073D01*
X74762Y207150D02*
X82188Y207150D01*
X74762Y207150D02*
X74762Y209176D01*
X82188Y209176D01*
X82188Y207150D01*
X82188Y207791D02*
X74762Y207791D01*
X74762Y208432D02*
X82188Y208432D01*
X82188Y209073D02*
X74762Y209073D01*
X74762Y212150D02*
X82188Y212150D01*
X74762Y212150D02*
X74762Y214176D01*
X82188Y214176D01*
X82188Y212150D01*
X82188Y212791D02*
X74762Y212791D01*
X74762Y213432D02*
X82188Y213432D01*
X82188Y214073D02*
X74762Y214073D01*
X74762Y217150D02*
X82188Y217150D01*
X74762Y217150D02*
X74762Y219176D01*
X82188Y219176D01*
X82188Y217150D01*
X82188Y217791D02*
X74762Y217791D01*
X74762Y218432D02*
X82188Y218432D01*
X82188Y219073D02*
X74762Y219073D01*
X74762Y222150D02*
X82188Y222150D01*
X74762Y222150D02*
X74762Y224176D01*
X82188Y224176D01*
X82188Y222150D01*
X82188Y222791D02*
X74762Y222791D01*
X74762Y223432D02*
X82188Y223432D01*
X82188Y224073D02*
X74762Y224073D01*
X74762Y227150D02*
X82188Y227150D01*
X74762Y227150D02*
X74762Y229176D01*
X82188Y229176D01*
X82188Y227150D01*
X82188Y227791D02*
X74762Y227791D01*
X74762Y228432D02*
X82188Y228432D01*
X82188Y229073D02*
X74762Y229073D01*
X74762Y232150D02*
X82188Y232150D01*
X74762Y232150D02*
X74762Y234176D01*
X82188Y234176D01*
X82188Y232150D01*
X82188Y232791D02*
X74762Y232791D01*
X74762Y233432D02*
X82188Y233432D01*
X82188Y234073D02*
X74762Y234073D01*
X74762Y237150D02*
X82188Y237150D01*
X74762Y237150D02*
X74762Y239176D01*
X82188Y239176D01*
X82188Y237150D01*
X82188Y237791D02*
X74762Y237791D01*
X74762Y238432D02*
X82188Y238432D01*
X82188Y239073D02*
X74762Y239073D01*
D21*
X186675Y213319D03*
X186675Y208319D03*
X186675Y203319D03*
X186675Y198319D03*
X186675Y193319D03*
X186675Y188319D03*
D22*
X193875Y181119D03*
X198875Y181119D03*
X203875Y181119D03*
X208875Y181119D03*
X213875Y181119D03*
X218875Y181119D03*
D21*
X226075Y188319D03*
X226075Y193319D03*
X226075Y198319D03*
X226075Y203319D03*
X226075Y208319D03*
X226075Y213319D03*
D22*
X218875Y220519D03*
X213875Y220519D03*
X208875Y220519D03*
X203875Y220519D03*
X198875Y220519D03*
X193875Y220519D03*
D23*
X119331Y105569D03*
X126731Y105569D03*
D24*
X112787Y111813D02*
X104575Y111813D01*
X104575Y114325D01*
X112787Y114325D01*
X112787Y111813D01*
X112787Y111993D02*
X104575Y111993D01*
X104575Y112173D02*
X112787Y112173D01*
X112787Y112353D02*
X104575Y112353D01*
X104575Y112533D02*
X112787Y112533D01*
X112787Y112713D02*
X104575Y112713D01*
X104575Y112893D02*
X112787Y112893D01*
X112787Y113073D02*
X104575Y113073D01*
X104575Y113253D02*
X112787Y113253D01*
X112787Y113433D02*
X104575Y113433D01*
X104575Y113613D02*
X112787Y113613D01*
X112787Y113793D02*
X104575Y113793D01*
X104575Y113973D02*
X112787Y113973D01*
X112787Y114153D02*
X104575Y114153D01*
X104575Y106813D02*
X112787Y106813D01*
X104575Y106813D02*
X104575Y109325D01*
X112787Y109325D01*
X112787Y106813D01*
X112787Y106993D02*
X104575Y106993D01*
X104575Y107173D02*
X112787Y107173D01*
X112787Y107353D02*
X104575Y107353D01*
X104575Y107533D02*
X112787Y107533D01*
X112787Y107713D02*
X104575Y107713D01*
X104575Y107893D02*
X112787Y107893D01*
X112787Y108073D02*
X104575Y108073D01*
X104575Y108253D02*
X112787Y108253D01*
X112787Y108433D02*
X104575Y108433D01*
X104575Y108613D02*
X112787Y108613D01*
X112787Y108793D02*
X104575Y108793D01*
X104575Y108973D02*
X112787Y108973D01*
X112787Y109153D02*
X104575Y109153D01*
X104575Y101813D02*
X112787Y101813D01*
X104575Y101813D02*
X104575Y104325D01*
X112787Y104325D01*
X112787Y101813D01*
X112787Y101993D02*
X104575Y101993D01*
X104575Y102173D02*
X112787Y102173D01*
X112787Y102353D02*
X104575Y102353D01*
X104575Y102533D02*
X112787Y102533D01*
X112787Y102713D02*
X104575Y102713D01*
X104575Y102893D02*
X112787Y102893D01*
X112787Y103073D02*
X104575Y103073D01*
X104575Y103253D02*
X112787Y103253D01*
X112787Y103433D02*
X104575Y103433D01*
X104575Y103613D02*
X112787Y103613D01*
X112787Y103793D02*
X104575Y103793D01*
X104575Y103973D02*
X112787Y103973D01*
X112787Y104153D02*
X104575Y104153D01*
X104575Y96813D02*
X112787Y96813D01*
X104575Y96813D02*
X104575Y99325D01*
X112787Y99325D01*
X112787Y96813D01*
X112787Y96993D02*
X104575Y96993D01*
X104575Y97173D02*
X112787Y97173D01*
X112787Y97353D02*
X104575Y97353D01*
X104575Y97533D02*
X112787Y97533D01*
X112787Y97713D02*
X104575Y97713D01*
X104575Y97893D02*
X112787Y97893D01*
X112787Y98073D02*
X104575Y98073D01*
X104575Y98253D02*
X112787Y98253D01*
X112787Y98433D02*
X104575Y98433D01*
X104575Y98613D02*
X112787Y98613D01*
X112787Y98793D02*
X104575Y98793D01*
X104575Y98973D02*
X112787Y98973D01*
X112787Y99153D02*
X104575Y99153D01*
X133275Y99325D02*
X141487Y99325D01*
X141487Y96813D01*
X133275Y96813D01*
X133275Y99325D01*
X133275Y96993D02*
X141487Y96993D01*
X141487Y97173D02*
X133275Y97173D01*
X133275Y97353D02*
X141487Y97353D01*
X141487Y97533D02*
X133275Y97533D01*
X133275Y97713D02*
X141487Y97713D01*
X141487Y97893D02*
X133275Y97893D01*
X133275Y98073D02*
X141487Y98073D01*
X141487Y98253D02*
X133275Y98253D01*
X133275Y98433D02*
X141487Y98433D01*
X141487Y98613D02*
X133275Y98613D01*
X133275Y98793D02*
X141487Y98793D01*
X141487Y98973D02*
X133275Y98973D01*
X133275Y99153D02*
X141487Y99153D01*
X141487Y104325D02*
X133275Y104325D01*
X141487Y104325D02*
X141487Y101813D01*
X133275Y101813D01*
X133275Y104325D01*
X133275Y101993D02*
X141487Y101993D01*
X141487Y102173D02*
X133275Y102173D01*
X133275Y102353D02*
X141487Y102353D01*
X141487Y102533D02*
X133275Y102533D01*
X133275Y102713D02*
X141487Y102713D01*
X141487Y102893D02*
X133275Y102893D01*
X133275Y103073D02*
X141487Y103073D01*
X141487Y103253D02*
X133275Y103253D01*
X133275Y103433D02*
X141487Y103433D01*
X141487Y103613D02*
X133275Y103613D01*
X133275Y103793D02*
X141487Y103793D01*
X141487Y103973D02*
X133275Y103973D01*
X133275Y104153D02*
X141487Y104153D01*
X141487Y109325D02*
X133275Y109325D01*
X141487Y109325D02*
X141487Y106813D01*
X133275Y106813D01*
X133275Y109325D01*
X133275Y106993D02*
X141487Y106993D01*
X141487Y107173D02*
X133275Y107173D01*
X133275Y107353D02*
X141487Y107353D01*
X141487Y107533D02*
X133275Y107533D01*
X133275Y107713D02*
X141487Y107713D01*
X141487Y107893D02*
X133275Y107893D01*
X133275Y108073D02*
X141487Y108073D01*
X141487Y108253D02*
X133275Y108253D01*
X133275Y108433D02*
X141487Y108433D01*
X141487Y108613D02*
X133275Y108613D01*
X133275Y108793D02*
X141487Y108793D01*
X141487Y108973D02*
X133275Y108973D01*
X133275Y109153D02*
X141487Y109153D01*
X141487Y114325D02*
X133275Y114325D01*
X141487Y114325D02*
X141487Y111813D01*
X133275Y111813D01*
X133275Y114325D01*
X133275Y111993D02*
X141487Y111993D01*
X141487Y112173D02*
X133275Y112173D01*
X133275Y112353D02*
X141487Y112353D01*
X141487Y112533D02*
X133275Y112533D01*
X133275Y112713D02*
X141487Y112713D01*
X141487Y112893D02*
X133275Y112893D01*
X133275Y113073D02*
X141487Y113073D01*
X141487Y113253D02*
X133275Y113253D01*
X133275Y113433D02*
X141487Y113433D01*
X141487Y113613D02*
X133275Y113613D01*
X133275Y113793D02*
X141487Y113793D01*
X141487Y113973D02*
X133275Y113973D01*
X133275Y114153D02*
X141487Y114153D01*
D25*
X227679Y337430D02*
X227679Y348080D01*
X232329Y348080D01*
X232329Y337430D01*
X227679Y337430D01*
X227679Y338902D02*
X232329Y338902D01*
X232329Y340374D02*
X227679Y340374D01*
X227679Y341846D02*
X232329Y341846D01*
X232329Y343318D02*
X227679Y343318D01*
X227679Y344790D02*
X232329Y344790D01*
X232329Y346262D02*
X227679Y346262D01*
X227679Y347734D02*
X232329Y347734D01*
X208679Y348080D02*
X208679Y337430D01*
X208679Y348080D02*
X213329Y348080D01*
X213329Y337430D01*
X208679Y337430D01*
X208679Y338902D02*
X213329Y338902D01*
X213329Y340374D02*
X208679Y340374D01*
X208679Y341846D02*
X213329Y341846D01*
X213329Y343318D02*
X208679Y343318D01*
X208679Y344790D02*
X213329Y344790D01*
X213329Y346262D02*
X208679Y346262D01*
X208679Y347734D02*
X213329Y347734D01*
X218179Y326780D02*
X218179Y316130D01*
X218179Y326780D02*
X222829Y326780D01*
X222829Y316130D01*
X218179Y316130D01*
X218179Y317602D02*
X222829Y317602D01*
X222829Y319074D02*
X218179Y319074D01*
X218179Y320546D02*
X222829Y320546D01*
X222829Y322018D02*
X218179Y322018D01*
X218179Y323490D02*
X222829Y323490D01*
X222829Y324962D02*
X218179Y324962D01*
X218179Y326434D02*
X222829Y326434D01*
D26*
X75514Y267474D03*
X75514Y280214D03*
X65774Y280214D03*
X65774Y267474D03*
D11*
X74381Y171450D03*
X57381Y171450D03*
D10*
X11344Y259556D03*
X28344Y259556D03*
D27*
X118706Y129381D03*
X133706Y129381D03*
X59175Y145256D03*
X74175Y145256D03*
M02*
