G04 EAGLE Gerber RS-274X export*
G75*
%MOMM*%
%FSLAX34Y34*%
%LPD*%
%INSilkscreen Top*%
%IPPOS*%
%AMOC8*
5,1,8,0,0,1.08239X$1,22.5*%
G01*
%ADD10C,0.050800*%
%ADD11C,0.076200*%
%ADD12C,0.254000*%
%ADD13R,0.300000X2.100000*%
%ADD14C,0.200000*%
%ADD15C,0.100000*%
%ADD16C,0.127000*%
%ADD17C,0.101600*%
%ADD18R,0.250000X0.225000*%


D10*
X4858Y47085D02*
X10446Y48327D01*
X6720Y49569D01*
X10446Y50811D01*
X4858Y52052D01*
X6720Y54141D02*
X10446Y54141D01*
X5168Y53986D02*
X4858Y53986D01*
X4858Y54296D01*
X5168Y54296D01*
X5168Y53986D01*
X4858Y56443D02*
X9514Y56443D01*
X9572Y56445D01*
X9631Y56450D01*
X9688Y56459D01*
X9746Y56472D01*
X9802Y56489D01*
X9857Y56508D01*
X9910Y56532D01*
X9963Y56558D01*
X10013Y56588D01*
X10061Y56621D01*
X10107Y56657D01*
X10151Y56695D01*
X10193Y56737D01*
X10231Y56781D01*
X10267Y56827D01*
X10300Y56875D01*
X10330Y56925D01*
X10356Y56978D01*
X10380Y57031D01*
X10399Y57086D01*
X10416Y57142D01*
X10429Y57200D01*
X10438Y57257D01*
X10443Y57316D01*
X10445Y57374D01*
X8273Y59765D02*
X8894Y61318D01*
X8272Y59765D02*
X8250Y59714D01*
X8224Y59665D01*
X8195Y59617D01*
X8162Y59572D01*
X8126Y59529D01*
X8088Y59488D01*
X8046Y59451D01*
X8003Y59416D01*
X7957Y59384D01*
X7908Y59356D01*
X7858Y59331D01*
X7807Y59310D01*
X7754Y59292D01*
X7700Y59278D01*
X7645Y59268D01*
X7589Y59262D01*
X7534Y59259D01*
X7478Y59260D01*
X7422Y59266D01*
X7367Y59275D01*
X7313Y59287D01*
X7259Y59304D01*
X7207Y59324D01*
X7157Y59348D01*
X7108Y59375D01*
X7061Y59406D01*
X7017Y59440D01*
X6975Y59476D01*
X6935Y59516D01*
X6899Y59558D01*
X6865Y59603D01*
X6835Y59650D01*
X6808Y59698D01*
X6784Y59749D01*
X6764Y59801D01*
X6748Y59855D01*
X6735Y59909D01*
X6726Y59964D01*
X6721Y60020D01*
X6720Y60076D01*
X6720Y60075D02*
X6724Y60186D01*
X6730Y60297D01*
X6741Y60407D01*
X6755Y60517D01*
X6772Y60627D01*
X6792Y60736D01*
X6816Y60844D01*
X6844Y60951D01*
X6875Y61058D01*
X6909Y61163D01*
X6946Y61268D01*
X6987Y61371D01*
X7031Y61473D01*
X8894Y61318D02*
X8916Y61369D01*
X8942Y61418D01*
X8971Y61466D01*
X9004Y61511D01*
X9040Y61554D01*
X9078Y61595D01*
X9120Y61632D01*
X9163Y61667D01*
X9209Y61699D01*
X9258Y61727D01*
X9308Y61752D01*
X9359Y61773D01*
X9412Y61791D01*
X9466Y61805D01*
X9521Y61815D01*
X9577Y61821D01*
X9632Y61824D01*
X9688Y61823D01*
X9744Y61817D01*
X9799Y61808D01*
X9853Y61796D01*
X9907Y61779D01*
X9959Y61759D01*
X10009Y61735D01*
X10058Y61708D01*
X10105Y61677D01*
X10149Y61643D01*
X10191Y61607D01*
X10231Y61567D01*
X10267Y61525D01*
X10301Y61480D01*
X10331Y61433D01*
X10358Y61385D01*
X10382Y61334D01*
X10402Y61282D01*
X10418Y61228D01*
X10431Y61174D01*
X10440Y61119D01*
X10445Y61063D01*
X10446Y61007D01*
X10445Y61007D02*
X10442Y60873D01*
X10435Y60739D01*
X10424Y60605D01*
X10411Y60472D01*
X10393Y60339D01*
X10373Y60206D01*
X10349Y60074D01*
X10321Y59943D01*
X10291Y59812D01*
X10257Y59683D01*
X10219Y59554D01*
X10179Y59426D01*
X10135Y59299D01*
X9204Y64055D02*
X7962Y64055D01*
X7962Y64054D02*
X7892Y64056D01*
X7823Y64062D01*
X7754Y64072D01*
X7686Y64085D01*
X7618Y64103D01*
X7552Y64124D01*
X7487Y64149D01*
X7423Y64177D01*
X7361Y64209D01*
X7301Y64244D01*
X7243Y64283D01*
X7188Y64325D01*
X7134Y64370D01*
X7084Y64418D01*
X7036Y64468D01*
X6991Y64522D01*
X6949Y64577D01*
X6910Y64635D01*
X6875Y64695D01*
X6843Y64757D01*
X6815Y64821D01*
X6790Y64886D01*
X6769Y64952D01*
X6751Y65020D01*
X6738Y65088D01*
X6728Y65157D01*
X6722Y65226D01*
X6720Y65296D01*
X6722Y65366D01*
X6728Y65435D01*
X6738Y65504D01*
X6751Y65572D01*
X6769Y65640D01*
X6790Y65706D01*
X6815Y65771D01*
X6843Y65835D01*
X6875Y65897D01*
X6910Y65957D01*
X6949Y66015D01*
X6991Y66070D01*
X7036Y66124D01*
X7084Y66174D01*
X7134Y66222D01*
X7188Y66267D01*
X7243Y66309D01*
X7301Y66348D01*
X7361Y66383D01*
X7423Y66415D01*
X7487Y66443D01*
X7552Y66468D01*
X7618Y66489D01*
X7686Y66507D01*
X7754Y66520D01*
X7823Y66530D01*
X7892Y66536D01*
X7962Y66538D01*
X9204Y66538D01*
X9274Y66536D01*
X9343Y66530D01*
X9412Y66520D01*
X9480Y66507D01*
X9548Y66489D01*
X9614Y66468D01*
X9679Y66443D01*
X9743Y66415D01*
X9805Y66383D01*
X9865Y66348D01*
X9923Y66309D01*
X9978Y66267D01*
X10032Y66222D01*
X10082Y66174D01*
X10130Y66124D01*
X10175Y66070D01*
X10217Y66015D01*
X10256Y65957D01*
X10291Y65897D01*
X10323Y65835D01*
X10351Y65771D01*
X10376Y65706D01*
X10397Y65640D01*
X10415Y65572D01*
X10428Y65504D01*
X10438Y65435D01*
X10444Y65366D01*
X10446Y65296D01*
X10444Y65226D01*
X10438Y65157D01*
X10428Y65088D01*
X10415Y65020D01*
X10397Y64952D01*
X10376Y64886D01*
X10351Y64821D01*
X10323Y64757D01*
X10291Y64695D01*
X10256Y64635D01*
X10217Y64577D01*
X10175Y64522D01*
X10130Y64468D01*
X10082Y64418D01*
X10032Y64370D01*
X9978Y64325D01*
X9923Y64283D01*
X9865Y64244D01*
X9805Y64209D01*
X9743Y64177D01*
X9679Y64149D01*
X9614Y64124D01*
X9548Y64103D01*
X9480Y64085D01*
X9412Y64072D01*
X9343Y64062D01*
X9274Y64056D01*
X9204Y64054D01*
X10446Y68992D02*
X6720Y68992D01*
X6720Y70545D01*
X6721Y70545D02*
X6723Y70603D01*
X6728Y70662D01*
X6737Y70719D01*
X6750Y70777D01*
X6767Y70833D01*
X6786Y70888D01*
X6810Y70941D01*
X6836Y70994D01*
X6866Y71044D01*
X6899Y71092D01*
X6935Y71138D01*
X6973Y71182D01*
X7015Y71224D01*
X7059Y71262D01*
X7105Y71298D01*
X7153Y71331D01*
X7203Y71361D01*
X7256Y71387D01*
X7309Y71411D01*
X7364Y71430D01*
X7420Y71447D01*
X7478Y71460D01*
X7535Y71469D01*
X7594Y71474D01*
X7652Y71476D01*
X10446Y71476D01*
X7341Y79267D02*
X7341Y80199D01*
X10446Y80199D01*
X10446Y78336D01*
X10444Y78266D01*
X10438Y78197D01*
X10428Y78128D01*
X10415Y78060D01*
X10397Y77992D01*
X10376Y77926D01*
X10351Y77861D01*
X10323Y77797D01*
X10291Y77735D01*
X10256Y77675D01*
X10217Y77617D01*
X10175Y77562D01*
X10130Y77508D01*
X10082Y77458D01*
X10032Y77410D01*
X9978Y77365D01*
X9923Y77323D01*
X9865Y77284D01*
X9805Y77249D01*
X9743Y77217D01*
X9679Y77189D01*
X9614Y77164D01*
X9548Y77143D01*
X9480Y77125D01*
X9412Y77112D01*
X9343Y77102D01*
X9274Y77096D01*
X9204Y77094D01*
X6100Y77094D01*
X6030Y77096D01*
X5961Y77102D01*
X5892Y77112D01*
X5824Y77125D01*
X5756Y77143D01*
X5690Y77164D01*
X5625Y77189D01*
X5561Y77217D01*
X5499Y77249D01*
X5439Y77284D01*
X5381Y77323D01*
X5326Y77365D01*
X5272Y77410D01*
X5222Y77458D01*
X5174Y77508D01*
X5129Y77562D01*
X5087Y77617D01*
X5048Y77675D01*
X5013Y77735D01*
X4981Y77797D01*
X4953Y77861D01*
X4928Y77926D01*
X4907Y77992D01*
X4889Y78060D01*
X4876Y78128D01*
X4866Y78197D01*
X4860Y78266D01*
X4858Y78336D01*
X4858Y80199D01*
X6720Y82891D02*
X9514Y82891D01*
X9572Y82893D01*
X9631Y82898D01*
X9688Y82907D01*
X9746Y82920D01*
X9802Y82937D01*
X9857Y82956D01*
X9910Y82980D01*
X9963Y83006D01*
X10013Y83036D01*
X10061Y83069D01*
X10107Y83105D01*
X10151Y83143D01*
X10193Y83185D01*
X10231Y83229D01*
X10267Y83275D01*
X10300Y83323D01*
X10330Y83373D01*
X10356Y83426D01*
X10380Y83479D01*
X10399Y83534D01*
X10416Y83590D01*
X10429Y83648D01*
X10438Y83705D01*
X10443Y83764D01*
X10445Y83822D01*
X10446Y83822D02*
X10446Y85375D01*
X6720Y85375D01*
X10446Y88760D02*
X10446Y90312D01*
X10445Y88760D02*
X10443Y88702D01*
X10438Y88643D01*
X10429Y88586D01*
X10416Y88528D01*
X10399Y88472D01*
X10380Y88417D01*
X10356Y88364D01*
X10330Y88311D01*
X10300Y88261D01*
X10267Y88213D01*
X10231Y88167D01*
X10193Y88123D01*
X10151Y88081D01*
X10107Y88043D01*
X10061Y88007D01*
X10013Y87974D01*
X9963Y87944D01*
X9910Y87918D01*
X9857Y87894D01*
X9802Y87875D01*
X9746Y87858D01*
X9688Y87845D01*
X9631Y87836D01*
X9572Y87831D01*
X9514Y87829D01*
X7962Y87829D01*
X7892Y87831D01*
X7823Y87837D01*
X7754Y87847D01*
X7686Y87860D01*
X7618Y87878D01*
X7552Y87899D01*
X7487Y87924D01*
X7423Y87952D01*
X7361Y87984D01*
X7301Y88019D01*
X7243Y88058D01*
X7188Y88100D01*
X7134Y88145D01*
X7084Y88193D01*
X7036Y88243D01*
X6991Y88297D01*
X6949Y88352D01*
X6910Y88410D01*
X6875Y88470D01*
X6843Y88532D01*
X6815Y88596D01*
X6790Y88661D01*
X6769Y88727D01*
X6751Y88795D01*
X6738Y88863D01*
X6728Y88932D01*
X6722Y89001D01*
X6720Y89071D01*
X6722Y89141D01*
X6728Y89210D01*
X6738Y89279D01*
X6751Y89347D01*
X6769Y89415D01*
X6790Y89481D01*
X6815Y89546D01*
X6843Y89610D01*
X6875Y89672D01*
X6910Y89732D01*
X6949Y89790D01*
X6991Y89845D01*
X7036Y89899D01*
X7084Y89949D01*
X7134Y89997D01*
X7188Y90042D01*
X7243Y90084D01*
X7301Y90123D01*
X7361Y90158D01*
X7423Y90190D01*
X7487Y90218D01*
X7552Y90243D01*
X7618Y90264D01*
X7686Y90282D01*
X7754Y90295D01*
X7823Y90305D01*
X7892Y90311D01*
X7962Y90313D01*
X7962Y90312D02*
X8583Y90312D01*
X8583Y87829D01*
X10446Y92799D02*
X6720Y92799D01*
X6720Y94662D01*
X7341Y94662D01*
X6720Y96639D02*
X10446Y96639D01*
X6720Y96639D02*
X6720Y98502D01*
X7341Y98502D01*
X10446Y101196D02*
X10446Y102748D01*
X10445Y101196D02*
X10443Y101138D01*
X10438Y101079D01*
X10429Y101022D01*
X10416Y100964D01*
X10399Y100908D01*
X10380Y100853D01*
X10356Y100800D01*
X10330Y100747D01*
X10300Y100697D01*
X10267Y100649D01*
X10231Y100603D01*
X10193Y100559D01*
X10151Y100517D01*
X10107Y100479D01*
X10061Y100443D01*
X10013Y100410D01*
X9963Y100380D01*
X9910Y100354D01*
X9857Y100330D01*
X9802Y100311D01*
X9746Y100294D01*
X9688Y100281D01*
X9631Y100272D01*
X9572Y100267D01*
X9514Y100265D01*
X7962Y100265D01*
X7962Y100264D02*
X7892Y100266D01*
X7823Y100272D01*
X7754Y100282D01*
X7686Y100295D01*
X7618Y100313D01*
X7552Y100334D01*
X7487Y100359D01*
X7423Y100387D01*
X7361Y100419D01*
X7301Y100454D01*
X7243Y100493D01*
X7188Y100535D01*
X7134Y100580D01*
X7084Y100628D01*
X7036Y100678D01*
X6991Y100732D01*
X6949Y100787D01*
X6910Y100845D01*
X6875Y100905D01*
X6843Y100967D01*
X6815Y101031D01*
X6790Y101096D01*
X6769Y101162D01*
X6751Y101230D01*
X6738Y101298D01*
X6728Y101367D01*
X6722Y101436D01*
X6720Y101506D01*
X6722Y101576D01*
X6728Y101645D01*
X6738Y101714D01*
X6751Y101782D01*
X6769Y101850D01*
X6790Y101916D01*
X6815Y101981D01*
X6843Y102045D01*
X6875Y102107D01*
X6910Y102167D01*
X6949Y102225D01*
X6991Y102280D01*
X7036Y102334D01*
X7084Y102384D01*
X7134Y102432D01*
X7188Y102477D01*
X7243Y102519D01*
X7301Y102558D01*
X7361Y102593D01*
X7423Y102625D01*
X7487Y102653D01*
X7552Y102678D01*
X7618Y102699D01*
X7686Y102717D01*
X7754Y102730D01*
X7823Y102740D01*
X7892Y102746D01*
X7962Y102748D01*
X8583Y102748D01*
X8583Y100265D01*
X10446Y105235D02*
X6720Y105235D01*
X6720Y107097D01*
X7341Y107097D01*
X7962Y108860D02*
X9204Y108860D01*
X7962Y108860D02*
X7892Y108862D01*
X7823Y108868D01*
X7754Y108878D01*
X7686Y108891D01*
X7618Y108909D01*
X7552Y108930D01*
X7487Y108955D01*
X7423Y108983D01*
X7361Y109015D01*
X7301Y109050D01*
X7243Y109089D01*
X7188Y109131D01*
X7134Y109176D01*
X7084Y109224D01*
X7036Y109274D01*
X6991Y109328D01*
X6949Y109383D01*
X6910Y109441D01*
X6875Y109501D01*
X6843Y109563D01*
X6815Y109627D01*
X6790Y109692D01*
X6769Y109758D01*
X6751Y109826D01*
X6738Y109894D01*
X6728Y109963D01*
X6722Y110032D01*
X6720Y110102D01*
X6722Y110172D01*
X6728Y110241D01*
X6738Y110310D01*
X6751Y110378D01*
X6769Y110446D01*
X6790Y110512D01*
X6815Y110577D01*
X6843Y110641D01*
X6875Y110703D01*
X6910Y110763D01*
X6949Y110821D01*
X6991Y110876D01*
X7036Y110930D01*
X7084Y110980D01*
X7134Y111028D01*
X7188Y111073D01*
X7243Y111115D01*
X7301Y111154D01*
X7361Y111189D01*
X7423Y111221D01*
X7487Y111249D01*
X7552Y111274D01*
X7618Y111295D01*
X7686Y111313D01*
X7754Y111326D01*
X7823Y111336D01*
X7892Y111342D01*
X7962Y111344D01*
X7962Y111343D02*
X9204Y111343D01*
X9204Y111344D02*
X9274Y111342D01*
X9343Y111336D01*
X9412Y111326D01*
X9480Y111313D01*
X9548Y111295D01*
X9614Y111274D01*
X9679Y111249D01*
X9743Y111221D01*
X9805Y111189D01*
X9865Y111154D01*
X9923Y111115D01*
X9978Y111073D01*
X10032Y111028D01*
X10082Y110980D01*
X10130Y110930D01*
X10175Y110876D01*
X10217Y110821D01*
X10256Y110763D01*
X10291Y110703D01*
X10323Y110641D01*
X10351Y110577D01*
X10376Y110512D01*
X10397Y110446D01*
X10415Y110378D01*
X10428Y110310D01*
X10438Y110241D01*
X10444Y110172D01*
X10446Y110102D01*
X10444Y110032D01*
X10438Y109963D01*
X10428Y109894D01*
X10415Y109826D01*
X10397Y109758D01*
X10376Y109692D01*
X10351Y109627D01*
X10323Y109563D01*
X10291Y109501D01*
X10256Y109441D01*
X10217Y109383D01*
X10175Y109328D01*
X10130Y109274D01*
X10082Y109224D01*
X10032Y109176D01*
X9978Y109131D01*
X9923Y109089D01*
X9865Y109050D01*
X9805Y109015D01*
X9743Y108983D01*
X9679Y108955D01*
X9614Y108930D01*
X9548Y108909D01*
X9480Y108891D01*
X9412Y108878D01*
X9343Y108868D01*
X9274Y108862D01*
X9204Y108860D01*
X10446Y116790D02*
X4858Y116790D01*
X4858Y119273D01*
X7341Y119273D02*
X7341Y116790D01*
X10135Y121102D02*
X10446Y121102D01*
X10135Y121102D02*
X10135Y121412D01*
X10446Y121412D01*
X10446Y121102D01*
X14002Y48948D02*
X18348Y48948D01*
X18418Y48946D01*
X18487Y48940D01*
X18556Y48930D01*
X18624Y48917D01*
X18692Y48899D01*
X18758Y48878D01*
X18823Y48853D01*
X18887Y48825D01*
X18949Y48793D01*
X19009Y48758D01*
X19067Y48719D01*
X19122Y48677D01*
X19176Y48632D01*
X19226Y48584D01*
X19274Y48534D01*
X19319Y48480D01*
X19361Y48425D01*
X19400Y48367D01*
X19435Y48307D01*
X19467Y48245D01*
X19495Y48181D01*
X19520Y48116D01*
X19541Y48050D01*
X19559Y47982D01*
X19572Y47914D01*
X19582Y47845D01*
X19588Y47776D01*
X19590Y47706D01*
X19590Y47085D01*
X18658Y51618D02*
X15864Y51618D01*
X18658Y51618D02*
X18716Y51620D01*
X18775Y51625D01*
X18832Y51634D01*
X18890Y51647D01*
X18946Y51664D01*
X19001Y51683D01*
X19054Y51707D01*
X19107Y51733D01*
X19157Y51763D01*
X19205Y51796D01*
X19251Y51832D01*
X19295Y51870D01*
X19337Y51912D01*
X19375Y51956D01*
X19411Y52002D01*
X19444Y52050D01*
X19474Y52100D01*
X19500Y52153D01*
X19524Y52206D01*
X19543Y52261D01*
X19560Y52317D01*
X19573Y52375D01*
X19582Y52432D01*
X19587Y52491D01*
X19589Y52549D01*
X19590Y52549D02*
X19590Y54101D01*
X15864Y54101D01*
X17417Y57613D02*
X17417Y59010D01*
X17416Y57613D02*
X17418Y57549D01*
X17424Y57484D01*
X17433Y57421D01*
X17446Y57358D01*
X17463Y57296D01*
X17484Y57235D01*
X17508Y57175D01*
X17536Y57117D01*
X17567Y57060D01*
X17601Y57006D01*
X17639Y56953D01*
X17680Y56903D01*
X17723Y56856D01*
X17769Y56811D01*
X17818Y56769D01*
X17869Y56730D01*
X17923Y56694D01*
X17978Y56661D01*
X18036Y56632D01*
X18094Y56606D01*
X18155Y56583D01*
X18216Y56564D01*
X18279Y56549D01*
X18343Y56538D01*
X18406Y56530D01*
X18471Y56526D01*
X18535Y56526D01*
X18600Y56530D01*
X18663Y56538D01*
X18727Y56549D01*
X18790Y56564D01*
X18851Y56583D01*
X18912Y56606D01*
X18970Y56632D01*
X19028Y56661D01*
X19083Y56694D01*
X19137Y56730D01*
X19188Y56769D01*
X19237Y56811D01*
X19283Y56856D01*
X19326Y56903D01*
X19367Y56953D01*
X19405Y57006D01*
X19439Y57060D01*
X19470Y57117D01*
X19498Y57175D01*
X19522Y57235D01*
X19543Y57296D01*
X19560Y57358D01*
X19573Y57421D01*
X19582Y57484D01*
X19588Y57549D01*
X19590Y57613D01*
X19590Y59010D01*
X16796Y59010D01*
X16738Y59008D01*
X16679Y59003D01*
X16622Y58994D01*
X16564Y58981D01*
X16508Y58964D01*
X16453Y58945D01*
X16400Y58921D01*
X16347Y58895D01*
X16297Y58865D01*
X16249Y58832D01*
X16203Y58796D01*
X16159Y58758D01*
X16117Y58716D01*
X16079Y58672D01*
X16043Y58626D01*
X16010Y58578D01*
X15980Y58528D01*
X15954Y58475D01*
X15930Y58422D01*
X15911Y58367D01*
X15894Y58311D01*
X15881Y58253D01*
X15872Y58196D01*
X15867Y58137D01*
X15865Y58079D01*
X15864Y58079D02*
X15864Y56837D01*
X15864Y61676D02*
X19590Y61676D01*
X15864Y61676D02*
X15864Y63228D01*
X15865Y63228D02*
X15867Y63286D01*
X15872Y63345D01*
X15881Y63402D01*
X15894Y63460D01*
X15911Y63516D01*
X15930Y63571D01*
X15954Y63624D01*
X15980Y63677D01*
X16010Y63727D01*
X16043Y63775D01*
X16079Y63821D01*
X16117Y63865D01*
X16159Y63907D01*
X16203Y63945D01*
X16249Y63981D01*
X16297Y64014D01*
X16347Y64044D01*
X16400Y64070D01*
X16453Y64094D01*
X16508Y64113D01*
X16564Y64130D01*
X16622Y64143D01*
X16679Y64152D01*
X16738Y64157D01*
X16796Y64159D01*
X19590Y64159D01*
X19590Y69778D02*
X14002Y69778D01*
X14002Y71330D01*
X14004Y71406D01*
X14009Y71482D01*
X14019Y71558D01*
X14032Y71633D01*
X14049Y71707D01*
X14069Y71781D01*
X14093Y71853D01*
X14120Y71924D01*
X14151Y71994D01*
X14185Y72062D01*
X14223Y72128D01*
X14264Y72192D01*
X14307Y72255D01*
X14354Y72315D01*
X14404Y72372D01*
X14457Y72427D01*
X14512Y72480D01*
X14569Y72530D01*
X14629Y72577D01*
X14692Y72620D01*
X14756Y72661D01*
X14822Y72699D01*
X14890Y72733D01*
X14960Y72764D01*
X15031Y72791D01*
X15104Y72815D01*
X15177Y72835D01*
X15251Y72852D01*
X15326Y72865D01*
X15402Y72875D01*
X15478Y72880D01*
X15554Y72882D01*
X18038Y72882D01*
X18114Y72880D01*
X18190Y72875D01*
X18266Y72865D01*
X18341Y72852D01*
X18415Y72835D01*
X18489Y72815D01*
X18561Y72791D01*
X18632Y72764D01*
X18702Y72733D01*
X18770Y72699D01*
X18836Y72661D01*
X18900Y72620D01*
X18963Y72577D01*
X19023Y72530D01*
X19080Y72480D01*
X19135Y72427D01*
X19188Y72372D01*
X19238Y72315D01*
X19285Y72255D01*
X19328Y72192D01*
X19369Y72128D01*
X19407Y72062D01*
X19441Y71994D01*
X19472Y71924D01*
X19499Y71853D01*
X19523Y71781D01*
X19543Y71707D01*
X19560Y71633D01*
X19573Y71558D01*
X19583Y71482D01*
X19588Y71406D01*
X19590Y71330D01*
X19590Y69778D01*
X17417Y76449D02*
X17417Y77846D01*
X17416Y76449D02*
X17418Y76385D01*
X17424Y76320D01*
X17433Y76257D01*
X17446Y76194D01*
X17463Y76132D01*
X17484Y76071D01*
X17508Y76011D01*
X17536Y75953D01*
X17567Y75896D01*
X17601Y75842D01*
X17639Y75789D01*
X17680Y75739D01*
X17723Y75692D01*
X17769Y75647D01*
X17818Y75605D01*
X17869Y75566D01*
X17923Y75530D01*
X17978Y75497D01*
X18036Y75468D01*
X18094Y75442D01*
X18155Y75419D01*
X18216Y75400D01*
X18279Y75385D01*
X18343Y75374D01*
X18406Y75366D01*
X18471Y75362D01*
X18535Y75362D01*
X18600Y75366D01*
X18663Y75374D01*
X18727Y75385D01*
X18790Y75400D01*
X18851Y75419D01*
X18912Y75442D01*
X18970Y75468D01*
X19028Y75497D01*
X19083Y75530D01*
X19137Y75566D01*
X19188Y75605D01*
X19237Y75647D01*
X19283Y75692D01*
X19326Y75739D01*
X19367Y75789D01*
X19405Y75842D01*
X19439Y75896D01*
X19470Y75953D01*
X19498Y76011D01*
X19522Y76071D01*
X19543Y76132D01*
X19560Y76194D01*
X19573Y76257D01*
X19582Y76320D01*
X19588Y76385D01*
X19590Y76449D01*
X19590Y77846D01*
X16796Y77846D01*
X16738Y77844D01*
X16679Y77839D01*
X16622Y77830D01*
X16564Y77817D01*
X16508Y77800D01*
X16453Y77781D01*
X16400Y77757D01*
X16347Y77731D01*
X16297Y77701D01*
X16249Y77668D01*
X16203Y77632D01*
X16159Y77594D01*
X16117Y77552D01*
X16079Y77508D01*
X16043Y77462D01*
X16010Y77414D01*
X15980Y77364D01*
X15954Y77311D01*
X15930Y77258D01*
X15911Y77203D01*
X15894Y77147D01*
X15881Y77089D01*
X15872Y77032D01*
X15867Y76973D01*
X15865Y76915D01*
X15864Y76915D02*
X15864Y75673D01*
X15864Y80147D02*
X19590Y81388D01*
X15864Y82630D01*
X15864Y84680D02*
X19590Y84680D01*
X14312Y84525D02*
X14002Y84525D01*
X14002Y84835D01*
X14312Y84835D01*
X14312Y84525D01*
X14002Y89368D02*
X19590Y89368D01*
X19590Y87815D01*
X19589Y87815D02*
X19587Y87757D01*
X19582Y87698D01*
X19573Y87641D01*
X19560Y87583D01*
X19543Y87527D01*
X19524Y87472D01*
X19500Y87419D01*
X19474Y87366D01*
X19444Y87316D01*
X19411Y87268D01*
X19375Y87222D01*
X19337Y87178D01*
X19295Y87136D01*
X19251Y87098D01*
X19205Y87062D01*
X19157Y87029D01*
X19107Y86999D01*
X19054Y86973D01*
X19001Y86949D01*
X18946Y86930D01*
X18890Y86913D01*
X18832Y86900D01*
X18775Y86891D01*
X18716Y86886D01*
X18658Y86884D01*
X16796Y86884D01*
X16738Y86886D01*
X16679Y86891D01*
X16622Y86900D01*
X16564Y86913D01*
X16508Y86930D01*
X16453Y86949D01*
X16400Y86973D01*
X16347Y86999D01*
X16297Y87029D01*
X16249Y87062D01*
X16203Y87098D01*
X16159Y87136D01*
X16117Y87178D01*
X16079Y87222D01*
X16043Y87268D01*
X16010Y87316D01*
X15980Y87366D01*
X15954Y87419D01*
X15930Y87472D01*
X15911Y87527D01*
X15894Y87583D01*
X15881Y87641D01*
X15872Y87698D01*
X15867Y87757D01*
X15865Y87815D01*
X15864Y87815D02*
X15864Y89368D01*
X14002Y95015D02*
X19590Y95015D01*
X16485Y95015D02*
X16485Y98119D01*
X14002Y98119D02*
X19590Y98119D01*
X18348Y100629D02*
X17106Y100629D01*
X17036Y100631D01*
X16967Y100637D01*
X16898Y100647D01*
X16830Y100660D01*
X16762Y100678D01*
X16696Y100699D01*
X16631Y100724D01*
X16567Y100752D01*
X16505Y100784D01*
X16445Y100819D01*
X16387Y100858D01*
X16332Y100900D01*
X16278Y100945D01*
X16228Y100993D01*
X16180Y101043D01*
X16135Y101097D01*
X16093Y101152D01*
X16054Y101210D01*
X16019Y101270D01*
X15987Y101332D01*
X15959Y101396D01*
X15934Y101461D01*
X15913Y101527D01*
X15895Y101595D01*
X15882Y101663D01*
X15872Y101732D01*
X15866Y101801D01*
X15864Y101871D01*
X15866Y101941D01*
X15872Y102010D01*
X15882Y102079D01*
X15895Y102147D01*
X15913Y102215D01*
X15934Y102281D01*
X15959Y102346D01*
X15987Y102410D01*
X16019Y102472D01*
X16054Y102532D01*
X16093Y102590D01*
X16135Y102645D01*
X16180Y102699D01*
X16228Y102749D01*
X16278Y102797D01*
X16332Y102842D01*
X16387Y102884D01*
X16445Y102923D01*
X16505Y102958D01*
X16567Y102990D01*
X16631Y103018D01*
X16696Y103043D01*
X16762Y103064D01*
X16830Y103082D01*
X16898Y103095D01*
X16967Y103105D01*
X17036Y103111D01*
X17106Y103113D01*
X17106Y103112D02*
X18348Y103112D01*
X18348Y103113D02*
X18418Y103111D01*
X18487Y103105D01*
X18556Y103095D01*
X18624Y103082D01*
X18692Y103064D01*
X18758Y103043D01*
X18823Y103018D01*
X18887Y102990D01*
X18949Y102958D01*
X19009Y102923D01*
X19067Y102884D01*
X19122Y102842D01*
X19176Y102797D01*
X19226Y102749D01*
X19274Y102699D01*
X19319Y102645D01*
X19361Y102590D01*
X19400Y102532D01*
X19435Y102472D01*
X19467Y102410D01*
X19495Y102346D01*
X19520Y102281D01*
X19541Y102215D01*
X19559Y102147D01*
X19572Y102079D01*
X19582Y102010D01*
X19588Y101941D01*
X19590Y101871D01*
X19588Y101801D01*
X19582Y101732D01*
X19572Y101663D01*
X19559Y101595D01*
X19541Y101527D01*
X19520Y101461D01*
X19495Y101396D01*
X19467Y101332D01*
X19435Y101270D01*
X19400Y101210D01*
X19361Y101152D01*
X19319Y101097D01*
X19274Y101043D01*
X19226Y100993D01*
X19176Y100945D01*
X19122Y100900D01*
X19067Y100858D01*
X19009Y100819D01*
X18949Y100784D01*
X18887Y100752D01*
X18823Y100724D01*
X18758Y100699D01*
X18692Y100678D01*
X18624Y100660D01*
X18556Y100647D01*
X18487Y100637D01*
X18418Y100631D01*
X18348Y100629D01*
X21452Y105201D02*
X21452Y105822D01*
X15864Y107684D01*
X15864Y105201D02*
X19590Y106443D01*
X18348Y109773D02*
X17106Y109773D01*
X17036Y109775D01*
X16967Y109781D01*
X16898Y109791D01*
X16830Y109804D01*
X16762Y109822D01*
X16696Y109843D01*
X16631Y109868D01*
X16567Y109896D01*
X16505Y109928D01*
X16445Y109963D01*
X16387Y110002D01*
X16332Y110044D01*
X16278Y110089D01*
X16228Y110137D01*
X16180Y110187D01*
X16135Y110241D01*
X16093Y110296D01*
X16054Y110354D01*
X16019Y110414D01*
X15987Y110476D01*
X15959Y110540D01*
X15934Y110605D01*
X15913Y110671D01*
X15895Y110739D01*
X15882Y110807D01*
X15872Y110876D01*
X15866Y110945D01*
X15864Y111015D01*
X15866Y111085D01*
X15872Y111154D01*
X15882Y111223D01*
X15895Y111291D01*
X15913Y111359D01*
X15934Y111425D01*
X15959Y111490D01*
X15987Y111554D01*
X16019Y111616D01*
X16054Y111676D01*
X16093Y111734D01*
X16135Y111789D01*
X16180Y111843D01*
X16228Y111893D01*
X16278Y111941D01*
X16332Y111986D01*
X16387Y112028D01*
X16445Y112067D01*
X16505Y112102D01*
X16567Y112134D01*
X16631Y112162D01*
X16696Y112187D01*
X16762Y112208D01*
X16830Y112226D01*
X16898Y112239D01*
X16967Y112249D01*
X17036Y112255D01*
X17106Y112257D01*
X17106Y112256D02*
X18348Y112256D01*
X18348Y112257D02*
X18418Y112255D01*
X18487Y112249D01*
X18556Y112239D01*
X18624Y112226D01*
X18692Y112208D01*
X18758Y112187D01*
X18823Y112162D01*
X18887Y112134D01*
X18949Y112102D01*
X19009Y112067D01*
X19067Y112028D01*
X19122Y111986D01*
X19176Y111941D01*
X19226Y111893D01*
X19274Y111843D01*
X19319Y111789D01*
X19361Y111734D01*
X19400Y111676D01*
X19435Y111616D01*
X19467Y111554D01*
X19495Y111490D01*
X19520Y111425D01*
X19541Y111359D01*
X19559Y111291D01*
X19572Y111223D01*
X19582Y111154D01*
X19588Y111085D01*
X19590Y111015D01*
X19588Y110945D01*
X19582Y110876D01*
X19572Y110807D01*
X19559Y110739D01*
X19541Y110671D01*
X19520Y110605D01*
X19495Y110540D01*
X19467Y110476D01*
X19435Y110414D01*
X19400Y110354D01*
X19361Y110296D01*
X19319Y110241D01*
X19274Y110187D01*
X19226Y110137D01*
X19176Y110089D01*
X19122Y110044D01*
X19067Y110002D01*
X19009Y109963D01*
X18949Y109928D01*
X18887Y109896D01*
X18823Y109868D01*
X18758Y109843D01*
X18692Y109822D01*
X18624Y109804D01*
X18556Y109791D01*
X18487Y109781D01*
X18418Y109775D01*
X18348Y109773D01*
X17417Y114993D02*
X18038Y116546D01*
X17416Y114993D02*
X17394Y114942D01*
X17368Y114893D01*
X17339Y114845D01*
X17306Y114800D01*
X17270Y114757D01*
X17232Y114716D01*
X17190Y114679D01*
X17147Y114644D01*
X17101Y114612D01*
X17052Y114584D01*
X17002Y114559D01*
X16951Y114538D01*
X16898Y114520D01*
X16844Y114506D01*
X16789Y114496D01*
X16733Y114490D01*
X16678Y114487D01*
X16622Y114488D01*
X16566Y114494D01*
X16511Y114503D01*
X16457Y114515D01*
X16403Y114532D01*
X16351Y114552D01*
X16301Y114576D01*
X16252Y114603D01*
X16205Y114634D01*
X16161Y114668D01*
X16119Y114704D01*
X16079Y114744D01*
X16043Y114786D01*
X16009Y114831D01*
X15979Y114878D01*
X15952Y114926D01*
X15928Y114977D01*
X15908Y115029D01*
X15892Y115083D01*
X15879Y115137D01*
X15870Y115192D01*
X15865Y115248D01*
X15864Y115304D01*
X15864Y115303D02*
X15868Y115414D01*
X15874Y115525D01*
X15885Y115635D01*
X15899Y115745D01*
X15916Y115855D01*
X15936Y115964D01*
X15960Y116072D01*
X15988Y116179D01*
X16019Y116286D01*
X16053Y116391D01*
X16090Y116496D01*
X16131Y116599D01*
X16175Y116701D01*
X18038Y116546D02*
X18060Y116597D01*
X18086Y116646D01*
X18115Y116694D01*
X18148Y116739D01*
X18184Y116782D01*
X18222Y116823D01*
X18264Y116860D01*
X18307Y116895D01*
X18353Y116927D01*
X18402Y116955D01*
X18452Y116980D01*
X18503Y117001D01*
X18556Y117019D01*
X18610Y117033D01*
X18665Y117043D01*
X18721Y117049D01*
X18776Y117052D01*
X18832Y117051D01*
X18888Y117045D01*
X18943Y117036D01*
X18997Y117024D01*
X19051Y117007D01*
X19103Y116987D01*
X19153Y116963D01*
X19202Y116936D01*
X19249Y116905D01*
X19293Y116871D01*
X19335Y116835D01*
X19375Y116795D01*
X19411Y116753D01*
X19445Y116708D01*
X19475Y116661D01*
X19502Y116613D01*
X19526Y116562D01*
X19546Y116510D01*
X19562Y116456D01*
X19575Y116402D01*
X19584Y116347D01*
X19589Y116291D01*
X19590Y116235D01*
X19589Y116235D02*
X19586Y116101D01*
X19579Y115967D01*
X19568Y115833D01*
X19555Y115700D01*
X19537Y115567D01*
X19517Y115434D01*
X19493Y115302D01*
X19465Y115171D01*
X19435Y115040D01*
X19401Y114911D01*
X19363Y114782D01*
X19323Y114654D01*
X19279Y114527D01*
X94365Y277273D02*
X95606Y277273D01*
X94365Y277273D02*
X94295Y277275D01*
X94226Y277281D01*
X94157Y277291D01*
X94089Y277304D01*
X94021Y277322D01*
X93955Y277343D01*
X93890Y277368D01*
X93826Y277396D01*
X93764Y277428D01*
X93704Y277463D01*
X93646Y277502D01*
X93591Y277544D01*
X93537Y277589D01*
X93487Y277637D01*
X93439Y277687D01*
X93394Y277741D01*
X93352Y277796D01*
X93313Y277854D01*
X93278Y277914D01*
X93246Y277976D01*
X93218Y278040D01*
X93193Y278105D01*
X93172Y278171D01*
X93154Y278239D01*
X93141Y278307D01*
X93131Y278376D01*
X93125Y278445D01*
X93123Y278515D01*
X93123Y281619D01*
X93125Y281689D01*
X93131Y281758D01*
X93141Y281827D01*
X93154Y281895D01*
X93172Y281963D01*
X93193Y282029D01*
X93218Y282094D01*
X93246Y282158D01*
X93278Y282220D01*
X93313Y282280D01*
X93352Y282338D01*
X93394Y282393D01*
X93439Y282447D01*
X93487Y282497D01*
X93537Y282545D01*
X93591Y282590D01*
X93646Y282632D01*
X93704Y282671D01*
X93764Y282706D01*
X93826Y282738D01*
X93890Y282766D01*
X93955Y282791D01*
X94021Y282812D01*
X94089Y282830D01*
X94157Y282843D01*
X94226Y282853D01*
X94295Y282859D01*
X94365Y282861D01*
X95606Y282861D01*
X97711Y281619D02*
X99263Y282861D01*
X99263Y277273D01*
X97711Y277273D02*
X100815Y277273D01*
X215808Y282035D02*
X217050Y282035D01*
X215808Y282035D02*
X215738Y282037D01*
X215669Y282043D01*
X215600Y282053D01*
X215532Y282066D01*
X215464Y282084D01*
X215398Y282105D01*
X215333Y282130D01*
X215269Y282158D01*
X215207Y282190D01*
X215147Y282225D01*
X215089Y282264D01*
X215034Y282306D01*
X214980Y282351D01*
X214930Y282399D01*
X214882Y282449D01*
X214837Y282503D01*
X214795Y282558D01*
X214756Y282616D01*
X214721Y282676D01*
X214689Y282738D01*
X214661Y282802D01*
X214636Y282867D01*
X214615Y282933D01*
X214597Y283001D01*
X214584Y283069D01*
X214574Y283138D01*
X214568Y283207D01*
X214566Y283277D01*
X214567Y283277D02*
X214567Y286381D01*
X214566Y286381D02*
X214568Y286451D01*
X214574Y286520D01*
X214584Y286589D01*
X214597Y286657D01*
X214615Y286725D01*
X214636Y286791D01*
X214661Y286856D01*
X214689Y286920D01*
X214721Y286982D01*
X214756Y287042D01*
X214795Y287100D01*
X214837Y287155D01*
X214882Y287209D01*
X214930Y287259D01*
X214980Y287307D01*
X215034Y287352D01*
X215089Y287394D01*
X215147Y287433D01*
X215207Y287468D01*
X215269Y287500D01*
X215333Y287528D01*
X215398Y287553D01*
X215464Y287574D01*
X215532Y287592D01*
X215600Y287605D01*
X215669Y287615D01*
X215738Y287621D01*
X215808Y287623D01*
X217050Y287623D01*
X219155Y286381D02*
X220707Y287623D01*
X220707Y282035D01*
X219155Y282035D02*
X222259Y282035D01*
X224641Y284829D02*
X224643Y284960D01*
X224648Y285090D01*
X224658Y285220D01*
X224671Y285350D01*
X224687Y285480D01*
X224707Y285609D01*
X224731Y285737D01*
X224759Y285864D01*
X224790Y285991D01*
X224825Y286117D01*
X224863Y286242D01*
X224905Y286366D01*
X224950Y286488D01*
X224999Y286609D01*
X225051Y286729D01*
X225107Y286847D01*
X225106Y286848D02*
X225129Y286908D01*
X225155Y286968D01*
X225184Y287025D01*
X225217Y287081D01*
X225253Y287135D01*
X225291Y287187D01*
X225333Y287237D01*
X225377Y287284D01*
X225424Y287329D01*
X225474Y287371D01*
X225525Y287410D01*
X225579Y287446D01*
X225635Y287479D01*
X225692Y287509D01*
X225751Y287536D01*
X225812Y287559D01*
X225873Y287579D01*
X225936Y287595D01*
X226000Y287608D01*
X226064Y287617D01*
X226128Y287622D01*
X226193Y287624D01*
X226258Y287622D01*
X226322Y287617D01*
X226386Y287608D01*
X226450Y287595D01*
X226513Y287579D01*
X226574Y287559D01*
X226635Y287536D01*
X226694Y287509D01*
X226751Y287479D01*
X226807Y287446D01*
X226861Y287410D01*
X226912Y287371D01*
X226962Y287329D01*
X227009Y287284D01*
X227053Y287237D01*
X227095Y287187D01*
X227133Y287135D01*
X227169Y287081D01*
X227202Y287025D01*
X227231Y286968D01*
X227257Y286908D01*
X227280Y286848D01*
X227280Y286847D02*
X227336Y286729D01*
X227388Y286609D01*
X227437Y286488D01*
X227482Y286366D01*
X227524Y286242D01*
X227562Y286117D01*
X227597Y285991D01*
X227628Y285865D01*
X227656Y285737D01*
X227680Y285609D01*
X227700Y285480D01*
X227716Y285350D01*
X227729Y285220D01*
X227739Y285090D01*
X227744Y284960D01*
X227746Y284829D01*
X224641Y284829D02*
X224643Y284698D01*
X224648Y284568D01*
X224658Y284438D01*
X224671Y284308D01*
X224687Y284178D01*
X224707Y284049D01*
X224731Y283921D01*
X224759Y283794D01*
X224790Y283667D01*
X224825Y283541D01*
X224863Y283416D01*
X224905Y283292D01*
X224950Y283170D01*
X224999Y283049D01*
X225051Y282929D01*
X225107Y282811D01*
X225106Y282811D02*
X225129Y282751D01*
X225155Y282691D01*
X225184Y282634D01*
X225217Y282578D01*
X225253Y282524D01*
X225291Y282472D01*
X225333Y282422D01*
X225377Y282375D01*
X225424Y282330D01*
X225474Y282288D01*
X225525Y282249D01*
X225579Y282213D01*
X225635Y282180D01*
X225692Y282150D01*
X225751Y282123D01*
X225812Y282100D01*
X225873Y282080D01*
X225936Y282064D01*
X226000Y282051D01*
X226064Y282042D01*
X226128Y282037D01*
X226193Y282035D01*
X227280Y282811D02*
X227336Y282929D01*
X227388Y283049D01*
X227437Y283170D01*
X227482Y283292D01*
X227524Y283416D01*
X227562Y283541D01*
X227597Y283667D01*
X227628Y283793D01*
X227656Y283921D01*
X227680Y284049D01*
X227700Y284178D01*
X227716Y284308D01*
X227729Y284438D01*
X227739Y284568D01*
X227744Y284698D01*
X227746Y284829D01*
X227280Y282811D02*
X227257Y282751D01*
X227231Y282691D01*
X227202Y282634D01*
X227169Y282578D01*
X227133Y282524D01*
X227095Y282472D01*
X227053Y282422D01*
X227009Y282375D01*
X226962Y282330D01*
X226912Y282288D01*
X226861Y282249D01*
X226807Y282213D01*
X226751Y282180D01*
X226694Y282150D01*
X226635Y282123D01*
X226574Y282100D01*
X226513Y282080D01*
X226450Y282064D01*
X226386Y282051D01*
X226322Y282042D01*
X226258Y282037D01*
X226193Y282035D01*
X224952Y283277D02*
X227435Y286381D01*
X216256Y259017D02*
X215015Y259017D01*
X215015Y259016D02*
X214945Y259018D01*
X214876Y259024D01*
X214807Y259034D01*
X214739Y259047D01*
X214671Y259065D01*
X214605Y259086D01*
X214540Y259111D01*
X214476Y259139D01*
X214414Y259171D01*
X214354Y259206D01*
X214296Y259245D01*
X214241Y259287D01*
X214187Y259332D01*
X214137Y259380D01*
X214089Y259430D01*
X214044Y259484D01*
X214002Y259539D01*
X213963Y259597D01*
X213928Y259657D01*
X213896Y259719D01*
X213868Y259783D01*
X213843Y259848D01*
X213822Y259914D01*
X213804Y259982D01*
X213791Y260050D01*
X213781Y260119D01*
X213775Y260188D01*
X213773Y260258D01*
X213773Y263363D01*
X213775Y263433D01*
X213781Y263502D01*
X213791Y263571D01*
X213804Y263639D01*
X213822Y263707D01*
X213843Y263773D01*
X213868Y263838D01*
X213896Y263902D01*
X213928Y263964D01*
X213963Y264024D01*
X214002Y264082D01*
X214044Y264137D01*
X214089Y264191D01*
X214137Y264241D01*
X214187Y264289D01*
X214241Y264334D01*
X214296Y264376D01*
X214354Y264415D01*
X214414Y264450D01*
X214476Y264482D01*
X214540Y264510D01*
X214605Y264535D01*
X214671Y264556D01*
X214739Y264574D01*
X214807Y264587D01*
X214876Y264597D01*
X214945Y264603D01*
X215015Y264605D01*
X216256Y264605D01*
X218361Y263363D02*
X219913Y264605D01*
X219913Y259017D01*
X218361Y259017D02*
X221465Y259017D01*
X223847Y263363D02*
X225400Y264605D01*
X225400Y259017D01*
X226952Y259017D02*
X223847Y259017D01*
D11*
X32991Y117666D02*
X31354Y117666D01*
X31354Y117665D02*
X31276Y117667D01*
X31198Y117672D01*
X31121Y117682D01*
X31044Y117695D01*
X30968Y117711D01*
X30893Y117731D01*
X30819Y117755D01*
X30746Y117782D01*
X30674Y117813D01*
X30604Y117847D01*
X30535Y117884D01*
X30469Y117925D01*
X30404Y117969D01*
X30342Y118015D01*
X30282Y118065D01*
X30224Y118117D01*
X30169Y118172D01*
X30117Y118230D01*
X30067Y118290D01*
X30021Y118352D01*
X29977Y118417D01*
X29936Y118484D01*
X29899Y118552D01*
X29865Y118622D01*
X29834Y118694D01*
X29807Y118767D01*
X29783Y118841D01*
X29763Y118916D01*
X29747Y118992D01*
X29734Y119069D01*
X29724Y119146D01*
X29719Y119224D01*
X29717Y119302D01*
X29718Y119302D02*
X29718Y123395D01*
X29717Y123395D02*
X29719Y123475D01*
X29725Y123555D01*
X29735Y123635D01*
X29748Y123714D01*
X29766Y123793D01*
X29787Y123870D01*
X29813Y123946D01*
X29842Y124021D01*
X29874Y124095D01*
X29910Y124167D01*
X29950Y124237D01*
X29993Y124304D01*
X30039Y124370D01*
X30089Y124433D01*
X30141Y124494D01*
X30196Y124553D01*
X30255Y124608D01*
X30315Y124660D01*
X30379Y124710D01*
X30445Y124756D01*
X30512Y124799D01*
X30582Y124839D01*
X30654Y124875D01*
X30728Y124907D01*
X30802Y124936D01*
X30879Y124962D01*
X30956Y124983D01*
X31035Y125001D01*
X31114Y125014D01*
X31194Y125024D01*
X31274Y125030D01*
X31354Y125032D01*
X32991Y125032D01*
X35837Y123395D02*
X37883Y125032D01*
X37883Y117666D01*
X35837Y117666D02*
X39929Y117666D01*
X47245Y123190D02*
X47243Y123275D01*
X47237Y123360D01*
X47227Y123444D01*
X47214Y123528D01*
X47196Y123612D01*
X47175Y123694D01*
X47150Y123775D01*
X47121Y123855D01*
X47088Y123934D01*
X47052Y124011D01*
X47012Y124086D01*
X46969Y124160D01*
X46923Y124231D01*
X46873Y124300D01*
X46820Y124367D01*
X46764Y124431D01*
X46705Y124492D01*
X46644Y124551D01*
X46580Y124607D01*
X46513Y124660D01*
X46444Y124710D01*
X46373Y124756D01*
X46299Y124799D01*
X46224Y124839D01*
X46147Y124875D01*
X46068Y124908D01*
X45988Y124937D01*
X45907Y124962D01*
X45825Y124983D01*
X45741Y125001D01*
X45657Y125014D01*
X45573Y125024D01*
X45488Y125030D01*
X45403Y125032D01*
X45307Y125030D01*
X45211Y125024D01*
X45116Y125014D01*
X45021Y125001D01*
X44926Y124983D01*
X44833Y124962D01*
X44740Y124937D01*
X44649Y124908D01*
X44558Y124876D01*
X44469Y124840D01*
X44382Y124800D01*
X44296Y124757D01*
X44212Y124711D01*
X44130Y124661D01*
X44050Y124607D01*
X43973Y124551D01*
X43898Y124491D01*
X43825Y124429D01*
X43755Y124363D01*
X43687Y124295D01*
X43622Y124224D01*
X43561Y124151D01*
X43502Y124075D01*
X43446Y123996D01*
X43394Y123916D01*
X43345Y123833D01*
X43299Y123749D01*
X43257Y123663D01*
X43219Y123575D01*
X43184Y123486D01*
X43152Y123395D01*
X46630Y121758D02*
X46690Y121817D01*
X46747Y121879D01*
X46802Y121943D01*
X46853Y122010D01*
X46902Y122079D01*
X46948Y122149D01*
X46991Y122222D01*
X47031Y122296D01*
X47067Y122372D01*
X47100Y122450D01*
X47130Y122529D01*
X47157Y122609D01*
X47180Y122690D01*
X47199Y122772D01*
X47215Y122854D01*
X47228Y122938D01*
X47237Y123022D01*
X47242Y123106D01*
X47244Y123190D01*
X46630Y121758D02*
X43152Y117666D01*
X47244Y117666D01*
D10*
X169771Y159798D02*
X171013Y159798D01*
X169771Y159798D02*
X169701Y159800D01*
X169632Y159806D01*
X169563Y159816D01*
X169495Y159829D01*
X169427Y159847D01*
X169361Y159868D01*
X169296Y159893D01*
X169232Y159921D01*
X169170Y159953D01*
X169110Y159988D01*
X169052Y160027D01*
X168997Y160069D01*
X168943Y160114D01*
X168893Y160162D01*
X168845Y160212D01*
X168800Y160266D01*
X168758Y160321D01*
X168719Y160379D01*
X168684Y160439D01*
X168652Y160501D01*
X168624Y160565D01*
X168599Y160630D01*
X168578Y160696D01*
X168560Y160764D01*
X168547Y160832D01*
X168537Y160901D01*
X168531Y160970D01*
X168529Y161040D01*
X168529Y164144D01*
X168531Y164214D01*
X168537Y164283D01*
X168547Y164352D01*
X168560Y164420D01*
X168578Y164488D01*
X168599Y164554D01*
X168624Y164619D01*
X168652Y164683D01*
X168684Y164745D01*
X168719Y164805D01*
X168758Y164863D01*
X168800Y164918D01*
X168845Y164972D01*
X168893Y165022D01*
X168943Y165070D01*
X168997Y165115D01*
X169052Y165157D01*
X169110Y165196D01*
X169170Y165231D01*
X169232Y165263D01*
X169296Y165291D01*
X169361Y165316D01*
X169427Y165337D01*
X169495Y165355D01*
X169563Y165368D01*
X169632Y165378D01*
X169701Y165384D01*
X169771Y165386D01*
X171013Y165386D01*
X173117Y164144D02*
X174669Y165386D01*
X174669Y159798D01*
X173117Y159798D02*
X176222Y159798D01*
X178604Y159798D02*
X180156Y159798D01*
X180233Y159800D01*
X180311Y159806D01*
X180387Y159815D01*
X180464Y159829D01*
X180539Y159846D01*
X180613Y159867D01*
X180687Y159892D01*
X180759Y159920D01*
X180829Y159952D01*
X180898Y159987D01*
X180965Y160026D01*
X181030Y160068D01*
X181093Y160113D01*
X181154Y160161D01*
X181212Y160212D01*
X181267Y160266D01*
X181320Y160323D01*
X181369Y160382D01*
X181416Y160444D01*
X181460Y160508D01*
X181500Y160574D01*
X181537Y160642D01*
X181571Y160712D01*
X181601Y160783D01*
X181627Y160856D01*
X181650Y160930D01*
X181669Y161005D01*
X181684Y161080D01*
X181696Y161157D01*
X181704Y161234D01*
X181708Y161311D01*
X181708Y161389D01*
X181704Y161466D01*
X181696Y161543D01*
X181684Y161620D01*
X181669Y161695D01*
X181650Y161770D01*
X181627Y161844D01*
X181601Y161917D01*
X181571Y161988D01*
X181537Y162058D01*
X181500Y162126D01*
X181460Y162192D01*
X181416Y162256D01*
X181369Y162318D01*
X181320Y162377D01*
X181267Y162434D01*
X181212Y162488D01*
X181154Y162539D01*
X181093Y162587D01*
X181030Y162632D01*
X180965Y162674D01*
X180898Y162713D01*
X180829Y162748D01*
X180759Y162780D01*
X180687Y162808D01*
X180613Y162833D01*
X180539Y162854D01*
X180464Y162871D01*
X180387Y162885D01*
X180311Y162894D01*
X180233Y162900D01*
X180156Y162902D01*
X180466Y165386D02*
X178604Y165386D01*
X180466Y165386D02*
X180536Y165384D01*
X180605Y165378D01*
X180674Y165368D01*
X180742Y165355D01*
X180810Y165337D01*
X180876Y165316D01*
X180941Y165291D01*
X181005Y165263D01*
X181067Y165231D01*
X181127Y165196D01*
X181185Y165157D01*
X181240Y165115D01*
X181294Y165070D01*
X181344Y165022D01*
X181392Y164972D01*
X181437Y164918D01*
X181479Y164863D01*
X181518Y164805D01*
X181553Y164745D01*
X181585Y164683D01*
X181613Y164619D01*
X181638Y164554D01*
X181659Y164488D01*
X181677Y164420D01*
X181690Y164352D01*
X181700Y164283D01*
X181706Y164214D01*
X181708Y164144D01*
X181706Y164074D01*
X181700Y164005D01*
X181690Y163936D01*
X181677Y163868D01*
X181659Y163800D01*
X181638Y163734D01*
X181613Y163669D01*
X181585Y163605D01*
X181553Y163543D01*
X181518Y163483D01*
X181479Y163425D01*
X181437Y163370D01*
X181392Y163316D01*
X181344Y163266D01*
X181294Y163218D01*
X181240Y163173D01*
X181185Y163131D01*
X181127Y163092D01*
X181067Y163057D01*
X181005Y163025D01*
X180941Y162997D01*
X180876Y162972D01*
X180810Y162951D01*
X180742Y162933D01*
X180674Y162920D01*
X180605Y162910D01*
X180536Y162904D01*
X180466Y162902D01*
X179224Y162902D01*
D11*
X32991Y93853D02*
X31354Y93853D01*
X31276Y93855D01*
X31198Y93860D01*
X31121Y93870D01*
X31044Y93883D01*
X30968Y93899D01*
X30893Y93919D01*
X30819Y93943D01*
X30746Y93970D01*
X30674Y94001D01*
X30604Y94035D01*
X30535Y94072D01*
X30469Y94113D01*
X30404Y94157D01*
X30342Y94203D01*
X30282Y94253D01*
X30224Y94305D01*
X30169Y94360D01*
X30117Y94418D01*
X30067Y94478D01*
X30021Y94540D01*
X29977Y94605D01*
X29936Y94672D01*
X29899Y94740D01*
X29865Y94810D01*
X29834Y94882D01*
X29807Y94955D01*
X29783Y95029D01*
X29763Y95104D01*
X29747Y95180D01*
X29734Y95257D01*
X29724Y95334D01*
X29719Y95412D01*
X29717Y95490D01*
X29718Y95490D02*
X29718Y99582D01*
X29717Y99582D02*
X29719Y99662D01*
X29725Y99742D01*
X29735Y99822D01*
X29748Y99901D01*
X29766Y99980D01*
X29787Y100057D01*
X29813Y100133D01*
X29842Y100208D01*
X29874Y100282D01*
X29910Y100354D01*
X29950Y100424D01*
X29993Y100491D01*
X30039Y100557D01*
X30089Y100620D01*
X30141Y100681D01*
X30196Y100740D01*
X30255Y100795D01*
X30315Y100847D01*
X30379Y100897D01*
X30445Y100943D01*
X30512Y100986D01*
X30582Y101026D01*
X30654Y101062D01*
X30728Y101094D01*
X30802Y101123D01*
X30879Y101149D01*
X30956Y101170D01*
X31035Y101188D01*
X31114Y101201D01*
X31194Y101211D01*
X31274Y101217D01*
X31354Y101219D01*
X32991Y101219D01*
X35837Y99582D02*
X37883Y101219D01*
X37883Y93853D01*
X35837Y93853D02*
X39929Y93853D01*
X43152Y95490D02*
X44789Y101219D01*
X43152Y95490D02*
X47244Y95490D01*
X46016Y97127D02*
X46016Y93853D01*
D10*
X130877Y257429D02*
X132119Y257429D01*
X130877Y257429D02*
X130807Y257431D01*
X130738Y257437D01*
X130669Y257447D01*
X130601Y257460D01*
X130533Y257478D01*
X130467Y257499D01*
X130402Y257524D01*
X130338Y257552D01*
X130276Y257584D01*
X130216Y257619D01*
X130158Y257658D01*
X130103Y257700D01*
X130049Y257745D01*
X129999Y257793D01*
X129951Y257843D01*
X129906Y257897D01*
X129864Y257952D01*
X129825Y258010D01*
X129790Y258070D01*
X129758Y258132D01*
X129730Y258196D01*
X129705Y258261D01*
X129684Y258327D01*
X129666Y258395D01*
X129653Y258463D01*
X129643Y258532D01*
X129637Y258601D01*
X129635Y258671D01*
X129635Y261775D01*
X129637Y261845D01*
X129643Y261914D01*
X129653Y261983D01*
X129666Y262051D01*
X129684Y262119D01*
X129705Y262185D01*
X129730Y262250D01*
X129758Y262314D01*
X129790Y262376D01*
X129825Y262436D01*
X129864Y262494D01*
X129906Y262549D01*
X129951Y262603D01*
X129999Y262653D01*
X130049Y262701D01*
X130103Y262746D01*
X130158Y262788D01*
X130216Y262827D01*
X130276Y262862D01*
X130338Y262894D01*
X130402Y262922D01*
X130467Y262947D01*
X130533Y262968D01*
X130601Y262986D01*
X130669Y262999D01*
X130738Y263009D01*
X130807Y263015D01*
X130877Y263017D01*
X132119Y263017D01*
X134223Y261775D02*
X135776Y263017D01*
X135776Y257429D01*
X137328Y257429D02*
X134223Y257429D01*
X139710Y257429D02*
X141573Y257429D01*
X141643Y257431D01*
X141712Y257437D01*
X141781Y257447D01*
X141849Y257460D01*
X141917Y257478D01*
X141983Y257499D01*
X142048Y257524D01*
X142112Y257552D01*
X142174Y257584D01*
X142234Y257619D01*
X142292Y257658D01*
X142347Y257700D01*
X142401Y257745D01*
X142451Y257793D01*
X142499Y257843D01*
X142544Y257897D01*
X142586Y257952D01*
X142625Y258010D01*
X142660Y258070D01*
X142692Y258132D01*
X142720Y258196D01*
X142745Y258261D01*
X142766Y258327D01*
X142784Y258395D01*
X142797Y258463D01*
X142807Y258532D01*
X142813Y258601D01*
X142815Y258671D01*
X142814Y258671D02*
X142814Y259292D01*
X142815Y259292D02*
X142813Y259362D01*
X142807Y259431D01*
X142797Y259500D01*
X142784Y259568D01*
X142766Y259636D01*
X142745Y259702D01*
X142720Y259767D01*
X142692Y259831D01*
X142660Y259893D01*
X142625Y259953D01*
X142586Y260011D01*
X142544Y260066D01*
X142499Y260120D01*
X142451Y260170D01*
X142401Y260218D01*
X142347Y260263D01*
X142292Y260305D01*
X142234Y260344D01*
X142174Y260379D01*
X142112Y260411D01*
X142048Y260439D01*
X141983Y260464D01*
X141917Y260485D01*
X141849Y260503D01*
X141781Y260516D01*
X141712Y260526D01*
X141643Y260532D01*
X141573Y260534D01*
X141573Y260533D02*
X139710Y260533D01*
X139710Y263017D01*
X142814Y263017D01*
X9017Y167644D02*
X9017Y166402D01*
X9015Y166332D01*
X9009Y166263D01*
X8999Y166194D01*
X8986Y166126D01*
X8968Y166058D01*
X8947Y165992D01*
X8922Y165927D01*
X8894Y165863D01*
X8862Y165801D01*
X8827Y165741D01*
X8788Y165683D01*
X8746Y165628D01*
X8701Y165574D01*
X8653Y165524D01*
X8603Y165476D01*
X8549Y165431D01*
X8494Y165389D01*
X8436Y165350D01*
X8376Y165315D01*
X8314Y165283D01*
X8250Y165255D01*
X8185Y165230D01*
X8119Y165209D01*
X8051Y165191D01*
X7983Y165178D01*
X7914Y165168D01*
X7845Y165162D01*
X7775Y165160D01*
X7775Y165161D02*
X4671Y165161D01*
X4601Y165163D01*
X4532Y165169D01*
X4463Y165179D01*
X4395Y165192D01*
X4327Y165210D01*
X4261Y165231D01*
X4196Y165256D01*
X4132Y165284D01*
X4070Y165316D01*
X4010Y165351D01*
X3952Y165390D01*
X3897Y165432D01*
X3843Y165477D01*
X3793Y165525D01*
X3745Y165575D01*
X3700Y165629D01*
X3658Y165684D01*
X3619Y165742D01*
X3584Y165802D01*
X3552Y165864D01*
X3524Y165928D01*
X3499Y165993D01*
X3478Y166059D01*
X3460Y166127D01*
X3447Y166195D01*
X3437Y166264D01*
X3431Y166333D01*
X3429Y166403D01*
X3429Y166402D02*
X3429Y167644D01*
X4671Y169749D02*
X3429Y171301D01*
X9017Y171301D01*
X9017Y169749D02*
X9017Y172853D01*
X5913Y175235D02*
X5913Y177098D01*
X5912Y177098D02*
X5914Y177168D01*
X5920Y177237D01*
X5930Y177306D01*
X5943Y177374D01*
X5961Y177442D01*
X5982Y177508D01*
X6007Y177573D01*
X6035Y177637D01*
X6067Y177699D01*
X6102Y177759D01*
X6141Y177817D01*
X6183Y177872D01*
X6228Y177926D01*
X6276Y177976D01*
X6326Y178024D01*
X6380Y178069D01*
X6435Y178111D01*
X6493Y178150D01*
X6553Y178185D01*
X6615Y178217D01*
X6679Y178245D01*
X6744Y178270D01*
X6810Y178291D01*
X6878Y178309D01*
X6946Y178322D01*
X7015Y178332D01*
X7084Y178338D01*
X7154Y178340D01*
X7465Y178340D01*
X7542Y178338D01*
X7620Y178332D01*
X7696Y178323D01*
X7773Y178309D01*
X7848Y178292D01*
X7922Y178271D01*
X7996Y178246D01*
X8068Y178218D01*
X8138Y178186D01*
X8207Y178151D01*
X8274Y178112D01*
X8339Y178070D01*
X8402Y178025D01*
X8463Y177977D01*
X8521Y177926D01*
X8576Y177872D01*
X8629Y177815D01*
X8678Y177756D01*
X8725Y177694D01*
X8769Y177630D01*
X8809Y177564D01*
X8846Y177496D01*
X8880Y177426D01*
X8910Y177355D01*
X8936Y177282D01*
X8959Y177208D01*
X8978Y177133D01*
X8993Y177058D01*
X9005Y176981D01*
X9013Y176904D01*
X9017Y176827D01*
X9017Y176749D01*
X9013Y176672D01*
X9005Y176595D01*
X8993Y176518D01*
X8978Y176443D01*
X8959Y176368D01*
X8936Y176294D01*
X8910Y176221D01*
X8880Y176150D01*
X8846Y176080D01*
X8809Y176012D01*
X8769Y175946D01*
X8725Y175882D01*
X8678Y175820D01*
X8629Y175761D01*
X8576Y175704D01*
X8521Y175650D01*
X8463Y175599D01*
X8402Y175551D01*
X8339Y175506D01*
X8274Y175464D01*
X8207Y175425D01*
X8138Y175390D01*
X8068Y175358D01*
X7996Y175330D01*
X7922Y175305D01*
X7848Y175284D01*
X7773Y175267D01*
X7696Y175253D01*
X7620Y175244D01*
X7542Y175238D01*
X7465Y175236D01*
X7465Y175235D02*
X5913Y175235D01*
X5815Y175237D01*
X5718Y175243D01*
X5621Y175252D01*
X5524Y175266D01*
X5428Y175283D01*
X5333Y175304D01*
X5239Y175328D01*
X5145Y175357D01*
X5053Y175389D01*
X4962Y175424D01*
X4873Y175463D01*
X4785Y175506D01*
X4699Y175552D01*
X4615Y175601D01*
X4533Y175654D01*
X4453Y175709D01*
X4375Y175768D01*
X4300Y175830D01*
X4227Y175895D01*
X4157Y175963D01*
X4089Y176033D01*
X4024Y176106D01*
X3962Y176181D01*
X3903Y176259D01*
X3848Y176339D01*
X3795Y176421D01*
X3746Y176505D01*
X3700Y176591D01*
X3657Y176679D01*
X3618Y176768D01*
X3583Y176859D01*
X3551Y176951D01*
X3522Y177045D01*
X3498Y177139D01*
X3477Y177234D01*
X3460Y177330D01*
X3446Y177427D01*
X3437Y177524D01*
X3431Y177621D01*
X3429Y177719D01*
X9811Y147801D02*
X9811Y146559D01*
X9809Y146489D01*
X9803Y146420D01*
X9793Y146351D01*
X9780Y146283D01*
X9762Y146215D01*
X9741Y146149D01*
X9716Y146084D01*
X9688Y146020D01*
X9656Y145958D01*
X9621Y145898D01*
X9582Y145840D01*
X9540Y145785D01*
X9495Y145731D01*
X9447Y145681D01*
X9397Y145633D01*
X9343Y145588D01*
X9288Y145546D01*
X9230Y145507D01*
X9170Y145472D01*
X9108Y145440D01*
X9044Y145412D01*
X8979Y145387D01*
X8913Y145366D01*
X8845Y145348D01*
X8777Y145335D01*
X8708Y145325D01*
X8639Y145319D01*
X8569Y145317D01*
X5465Y145317D01*
X5395Y145319D01*
X5326Y145325D01*
X5257Y145335D01*
X5189Y145348D01*
X5121Y145366D01*
X5055Y145387D01*
X4990Y145412D01*
X4926Y145440D01*
X4864Y145472D01*
X4804Y145507D01*
X4746Y145546D01*
X4691Y145588D01*
X4637Y145633D01*
X4587Y145681D01*
X4539Y145731D01*
X4494Y145785D01*
X4452Y145840D01*
X4413Y145898D01*
X4378Y145958D01*
X4346Y146020D01*
X4318Y146084D01*
X4293Y146149D01*
X4272Y146215D01*
X4254Y146283D01*
X4241Y146351D01*
X4231Y146420D01*
X4225Y146489D01*
X4223Y146559D01*
X4223Y147801D01*
X5465Y149905D02*
X4223Y151457D01*
X9811Y151457D01*
X9811Y149905D02*
X9811Y153010D01*
X4844Y155392D02*
X4223Y155392D01*
X4223Y158496D01*
X9811Y156944D01*
X60233Y308229D02*
X61475Y308229D01*
X60233Y308229D02*
X60163Y308231D01*
X60094Y308237D01*
X60025Y308247D01*
X59957Y308260D01*
X59889Y308278D01*
X59823Y308299D01*
X59758Y308324D01*
X59694Y308352D01*
X59632Y308384D01*
X59572Y308419D01*
X59514Y308458D01*
X59459Y308500D01*
X59405Y308545D01*
X59355Y308593D01*
X59307Y308643D01*
X59262Y308697D01*
X59220Y308752D01*
X59181Y308810D01*
X59146Y308870D01*
X59114Y308932D01*
X59086Y308996D01*
X59061Y309061D01*
X59040Y309127D01*
X59022Y309195D01*
X59009Y309263D01*
X58999Y309332D01*
X58993Y309401D01*
X58991Y309471D01*
X58992Y309471D02*
X58992Y312575D01*
X58991Y312575D02*
X58993Y312645D01*
X58999Y312714D01*
X59009Y312783D01*
X59022Y312851D01*
X59040Y312919D01*
X59061Y312985D01*
X59086Y313050D01*
X59114Y313114D01*
X59146Y313176D01*
X59181Y313236D01*
X59220Y313294D01*
X59262Y313349D01*
X59307Y313403D01*
X59355Y313453D01*
X59405Y313501D01*
X59459Y313546D01*
X59514Y313588D01*
X59572Y313627D01*
X59632Y313662D01*
X59694Y313694D01*
X59758Y313722D01*
X59823Y313747D01*
X59889Y313768D01*
X59957Y313786D01*
X60025Y313799D01*
X60094Y313809D01*
X60163Y313815D01*
X60233Y313817D01*
X61475Y313817D01*
X63580Y312575D02*
X65132Y313817D01*
X65132Y308229D01*
X63580Y308229D02*
X66684Y308229D01*
X70308Y310713D02*
X72171Y310713D01*
X70308Y310712D02*
X70238Y310714D01*
X70169Y310720D01*
X70100Y310730D01*
X70032Y310743D01*
X69964Y310761D01*
X69898Y310782D01*
X69833Y310807D01*
X69769Y310835D01*
X69707Y310867D01*
X69647Y310902D01*
X69589Y310941D01*
X69534Y310983D01*
X69480Y311028D01*
X69430Y311076D01*
X69382Y311126D01*
X69337Y311180D01*
X69295Y311235D01*
X69256Y311293D01*
X69221Y311353D01*
X69189Y311415D01*
X69161Y311479D01*
X69136Y311544D01*
X69115Y311610D01*
X69097Y311678D01*
X69084Y311746D01*
X69074Y311815D01*
X69068Y311884D01*
X69066Y311954D01*
X69066Y312265D01*
X69068Y312342D01*
X69074Y312420D01*
X69083Y312496D01*
X69097Y312573D01*
X69114Y312648D01*
X69135Y312722D01*
X69160Y312796D01*
X69188Y312868D01*
X69220Y312938D01*
X69255Y313007D01*
X69294Y313074D01*
X69336Y313139D01*
X69381Y313202D01*
X69429Y313263D01*
X69480Y313321D01*
X69534Y313376D01*
X69591Y313429D01*
X69650Y313478D01*
X69712Y313525D01*
X69776Y313569D01*
X69842Y313609D01*
X69910Y313646D01*
X69980Y313680D01*
X70051Y313710D01*
X70124Y313736D01*
X70198Y313759D01*
X70273Y313778D01*
X70348Y313793D01*
X70425Y313805D01*
X70502Y313813D01*
X70579Y313817D01*
X70657Y313817D01*
X70734Y313813D01*
X70811Y313805D01*
X70888Y313793D01*
X70963Y313778D01*
X71038Y313759D01*
X71112Y313736D01*
X71185Y313710D01*
X71256Y313680D01*
X71326Y313646D01*
X71394Y313609D01*
X71460Y313569D01*
X71524Y313525D01*
X71586Y313478D01*
X71645Y313429D01*
X71702Y313376D01*
X71756Y313321D01*
X71807Y313263D01*
X71855Y313202D01*
X71900Y313139D01*
X71942Y313074D01*
X71981Y313007D01*
X72016Y312938D01*
X72048Y312868D01*
X72076Y312796D01*
X72101Y312722D01*
X72122Y312648D01*
X72139Y312573D01*
X72153Y312496D01*
X72162Y312420D01*
X72168Y312342D01*
X72170Y312265D01*
X72171Y312265D02*
X72171Y310713D01*
X72169Y310615D01*
X72163Y310518D01*
X72154Y310421D01*
X72140Y310324D01*
X72123Y310228D01*
X72102Y310133D01*
X72078Y310039D01*
X72049Y309945D01*
X72017Y309853D01*
X71982Y309762D01*
X71943Y309673D01*
X71900Y309585D01*
X71854Y309499D01*
X71805Y309415D01*
X71752Y309333D01*
X71697Y309253D01*
X71638Y309175D01*
X71576Y309100D01*
X71511Y309027D01*
X71443Y308957D01*
X71373Y308889D01*
X71300Y308824D01*
X71225Y308762D01*
X71147Y308703D01*
X71067Y308648D01*
X70985Y308595D01*
X70901Y308546D01*
X70815Y308500D01*
X70727Y308457D01*
X70638Y308418D01*
X70547Y308383D01*
X70455Y308351D01*
X70361Y308322D01*
X70267Y308298D01*
X70172Y308277D01*
X70076Y308260D01*
X69979Y308246D01*
X69882Y308237D01*
X69784Y308231D01*
X69687Y308229D01*
X93571Y299498D02*
X94813Y299498D01*
X93571Y299498D02*
X93501Y299500D01*
X93432Y299506D01*
X93363Y299516D01*
X93295Y299529D01*
X93227Y299547D01*
X93161Y299568D01*
X93096Y299593D01*
X93032Y299621D01*
X92970Y299653D01*
X92910Y299688D01*
X92852Y299727D01*
X92797Y299769D01*
X92743Y299814D01*
X92693Y299862D01*
X92645Y299912D01*
X92600Y299966D01*
X92558Y300021D01*
X92519Y300079D01*
X92484Y300139D01*
X92452Y300201D01*
X92424Y300265D01*
X92399Y300330D01*
X92378Y300396D01*
X92360Y300464D01*
X92347Y300532D01*
X92337Y300601D01*
X92331Y300670D01*
X92329Y300740D01*
X92329Y303844D01*
X92331Y303914D01*
X92337Y303983D01*
X92347Y304052D01*
X92360Y304120D01*
X92378Y304188D01*
X92399Y304254D01*
X92424Y304319D01*
X92452Y304383D01*
X92484Y304445D01*
X92519Y304505D01*
X92558Y304563D01*
X92600Y304618D01*
X92645Y304672D01*
X92693Y304722D01*
X92743Y304770D01*
X92797Y304815D01*
X92852Y304857D01*
X92910Y304896D01*
X92970Y304931D01*
X93032Y304963D01*
X93096Y304991D01*
X93161Y305016D01*
X93227Y305037D01*
X93295Y305055D01*
X93363Y305068D01*
X93432Y305078D01*
X93501Y305084D01*
X93571Y305086D01*
X94813Y305086D01*
X98625Y305086D02*
X98698Y305084D01*
X98771Y305078D01*
X98844Y305069D01*
X98915Y305055D01*
X98987Y305038D01*
X99057Y305018D01*
X99126Y304993D01*
X99193Y304965D01*
X99259Y304934D01*
X99324Y304899D01*
X99386Y304861D01*
X99446Y304819D01*
X99504Y304775D01*
X99560Y304727D01*
X99613Y304677D01*
X99663Y304624D01*
X99711Y304568D01*
X99755Y304510D01*
X99797Y304450D01*
X99835Y304388D01*
X99870Y304323D01*
X99901Y304257D01*
X99929Y304190D01*
X99954Y304121D01*
X99974Y304051D01*
X99991Y303979D01*
X100005Y303908D01*
X100014Y303835D01*
X100020Y303762D01*
X100022Y303689D01*
X98625Y305086D02*
X98541Y305084D01*
X98458Y305078D01*
X98375Y305069D01*
X98293Y305055D01*
X98211Y305038D01*
X98130Y305016D01*
X98050Y304991D01*
X97972Y304963D01*
X97894Y304931D01*
X97819Y304895D01*
X97745Y304856D01*
X97673Y304813D01*
X97603Y304767D01*
X97536Y304718D01*
X97470Y304665D01*
X97408Y304610D01*
X97348Y304552D01*
X97290Y304491D01*
X97236Y304428D01*
X97184Y304362D01*
X97136Y304294D01*
X97091Y304223D01*
X97049Y304151D01*
X97011Y304076D01*
X96976Y304000D01*
X96945Y303923D01*
X96917Y303844D01*
X99555Y302603D02*
X99609Y302656D01*
X99660Y302713D01*
X99708Y302772D01*
X99753Y302833D01*
X99794Y302896D01*
X99833Y302962D01*
X99868Y303029D01*
X99900Y303098D01*
X99928Y303169D01*
X99952Y303240D01*
X99973Y303313D01*
X99990Y303387D01*
X100004Y303462D01*
X100013Y303537D01*
X100019Y303613D01*
X100021Y303689D01*
X99556Y302602D02*
X96917Y299498D01*
X100022Y299498D01*
X39250Y285210D02*
X38008Y285210D01*
X37938Y285212D01*
X37869Y285218D01*
X37800Y285228D01*
X37732Y285241D01*
X37664Y285259D01*
X37598Y285280D01*
X37533Y285305D01*
X37469Y285333D01*
X37407Y285365D01*
X37347Y285400D01*
X37289Y285439D01*
X37234Y285481D01*
X37180Y285526D01*
X37130Y285574D01*
X37082Y285624D01*
X37037Y285678D01*
X36995Y285733D01*
X36956Y285791D01*
X36921Y285851D01*
X36889Y285913D01*
X36861Y285977D01*
X36836Y286042D01*
X36815Y286108D01*
X36797Y286176D01*
X36784Y286244D01*
X36774Y286313D01*
X36768Y286382D01*
X36766Y286452D01*
X36767Y286452D02*
X36767Y289556D01*
X36766Y289556D02*
X36768Y289626D01*
X36774Y289695D01*
X36784Y289764D01*
X36797Y289832D01*
X36815Y289900D01*
X36836Y289966D01*
X36861Y290031D01*
X36889Y290095D01*
X36921Y290157D01*
X36956Y290217D01*
X36995Y290275D01*
X37037Y290330D01*
X37082Y290384D01*
X37130Y290434D01*
X37180Y290482D01*
X37234Y290527D01*
X37289Y290569D01*
X37347Y290608D01*
X37407Y290643D01*
X37469Y290675D01*
X37533Y290703D01*
X37598Y290728D01*
X37664Y290749D01*
X37732Y290767D01*
X37800Y290780D01*
X37869Y290790D01*
X37938Y290796D01*
X38008Y290798D01*
X39250Y290798D01*
X43062Y290798D02*
X43135Y290796D01*
X43208Y290790D01*
X43281Y290781D01*
X43352Y290767D01*
X43424Y290750D01*
X43494Y290730D01*
X43563Y290705D01*
X43630Y290677D01*
X43696Y290646D01*
X43761Y290611D01*
X43823Y290573D01*
X43883Y290531D01*
X43941Y290487D01*
X43997Y290439D01*
X44050Y290389D01*
X44100Y290336D01*
X44148Y290280D01*
X44192Y290222D01*
X44234Y290162D01*
X44272Y290100D01*
X44307Y290035D01*
X44338Y289969D01*
X44366Y289902D01*
X44391Y289833D01*
X44411Y289763D01*
X44428Y289691D01*
X44442Y289620D01*
X44451Y289547D01*
X44457Y289474D01*
X44459Y289401D01*
X43062Y290799D02*
X42978Y290797D01*
X42895Y290791D01*
X42812Y290782D01*
X42730Y290768D01*
X42648Y290751D01*
X42567Y290729D01*
X42487Y290704D01*
X42409Y290676D01*
X42331Y290644D01*
X42256Y290608D01*
X42182Y290569D01*
X42110Y290526D01*
X42040Y290480D01*
X41973Y290431D01*
X41907Y290378D01*
X41845Y290323D01*
X41785Y290265D01*
X41727Y290204D01*
X41673Y290141D01*
X41621Y290075D01*
X41573Y290007D01*
X41528Y289936D01*
X41486Y289864D01*
X41448Y289789D01*
X41413Y289713D01*
X41382Y289636D01*
X41354Y289557D01*
X43993Y288315D02*
X44047Y288368D01*
X44098Y288425D01*
X44146Y288484D01*
X44191Y288545D01*
X44232Y288608D01*
X44271Y288674D01*
X44306Y288741D01*
X44338Y288810D01*
X44366Y288881D01*
X44390Y288952D01*
X44411Y289025D01*
X44428Y289099D01*
X44442Y289174D01*
X44451Y289249D01*
X44457Y289325D01*
X44459Y289401D01*
X43993Y288315D02*
X41355Y285210D01*
X44459Y285210D01*
X46841Y289556D02*
X48393Y290798D01*
X48393Y285210D01*
X46841Y285210D02*
X49946Y285210D01*
X129127Y375352D02*
X129127Y376594D01*
X129128Y375352D02*
X129126Y375282D01*
X129120Y375213D01*
X129110Y375144D01*
X129097Y375076D01*
X129079Y375008D01*
X129058Y374942D01*
X129033Y374877D01*
X129005Y374813D01*
X128973Y374751D01*
X128938Y374691D01*
X128899Y374633D01*
X128857Y374578D01*
X128812Y374524D01*
X128764Y374474D01*
X128714Y374426D01*
X128660Y374381D01*
X128605Y374339D01*
X128547Y374300D01*
X128487Y374265D01*
X128425Y374233D01*
X128361Y374205D01*
X128296Y374180D01*
X128230Y374159D01*
X128162Y374141D01*
X128094Y374128D01*
X128025Y374118D01*
X127956Y374112D01*
X127886Y374110D01*
X124781Y374110D01*
X124711Y374112D01*
X124642Y374118D01*
X124573Y374128D01*
X124505Y374141D01*
X124437Y374159D01*
X124371Y374180D01*
X124306Y374205D01*
X124242Y374233D01*
X124180Y374265D01*
X124120Y374300D01*
X124062Y374339D01*
X124007Y374381D01*
X123953Y374426D01*
X123903Y374474D01*
X123855Y374524D01*
X123810Y374578D01*
X123768Y374633D01*
X123729Y374691D01*
X123694Y374751D01*
X123662Y374813D01*
X123634Y374877D01*
X123609Y374942D01*
X123588Y375008D01*
X123570Y375076D01*
X123557Y375144D01*
X123547Y375213D01*
X123541Y375282D01*
X123539Y375352D01*
X123539Y376594D01*
X129127Y378698D02*
X129127Y380251D01*
X129125Y380328D01*
X129119Y380406D01*
X129110Y380482D01*
X129096Y380559D01*
X129079Y380634D01*
X129058Y380708D01*
X129033Y380782D01*
X129005Y380854D01*
X128973Y380924D01*
X128938Y380993D01*
X128899Y381060D01*
X128857Y381125D01*
X128812Y381188D01*
X128764Y381249D01*
X128713Y381307D01*
X128659Y381362D01*
X128602Y381415D01*
X128543Y381464D01*
X128481Y381511D01*
X128417Y381555D01*
X128351Y381595D01*
X128283Y381632D01*
X128213Y381666D01*
X128142Y381696D01*
X128069Y381722D01*
X127995Y381745D01*
X127920Y381764D01*
X127845Y381779D01*
X127768Y381791D01*
X127691Y381799D01*
X127614Y381803D01*
X127536Y381803D01*
X127459Y381799D01*
X127382Y381791D01*
X127305Y381779D01*
X127230Y381764D01*
X127155Y381745D01*
X127081Y381722D01*
X127008Y381696D01*
X126937Y381666D01*
X126867Y381632D01*
X126799Y381595D01*
X126733Y381555D01*
X126669Y381511D01*
X126607Y381464D01*
X126548Y381415D01*
X126491Y381362D01*
X126437Y381307D01*
X126386Y381249D01*
X126338Y381188D01*
X126293Y381125D01*
X126251Y381060D01*
X126212Y380993D01*
X126177Y380924D01*
X126145Y380854D01*
X126117Y380782D01*
X126092Y380708D01*
X126071Y380634D01*
X126054Y380559D01*
X126040Y380482D01*
X126031Y380406D01*
X126025Y380328D01*
X126023Y380251D01*
X123539Y380561D02*
X123539Y378698D01*
X123539Y380561D02*
X123541Y380631D01*
X123547Y380700D01*
X123557Y380769D01*
X123570Y380837D01*
X123588Y380905D01*
X123609Y380971D01*
X123634Y381036D01*
X123662Y381100D01*
X123694Y381162D01*
X123729Y381222D01*
X123768Y381280D01*
X123810Y381335D01*
X123855Y381389D01*
X123903Y381439D01*
X123953Y381487D01*
X124007Y381532D01*
X124062Y381574D01*
X124120Y381613D01*
X124180Y381648D01*
X124242Y381680D01*
X124306Y381708D01*
X124371Y381733D01*
X124437Y381754D01*
X124505Y381772D01*
X124573Y381785D01*
X124642Y381795D01*
X124711Y381801D01*
X124781Y381803D01*
X124851Y381801D01*
X124920Y381795D01*
X124989Y381785D01*
X125057Y381772D01*
X125125Y381754D01*
X125191Y381733D01*
X125256Y381708D01*
X125320Y381680D01*
X125382Y381648D01*
X125442Y381613D01*
X125500Y381574D01*
X125555Y381532D01*
X125609Y381487D01*
X125659Y381439D01*
X125707Y381389D01*
X125752Y381335D01*
X125794Y381280D01*
X125833Y381222D01*
X125868Y381162D01*
X125900Y381100D01*
X125928Y381036D01*
X125953Y380971D01*
X125974Y380905D01*
X125992Y380837D01*
X126005Y380769D01*
X126015Y380700D01*
X126021Y380631D01*
X126023Y380561D01*
X126023Y379319D01*
X104521Y375006D02*
X104521Y373765D01*
X104519Y373695D01*
X104513Y373626D01*
X104503Y373557D01*
X104490Y373489D01*
X104472Y373421D01*
X104451Y373355D01*
X104426Y373290D01*
X104398Y373226D01*
X104366Y373164D01*
X104331Y373104D01*
X104292Y373046D01*
X104250Y372991D01*
X104205Y372937D01*
X104157Y372887D01*
X104107Y372839D01*
X104053Y372794D01*
X103998Y372752D01*
X103940Y372713D01*
X103880Y372678D01*
X103818Y372646D01*
X103754Y372618D01*
X103689Y372593D01*
X103623Y372572D01*
X103555Y372554D01*
X103487Y372541D01*
X103418Y372531D01*
X103349Y372525D01*
X103279Y372523D01*
X100175Y372523D01*
X100105Y372525D01*
X100036Y372531D01*
X99967Y372541D01*
X99899Y372554D01*
X99831Y372572D01*
X99765Y372593D01*
X99700Y372618D01*
X99636Y372646D01*
X99574Y372678D01*
X99514Y372713D01*
X99456Y372752D01*
X99401Y372794D01*
X99347Y372839D01*
X99297Y372887D01*
X99249Y372937D01*
X99204Y372991D01*
X99162Y373046D01*
X99123Y373104D01*
X99088Y373164D01*
X99056Y373226D01*
X99028Y373290D01*
X99003Y373355D01*
X98982Y373421D01*
X98964Y373489D01*
X98951Y373557D01*
X98941Y373626D01*
X98935Y373695D01*
X98933Y373765D01*
X98933Y375006D01*
X98933Y378353D02*
X103279Y377111D01*
X103279Y380215D01*
X102037Y379284D02*
X104521Y379284D01*
X233271Y308229D02*
X234513Y308229D01*
X233271Y308229D02*
X233201Y308231D01*
X233132Y308237D01*
X233063Y308247D01*
X232995Y308260D01*
X232927Y308278D01*
X232861Y308299D01*
X232796Y308324D01*
X232732Y308352D01*
X232670Y308384D01*
X232610Y308419D01*
X232552Y308458D01*
X232497Y308500D01*
X232443Y308545D01*
X232393Y308593D01*
X232345Y308643D01*
X232300Y308697D01*
X232258Y308752D01*
X232219Y308810D01*
X232184Y308870D01*
X232152Y308932D01*
X232124Y308996D01*
X232099Y309061D01*
X232078Y309127D01*
X232060Y309195D01*
X232047Y309263D01*
X232037Y309332D01*
X232031Y309401D01*
X232029Y309471D01*
X232029Y312575D01*
X232031Y312645D01*
X232037Y312714D01*
X232047Y312783D01*
X232060Y312851D01*
X232078Y312919D01*
X232099Y312985D01*
X232124Y313050D01*
X232152Y313114D01*
X232184Y313176D01*
X232219Y313236D01*
X232258Y313294D01*
X232300Y313349D01*
X232345Y313403D01*
X232393Y313453D01*
X232443Y313501D01*
X232497Y313546D01*
X232552Y313588D01*
X232610Y313627D01*
X232670Y313662D01*
X232732Y313694D01*
X232796Y313722D01*
X232861Y313747D01*
X232927Y313768D01*
X232995Y313786D01*
X233063Y313799D01*
X233132Y313809D01*
X233201Y313815D01*
X233271Y313817D01*
X234513Y313817D01*
X236617Y308229D02*
X238480Y308229D01*
X238550Y308231D01*
X238619Y308237D01*
X238688Y308247D01*
X238756Y308260D01*
X238824Y308278D01*
X238890Y308299D01*
X238955Y308324D01*
X239019Y308352D01*
X239081Y308384D01*
X239141Y308419D01*
X239199Y308458D01*
X239254Y308500D01*
X239308Y308545D01*
X239358Y308593D01*
X239406Y308643D01*
X239451Y308697D01*
X239493Y308752D01*
X239532Y308810D01*
X239567Y308870D01*
X239599Y308932D01*
X239627Y308996D01*
X239652Y309061D01*
X239673Y309127D01*
X239691Y309195D01*
X239704Y309263D01*
X239714Y309332D01*
X239720Y309401D01*
X239722Y309471D01*
X239722Y310092D01*
X239720Y310162D01*
X239714Y310231D01*
X239704Y310300D01*
X239691Y310368D01*
X239673Y310436D01*
X239652Y310502D01*
X239627Y310567D01*
X239599Y310631D01*
X239567Y310693D01*
X239532Y310753D01*
X239493Y310811D01*
X239451Y310866D01*
X239406Y310920D01*
X239358Y310970D01*
X239308Y311018D01*
X239254Y311063D01*
X239199Y311105D01*
X239141Y311144D01*
X239081Y311179D01*
X239019Y311211D01*
X238955Y311239D01*
X238890Y311264D01*
X238824Y311285D01*
X238756Y311303D01*
X238688Y311316D01*
X238619Y311326D01*
X238550Y311332D01*
X238480Y311334D01*
X238480Y311333D02*
X236617Y311333D01*
X236617Y313817D01*
X239722Y313817D01*
X176569Y311404D02*
X175327Y311404D01*
X175257Y311406D01*
X175188Y311412D01*
X175119Y311422D01*
X175051Y311435D01*
X174983Y311453D01*
X174917Y311474D01*
X174852Y311499D01*
X174788Y311527D01*
X174726Y311559D01*
X174666Y311594D01*
X174608Y311633D01*
X174553Y311675D01*
X174499Y311720D01*
X174449Y311768D01*
X174401Y311818D01*
X174356Y311872D01*
X174314Y311927D01*
X174275Y311985D01*
X174240Y312045D01*
X174208Y312107D01*
X174180Y312171D01*
X174155Y312236D01*
X174134Y312302D01*
X174116Y312370D01*
X174103Y312438D01*
X174093Y312507D01*
X174087Y312576D01*
X174085Y312646D01*
X174085Y315750D01*
X174087Y315820D01*
X174093Y315889D01*
X174103Y315958D01*
X174116Y316026D01*
X174134Y316094D01*
X174155Y316160D01*
X174180Y316225D01*
X174208Y316289D01*
X174240Y316351D01*
X174275Y316411D01*
X174314Y316469D01*
X174356Y316524D01*
X174401Y316578D01*
X174449Y316628D01*
X174499Y316676D01*
X174553Y316721D01*
X174608Y316763D01*
X174666Y316802D01*
X174726Y316837D01*
X174788Y316869D01*
X174852Y316897D01*
X174917Y316922D01*
X174983Y316943D01*
X175051Y316961D01*
X175119Y316974D01*
X175188Y316984D01*
X175257Y316990D01*
X175327Y316992D01*
X176569Y316992D01*
X178674Y312956D02*
X178676Y313033D01*
X178682Y313111D01*
X178691Y313187D01*
X178705Y313264D01*
X178722Y313339D01*
X178743Y313413D01*
X178768Y313487D01*
X178796Y313559D01*
X178828Y313629D01*
X178863Y313698D01*
X178902Y313765D01*
X178944Y313830D01*
X178989Y313893D01*
X179037Y313954D01*
X179088Y314012D01*
X179142Y314067D01*
X179199Y314120D01*
X179258Y314169D01*
X179320Y314216D01*
X179384Y314260D01*
X179450Y314300D01*
X179518Y314337D01*
X179588Y314371D01*
X179659Y314401D01*
X179732Y314427D01*
X179806Y314450D01*
X179881Y314469D01*
X179956Y314484D01*
X180033Y314496D01*
X180110Y314504D01*
X180187Y314508D01*
X180265Y314508D01*
X180342Y314504D01*
X180419Y314496D01*
X180496Y314484D01*
X180571Y314469D01*
X180646Y314450D01*
X180720Y314427D01*
X180793Y314401D01*
X180864Y314371D01*
X180934Y314337D01*
X181002Y314300D01*
X181068Y314260D01*
X181132Y314216D01*
X181194Y314169D01*
X181253Y314120D01*
X181310Y314067D01*
X181364Y314012D01*
X181415Y313954D01*
X181463Y313893D01*
X181508Y313830D01*
X181550Y313765D01*
X181589Y313698D01*
X181624Y313629D01*
X181656Y313559D01*
X181684Y313487D01*
X181709Y313413D01*
X181730Y313339D01*
X181747Y313264D01*
X181761Y313187D01*
X181770Y313111D01*
X181776Y313033D01*
X181778Y312956D01*
X181776Y312879D01*
X181770Y312801D01*
X181761Y312725D01*
X181747Y312648D01*
X181730Y312573D01*
X181709Y312499D01*
X181684Y312425D01*
X181656Y312353D01*
X181624Y312283D01*
X181589Y312214D01*
X181550Y312147D01*
X181508Y312082D01*
X181463Y312019D01*
X181415Y311958D01*
X181364Y311900D01*
X181310Y311845D01*
X181253Y311792D01*
X181194Y311743D01*
X181132Y311696D01*
X181068Y311652D01*
X181002Y311612D01*
X180934Y311575D01*
X180864Y311541D01*
X180793Y311511D01*
X180720Y311485D01*
X180646Y311462D01*
X180571Y311443D01*
X180496Y311428D01*
X180419Y311416D01*
X180342Y311408D01*
X180265Y311404D01*
X180187Y311404D01*
X180110Y311408D01*
X180033Y311416D01*
X179956Y311428D01*
X179881Y311443D01*
X179806Y311462D01*
X179732Y311485D01*
X179659Y311511D01*
X179588Y311541D01*
X179518Y311575D01*
X179450Y311612D01*
X179384Y311652D01*
X179320Y311696D01*
X179258Y311743D01*
X179199Y311792D01*
X179142Y311845D01*
X179088Y311900D01*
X179037Y311958D01*
X178989Y312019D01*
X178944Y312082D01*
X178902Y312147D01*
X178863Y312214D01*
X178828Y312283D01*
X178796Y312353D01*
X178768Y312425D01*
X178743Y312499D01*
X178722Y312573D01*
X178705Y312648D01*
X178691Y312725D01*
X178682Y312801D01*
X178676Y312879D01*
X178674Y312956D01*
X178984Y315750D02*
X178986Y315820D01*
X178992Y315889D01*
X179002Y315958D01*
X179015Y316026D01*
X179033Y316094D01*
X179054Y316160D01*
X179079Y316225D01*
X179107Y316289D01*
X179139Y316351D01*
X179174Y316411D01*
X179213Y316469D01*
X179255Y316524D01*
X179300Y316578D01*
X179348Y316628D01*
X179398Y316676D01*
X179452Y316721D01*
X179507Y316763D01*
X179565Y316802D01*
X179625Y316837D01*
X179687Y316869D01*
X179751Y316897D01*
X179816Y316922D01*
X179882Y316943D01*
X179950Y316961D01*
X180018Y316974D01*
X180087Y316984D01*
X180156Y316990D01*
X180226Y316992D01*
X180296Y316990D01*
X180365Y316984D01*
X180434Y316974D01*
X180502Y316961D01*
X180570Y316943D01*
X180636Y316922D01*
X180701Y316897D01*
X180765Y316869D01*
X180827Y316837D01*
X180887Y316802D01*
X180945Y316763D01*
X181000Y316721D01*
X181054Y316676D01*
X181104Y316628D01*
X181152Y316578D01*
X181197Y316524D01*
X181239Y316469D01*
X181278Y316411D01*
X181313Y316351D01*
X181345Y316289D01*
X181373Y316225D01*
X181398Y316160D01*
X181419Y316094D01*
X181437Y316026D01*
X181450Y315958D01*
X181460Y315889D01*
X181466Y315820D01*
X181468Y315750D01*
X181466Y315680D01*
X181460Y315611D01*
X181450Y315542D01*
X181437Y315474D01*
X181419Y315406D01*
X181398Y315340D01*
X181373Y315275D01*
X181345Y315211D01*
X181313Y315149D01*
X181278Y315089D01*
X181239Y315031D01*
X181197Y314976D01*
X181152Y314922D01*
X181104Y314872D01*
X181054Y314824D01*
X181000Y314779D01*
X180945Y314737D01*
X180887Y314698D01*
X180827Y314663D01*
X180765Y314631D01*
X180701Y314603D01*
X180636Y314578D01*
X180570Y314557D01*
X180502Y314539D01*
X180434Y314526D01*
X180365Y314516D01*
X180296Y314510D01*
X180226Y314508D01*
X180156Y314510D01*
X180087Y314516D01*
X180018Y314526D01*
X179950Y314539D01*
X179882Y314557D01*
X179816Y314578D01*
X179751Y314603D01*
X179687Y314631D01*
X179625Y314663D01*
X179565Y314698D01*
X179507Y314737D01*
X179452Y314779D01*
X179398Y314824D01*
X179348Y314872D01*
X179300Y314922D01*
X179255Y314976D01*
X179213Y315031D01*
X179174Y315089D01*
X179139Y315149D01*
X179107Y315211D01*
X179079Y315275D01*
X179054Y315340D01*
X179033Y315406D01*
X179015Y315474D01*
X179002Y315542D01*
X178992Y315611D01*
X178986Y315680D01*
X178984Y315750D01*
D11*
X209187Y166275D02*
X210824Y166275D01*
X209187Y166275D02*
X209109Y166277D01*
X209031Y166282D01*
X208954Y166292D01*
X208877Y166305D01*
X208801Y166321D01*
X208726Y166341D01*
X208652Y166365D01*
X208579Y166392D01*
X208507Y166423D01*
X208437Y166457D01*
X208369Y166494D01*
X208302Y166535D01*
X208237Y166579D01*
X208175Y166625D01*
X208115Y166675D01*
X208057Y166727D01*
X208002Y166782D01*
X207950Y166840D01*
X207900Y166900D01*
X207854Y166962D01*
X207810Y167027D01*
X207769Y167094D01*
X207732Y167162D01*
X207698Y167232D01*
X207667Y167304D01*
X207640Y167377D01*
X207616Y167451D01*
X207596Y167526D01*
X207580Y167602D01*
X207567Y167679D01*
X207557Y167756D01*
X207552Y167834D01*
X207550Y167912D01*
X207550Y172004D01*
X207552Y172084D01*
X207558Y172164D01*
X207568Y172244D01*
X207581Y172323D01*
X207599Y172402D01*
X207620Y172479D01*
X207646Y172555D01*
X207675Y172630D01*
X207707Y172704D01*
X207743Y172776D01*
X207783Y172846D01*
X207826Y172913D01*
X207872Y172979D01*
X207922Y173042D01*
X207974Y173103D01*
X208029Y173162D01*
X208088Y173217D01*
X208148Y173269D01*
X208212Y173319D01*
X208278Y173365D01*
X208345Y173408D01*
X208415Y173448D01*
X208487Y173484D01*
X208561Y173516D01*
X208635Y173545D01*
X208712Y173571D01*
X208789Y173592D01*
X208868Y173610D01*
X208947Y173623D01*
X209027Y173633D01*
X209107Y173639D01*
X209187Y173641D01*
X210824Y173641D01*
X215306Y169549D02*
X217761Y169549D01*
X215306Y169548D02*
X215228Y169550D01*
X215150Y169555D01*
X215073Y169565D01*
X214996Y169578D01*
X214920Y169594D01*
X214845Y169614D01*
X214771Y169638D01*
X214698Y169665D01*
X214626Y169696D01*
X214556Y169730D01*
X214487Y169767D01*
X214421Y169808D01*
X214356Y169852D01*
X214294Y169898D01*
X214234Y169948D01*
X214176Y170000D01*
X214121Y170055D01*
X214069Y170113D01*
X214019Y170173D01*
X213973Y170235D01*
X213929Y170300D01*
X213888Y170367D01*
X213851Y170435D01*
X213817Y170505D01*
X213786Y170577D01*
X213759Y170650D01*
X213735Y170724D01*
X213715Y170799D01*
X213699Y170875D01*
X213686Y170952D01*
X213676Y171029D01*
X213671Y171107D01*
X213669Y171185D01*
X213669Y171595D01*
X213671Y171684D01*
X213677Y171773D01*
X213687Y171862D01*
X213700Y171950D01*
X213717Y172038D01*
X213739Y172125D01*
X213764Y172210D01*
X213792Y172295D01*
X213825Y172378D01*
X213861Y172460D01*
X213900Y172540D01*
X213943Y172618D01*
X213989Y172694D01*
X214039Y172769D01*
X214092Y172841D01*
X214148Y172910D01*
X214207Y172977D01*
X214268Y173042D01*
X214333Y173103D01*
X214400Y173162D01*
X214469Y173218D01*
X214541Y173271D01*
X214616Y173321D01*
X214692Y173367D01*
X214770Y173410D01*
X214850Y173449D01*
X214932Y173485D01*
X215015Y173518D01*
X215100Y173546D01*
X215185Y173571D01*
X215272Y173593D01*
X215360Y173610D01*
X215448Y173623D01*
X215537Y173633D01*
X215626Y173639D01*
X215715Y173641D01*
X215804Y173639D01*
X215893Y173633D01*
X215982Y173623D01*
X216070Y173610D01*
X216158Y173593D01*
X216245Y173571D01*
X216330Y173546D01*
X216415Y173518D01*
X216498Y173485D01*
X216580Y173449D01*
X216660Y173410D01*
X216738Y173367D01*
X216814Y173321D01*
X216889Y173271D01*
X216961Y173218D01*
X217030Y173162D01*
X217097Y173103D01*
X217162Y173042D01*
X217223Y172977D01*
X217282Y172910D01*
X217338Y172841D01*
X217391Y172769D01*
X217441Y172694D01*
X217487Y172618D01*
X217530Y172540D01*
X217569Y172460D01*
X217605Y172378D01*
X217638Y172295D01*
X217666Y172210D01*
X217691Y172125D01*
X217713Y172038D01*
X217730Y171950D01*
X217743Y171862D01*
X217753Y171773D01*
X217759Y171684D01*
X217761Y171595D01*
X217761Y169549D01*
X217759Y169437D01*
X217753Y169326D01*
X217744Y169214D01*
X217731Y169103D01*
X217713Y168993D01*
X217693Y168883D01*
X217668Y168774D01*
X217640Y168666D01*
X217608Y168559D01*
X217572Y168453D01*
X217533Y168348D01*
X217490Y168245D01*
X217444Y168143D01*
X217394Y168043D01*
X217341Y167944D01*
X217284Y167848D01*
X217225Y167753D01*
X217162Y167661D01*
X217096Y167571D01*
X217027Y167483D01*
X216955Y167397D01*
X216880Y167314D01*
X216802Y167234D01*
X216722Y167156D01*
X216639Y167081D01*
X216553Y167009D01*
X216465Y166940D01*
X216375Y166874D01*
X216283Y166811D01*
X216188Y166752D01*
X216092Y166695D01*
X215993Y166642D01*
X215893Y166592D01*
X215791Y166546D01*
X215688Y166503D01*
X215583Y166464D01*
X215477Y166428D01*
X215370Y166396D01*
X215262Y166368D01*
X215153Y166343D01*
X215043Y166323D01*
X214933Y166305D01*
X214822Y166292D01*
X214710Y166283D01*
X214599Y166277D01*
X214487Y166275D01*
D12*
X135825Y152400D02*
X123325Y145400D01*
X123325Y159400D01*
X135825Y152400D01*
D13*
X136325Y152400D03*
D10*
X88016Y165536D02*
X88016Y171124D01*
X89568Y171124D01*
X89568Y171123D02*
X89644Y171121D01*
X89720Y171116D01*
X89796Y171106D01*
X89871Y171093D01*
X89945Y171076D01*
X90019Y171056D01*
X90091Y171032D01*
X90162Y171005D01*
X90232Y170974D01*
X90300Y170940D01*
X90366Y170902D01*
X90430Y170861D01*
X90493Y170818D01*
X90553Y170771D01*
X90610Y170721D01*
X90665Y170668D01*
X90718Y170613D01*
X90768Y170556D01*
X90815Y170496D01*
X90858Y170433D01*
X90899Y170369D01*
X90937Y170303D01*
X90971Y170235D01*
X91002Y170165D01*
X91029Y170094D01*
X91053Y170021D01*
X91073Y169948D01*
X91090Y169874D01*
X91103Y169799D01*
X91113Y169723D01*
X91118Y169647D01*
X91120Y169571D01*
X91121Y169571D02*
X91121Y167088D01*
X91120Y167088D02*
X91118Y167009D01*
X91112Y166931D01*
X91102Y166853D01*
X91088Y166776D01*
X91070Y166699D01*
X91049Y166623D01*
X91023Y166549D01*
X90994Y166476D01*
X90961Y166405D01*
X90925Y166335D01*
X90885Y166267D01*
X90842Y166201D01*
X90795Y166138D01*
X90746Y166077D01*
X90693Y166019D01*
X90637Y165963D01*
X90579Y165910D01*
X90518Y165861D01*
X90455Y165814D01*
X90389Y165771D01*
X90321Y165731D01*
X90252Y165695D01*
X90180Y165662D01*
X90107Y165633D01*
X90033Y165607D01*
X89957Y165586D01*
X89880Y165568D01*
X89803Y165554D01*
X89725Y165544D01*
X89647Y165538D01*
X89568Y165536D01*
X88016Y165536D01*
X93685Y169882D02*
X95238Y171124D01*
X95238Y165536D01*
X96790Y165536D02*
X93685Y165536D01*
D14*
X78331Y16169D02*
X78331Y3369D01*
X167731Y3369D02*
X167731Y16169D01*
X78331Y43369D02*
X78331Y55869D01*
X167731Y55869D02*
X167731Y43369D01*
X89531Y89369D02*
X89533Y89432D01*
X89539Y89494D01*
X89549Y89556D01*
X89562Y89618D01*
X89580Y89678D01*
X89601Y89737D01*
X89626Y89795D01*
X89655Y89851D01*
X89687Y89905D01*
X89722Y89957D01*
X89760Y90006D01*
X89802Y90054D01*
X89846Y90098D01*
X89894Y90140D01*
X89943Y90178D01*
X89995Y90213D01*
X90049Y90245D01*
X90105Y90274D01*
X90163Y90299D01*
X90222Y90320D01*
X90282Y90338D01*
X90344Y90351D01*
X90406Y90361D01*
X90468Y90367D01*
X90531Y90369D01*
X90594Y90367D01*
X90656Y90361D01*
X90718Y90351D01*
X90780Y90338D01*
X90840Y90320D01*
X90899Y90299D01*
X90957Y90274D01*
X91013Y90245D01*
X91067Y90213D01*
X91119Y90178D01*
X91168Y90140D01*
X91216Y90098D01*
X91260Y90054D01*
X91302Y90006D01*
X91340Y89957D01*
X91375Y89905D01*
X91407Y89851D01*
X91436Y89795D01*
X91461Y89737D01*
X91482Y89678D01*
X91500Y89618D01*
X91513Y89556D01*
X91523Y89494D01*
X91529Y89432D01*
X91531Y89369D01*
X91529Y89306D01*
X91523Y89244D01*
X91513Y89182D01*
X91500Y89120D01*
X91482Y89060D01*
X91461Y89001D01*
X91436Y88943D01*
X91407Y88887D01*
X91375Y88833D01*
X91340Y88781D01*
X91302Y88732D01*
X91260Y88684D01*
X91216Y88640D01*
X91168Y88598D01*
X91119Y88560D01*
X91067Y88525D01*
X91013Y88493D01*
X90957Y88464D01*
X90899Y88439D01*
X90840Y88418D01*
X90780Y88400D01*
X90718Y88387D01*
X90656Y88377D01*
X90594Y88371D01*
X90531Y88369D01*
X90468Y88371D01*
X90406Y88377D01*
X90344Y88387D01*
X90282Y88400D01*
X90222Y88418D01*
X90163Y88439D01*
X90105Y88464D01*
X90049Y88493D01*
X89995Y88525D01*
X89943Y88560D01*
X89894Y88598D01*
X89846Y88640D01*
X89802Y88684D01*
X89760Y88732D01*
X89722Y88781D01*
X89687Y88833D01*
X89655Y88887D01*
X89626Y88943D01*
X89601Y89001D01*
X89580Y89060D01*
X89562Y89120D01*
X89549Y89182D01*
X89539Y89244D01*
X89533Y89306D01*
X89531Y89369D01*
D10*
X121979Y46948D02*
X121979Y42602D01*
X121977Y42532D01*
X121971Y42463D01*
X121961Y42394D01*
X121948Y42326D01*
X121930Y42258D01*
X121909Y42192D01*
X121884Y42127D01*
X121856Y42063D01*
X121824Y42001D01*
X121789Y41941D01*
X121750Y41883D01*
X121708Y41828D01*
X121663Y41774D01*
X121615Y41724D01*
X121565Y41676D01*
X121511Y41631D01*
X121456Y41589D01*
X121398Y41550D01*
X121338Y41515D01*
X121276Y41483D01*
X121212Y41455D01*
X121147Y41430D01*
X121081Y41409D01*
X121013Y41391D01*
X120945Y41378D01*
X120876Y41368D01*
X120807Y41362D01*
X120737Y41360D01*
X120117Y41360D01*
X124521Y45706D02*
X126073Y46948D01*
X126073Y41360D01*
X124521Y41360D02*
X127626Y41360D01*
D15*
X198163Y43025D02*
X248163Y43025D01*
X248163Y63025D01*
X248163Y83025D02*
X248163Y103025D01*
X198163Y103025D01*
X198163Y43025D01*
X243163Y83025D02*
X248163Y83025D01*
X243163Y83025D02*
X243163Y63025D01*
X248163Y63025D01*
D10*
X193692Y84829D02*
X189346Y84829D01*
X193692Y84829D02*
X193762Y84827D01*
X193831Y84821D01*
X193900Y84811D01*
X193968Y84798D01*
X194036Y84780D01*
X194102Y84759D01*
X194167Y84734D01*
X194231Y84706D01*
X194293Y84674D01*
X194353Y84639D01*
X194411Y84600D01*
X194466Y84558D01*
X194520Y84513D01*
X194570Y84465D01*
X194618Y84415D01*
X194663Y84361D01*
X194705Y84306D01*
X194744Y84248D01*
X194779Y84188D01*
X194811Y84126D01*
X194839Y84062D01*
X194864Y83997D01*
X194885Y83931D01*
X194903Y83863D01*
X194916Y83795D01*
X194926Y83726D01*
X194932Y83657D01*
X194934Y83587D01*
X194934Y82967D01*
X194934Y87637D02*
X189346Y87637D01*
X189346Y89189D01*
X189348Y89266D01*
X189354Y89344D01*
X189363Y89420D01*
X189377Y89497D01*
X189394Y89572D01*
X189415Y89646D01*
X189440Y89720D01*
X189468Y89792D01*
X189500Y89862D01*
X189535Y89931D01*
X189574Y89998D01*
X189616Y90063D01*
X189661Y90126D01*
X189709Y90187D01*
X189760Y90245D01*
X189814Y90300D01*
X189871Y90353D01*
X189930Y90402D01*
X189992Y90449D01*
X190056Y90493D01*
X190122Y90533D01*
X190190Y90570D01*
X190260Y90604D01*
X190331Y90634D01*
X190404Y90660D01*
X190478Y90683D01*
X190553Y90702D01*
X190628Y90717D01*
X190705Y90729D01*
X190782Y90737D01*
X190859Y90741D01*
X190937Y90741D01*
X191014Y90737D01*
X191091Y90729D01*
X191168Y90717D01*
X191243Y90702D01*
X191318Y90683D01*
X191392Y90660D01*
X191465Y90634D01*
X191536Y90604D01*
X191606Y90570D01*
X191674Y90533D01*
X191740Y90493D01*
X191804Y90449D01*
X191866Y90402D01*
X191925Y90353D01*
X191982Y90300D01*
X192036Y90245D01*
X192087Y90187D01*
X192135Y90126D01*
X192180Y90063D01*
X192222Y89998D01*
X192261Y89931D01*
X192296Y89862D01*
X192328Y89792D01*
X192356Y89720D01*
X192381Y89646D01*
X192402Y89572D01*
X192419Y89497D01*
X192433Y89420D01*
X192442Y89344D01*
X192448Y89266D01*
X192450Y89189D01*
X192450Y87637D01*
X190587Y92858D02*
X189346Y94410D01*
X194934Y94410D01*
X194934Y92858D02*
X194934Y95962D01*
D16*
X240825Y120024D02*
X240825Y133024D01*
X210025Y133024D02*
X210025Y120024D01*
X231675Y120024D02*
X240825Y120024D01*
X219175Y120024D02*
X210025Y120024D01*
D14*
X233575Y147524D02*
X233577Y147587D01*
X233583Y147649D01*
X233593Y147711D01*
X233606Y147773D01*
X233624Y147833D01*
X233645Y147892D01*
X233670Y147950D01*
X233699Y148006D01*
X233731Y148060D01*
X233766Y148112D01*
X233804Y148161D01*
X233846Y148209D01*
X233890Y148253D01*
X233938Y148295D01*
X233987Y148333D01*
X234039Y148368D01*
X234093Y148400D01*
X234149Y148429D01*
X234207Y148454D01*
X234266Y148475D01*
X234326Y148493D01*
X234388Y148506D01*
X234450Y148516D01*
X234512Y148522D01*
X234575Y148524D01*
X234638Y148522D01*
X234700Y148516D01*
X234762Y148506D01*
X234824Y148493D01*
X234884Y148475D01*
X234943Y148454D01*
X235001Y148429D01*
X235057Y148400D01*
X235111Y148368D01*
X235163Y148333D01*
X235212Y148295D01*
X235260Y148253D01*
X235304Y148209D01*
X235346Y148161D01*
X235384Y148112D01*
X235419Y148060D01*
X235451Y148006D01*
X235480Y147950D01*
X235505Y147892D01*
X235526Y147833D01*
X235544Y147773D01*
X235557Y147711D01*
X235567Y147649D01*
X235573Y147587D01*
X235575Y147524D01*
X235573Y147461D01*
X235567Y147399D01*
X235557Y147337D01*
X235544Y147275D01*
X235526Y147215D01*
X235505Y147156D01*
X235480Y147098D01*
X235451Y147042D01*
X235419Y146988D01*
X235384Y146936D01*
X235346Y146887D01*
X235304Y146839D01*
X235260Y146795D01*
X235212Y146753D01*
X235163Y146715D01*
X235111Y146680D01*
X235057Y146648D01*
X235001Y146619D01*
X234943Y146594D01*
X234884Y146573D01*
X234824Y146555D01*
X234762Y146542D01*
X234700Y146532D01*
X234638Y146526D01*
X234575Y146524D01*
X234512Y146526D01*
X234450Y146532D01*
X234388Y146542D01*
X234326Y146555D01*
X234266Y146573D01*
X234207Y146594D01*
X234149Y146619D01*
X234093Y146648D01*
X234039Y146680D01*
X233987Y146715D01*
X233938Y146753D01*
X233890Y146795D01*
X233846Y146839D01*
X233804Y146887D01*
X233766Y146936D01*
X233731Y146988D01*
X233699Y147042D01*
X233670Y147098D01*
X233645Y147156D01*
X233624Y147215D01*
X233606Y147275D01*
X233593Y147337D01*
X233583Y147399D01*
X233577Y147461D01*
X233575Y147524D01*
D10*
X200837Y144146D02*
X200837Y141662D01*
X200837Y144146D02*
X200839Y144223D01*
X200845Y144301D01*
X200854Y144377D01*
X200868Y144454D01*
X200885Y144529D01*
X200906Y144603D01*
X200931Y144677D01*
X200959Y144749D01*
X200991Y144819D01*
X201026Y144888D01*
X201065Y144955D01*
X201107Y145020D01*
X201152Y145083D01*
X201200Y145144D01*
X201251Y145202D01*
X201305Y145257D01*
X201362Y145310D01*
X201421Y145359D01*
X201483Y145406D01*
X201547Y145450D01*
X201613Y145490D01*
X201681Y145527D01*
X201751Y145561D01*
X201822Y145591D01*
X201895Y145617D01*
X201969Y145640D01*
X202044Y145659D01*
X202119Y145674D01*
X202196Y145686D01*
X202273Y145694D01*
X202350Y145698D01*
X202428Y145698D01*
X202505Y145694D01*
X202582Y145686D01*
X202659Y145674D01*
X202734Y145659D01*
X202809Y145640D01*
X202883Y145617D01*
X202956Y145591D01*
X203027Y145561D01*
X203097Y145527D01*
X203165Y145490D01*
X203231Y145450D01*
X203295Y145406D01*
X203357Y145359D01*
X203416Y145310D01*
X203473Y145257D01*
X203527Y145202D01*
X203578Y145144D01*
X203626Y145083D01*
X203671Y145020D01*
X203713Y144955D01*
X203752Y144888D01*
X203787Y144819D01*
X203819Y144749D01*
X203847Y144677D01*
X203872Y144603D01*
X203893Y144529D01*
X203910Y144454D01*
X203924Y144377D01*
X203933Y144301D01*
X203939Y144223D01*
X203941Y144146D01*
X203941Y141662D01*
X203939Y141585D01*
X203933Y141507D01*
X203924Y141431D01*
X203910Y141354D01*
X203893Y141279D01*
X203872Y141205D01*
X203847Y141131D01*
X203819Y141059D01*
X203787Y140989D01*
X203752Y140920D01*
X203713Y140853D01*
X203671Y140788D01*
X203626Y140725D01*
X203578Y140664D01*
X203527Y140606D01*
X203473Y140551D01*
X203416Y140498D01*
X203357Y140449D01*
X203295Y140402D01*
X203231Y140358D01*
X203165Y140318D01*
X203097Y140281D01*
X203027Y140247D01*
X202956Y140217D01*
X202883Y140191D01*
X202809Y140168D01*
X202734Y140149D01*
X202659Y140134D01*
X202582Y140122D01*
X202505Y140114D01*
X202428Y140110D01*
X202350Y140110D01*
X202273Y140114D01*
X202196Y140122D01*
X202119Y140134D01*
X202044Y140149D01*
X201969Y140168D01*
X201895Y140191D01*
X201822Y140217D01*
X201751Y140247D01*
X201681Y140281D01*
X201613Y140318D01*
X201547Y140358D01*
X201483Y140402D01*
X201421Y140449D01*
X201362Y140498D01*
X201305Y140551D01*
X201251Y140606D01*
X201200Y140664D01*
X201152Y140725D01*
X201107Y140788D01*
X201065Y140853D01*
X201026Y140920D01*
X200991Y140989D01*
X200959Y141059D01*
X200931Y141131D01*
X200906Y141205D01*
X200885Y141279D01*
X200868Y141354D01*
X200854Y141431D01*
X200845Y141507D01*
X200839Y141585D01*
X200837Y141662D01*
X203320Y141352D02*
X204562Y140110D01*
X206179Y144456D02*
X207731Y145698D01*
X207731Y140110D01*
X206179Y140110D02*
X209283Y140110D01*
X137241Y331502D02*
X137241Y337090D01*
X138794Y337090D01*
X138871Y337088D01*
X138949Y337082D01*
X139025Y337073D01*
X139102Y337059D01*
X139177Y337042D01*
X139251Y337021D01*
X139325Y336996D01*
X139397Y336968D01*
X139467Y336936D01*
X139536Y336901D01*
X139603Y336862D01*
X139668Y336820D01*
X139731Y336775D01*
X139792Y336727D01*
X139850Y336676D01*
X139905Y336622D01*
X139958Y336565D01*
X140007Y336506D01*
X140054Y336444D01*
X140098Y336380D01*
X140138Y336314D01*
X140175Y336246D01*
X140209Y336176D01*
X140239Y336105D01*
X140265Y336032D01*
X140288Y335958D01*
X140307Y335883D01*
X140322Y335808D01*
X140334Y335731D01*
X140342Y335654D01*
X140346Y335577D01*
X140346Y335499D01*
X140342Y335422D01*
X140334Y335345D01*
X140322Y335268D01*
X140307Y335193D01*
X140288Y335118D01*
X140265Y335044D01*
X140239Y334971D01*
X140209Y334900D01*
X140175Y334830D01*
X140138Y334762D01*
X140098Y334696D01*
X140054Y334632D01*
X140007Y334570D01*
X139958Y334511D01*
X139905Y334454D01*
X139850Y334400D01*
X139792Y334349D01*
X139731Y334301D01*
X139668Y334256D01*
X139603Y334214D01*
X139536Y334175D01*
X139467Y334140D01*
X139397Y334108D01*
X139325Y334080D01*
X139251Y334055D01*
X139177Y334034D01*
X139102Y334017D01*
X139025Y334003D01*
X138949Y333994D01*
X138871Y333988D01*
X138794Y333986D01*
X138794Y333985D02*
X137241Y333985D01*
X139104Y333985D02*
X140346Y331502D01*
X142692Y335848D02*
X144244Y337090D01*
X144244Y331502D01*
X142692Y331502D02*
X145796Y331502D01*
X161385Y139192D02*
X161385Y133604D01*
X161385Y139192D02*
X162937Y139192D01*
X163014Y139190D01*
X163092Y139184D01*
X163168Y139175D01*
X163245Y139161D01*
X163320Y139144D01*
X163394Y139123D01*
X163468Y139098D01*
X163540Y139070D01*
X163610Y139038D01*
X163679Y139003D01*
X163746Y138964D01*
X163811Y138922D01*
X163874Y138877D01*
X163935Y138829D01*
X163993Y138778D01*
X164048Y138724D01*
X164101Y138667D01*
X164150Y138608D01*
X164197Y138546D01*
X164241Y138482D01*
X164281Y138416D01*
X164318Y138348D01*
X164352Y138278D01*
X164382Y138207D01*
X164408Y138134D01*
X164431Y138060D01*
X164450Y137985D01*
X164465Y137910D01*
X164477Y137833D01*
X164485Y137756D01*
X164489Y137679D01*
X164489Y137601D01*
X164485Y137524D01*
X164477Y137447D01*
X164465Y137370D01*
X164450Y137295D01*
X164431Y137220D01*
X164408Y137146D01*
X164382Y137073D01*
X164352Y137002D01*
X164318Y136932D01*
X164281Y136864D01*
X164241Y136798D01*
X164197Y136734D01*
X164150Y136672D01*
X164101Y136613D01*
X164048Y136556D01*
X163993Y136502D01*
X163935Y136451D01*
X163874Y136403D01*
X163811Y136358D01*
X163746Y136316D01*
X163679Y136277D01*
X163610Y136242D01*
X163540Y136210D01*
X163468Y136182D01*
X163394Y136157D01*
X163320Y136136D01*
X163245Y136119D01*
X163168Y136105D01*
X163092Y136096D01*
X163014Y136090D01*
X162937Y136088D01*
X161385Y136088D01*
X163248Y136088D02*
X164490Y133604D01*
X166836Y137950D02*
X168388Y139192D01*
X168388Y133604D01*
X166836Y133604D02*
X169940Y133604D01*
X175426Y137795D02*
X175424Y137868D01*
X175418Y137941D01*
X175409Y138014D01*
X175395Y138085D01*
X175378Y138157D01*
X175358Y138227D01*
X175333Y138296D01*
X175305Y138363D01*
X175274Y138429D01*
X175239Y138494D01*
X175201Y138556D01*
X175159Y138616D01*
X175115Y138674D01*
X175067Y138730D01*
X175017Y138783D01*
X174964Y138833D01*
X174908Y138881D01*
X174850Y138925D01*
X174790Y138967D01*
X174728Y139005D01*
X174663Y139040D01*
X174597Y139071D01*
X174530Y139099D01*
X174461Y139124D01*
X174391Y139144D01*
X174319Y139161D01*
X174248Y139175D01*
X174175Y139184D01*
X174102Y139190D01*
X174029Y139192D01*
X173945Y139190D01*
X173862Y139184D01*
X173779Y139175D01*
X173697Y139161D01*
X173615Y139144D01*
X173534Y139122D01*
X173454Y139097D01*
X173376Y139069D01*
X173298Y139037D01*
X173223Y139001D01*
X173149Y138962D01*
X173077Y138919D01*
X173007Y138873D01*
X172940Y138824D01*
X172874Y138771D01*
X172812Y138716D01*
X172752Y138658D01*
X172694Y138597D01*
X172640Y138534D01*
X172588Y138468D01*
X172540Y138400D01*
X172495Y138329D01*
X172453Y138257D01*
X172415Y138182D01*
X172380Y138106D01*
X172349Y138029D01*
X172321Y137950D01*
X174960Y136709D02*
X175014Y136762D01*
X175065Y136819D01*
X175113Y136878D01*
X175158Y136939D01*
X175199Y137002D01*
X175238Y137068D01*
X175273Y137135D01*
X175305Y137204D01*
X175333Y137275D01*
X175357Y137346D01*
X175378Y137419D01*
X175395Y137493D01*
X175409Y137568D01*
X175418Y137643D01*
X175424Y137719D01*
X175426Y137795D01*
X174961Y136708D02*
X172322Y133604D01*
X175426Y133604D01*
X96443Y331819D02*
X96443Y337407D01*
X97995Y337407D01*
X98072Y337405D01*
X98150Y337399D01*
X98226Y337390D01*
X98303Y337376D01*
X98378Y337359D01*
X98452Y337338D01*
X98526Y337313D01*
X98598Y337285D01*
X98668Y337253D01*
X98737Y337218D01*
X98804Y337179D01*
X98869Y337137D01*
X98932Y337092D01*
X98993Y337044D01*
X99051Y336993D01*
X99106Y336939D01*
X99159Y336882D01*
X99208Y336823D01*
X99255Y336761D01*
X99299Y336697D01*
X99339Y336631D01*
X99376Y336563D01*
X99410Y336493D01*
X99440Y336422D01*
X99466Y336349D01*
X99489Y336275D01*
X99508Y336200D01*
X99523Y336125D01*
X99535Y336048D01*
X99543Y335971D01*
X99547Y335894D01*
X99547Y335816D01*
X99543Y335739D01*
X99535Y335662D01*
X99523Y335585D01*
X99508Y335510D01*
X99489Y335435D01*
X99466Y335361D01*
X99440Y335288D01*
X99410Y335217D01*
X99376Y335147D01*
X99339Y335079D01*
X99299Y335013D01*
X99255Y334949D01*
X99208Y334887D01*
X99159Y334828D01*
X99106Y334771D01*
X99051Y334717D01*
X98993Y334666D01*
X98932Y334618D01*
X98869Y334573D01*
X98804Y334531D01*
X98737Y334492D01*
X98668Y334457D01*
X98598Y334425D01*
X98526Y334397D01*
X98452Y334372D01*
X98378Y334351D01*
X98303Y334334D01*
X98226Y334320D01*
X98150Y334311D01*
X98072Y334305D01*
X97995Y334303D01*
X96443Y334303D01*
X98305Y334303D02*
X99547Y331819D01*
X104997Y336010D02*
X104995Y336083D01*
X104989Y336156D01*
X104980Y336229D01*
X104966Y336300D01*
X104949Y336372D01*
X104929Y336442D01*
X104904Y336511D01*
X104876Y336578D01*
X104845Y336644D01*
X104810Y336709D01*
X104772Y336771D01*
X104730Y336831D01*
X104686Y336889D01*
X104638Y336945D01*
X104588Y336998D01*
X104535Y337048D01*
X104479Y337096D01*
X104421Y337140D01*
X104361Y337182D01*
X104299Y337220D01*
X104234Y337255D01*
X104168Y337286D01*
X104101Y337314D01*
X104032Y337339D01*
X103962Y337359D01*
X103890Y337376D01*
X103819Y337390D01*
X103746Y337399D01*
X103673Y337405D01*
X103600Y337407D01*
X103600Y337408D02*
X103516Y337406D01*
X103433Y337400D01*
X103350Y337391D01*
X103268Y337377D01*
X103186Y337360D01*
X103105Y337338D01*
X103025Y337313D01*
X102947Y337285D01*
X102869Y337253D01*
X102794Y337217D01*
X102720Y337178D01*
X102648Y337135D01*
X102578Y337089D01*
X102511Y337040D01*
X102445Y336987D01*
X102383Y336932D01*
X102323Y336874D01*
X102265Y336813D01*
X102211Y336750D01*
X102159Y336684D01*
X102111Y336616D01*
X102066Y336545D01*
X102024Y336473D01*
X101986Y336398D01*
X101951Y336322D01*
X101920Y336245D01*
X101892Y336166D01*
X104531Y334924D02*
X104585Y334977D01*
X104636Y335034D01*
X104684Y335093D01*
X104729Y335154D01*
X104770Y335217D01*
X104809Y335283D01*
X104844Y335350D01*
X104876Y335419D01*
X104904Y335490D01*
X104928Y335561D01*
X104949Y335634D01*
X104966Y335708D01*
X104980Y335783D01*
X104989Y335858D01*
X104995Y335934D01*
X104997Y336010D01*
X104532Y334924D02*
X101893Y331819D01*
X104997Y331819D01*
X54691Y62452D02*
X54691Y56864D01*
X54691Y62452D02*
X56244Y62452D01*
X56321Y62450D01*
X56399Y62444D01*
X56475Y62435D01*
X56552Y62421D01*
X56627Y62404D01*
X56701Y62383D01*
X56775Y62358D01*
X56847Y62330D01*
X56917Y62298D01*
X56986Y62263D01*
X57053Y62224D01*
X57118Y62182D01*
X57181Y62137D01*
X57242Y62089D01*
X57300Y62038D01*
X57355Y61984D01*
X57408Y61927D01*
X57457Y61868D01*
X57504Y61806D01*
X57548Y61742D01*
X57588Y61676D01*
X57625Y61608D01*
X57659Y61538D01*
X57689Y61467D01*
X57715Y61394D01*
X57738Y61320D01*
X57757Y61245D01*
X57772Y61170D01*
X57784Y61093D01*
X57792Y61016D01*
X57796Y60939D01*
X57796Y60861D01*
X57792Y60784D01*
X57784Y60707D01*
X57772Y60630D01*
X57757Y60555D01*
X57738Y60480D01*
X57715Y60406D01*
X57689Y60333D01*
X57659Y60262D01*
X57625Y60192D01*
X57588Y60124D01*
X57548Y60058D01*
X57504Y59994D01*
X57457Y59932D01*
X57408Y59873D01*
X57355Y59816D01*
X57300Y59762D01*
X57242Y59711D01*
X57181Y59663D01*
X57118Y59618D01*
X57053Y59576D01*
X56986Y59537D01*
X56917Y59502D01*
X56847Y59470D01*
X56775Y59442D01*
X56701Y59417D01*
X56627Y59396D01*
X56552Y59379D01*
X56475Y59365D01*
X56399Y59356D01*
X56321Y59350D01*
X56244Y59348D01*
X54691Y59348D01*
X56554Y59348D02*
X57796Y56864D01*
X60142Y56864D02*
X61694Y56864D01*
X61771Y56866D01*
X61849Y56872D01*
X61925Y56881D01*
X62002Y56895D01*
X62077Y56912D01*
X62151Y56933D01*
X62225Y56958D01*
X62297Y56986D01*
X62367Y57018D01*
X62436Y57053D01*
X62503Y57092D01*
X62568Y57134D01*
X62631Y57179D01*
X62692Y57227D01*
X62750Y57278D01*
X62805Y57332D01*
X62858Y57389D01*
X62907Y57448D01*
X62954Y57510D01*
X62998Y57574D01*
X63038Y57640D01*
X63075Y57708D01*
X63109Y57778D01*
X63139Y57849D01*
X63165Y57922D01*
X63188Y57996D01*
X63207Y58071D01*
X63222Y58146D01*
X63234Y58223D01*
X63242Y58300D01*
X63246Y58377D01*
X63246Y58455D01*
X63242Y58532D01*
X63234Y58609D01*
X63222Y58686D01*
X63207Y58761D01*
X63188Y58836D01*
X63165Y58910D01*
X63139Y58983D01*
X63109Y59054D01*
X63075Y59124D01*
X63038Y59192D01*
X62998Y59258D01*
X62954Y59322D01*
X62907Y59384D01*
X62858Y59443D01*
X62805Y59500D01*
X62750Y59554D01*
X62692Y59605D01*
X62631Y59653D01*
X62568Y59698D01*
X62503Y59740D01*
X62436Y59779D01*
X62367Y59814D01*
X62297Y59846D01*
X62225Y59874D01*
X62151Y59899D01*
X62077Y59920D01*
X62002Y59937D01*
X61925Y59951D01*
X61849Y59960D01*
X61771Y59966D01*
X61694Y59968D01*
X62004Y62452D02*
X60142Y62452D01*
X62004Y62452D02*
X62074Y62450D01*
X62143Y62444D01*
X62212Y62434D01*
X62280Y62421D01*
X62348Y62403D01*
X62414Y62382D01*
X62479Y62357D01*
X62543Y62329D01*
X62605Y62297D01*
X62665Y62262D01*
X62723Y62223D01*
X62778Y62181D01*
X62832Y62136D01*
X62882Y62088D01*
X62930Y62038D01*
X62975Y61984D01*
X63017Y61929D01*
X63056Y61871D01*
X63091Y61811D01*
X63123Y61749D01*
X63151Y61685D01*
X63176Y61620D01*
X63197Y61554D01*
X63215Y61486D01*
X63228Y61418D01*
X63238Y61349D01*
X63244Y61280D01*
X63246Y61210D01*
X63244Y61140D01*
X63238Y61071D01*
X63228Y61002D01*
X63215Y60934D01*
X63197Y60866D01*
X63176Y60800D01*
X63151Y60735D01*
X63123Y60671D01*
X63091Y60609D01*
X63056Y60549D01*
X63017Y60491D01*
X62975Y60436D01*
X62930Y60382D01*
X62882Y60332D01*
X62832Y60284D01*
X62778Y60239D01*
X62723Y60197D01*
X62665Y60158D01*
X62605Y60123D01*
X62543Y60091D01*
X62479Y60063D01*
X62414Y60038D01*
X62348Y60017D01*
X62280Y59999D01*
X62212Y59986D01*
X62143Y59976D01*
X62074Y59970D01*
X62004Y59968D01*
X62004Y59969D02*
X60762Y59969D01*
X179310Y58484D02*
X179310Y52896D01*
X179310Y58484D02*
X180862Y58484D01*
X180862Y58483D02*
X180939Y58481D01*
X181017Y58475D01*
X181093Y58466D01*
X181170Y58452D01*
X181245Y58435D01*
X181319Y58414D01*
X181393Y58389D01*
X181465Y58361D01*
X181535Y58329D01*
X181604Y58294D01*
X181671Y58255D01*
X181736Y58213D01*
X181799Y58168D01*
X181860Y58120D01*
X181918Y58069D01*
X181973Y58015D01*
X182026Y57958D01*
X182075Y57899D01*
X182122Y57837D01*
X182166Y57773D01*
X182206Y57707D01*
X182243Y57639D01*
X182277Y57569D01*
X182307Y57498D01*
X182333Y57425D01*
X182356Y57351D01*
X182375Y57276D01*
X182390Y57201D01*
X182402Y57124D01*
X182410Y57047D01*
X182414Y56970D01*
X182414Y56892D01*
X182410Y56815D01*
X182402Y56738D01*
X182390Y56661D01*
X182375Y56586D01*
X182356Y56511D01*
X182333Y56437D01*
X182307Y56364D01*
X182277Y56293D01*
X182243Y56223D01*
X182206Y56155D01*
X182166Y56089D01*
X182122Y56025D01*
X182075Y55963D01*
X182026Y55904D01*
X181973Y55847D01*
X181918Y55793D01*
X181860Y55742D01*
X181799Y55694D01*
X181736Y55649D01*
X181671Y55607D01*
X181604Y55568D01*
X181535Y55533D01*
X181465Y55501D01*
X181393Y55473D01*
X181319Y55448D01*
X181245Y55427D01*
X181170Y55410D01*
X181093Y55396D01*
X181017Y55387D01*
X180939Y55381D01*
X180862Y55379D01*
X179310Y55379D01*
X181173Y55379D02*
X182414Y52896D01*
X184760Y54137D02*
X186002Y58484D01*
X184760Y54137D02*
X187865Y54137D01*
X186933Y55379D02*
X186933Y52896D01*
X172166Y281496D02*
X172166Y287084D01*
X173719Y287084D01*
X173719Y287083D02*
X173796Y287081D01*
X173874Y287075D01*
X173950Y287066D01*
X174027Y287052D01*
X174102Y287035D01*
X174176Y287014D01*
X174250Y286989D01*
X174322Y286961D01*
X174392Y286929D01*
X174461Y286894D01*
X174528Y286855D01*
X174593Y286813D01*
X174656Y286768D01*
X174717Y286720D01*
X174775Y286669D01*
X174830Y286615D01*
X174883Y286558D01*
X174932Y286499D01*
X174979Y286437D01*
X175023Y286373D01*
X175063Y286307D01*
X175100Y286239D01*
X175134Y286169D01*
X175164Y286098D01*
X175190Y286025D01*
X175213Y285951D01*
X175232Y285876D01*
X175247Y285801D01*
X175259Y285724D01*
X175267Y285647D01*
X175271Y285570D01*
X175271Y285492D01*
X175267Y285415D01*
X175259Y285338D01*
X175247Y285261D01*
X175232Y285186D01*
X175213Y285111D01*
X175190Y285037D01*
X175164Y284964D01*
X175134Y284893D01*
X175100Y284823D01*
X175063Y284755D01*
X175023Y284689D01*
X174979Y284625D01*
X174932Y284563D01*
X174883Y284504D01*
X174830Y284447D01*
X174775Y284393D01*
X174717Y284342D01*
X174656Y284294D01*
X174593Y284249D01*
X174528Y284207D01*
X174461Y284168D01*
X174392Y284133D01*
X174322Y284101D01*
X174250Y284073D01*
X174176Y284048D01*
X174102Y284027D01*
X174027Y284010D01*
X173950Y283996D01*
X173874Y283987D01*
X173796Y283981D01*
X173719Y283979D01*
X172166Y283979D01*
X174029Y283979D02*
X175271Y281496D01*
X177617Y281496D02*
X179479Y281496D01*
X179479Y281495D02*
X179549Y281497D01*
X179618Y281503D01*
X179687Y281513D01*
X179755Y281526D01*
X179823Y281544D01*
X179889Y281565D01*
X179954Y281590D01*
X180018Y281618D01*
X180080Y281650D01*
X180140Y281685D01*
X180198Y281724D01*
X180253Y281766D01*
X180307Y281811D01*
X180357Y281859D01*
X180405Y281909D01*
X180450Y281963D01*
X180492Y282018D01*
X180531Y282076D01*
X180566Y282136D01*
X180598Y282198D01*
X180626Y282262D01*
X180651Y282327D01*
X180672Y282393D01*
X180690Y282461D01*
X180703Y282529D01*
X180713Y282598D01*
X180719Y282667D01*
X180721Y282737D01*
X180721Y283358D01*
X180719Y283428D01*
X180713Y283497D01*
X180703Y283566D01*
X180690Y283634D01*
X180672Y283702D01*
X180651Y283768D01*
X180626Y283833D01*
X180598Y283897D01*
X180566Y283959D01*
X180531Y284019D01*
X180492Y284077D01*
X180450Y284132D01*
X180405Y284186D01*
X180357Y284236D01*
X180307Y284284D01*
X180253Y284329D01*
X180198Y284371D01*
X180140Y284410D01*
X180080Y284445D01*
X180018Y284477D01*
X179954Y284505D01*
X179889Y284530D01*
X179823Y284551D01*
X179755Y284569D01*
X179687Y284582D01*
X179618Y284592D01*
X179549Y284598D01*
X179479Y284600D01*
X177617Y284600D01*
X177617Y287084D01*
X180721Y287084D01*
X172498Y263811D02*
X172498Y258223D01*
X172498Y263811D02*
X174050Y263811D01*
X174127Y263809D01*
X174205Y263803D01*
X174281Y263794D01*
X174358Y263780D01*
X174433Y263763D01*
X174507Y263742D01*
X174581Y263717D01*
X174653Y263689D01*
X174723Y263657D01*
X174792Y263622D01*
X174859Y263583D01*
X174924Y263541D01*
X174987Y263496D01*
X175048Y263448D01*
X175106Y263397D01*
X175161Y263343D01*
X175214Y263286D01*
X175263Y263227D01*
X175310Y263165D01*
X175354Y263101D01*
X175394Y263035D01*
X175431Y262967D01*
X175465Y262897D01*
X175495Y262826D01*
X175521Y262753D01*
X175544Y262679D01*
X175563Y262604D01*
X175578Y262529D01*
X175590Y262452D01*
X175598Y262375D01*
X175602Y262298D01*
X175602Y262220D01*
X175598Y262143D01*
X175590Y262066D01*
X175578Y261989D01*
X175563Y261914D01*
X175544Y261839D01*
X175521Y261765D01*
X175495Y261692D01*
X175465Y261621D01*
X175431Y261551D01*
X175394Y261483D01*
X175354Y261417D01*
X175310Y261353D01*
X175263Y261291D01*
X175214Y261232D01*
X175161Y261175D01*
X175106Y261121D01*
X175048Y261070D01*
X174987Y261022D01*
X174924Y260977D01*
X174859Y260935D01*
X174792Y260896D01*
X174723Y260861D01*
X174653Y260829D01*
X174581Y260801D01*
X174507Y260776D01*
X174433Y260755D01*
X174358Y260738D01*
X174281Y260724D01*
X174205Y260715D01*
X174127Y260709D01*
X174050Y260707D01*
X174050Y260706D02*
X172498Y260706D01*
X174360Y260706D02*
X175602Y258223D01*
X177948Y261327D02*
X179811Y261327D01*
X179881Y261325D01*
X179950Y261319D01*
X180019Y261309D01*
X180087Y261296D01*
X180155Y261278D01*
X180221Y261257D01*
X180286Y261232D01*
X180350Y261204D01*
X180412Y261172D01*
X180472Y261137D01*
X180530Y261098D01*
X180585Y261056D01*
X180639Y261011D01*
X180689Y260963D01*
X180737Y260913D01*
X180782Y260859D01*
X180824Y260804D01*
X180863Y260746D01*
X180898Y260686D01*
X180930Y260624D01*
X180958Y260560D01*
X180983Y260495D01*
X181004Y260429D01*
X181022Y260361D01*
X181035Y260293D01*
X181045Y260224D01*
X181051Y260155D01*
X181053Y260085D01*
X181052Y260085D02*
X181052Y259775D01*
X181050Y259698D01*
X181044Y259620D01*
X181035Y259544D01*
X181021Y259467D01*
X181004Y259392D01*
X180983Y259318D01*
X180958Y259244D01*
X180930Y259172D01*
X180898Y259102D01*
X180863Y259033D01*
X180824Y258966D01*
X180782Y258901D01*
X180737Y258838D01*
X180689Y258777D01*
X180638Y258719D01*
X180584Y258664D01*
X180527Y258611D01*
X180468Y258562D01*
X180406Y258515D01*
X180342Y258471D01*
X180276Y258431D01*
X180208Y258394D01*
X180138Y258360D01*
X180067Y258330D01*
X179994Y258304D01*
X179920Y258281D01*
X179845Y258262D01*
X179770Y258247D01*
X179693Y258235D01*
X179616Y258227D01*
X179539Y258223D01*
X179461Y258223D01*
X179384Y258227D01*
X179307Y258235D01*
X179230Y258247D01*
X179155Y258262D01*
X179080Y258281D01*
X179006Y258304D01*
X178933Y258330D01*
X178862Y258360D01*
X178792Y258394D01*
X178724Y258431D01*
X178658Y258471D01*
X178594Y258515D01*
X178532Y258562D01*
X178473Y258611D01*
X178416Y258664D01*
X178362Y258719D01*
X178311Y258777D01*
X178263Y258838D01*
X178218Y258901D01*
X178176Y258966D01*
X178137Y259033D01*
X178102Y259102D01*
X178070Y259172D01*
X178042Y259244D01*
X178017Y259318D01*
X177996Y259392D01*
X177979Y259467D01*
X177965Y259544D01*
X177956Y259620D01*
X177950Y259698D01*
X177948Y259775D01*
X177948Y261327D01*
X177950Y261425D01*
X177956Y261522D01*
X177965Y261619D01*
X177979Y261716D01*
X177996Y261812D01*
X178017Y261907D01*
X178041Y262001D01*
X178070Y262095D01*
X178102Y262187D01*
X178137Y262278D01*
X178176Y262367D01*
X178219Y262455D01*
X178265Y262541D01*
X178314Y262625D01*
X178367Y262707D01*
X178422Y262787D01*
X178481Y262865D01*
X178543Y262940D01*
X178608Y263013D01*
X178676Y263083D01*
X178746Y263151D01*
X178819Y263216D01*
X178894Y263278D01*
X178972Y263337D01*
X179052Y263392D01*
X179134Y263445D01*
X179218Y263494D01*
X179304Y263540D01*
X179392Y263583D01*
X179481Y263622D01*
X179572Y263657D01*
X179664Y263689D01*
X179758Y263718D01*
X179852Y263742D01*
X179947Y263763D01*
X180043Y263780D01*
X180140Y263794D01*
X180237Y263803D01*
X180334Y263809D01*
X180432Y263811D01*
X161848Y118809D02*
X161848Y113221D01*
X161848Y118809D02*
X163400Y118809D01*
X163400Y118808D02*
X163477Y118806D01*
X163555Y118800D01*
X163631Y118791D01*
X163708Y118777D01*
X163783Y118760D01*
X163857Y118739D01*
X163931Y118714D01*
X164003Y118686D01*
X164073Y118654D01*
X164142Y118619D01*
X164209Y118580D01*
X164274Y118538D01*
X164337Y118493D01*
X164398Y118445D01*
X164456Y118394D01*
X164511Y118340D01*
X164564Y118283D01*
X164613Y118224D01*
X164660Y118162D01*
X164704Y118098D01*
X164744Y118032D01*
X164781Y117964D01*
X164815Y117894D01*
X164845Y117823D01*
X164871Y117750D01*
X164894Y117676D01*
X164913Y117601D01*
X164928Y117526D01*
X164940Y117449D01*
X164948Y117372D01*
X164952Y117295D01*
X164952Y117217D01*
X164948Y117140D01*
X164940Y117063D01*
X164928Y116986D01*
X164913Y116911D01*
X164894Y116836D01*
X164871Y116762D01*
X164845Y116689D01*
X164815Y116618D01*
X164781Y116548D01*
X164744Y116480D01*
X164704Y116414D01*
X164660Y116350D01*
X164613Y116288D01*
X164564Y116229D01*
X164511Y116172D01*
X164456Y116118D01*
X164398Y116067D01*
X164337Y116019D01*
X164274Y115974D01*
X164209Y115932D01*
X164142Y115893D01*
X164073Y115858D01*
X164003Y115826D01*
X163931Y115798D01*
X163857Y115773D01*
X163783Y115752D01*
X163708Y115735D01*
X163631Y115721D01*
X163555Y115712D01*
X163477Y115706D01*
X163400Y115704D01*
X161848Y115704D01*
X163710Y115704D02*
X164952Y113221D01*
X167298Y118188D02*
X167298Y118809D01*
X170402Y118809D01*
X168850Y113221D01*
X130429Y280448D02*
X130429Y286036D01*
X131981Y286036D01*
X132058Y286034D01*
X132136Y286028D01*
X132212Y286019D01*
X132289Y286005D01*
X132364Y285988D01*
X132438Y285967D01*
X132512Y285942D01*
X132584Y285914D01*
X132654Y285882D01*
X132723Y285847D01*
X132790Y285808D01*
X132855Y285766D01*
X132918Y285721D01*
X132979Y285673D01*
X133037Y285622D01*
X133092Y285568D01*
X133145Y285511D01*
X133194Y285452D01*
X133241Y285390D01*
X133285Y285326D01*
X133325Y285260D01*
X133362Y285192D01*
X133396Y285122D01*
X133426Y285051D01*
X133452Y284978D01*
X133475Y284904D01*
X133494Y284829D01*
X133509Y284754D01*
X133521Y284677D01*
X133529Y284600D01*
X133533Y284523D01*
X133533Y284445D01*
X133529Y284368D01*
X133521Y284291D01*
X133509Y284214D01*
X133494Y284139D01*
X133475Y284064D01*
X133452Y283990D01*
X133426Y283917D01*
X133396Y283846D01*
X133362Y283776D01*
X133325Y283708D01*
X133285Y283642D01*
X133241Y283578D01*
X133194Y283516D01*
X133145Y283457D01*
X133092Y283400D01*
X133037Y283346D01*
X132979Y283295D01*
X132918Y283247D01*
X132855Y283202D01*
X132790Y283160D01*
X132723Y283121D01*
X132654Y283086D01*
X132584Y283054D01*
X132512Y283026D01*
X132438Y283001D01*
X132364Y282980D01*
X132289Y282963D01*
X132212Y282949D01*
X132136Y282940D01*
X132058Y282934D01*
X131981Y282932D01*
X131981Y282931D02*
X130429Y282931D01*
X132292Y282931D02*
X133533Y280448D01*
X135880Y282000D02*
X135882Y282077D01*
X135888Y282155D01*
X135897Y282231D01*
X135911Y282308D01*
X135928Y282383D01*
X135949Y282457D01*
X135974Y282531D01*
X136002Y282603D01*
X136034Y282673D01*
X136069Y282742D01*
X136108Y282809D01*
X136150Y282874D01*
X136195Y282937D01*
X136243Y282998D01*
X136294Y283056D01*
X136348Y283111D01*
X136405Y283164D01*
X136464Y283213D01*
X136526Y283260D01*
X136590Y283304D01*
X136656Y283344D01*
X136724Y283381D01*
X136794Y283415D01*
X136865Y283445D01*
X136938Y283471D01*
X137012Y283494D01*
X137087Y283513D01*
X137162Y283528D01*
X137239Y283540D01*
X137316Y283548D01*
X137393Y283552D01*
X137471Y283552D01*
X137548Y283548D01*
X137625Y283540D01*
X137702Y283528D01*
X137777Y283513D01*
X137852Y283494D01*
X137926Y283471D01*
X137999Y283445D01*
X138070Y283415D01*
X138140Y283381D01*
X138208Y283344D01*
X138274Y283304D01*
X138338Y283260D01*
X138400Y283213D01*
X138459Y283164D01*
X138516Y283111D01*
X138570Y283056D01*
X138621Y282998D01*
X138669Y282937D01*
X138714Y282874D01*
X138756Y282809D01*
X138795Y282742D01*
X138830Y282673D01*
X138862Y282603D01*
X138890Y282531D01*
X138915Y282457D01*
X138936Y282383D01*
X138953Y282308D01*
X138967Y282231D01*
X138976Y282155D01*
X138982Y282077D01*
X138984Y282000D01*
X138982Y281923D01*
X138976Y281845D01*
X138967Y281769D01*
X138953Y281692D01*
X138936Y281617D01*
X138915Y281543D01*
X138890Y281469D01*
X138862Y281397D01*
X138830Y281327D01*
X138795Y281258D01*
X138756Y281191D01*
X138714Y281126D01*
X138669Y281063D01*
X138621Y281002D01*
X138570Y280944D01*
X138516Y280889D01*
X138459Y280836D01*
X138400Y280787D01*
X138338Y280740D01*
X138274Y280696D01*
X138208Y280656D01*
X138140Y280619D01*
X138070Y280585D01*
X137999Y280555D01*
X137926Y280529D01*
X137852Y280506D01*
X137777Y280487D01*
X137702Y280472D01*
X137625Y280460D01*
X137548Y280452D01*
X137471Y280448D01*
X137393Y280448D01*
X137316Y280452D01*
X137239Y280460D01*
X137162Y280472D01*
X137087Y280487D01*
X137012Y280506D01*
X136938Y280529D01*
X136865Y280555D01*
X136794Y280585D01*
X136724Y280619D01*
X136656Y280656D01*
X136590Y280696D01*
X136526Y280740D01*
X136464Y280787D01*
X136405Y280836D01*
X136348Y280889D01*
X136294Y280944D01*
X136243Y281002D01*
X136195Y281063D01*
X136150Y281126D01*
X136108Y281191D01*
X136069Y281258D01*
X136034Y281327D01*
X136002Y281397D01*
X135974Y281469D01*
X135949Y281543D01*
X135928Y281617D01*
X135911Y281692D01*
X135897Y281769D01*
X135888Y281845D01*
X135882Y281923D01*
X135880Y282000D01*
X136190Y284794D02*
X136192Y284864D01*
X136198Y284933D01*
X136208Y285002D01*
X136221Y285070D01*
X136239Y285138D01*
X136260Y285204D01*
X136285Y285269D01*
X136313Y285333D01*
X136345Y285395D01*
X136380Y285455D01*
X136419Y285513D01*
X136461Y285568D01*
X136506Y285622D01*
X136554Y285672D01*
X136604Y285720D01*
X136658Y285765D01*
X136713Y285807D01*
X136771Y285846D01*
X136831Y285881D01*
X136893Y285913D01*
X136957Y285941D01*
X137022Y285966D01*
X137088Y285987D01*
X137156Y286005D01*
X137224Y286018D01*
X137293Y286028D01*
X137362Y286034D01*
X137432Y286036D01*
X137502Y286034D01*
X137571Y286028D01*
X137640Y286018D01*
X137708Y286005D01*
X137776Y285987D01*
X137842Y285966D01*
X137907Y285941D01*
X137971Y285913D01*
X138033Y285881D01*
X138093Y285846D01*
X138151Y285807D01*
X138206Y285765D01*
X138260Y285720D01*
X138310Y285672D01*
X138358Y285622D01*
X138403Y285568D01*
X138445Y285513D01*
X138484Y285455D01*
X138519Y285395D01*
X138551Y285333D01*
X138579Y285269D01*
X138604Y285204D01*
X138625Y285138D01*
X138643Y285070D01*
X138656Y285002D01*
X138666Y284933D01*
X138672Y284864D01*
X138674Y284794D01*
X138672Y284724D01*
X138666Y284655D01*
X138656Y284586D01*
X138643Y284518D01*
X138625Y284450D01*
X138604Y284384D01*
X138579Y284319D01*
X138551Y284255D01*
X138519Y284193D01*
X138484Y284133D01*
X138445Y284075D01*
X138403Y284020D01*
X138358Y283966D01*
X138310Y283916D01*
X138260Y283868D01*
X138206Y283823D01*
X138151Y283781D01*
X138093Y283742D01*
X138033Y283707D01*
X137971Y283675D01*
X137907Y283647D01*
X137842Y283622D01*
X137776Y283601D01*
X137708Y283583D01*
X137640Y283570D01*
X137571Y283560D01*
X137502Y283554D01*
X137432Y283552D01*
X137362Y283554D01*
X137293Y283560D01*
X137224Y283570D01*
X137156Y283583D01*
X137088Y283601D01*
X137022Y283622D01*
X136957Y283647D01*
X136893Y283675D01*
X136831Y283707D01*
X136771Y283742D01*
X136713Y283781D01*
X136658Y283823D01*
X136604Y283868D01*
X136554Y283916D01*
X136506Y283966D01*
X136461Y284020D01*
X136419Y284075D01*
X136380Y284133D01*
X136345Y284193D01*
X136313Y284255D01*
X136285Y284319D01*
X136260Y284384D01*
X136239Y284450D01*
X136221Y284518D01*
X136208Y284586D01*
X136198Y284655D01*
X136192Y284724D01*
X136190Y284794D01*
D16*
X160175Y230819D02*
X100175Y230819D01*
X160175Y230819D02*
X160175Y211569D01*
X160175Y190069D02*
X160175Y170819D01*
X100175Y170819D01*
X100175Y190069D01*
X100175Y211569D02*
X100175Y230819D01*
D14*
X91175Y200819D02*
X91177Y200882D01*
X91183Y200944D01*
X91193Y201006D01*
X91206Y201068D01*
X91224Y201128D01*
X91245Y201187D01*
X91270Y201245D01*
X91299Y201301D01*
X91331Y201355D01*
X91366Y201407D01*
X91404Y201456D01*
X91446Y201504D01*
X91490Y201548D01*
X91538Y201590D01*
X91587Y201628D01*
X91639Y201663D01*
X91693Y201695D01*
X91749Y201724D01*
X91807Y201749D01*
X91866Y201770D01*
X91926Y201788D01*
X91988Y201801D01*
X92050Y201811D01*
X92112Y201817D01*
X92175Y201819D01*
X92238Y201817D01*
X92300Y201811D01*
X92362Y201801D01*
X92424Y201788D01*
X92484Y201770D01*
X92543Y201749D01*
X92601Y201724D01*
X92657Y201695D01*
X92711Y201663D01*
X92763Y201628D01*
X92812Y201590D01*
X92860Y201548D01*
X92904Y201504D01*
X92946Y201456D01*
X92984Y201407D01*
X93019Y201355D01*
X93051Y201301D01*
X93080Y201245D01*
X93105Y201187D01*
X93126Y201128D01*
X93144Y201068D01*
X93157Y201006D01*
X93167Y200944D01*
X93173Y200882D01*
X93175Y200819D01*
X93173Y200756D01*
X93167Y200694D01*
X93157Y200632D01*
X93144Y200570D01*
X93126Y200510D01*
X93105Y200451D01*
X93080Y200393D01*
X93051Y200337D01*
X93019Y200283D01*
X92984Y200231D01*
X92946Y200182D01*
X92904Y200134D01*
X92860Y200090D01*
X92812Y200048D01*
X92763Y200010D01*
X92711Y199975D01*
X92657Y199943D01*
X92601Y199914D01*
X92543Y199889D01*
X92484Y199868D01*
X92424Y199850D01*
X92362Y199837D01*
X92300Y199827D01*
X92238Y199821D01*
X92175Y199819D01*
X92112Y199821D01*
X92050Y199827D01*
X91988Y199837D01*
X91926Y199850D01*
X91866Y199868D01*
X91807Y199889D01*
X91749Y199914D01*
X91693Y199943D01*
X91639Y199975D01*
X91587Y200010D01*
X91538Y200048D01*
X91490Y200090D01*
X91446Y200134D01*
X91404Y200182D01*
X91366Y200231D01*
X91331Y200283D01*
X91299Y200337D01*
X91270Y200393D01*
X91245Y200451D01*
X91224Y200510D01*
X91206Y200570D01*
X91193Y200632D01*
X91183Y200694D01*
X91177Y200756D01*
X91175Y200819D01*
D10*
X102292Y236073D02*
X102362Y236075D01*
X102431Y236081D01*
X102500Y236091D01*
X102568Y236104D01*
X102636Y236122D01*
X102702Y236143D01*
X102767Y236168D01*
X102831Y236196D01*
X102893Y236228D01*
X102953Y236263D01*
X103011Y236302D01*
X103066Y236344D01*
X103120Y236389D01*
X103170Y236437D01*
X103218Y236487D01*
X103263Y236541D01*
X103305Y236596D01*
X103344Y236654D01*
X103379Y236714D01*
X103411Y236776D01*
X103439Y236840D01*
X103464Y236905D01*
X103485Y236971D01*
X103503Y237039D01*
X103516Y237107D01*
X103526Y237176D01*
X103532Y237245D01*
X103534Y237315D01*
X102292Y236073D02*
X102193Y236075D01*
X102095Y236080D01*
X101997Y236090D01*
X101899Y236103D01*
X101802Y236119D01*
X101705Y236139D01*
X101610Y236163D01*
X101515Y236191D01*
X101421Y236222D01*
X101329Y236256D01*
X101238Y236294D01*
X101148Y236335D01*
X101060Y236380D01*
X100974Y236428D01*
X100890Y236479D01*
X100808Y236533D01*
X100727Y236591D01*
X100649Y236651D01*
X100574Y236714D01*
X100500Y236780D01*
X100430Y236849D01*
X100584Y240419D02*
X100586Y240489D01*
X100592Y240558D01*
X100602Y240627D01*
X100615Y240695D01*
X100633Y240763D01*
X100654Y240829D01*
X100679Y240894D01*
X100707Y240958D01*
X100739Y241020D01*
X100774Y241080D01*
X100813Y241138D01*
X100855Y241193D01*
X100900Y241247D01*
X100948Y241297D01*
X100998Y241345D01*
X101052Y241390D01*
X101107Y241432D01*
X101165Y241471D01*
X101225Y241506D01*
X101287Y241538D01*
X101351Y241566D01*
X101416Y241591D01*
X101482Y241612D01*
X101550Y241630D01*
X101618Y241643D01*
X101687Y241653D01*
X101756Y241659D01*
X101826Y241661D01*
X101826Y241660D02*
X101920Y241658D01*
X102013Y241652D01*
X102106Y241643D01*
X102199Y241630D01*
X102291Y241613D01*
X102382Y241593D01*
X102473Y241568D01*
X102562Y241541D01*
X102650Y241509D01*
X102737Y241474D01*
X102823Y241436D01*
X102906Y241394D01*
X102988Y241349D01*
X103069Y241301D01*
X103147Y241249D01*
X103223Y241194D01*
X101205Y239333D02*
X101146Y239369D01*
X101090Y239409D01*
X101036Y239452D01*
X100984Y239497D01*
X100935Y239546D01*
X100889Y239597D01*
X100846Y239650D01*
X100805Y239706D01*
X100768Y239764D01*
X100733Y239824D01*
X100703Y239885D01*
X100675Y239948D01*
X100651Y240013D01*
X100631Y240079D01*
X100614Y240146D01*
X100601Y240213D01*
X100592Y240281D01*
X100586Y240350D01*
X100584Y240419D01*
X102912Y238401D02*
X102971Y238365D01*
X103027Y238325D01*
X103081Y238282D01*
X103133Y238237D01*
X103182Y238188D01*
X103228Y238137D01*
X103271Y238084D01*
X103312Y238028D01*
X103349Y237970D01*
X103384Y237910D01*
X103414Y237849D01*
X103442Y237786D01*
X103466Y237721D01*
X103486Y237655D01*
X103503Y237588D01*
X103516Y237521D01*
X103525Y237453D01*
X103531Y237384D01*
X103533Y237315D01*
X102913Y238401D02*
X101205Y239332D01*
X105733Y236073D02*
X107285Y236073D01*
X107362Y236075D01*
X107440Y236081D01*
X107516Y236090D01*
X107593Y236104D01*
X107668Y236121D01*
X107742Y236142D01*
X107816Y236167D01*
X107888Y236195D01*
X107958Y236227D01*
X108027Y236262D01*
X108094Y236301D01*
X108159Y236343D01*
X108222Y236388D01*
X108283Y236436D01*
X108341Y236487D01*
X108396Y236541D01*
X108449Y236598D01*
X108498Y236657D01*
X108545Y236719D01*
X108589Y236783D01*
X108629Y236849D01*
X108666Y236917D01*
X108700Y236987D01*
X108730Y237058D01*
X108756Y237131D01*
X108779Y237205D01*
X108798Y237280D01*
X108813Y237355D01*
X108825Y237432D01*
X108833Y237509D01*
X108837Y237586D01*
X108837Y237664D01*
X108833Y237741D01*
X108825Y237818D01*
X108813Y237895D01*
X108798Y237970D01*
X108779Y238045D01*
X108756Y238119D01*
X108730Y238192D01*
X108700Y238263D01*
X108666Y238333D01*
X108629Y238401D01*
X108589Y238467D01*
X108545Y238531D01*
X108498Y238593D01*
X108449Y238652D01*
X108396Y238709D01*
X108341Y238763D01*
X108283Y238814D01*
X108222Y238862D01*
X108159Y238907D01*
X108094Y238949D01*
X108027Y238988D01*
X107958Y239023D01*
X107888Y239055D01*
X107816Y239083D01*
X107742Y239108D01*
X107668Y239129D01*
X107593Y239146D01*
X107516Y239160D01*
X107440Y239169D01*
X107362Y239175D01*
X107285Y239177D01*
X107595Y241661D02*
X105733Y241661D01*
X107595Y241661D02*
X107665Y241659D01*
X107734Y241653D01*
X107803Y241643D01*
X107871Y241630D01*
X107939Y241612D01*
X108005Y241591D01*
X108070Y241566D01*
X108134Y241538D01*
X108196Y241506D01*
X108256Y241471D01*
X108314Y241432D01*
X108369Y241390D01*
X108423Y241345D01*
X108473Y241297D01*
X108521Y241247D01*
X108566Y241193D01*
X108608Y241138D01*
X108647Y241080D01*
X108682Y241020D01*
X108714Y240958D01*
X108742Y240894D01*
X108767Y240829D01*
X108788Y240763D01*
X108806Y240695D01*
X108819Y240627D01*
X108829Y240558D01*
X108835Y240489D01*
X108837Y240419D01*
X108835Y240349D01*
X108829Y240280D01*
X108819Y240211D01*
X108806Y240143D01*
X108788Y240075D01*
X108767Y240009D01*
X108742Y239944D01*
X108714Y239880D01*
X108682Y239818D01*
X108647Y239758D01*
X108608Y239700D01*
X108566Y239645D01*
X108521Y239591D01*
X108473Y239541D01*
X108423Y239493D01*
X108369Y239448D01*
X108314Y239406D01*
X108256Y239367D01*
X108196Y239332D01*
X108134Y239300D01*
X108070Y239272D01*
X108005Y239247D01*
X107939Y239226D01*
X107871Y239208D01*
X107803Y239195D01*
X107734Y239185D01*
X107665Y239179D01*
X107595Y239177D01*
X106353Y239177D01*
D12*
X159888Y364913D02*
X198888Y364913D01*
X198888Y393913D02*
X159888Y393913D01*
X206705Y379273D02*
X206707Y379328D01*
X206713Y379383D01*
X206723Y379437D01*
X206737Y379490D01*
X206754Y379543D01*
X206776Y379593D01*
X206800Y379643D01*
X206829Y379690D01*
X206861Y379735D01*
X206895Y379777D01*
X206933Y379817D01*
X206974Y379855D01*
X207017Y379889D01*
X207063Y379920D01*
X207111Y379947D01*
X207160Y379971D01*
X207211Y379992D01*
X207264Y380008D01*
X207317Y380021D01*
X207372Y380030D01*
X207427Y380035D01*
X207482Y380036D01*
X207537Y380033D01*
X207591Y380026D01*
X207645Y380015D01*
X207699Y380000D01*
X207750Y379982D01*
X207801Y379960D01*
X207849Y379934D01*
X207896Y379905D01*
X207941Y379872D01*
X207983Y379836D01*
X208022Y379798D01*
X208058Y379756D01*
X208092Y379713D01*
X208122Y379666D01*
X208148Y379618D01*
X208172Y379568D01*
X208191Y379517D01*
X208207Y379464D01*
X208219Y379410D01*
X208227Y379355D01*
X208231Y379301D01*
X208231Y379245D01*
X208227Y379191D01*
X208219Y379136D01*
X208207Y379082D01*
X208191Y379029D01*
X208172Y378978D01*
X208148Y378928D01*
X208122Y378880D01*
X208092Y378833D01*
X208058Y378790D01*
X208022Y378748D01*
X207983Y378710D01*
X207941Y378674D01*
X207896Y378641D01*
X207850Y378612D01*
X207801Y378586D01*
X207750Y378564D01*
X207699Y378546D01*
X207645Y378531D01*
X207591Y378520D01*
X207537Y378513D01*
X207482Y378510D01*
X207427Y378511D01*
X207372Y378516D01*
X207317Y378525D01*
X207264Y378538D01*
X207211Y378554D01*
X207160Y378575D01*
X207111Y378599D01*
X207063Y378626D01*
X207017Y378657D01*
X206974Y378691D01*
X206933Y378729D01*
X206895Y378769D01*
X206861Y378811D01*
X206829Y378856D01*
X206800Y378903D01*
X206776Y378953D01*
X206754Y379003D01*
X206737Y379056D01*
X206723Y379109D01*
X206713Y379163D01*
X206707Y379218D01*
X206705Y379273D01*
D10*
X204358Y392946D02*
X204428Y392948D01*
X204497Y392954D01*
X204566Y392964D01*
X204634Y392977D01*
X204702Y392995D01*
X204768Y393016D01*
X204833Y393041D01*
X204897Y393069D01*
X204959Y393101D01*
X205019Y393136D01*
X205077Y393175D01*
X205132Y393217D01*
X205186Y393262D01*
X205236Y393310D01*
X205284Y393360D01*
X205329Y393414D01*
X205371Y393469D01*
X205410Y393527D01*
X205445Y393587D01*
X205477Y393649D01*
X205505Y393713D01*
X205530Y393778D01*
X205551Y393844D01*
X205569Y393912D01*
X205582Y393980D01*
X205592Y394049D01*
X205598Y394118D01*
X205600Y394188D01*
X204358Y392947D02*
X204259Y392949D01*
X204161Y392954D01*
X204063Y392964D01*
X203965Y392977D01*
X203868Y392993D01*
X203771Y393013D01*
X203676Y393037D01*
X203581Y393065D01*
X203487Y393096D01*
X203395Y393130D01*
X203304Y393168D01*
X203214Y393209D01*
X203126Y393254D01*
X203040Y393302D01*
X202956Y393353D01*
X202874Y393407D01*
X202793Y393465D01*
X202715Y393525D01*
X202640Y393588D01*
X202566Y393654D01*
X202496Y393723D01*
X202650Y397293D02*
X202652Y397363D01*
X202658Y397432D01*
X202668Y397501D01*
X202681Y397569D01*
X202699Y397637D01*
X202720Y397703D01*
X202745Y397768D01*
X202773Y397832D01*
X202805Y397894D01*
X202840Y397954D01*
X202879Y398012D01*
X202921Y398067D01*
X202966Y398121D01*
X203014Y398171D01*
X203064Y398219D01*
X203118Y398264D01*
X203173Y398306D01*
X203231Y398345D01*
X203291Y398380D01*
X203353Y398412D01*
X203417Y398440D01*
X203482Y398465D01*
X203548Y398486D01*
X203616Y398504D01*
X203684Y398517D01*
X203753Y398527D01*
X203822Y398533D01*
X203892Y398535D01*
X203892Y398534D02*
X203986Y398532D01*
X204079Y398526D01*
X204172Y398517D01*
X204265Y398504D01*
X204357Y398487D01*
X204448Y398467D01*
X204539Y398442D01*
X204628Y398415D01*
X204716Y398383D01*
X204803Y398348D01*
X204889Y398310D01*
X204972Y398268D01*
X205054Y398223D01*
X205135Y398175D01*
X205213Y398123D01*
X205289Y398068D01*
X203272Y396207D02*
X203213Y396243D01*
X203157Y396283D01*
X203103Y396326D01*
X203051Y396371D01*
X203002Y396420D01*
X202956Y396471D01*
X202913Y396524D01*
X202872Y396580D01*
X202835Y396638D01*
X202800Y396698D01*
X202770Y396759D01*
X202742Y396822D01*
X202718Y396887D01*
X202698Y396953D01*
X202681Y397020D01*
X202668Y397087D01*
X202659Y397155D01*
X202653Y397224D01*
X202651Y397293D01*
X204978Y395274D02*
X205037Y395238D01*
X205093Y395198D01*
X205147Y395155D01*
X205199Y395110D01*
X205248Y395061D01*
X205294Y395010D01*
X205337Y394957D01*
X205378Y394901D01*
X205415Y394843D01*
X205450Y394783D01*
X205480Y394722D01*
X205508Y394659D01*
X205532Y394594D01*
X205552Y394528D01*
X205569Y394461D01*
X205582Y394394D01*
X205591Y394326D01*
X205597Y394257D01*
X205599Y394188D01*
X204979Y395275D02*
X203271Y396206D01*
X207799Y394188D02*
X209040Y398535D01*
X207799Y394188D02*
X210903Y394188D01*
X209972Y392947D02*
X209972Y395430D01*
D12*
X89350Y396294D02*
X50350Y396294D01*
X50350Y367294D02*
X89350Y367294D01*
X41007Y381934D02*
X41009Y381989D01*
X41015Y382044D01*
X41025Y382098D01*
X41039Y382151D01*
X41056Y382204D01*
X41078Y382254D01*
X41102Y382304D01*
X41131Y382351D01*
X41163Y382396D01*
X41197Y382438D01*
X41235Y382478D01*
X41276Y382516D01*
X41319Y382550D01*
X41365Y382581D01*
X41413Y382608D01*
X41462Y382632D01*
X41513Y382653D01*
X41566Y382669D01*
X41619Y382682D01*
X41674Y382691D01*
X41729Y382696D01*
X41784Y382697D01*
X41839Y382694D01*
X41893Y382687D01*
X41947Y382676D01*
X42001Y382661D01*
X42052Y382643D01*
X42103Y382621D01*
X42151Y382595D01*
X42198Y382566D01*
X42243Y382533D01*
X42285Y382497D01*
X42324Y382459D01*
X42360Y382417D01*
X42394Y382374D01*
X42424Y382327D01*
X42450Y382279D01*
X42474Y382229D01*
X42493Y382178D01*
X42509Y382125D01*
X42521Y382071D01*
X42529Y382016D01*
X42533Y381962D01*
X42533Y381906D01*
X42529Y381852D01*
X42521Y381797D01*
X42509Y381743D01*
X42493Y381690D01*
X42474Y381639D01*
X42450Y381589D01*
X42424Y381541D01*
X42394Y381494D01*
X42360Y381451D01*
X42324Y381409D01*
X42285Y381371D01*
X42243Y381335D01*
X42198Y381302D01*
X42152Y381273D01*
X42103Y381247D01*
X42052Y381225D01*
X42001Y381207D01*
X41947Y381192D01*
X41893Y381181D01*
X41839Y381174D01*
X41784Y381171D01*
X41729Y381172D01*
X41674Y381177D01*
X41619Y381186D01*
X41566Y381199D01*
X41513Y381215D01*
X41462Y381236D01*
X41413Y381260D01*
X41365Y381287D01*
X41319Y381318D01*
X41276Y381352D01*
X41235Y381390D01*
X41197Y381430D01*
X41163Y381472D01*
X41131Y381517D01*
X41102Y381564D01*
X41078Y381614D01*
X41056Y381664D01*
X41039Y381717D01*
X41025Y381770D01*
X41015Y381824D01*
X41009Y381879D01*
X41007Y381934D01*
D10*
X67185Y358703D02*
X67255Y358705D01*
X67324Y358711D01*
X67393Y358721D01*
X67461Y358734D01*
X67529Y358752D01*
X67595Y358773D01*
X67660Y358798D01*
X67724Y358826D01*
X67786Y358858D01*
X67846Y358893D01*
X67904Y358932D01*
X67959Y358974D01*
X68013Y359019D01*
X68063Y359067D01*
X68111Y359117D01*
X68156Y359171D01*
X68198Y359226D01*
X68237Y359284D01*
X68272Y359344D01*
X68304Y359406D01*
X68332Y359470D01*
X68357Y359535D01*
X68378Y359601D01*
X68396Y359669D01*
X68409Y359737D01*
X68419Y359806D01*
X68425Y359875D01*
X68427Y359945D01*
X67185Y358703D02*
X67086Y358705D01*
X66988Y358710D01*
X66890Y358720D01*
X66792Y358733D01*
X66695Y358749D01*
X66598Y358769D01*
X66503Y358793D01*
X66408Y358821D01*
X66314Y358852D01*
X66222Y358886D01*
X66131Y358924D01*
X66041Y358965D01*
X65953Y359010D01*
X65867Y359058D01*
X65783Y359109D01*
X65701Y359163D01*
X65620Y359221D01*
X65542Y359281D01*
X65467Y359344D01*
X65393Y359410D01*
X65323Y359479D01*
X65477Y363049D02*
X65479Y363119D01*
X65485Y363188D01*
X65495Y363257D01*
X65508Y363325D01*
X65526Y363393D01*
X65547Y363459D01*
X65572Y363524D01*
X65600Y363588D01*
X65632Y363650D01*
X65667Y363710D01*
X65706Y363768D01*
X65748Y363823D01*
X65793Y363877D01*
X65841Y363927D01*
X65891Y363975D01*
X65945Y364020D01*
X66000Y364062D01*
X66058Y364101D01*
X66118Y364136D01*
X66180Y364168D01*
X66244Y364196D01*
X66309Y364221D01*
X66375Y364242D01*
X66443Y364260D01*
X66511Y364273D01*
X66580Y364283D01*
X66649Y364289D01*
X66719Y364291D01*
X66813Y364289D01*
X66906Y364283D01*
X66999Y364274D01*
X67092Y364261D01*
X67184Y364244D01*
X67275Y364224D01*
X67366Y364199D01*
X67455Y364172D01*
X67543Y364140D01*
X67630Y364105D01*
X67716Y364067D01*
X67799Y364025D01*
X67881Y363980D01*
X67962Y363932D01*
X68040Y363880D01*
X68116Y363825D01*
X66098Y361963D02*
X66039Y361999D01*
X65983Y362039D01*
X65929Y362082D01*
X65877Y362127D01*
X65828Y362176D01*
X65782Y362227D01*
X65739Y362280D01*
X65698Y362336D01*
X65661Y362394D01*
X65626Y362454D01*
X65596Y362515D01*
X65568Y362578D01*
X65544Y362643D01*
X65524Y362709D01*
X65507Y362776D01*
X65494Y362843D01*
X65485Y362911D01*
X65479Y362980D01*
X65477Y363049D01*
X67805Y361031D02*
X67864Y360995D01*
X67920Y360955D01*
X67974Y360912D01*
X68026Y360867D01*
X68075Y360818D01*
X68121Y360767D01*
X68164Y360714D01*
X68205Y360658D01*
X68242Y360600D01*
X68277Y360540D01*
X68307Y360479D01*
X68335Y360416D01*
X68359Y360351D01*
X68379Y360285D01*
X68396Y360218D01*
X68409Y360151D01*
X68418Y360083D01*
X68424Y360014D01*
X68426Y359945D01*
X67805Y361031D02*
X66098Y361963D01*
X70625Y358703D02*
X72488Y358703D01*
X72558Y358705D01*
X72627Y358711D01*
X72696Y358721D01*
X72764Y358734D01*
X72832Y358752D01*
X72898Y358773D01*
X72963Y358798D01*
X73027Y358826D01*
X73089Y358858D01*
X73149Y358893D01*
X73207Y358932D01*
X73262Y358974D01*
X73316Y359019D01*
X73366Y359067D01*
X73414Y359117D01*
X73459Y359171D01*
X73501Y359226D01*
X73540Y359284D01*
X73575Y359344D01*
X73607Y359406D01*
X73635Y359470D01*
X73660Y359535D01*
X73681Y359601D01*
X73699Y359669D01*
X73712Y359737D01*
X73722Y359806D01*
X73728Y359875D01*
X73730Y359945D01*
X73730Y360566D01*
X73728Y360636D01*
X73722Y360705D01*
X73712Y360774D01*
X73699Y360842D01*
X73681Y360910D01*
X73660Y360976D01*
X73635Y361041D01*
X73607Y361105D01*
X73575Y361167D01*
X73540Y361227D01*
X73501Y361285D01*
X73459Y361340D01*
X73414Y361394D01*
X73366Y361444D01*
X73316Y361492D01*
X73262Y361537D01*
X73207Y361579D01*
X73149Y361618D01*
X73089Y361653D01*
X73027Y361685D01*
X72963Y361713D01*
X72898Y361738D01*
X72832Y361759D01*
X72764Y361777D01*
X72696Y361790D01*
X72627Y361800D01*
X72558Y361806D01*
X72488Y361808D01*
X72488Y361807D02*
X70625Y361807D01*
X70625Y364291D01*
X73730Y364291D01*
D16*
X28575Y353219D02*
X3175Y353219D01*
X28575Y353219D02*
X28575Y302419D01*
X3175Y302419D01*
X3175Y353219D01*
D14*
X18375Y238163D02*
X18377Y238226D01*
X18383Y238288D01*
X18393Y238350D01*
X18406Y238412D01*
X18424Y238472D01*
X18445Y238531D01*
X18470Y238589D01*
X18499Y238645D01*
X18531Y238699D01*
X18566Y238751D01*
X18604Y238800D01*
X18646Y238848D01*
X18690Y238892D01*
X18738Y238934D01*
X18787Y238972D01*
X18839Y239007D01*
X18893Y239039D01*
X18949Y239068D01*
X19007Y239093D01*
X19066Y239114D01*
X19126Y239132D01*
X19188Y239145D01*
X19250Y239155D01*
X19312Y239161D01*
X19375Y239163D01*
X19438Y239161D01*
X19500Y239155D01*
X19562Y239145D01*
X19624Y239132D01*
X19684Y239114D01*
X19743Y239093D01*
X19801Y239068D01*
X19857Y239039D01*
X19911Y239007D01*
X19963Y238972D01*
X20012Y238934D01*
X20060Y238892D01*
X20104Y238848D01*
X20146Y238800D01*
X20184Y238751D01*
X20219Y238699D01*
X20251Y238645D01*
X20280Y238589D01*
X20305Y238531D01*
X20326Y238472D01*
X20344Y238412D01*
X20357Y238350D01*
X20367Y238288D01*
X20373Y238226D01*
X20375Y238163D01*
X20373Y238100D01*
X20367Y238038D01*
X20357Y237976D01*
X20344Y237914D01*
X20326Y237854D01*
X20305Y237795D01*
X20280Y237737D01*
X20251Y237681D01*
X20219Y237627D01*
X20184Y237575D01*
X20146Y237526D01*
X20104Y237478D01*
X20060Y237434D01*
X20012Y237392D01*
X19963Y237354D01*
X19911Y237319D01*
X19857Y237287D01*
X19801Y237258D01*
X19743Y237233D01*
X19684Y237212D01*
X19624Y237194D01*
X19562Y237181D01*
X19500Y237171D01*
X19438Y237165D01*
X19375Y237163D01*
X19312Y237165D01*
X19250Y237171D01*
X19188Y237181D01*
X19126Y237194D01*
X19066Y237212D01*
X19007Y237233D01*
X18949Y237258D01*
X18893Y237287D01*
X18839Y237319D01*
X18787Y237354D01*
X18738Y237392D01*
X18690Y237434D01*
X18646Y237478D01*
X18604Y237526D01*
X18566Y237575D01*
X18531Y237627D01*
X18499Y237681D01*
X18470Y237737D01*
X18445Y237795D01*
X18424Y237854D01*
X18406Y237914D01*
X18393Y237976D01*
X18383Y238038D01*
X18377Y238100D01*
X18375Y238163D01*
X18377Y238226D01*
X18383Y238288D01*
X18393Y238350D01*
X18406Y238412D01*
X18424Y238472D01*
X18445Y238531D01*
X18470Y238589D01*
X18499Y238645D01*
X18531Y238699D01*
X18566Y238751D01*
X18604Y238800D01*
X18646Y238848D01*
X18690Y238892D01*
X18738Y238934D01*
X18787Y238972D01*
X18839Y239007D01*
X18893Y239039D01*
X18949Y239068D01*
X19007Y239093D01*
X19066Y239114D01*
X19126Y239132D01*
X19188Y239145D01*
X19250Y239155D01*
X19312Y239161D01*
X19375Y239163D01*
X19438Y239161D01*
X19500Y239155D01*
X19562Y239145D01*
X19624Y239132D01*
X19684Y239114D01*
X19743Y239093D01*
X19801Y239068D01*
X19857Y239039D01*
X19911Y239007D01*
X19963Y238972D01*
X20012Y238934D01*
X20060Y238892D01*
X20104Y238848D01*
X20146Y238800D01*
X20184Y238751D01*
X20219Y238699D01*
X20251Y238645D01*
X20280Y238589D01*
X20305Y238531D01*
X20326Y238472D01*
X20344Y238412D01*
X20357Y238350D01*
X20367Y238288D01*
X20373Y238226D01*
X20375Y238163D01*
X20373Y238100D01*
X20367Y238038D01*
X20357Y237976D01*
X20344Y237914D01*
X20326Y237854D01*
X20305Y237795D01*
X20280Y237737D01*
X20251Y237681D01*
X20219Y237627D01*
X20184Y237575D01*
X20146Y237526D01*
X20104Y237478D01*
X20060Y237434D01*
X20012Y237392D01*
X19963Y237354D01*
X19911Y237319D01*
X19857Y237287D01*
X19801Y237258D01*
X19743Y237233D01*
X19684Y237212D01*
X19624Y237194D01*
X19562Y237181D01*
X19500Y237171D01*
X19438Y237165D01*
X19375Y237163D01*
X19312Y237165D01*
X19250Y237171D01*
X19188Y237181D01*
X19126Y237194D01*
X19066Y237212D01*
X19007Y237233D01*
X18949Y237258D01*
X18893Y237287D01*
X18839Y237319D01*
X18787Y237354D01*
X18738Y237392D01*
X18690Y237434D01*
X18646Y237478D01*
X18604Y237526D01*
X18566Y237575D01*
X18531Y237627D01*
X18499Y237681D01*
X18470Y237737D01*
X18445Y237795D01*
X18424Y237854D01*
X18406Y237914D01*
X18393Y237976D01*
X18383Y238038D01*
X18377Y238100D01*
X18375Y238163D01*
D16*
X76025Y195663D02*
X78975Y195663D01*
X78975Y245663D02*
X76025Y245663D01*
X31925Y195663D02*
X28975Y195663D01*
X28975Y245663D02*
X31925Y245663D01*
X78975Y198613D02*
X78975Y195663D01*
X78975Y242713D02*
X78975Y245663D01*
X28975Y198613D02*
X28975Y195663D01*
X28975Y242713D02*
X28975Y245663D01*
D10*
X17160Y244469D02*
X17160Y248505D01*
X17160Y244469D02*
X17162Y244392D01*
X17168Y244314D01*
X17177Y244238D01*
X17191Y244161D01*
X17208Y244086D01*
X17229Y244012D01*
X17254Y243938D01*
X17282Y243866D01*
X17314Y243796D01*
X17349Y243727D01*
X17388Y243660D01*
X17430Y243595D01*
X17475Y243532D01*
X17523Y243471D01*
X17574Y243413D01*
X17628Y243358D01*
X17685Y243305D01*
X17744Y243256D01*
X17806Y243209D01*
X17870Y243165D01*
X17936Y243125D01*
X18004Y243088D01*
X18074Y243054D01*
X18145Y243024D01*
X18218Y242998D01*
X18292Y242975D01*
X18367Y242956D01*
X18442Y242941D01*
X18519Y242929D01*
X18596Y242921D01*
X18673Y242917D01*
X18751Y242917D01*
X18828Y242921D01*
X18905Y242929D01*
X18982Y242941D01*
X19057Y242956D01*
X19132Y242975D01*
X19206Y242998D01*
X19279Y243024D01*
X19350Y243054D01*
X19420Y243088D01*
X19488Y243125D01*
X19554Y243165D01*
X19618Y243209D01*
X19680Y243256D01*
X19739Y243305D01*
X19796Y243358D01*
X19850Y243413D01*
X19901Y243471D01*
X19949Y243532D01*
X19994Y243595D01*
X20036Y243660D01*
X20075Y243727D01*
X20110Y243796D01*
X20142Y243866D01*
X20170Y243938D01*
X20195Y244012D01*
X20216Y244086D01*
X20233Y244161D01*
X20247Y244238D01*
X20256Y244314D01*
X20262Y244392D01*
X20264Y244469D01*
X20265Y244469D02*
X20265Y248505D01*
X22830Y247263D02*
X24382Y248505D01*
X24382Y242917D01*
X22830Y242917D02*
X25934Y242917D01*
D16*
X221975Y221319D02*
X226875Y221319D01*
X226875Y216419D01*
X190775Y180319D02*
X185875Y180319D01*
X185875Y185219D01*
X226875Y185219D02*
X226875Y180319D01*
X221975Y180319D01*
D14*
X175375Y213819D02*
X175377Y213882D01*
X175383Y213944D01*
X175393Y214006D01*
X175406Y214068D01*
X175424Y214128D01*
X175445Y214187D01*
X175470Y214245D01*
X175499Y214301D01*
X175531Y214355D01*
X175566Y214407D01*
X175604Y214456D01*
X175646Y214504D01*
X175690Y214548D01*
X175738Y214590D01*
X175787Y214628D01*
X175839Y214663D01*
X175893Y214695D01*
X175949Y214724D01*
X176007Y214749D01*
X176066Y214770D01*
X176126Y214788D01*
X176188Y214801D01*
X176250Y214811D01*
X176312Y214817D01*
X176375Y214819D01*
X176438Y214817D01*
X176500Y214811D01*
X176562Y214801D01*
X176624Y214788D01*
X176684Y214770D01*
X176743Y214749D01*
X176801Y214724D01*
X176857Y214695D01*
X176911Y214663D01*
X176963Y214628D01*
X177012Y214590D01*
X177060Y214548D01*
X177104Y214504D01*
X177146Y214456D01*
X177184Y214407D01*
X177219Y214355D01*
X177251Y214301D01*
X177280Y214245D01*
X177305Y214187D01*
X177326Y214128D01*
X177344Y214068D01*
X177357Y214006D01*
X177367Y213944D01*
X177373Y213882D01*
X177375Y213819D01*
X177373Y213756D01*
X177367Y213694D01*
X177357Y213632D01*
X177344Y213570D01*
X177326Y213510D01*
X177305Y213451D01*
X177280Y213393D01*
X177251Y213337D01*
X177219Y213283D01*
X177184Y213231D01*
X177146Y213182D01*
X177104Y213134D01*
X177060Y213090D01*
X177012Y213048D01*
X176963Y213010D01*
X176911Y212975D01*
X176857Y212943D01*
X176801Y212914D01*
X176743Y212889D01*
X176684Y212868D01*
X176624Y212850D01*
X176562Y212837D01*
X176500Y212827D01*
X176438Y212821D01*
X176375Y212819D01*
X176312Y212821D01*
X176250Y212827D01*
X176188Y212837D01*
X176126Y212850D01*
X176066Y212868D01*
X176007Y212889D01*
X175949Y212914D01*
X175893Y212943D01*
X175839Y212975D01*
X175787Y213010D01*
X175738Y213048D01*
X175690Y213090D01*
X175646Y213134D01*
X175604Y213182D01*
X175566Y213231D01*
X175531Y213283D01*
X175499Y213337D01*
X175470Y213393D01*
X175445Y213451D01*
X175424Y213510D01*
X175406Y213570D01*
X175393Y213632D01*
X175383Y213694D01*
X175377Y213756D01*
X175375Y213819D01*
D16*
X185875Y216419D02*
X185875Y221319D01*
X190775Y221319D01*
D10*
X191348Y229516D02*
X191348Y233552D01*
X191348Y229516D02*
X191350Y229439D01*
X191356Y229361D01*
X191365Y229285D01*
X191379Y229208D01*
X191396Y229133D01*
X191417Y229059D01*
X191442Y228985D01*
X191470Y228913D01*
X191502Y228843D01*
X191537Y228774D01*
X191576Y228707D01*
X191618Y228642D01*
X191663Y228579D01*
X191711Y228518D01*
X191762Y228460D01*
X191816Y228405D01*
X191873Y228352D01*
X191932Y228303D01*
X191994Y228256D01*
X192058Y228212D01*
X192124Y228172D01*
X192192Y228135D01*
X192262Y228101D01*
X192333Y228071D01*
X192406Y228045D01*
X192480Y228022D01*
X192555Y228003D01*
X192630Y227988D01*
X192707Y227976D01*
X192784Y227968D01*
X192861Y227964D01*
X192939Y227964D01*
X193016Y227968D01*
X193093Y227976D01*
X193170Y227988D01*
X193245Y228003D01*
X193320Y228022D01*
X193394Y228045D01*
X193467Y228071D01*
X193538Y228101D01*
X193608Y228135D01*
X193676Y228172D01*
X193742Y228212D01*
X193806Y228256D01*
X193868Y228303D01*
X193927Y228352D01*
X193984Y228405D01*
X194038Y228460D01*
X194089Y228518D01*
X194137Y228579D01*
X194182Y228642D01*
X194224Y228707D01*
X194263Y228774D01*
X194298Y228843D01*
X194330Y228913D01*
X194358Y228985D01*
X194383Y229059D01*
X194404Y229133D01*
X194421Y229208D01*
X194435Y229285D01*
X194444Y229361D01*
X194450Y229439D01*
X194452Y229516D01*
X194452Y233552D01*
X198724Y233552D02*
X198797Y233550D01*
X198870Y233544D01*
X198943Y233535D01*
X199014Y233521D01*
X199086Y233504D01*
X199156Y233484D01*
X199225Y233459D01*
X199292Y233431D01*
X199358Y233400D01*
X199423Y233365D01*
X199485Y233327D01*
X199545Y233285D01*
X199603Y233241D01*
X199659Y233193D01*
X199712Y233143D01*
X199762Y233090D01*
X199810Y233034D01*
X199854Y232976D01*
X199896Y232916D01*
X199934Y232854D01*
X199969Y232789D01*
X200000Y232723D01*
X200028Y232656D01*
X200053Y232587D01*
X200073Y232517D01*
X200090Y232445D01*
X200104Y232374D01*
X200113Y232301D01*
X200119Y232228D01*
X200121Y232155D01*
X198724Y233552D02*
X198640Y233550D01*
X198557Y233544D01*
X198474Y233535D01*
X198392Y233521D01*
X198310Y233504D01*
X198229Y233482D01*
X198149Y233457D01*
X198071Y233429D01*
X197993Y233397D01*
X197918Y233361D01*
X197844Y233322D01*
X197772Y233279D01*
X197702Y233233D01*
X197635Y233184D01*
X197569Y233131D01*
X197507Y233076D01*
X197447Y233018D01*
X197389Y232957D01*
X197335Y232894D01*
X197283Y232828D01*
X197235Y232760D01*
X197190Y232689D01*
X197148Y232617D01*
X197110Y232542D01*
X197075Y232466D01*
X197044Y232389D01*
X197016Y232310D01*
X199655Y231069D02*
X199709Y231122D01*
X199760Y231179D01*
X199808Y231238D01*
X199853Y231299D01*
X199894Y231362D01*
X199933Y231428D01*
X199968Y231495D01*
X200000Y231564D01*
X200028Y231635D01*
X200052Y231706D01*
X200073Y231779D01*
X200090Y231853D01*
X200104Y231928D01*
X200113Y232003D01*
X200119Y232079D01*
X200121Y232155D01*
X199656Y231068D02*
X197017Y227964D01*
X200121Y227964D01*
D16*
X138031Y116559D02*
X108031Y116559D01*
X108031Y94579D02*
X138031Y94579D01*
D14*
X98031Y113569D02*
X98033Y113632D01*
X98039Y113694D01*
X98049Y113756D01*
X98062Y113818D01*
X98080Y113878D01*
X98101Y113937D01*
X98126Y113995D01*
X98155Y114051D01*
X98187Y114105D01*
X98222Y114157D01*
X98260Y114206D01*
X98302Y114254D01*
X98346Y114298D01*
X98394Y114340D01*
X98443Y114378D01*
X98495Y114413D01*
X98549Y114445D01*
X98605Y114474D01*
X98663Y114499D01*
X98722Y114520D01*
X98782Y114538D01*
X98844Y114551D01*
X98906Y114561D01*
X98968Y114567D01*
X99031Y114569D01*
X99094Y114567D01*
X99156Y114561D01*
X99218Y114551D01*
X99280Y114538D01*
X99340Y114520D01*
X99399Y114499D01*
X99457Y114474D01*
X99513Y114445D01*
X99567Y114413D01*
X99619Y114378D01*
X99668Y114340D01*
X99716Y114298D01*
X99760Y114254D01*
X99802Y114206D01*
X99840Y114157D01*
X99875Y114105D01*
X99907Y114051D01*
X99936Y113995D01*
X99961Y113937D01*
X99982Y113878D01*
X100000Y113818D01*
X100013Y113756D01*
X100023Y113694D01*
X100029Y113632D01*
X100031Y113569D01*
X100029Y113506D01*
X100023Y113444D01*
X100013Y113382D01*
X100000Y113320D01*
X99982Y113260D01*
X99961Y113201D01*
X99936Y113143D01*
X99907Y113087D01*
X99875Y113033D01*
X99840Y112981D01*
X99802Y112932D01*
X99760Y112884D01*
X99716Y112840D01*
X99668Y112798D01*
X99619Y112760D01*
X99567Y112725D01*
X99513Y112693D01*
X99457Y112664D01*
X99399Y112639D01*
X99340Y112618D01*
X99280Y112600D01*
X99218Y112587D01*
X99156Y112577D01*
X99094Y112571D01*
X99031Y112569D01*
X98968Y112571D01*
X98906Y112577D01*
X98844Y112587D01*
X98782Y112600D01*
X98722Y112618D01*
X98663Y112639D01*
X98605Y112664D01*
X98549Y112693D01*
X98495Y112725D01*
X98443Y112760D01*
X98394Y112798D01*
X98346Y112840D01*
X98302Y112884D01*
X98260Y112932D01*
X98222Y112981D01*
X98187Y113033D01*
X98155Y113087D01*
X98126Y113143D01*
X98101Y113201D01*
X98080Y113260D01*
X98062Y113320D01*
X98049Y113382D01*
X98039Y113444D01*
X98033Y113506D01*
X98031Y113569D01*
D10*
X103698Y119581D02*
X103698Y123617D01*
X103698Y119581D02*
X103700Y119504D01*
X103706Y119426D01*
X103715Y119350D01*
X103729Y119273D01*
X103746Y119198D01*
X103767Y119124D01*
X103792Y119050D01*
X103820Y118978D01*
X103852Y118908D01*
X103887Y118839D01*
X103926Y118772D01*
X103968Y118707D01*
X104013Y118644D01*
X104061Y118583D01*
X104112Y118525D01*
X104166Y118470D01*
X104223Y118417D01*
X104282Y118368D01*
X104344Y118321D01*
X104408Y118277D01*
X104474Y118237D01*
X104542Y118200D01*
X104612Y118166D01*
X104683Y118136D01*
X104756Y118110D01*
X104830Y118087D01*
X104905Y118068D01*
X104980Y118053D01*
X105057Y118041D01*
X105134Y118033D01*
X105211Y118029D01*
X105289Y118029D01*
X105366Y118033D01*
X105443Y118041D01*
X105520Y118053D01*
X105595Y118068D01*
X105670Y118087D01*
X105744Y118110D01*
X105817Y118136D01*
X105888Y118166D01*
X105958Y118200D01*
X106026Y118237D01*
X106092Y118277D01*
X106156Y118321D01*
X106218Y118368D01*
X106277Y118417D01*
X106334Y118470D01*
X106388Y118525D01*
X106439Y118583D01*
X106487Y118644D01*
X106532Y118707D01*
X106574Y118772D01*
X106613Y118839D01*
X106648Y118908D01*
X106680Y118978D01*
X106708Y119050D01*
X106733Y119124D01*
X106754Y119198D01*
X106771Y119273D01*
X106785Y119350D01*
X106794Y119426D01*
X106800Y119504D01*
X106802Y119581D01*
X106802Y123617D01*
X109367Y118029D02*
X110919Y118029D01*
X110996Y118031D01*
X111074Y118037D01*
X111150Y118046D01*
X111227Y118060D01*
X111302Y118077D01*
X111376Y118098D01*
X111450Y118123D01*
X111522Y118151D01*
X111592Y118183D01*
X111661Y118218D01*
X111728Y118257D01*
X111793Y118299D01*
X111856Y118344D01*
X111917Y118392D01*
X111975Y118443D01*
X112030Y118497D01*
X112083Y118554D01*
X112132Y118613D01*
X112179Y118675D01*
X112223Y118739D01*
X112263Y118805D01*
X112300Y118873D01*
X112334Y118943D01*
X112364Y119014D01*
X112390Y119087D01*
X112413Y119161D01*
X112432Y119236D01*
X112447Y119311D01*
X112459Y119388D01*
X112467Y119465D01*
X112471Y119542D01*
X112471Y119620D01*
X112467Y119697D01*
X112459Y119774D01*
X112447Y119851D01*
X112432Y119926D01*
X112413Y120001D01*
X112390Y120075D01*
X112364Y120148D01*
X112334Y120219D01*
X112300Y120289D01*
X112263Y120357D01*
X112223Y120423D01*
X112179Y120487D01*
X112132Y120549D01*
X112083Y120608D01*
X112030Y120665D01*
X111975Y120719D01*
X111917Y120770D01*
X111856Y120818D01*
X111793Y120863D01*
X111728Y120905D01*
X111661Y120944D01*
X111592Y120979D01*
X111522Y121011D01*
X111450Y121039D01*
X111376Y121064D01*
X111302Y121085D01*
X111227Y121102D01*
X111150Y121116D01*
X111074Y121125D01*
X110996Y121131D01*
X110919Y121133D01*
X111230Y123617D02*
X109367Y123617D01*
X111230Y123617D02*
X111300Y123615D01*
X111369Y123609D01*
X111438Y123599D01*
X111506Y123586D01*
X111574Y123568D01*
X111640Y123547D01*
X111705Y123522D01*
X111769Y123494D01*
X111831Y123462D01*
X111891Y123427D01*
X111949Y123388D01*
X112004Y123346D01*
X112058Y123301D01*
X112108Y123253D01*
X112156Y123203D01*
X112201Y123149D01*
X112243Y123094D01*
X112282Y123036D01*
X112317Y122976D01*
X112349Y122914D01*
X112377Y122850D01*
X112402Y122785D01*
X112423Y122719D01*
X112441Y122651D01*
X112454Y122583D01*
X112464Y122514D01*
X112470Y122445D01*
X112472Y122375D01*
X112470Y122305D01*
X112464Y122236D01*
X112454Y122167D01*
X112441Y122099D01*
X112423Y122031D01*
X112402Y121965D01*
X112377Y121900D01*
X112349Y121836D01*
X112317Y121774D01*
X112282Y121714D01*
X112243Y121656D01*
X112201Y121601D01*
X112156Y121547D01*
X112108Y121497D01*
X112058Y121449D01*
X112004Y121404D01*
X111949Y121362D01*
X111891Y121323D01*
X111831Y121288D01*
X111769Y121256D01*
X111705Y121228D01*
X111640Y121203D01*
X111574Y121182D01*
X111506Y121164D01*
X111438Y121151D01*
X111369Y121141D01*
X111300Y121135D01*
X111230Y121133D01*
X109988Y121133D01*
D16*
X234804Y325705D02*
X234804Y333455D01*
X234804Y325705D02*
X226804Y325705D01*
X214204Y325705D02*
X206204Y325705D01*
X206204Y333455D01*
D14*
X229004Y355755D02*
X229006Y355818D01*
X229012Y355880D01*
X229022Y355942D01*
X229035Y356004D01*
X229053Y356064D01*
X229074Y356123D01*
X229099Y356181D01*
X229128Y356237D01*
X229160Y356291D01*
X229195Y356343D01*
X229233Y356392D01*
X229275Y356440D01*
X229319Y356484D01*
X229367Y356526D01*
X229416Y356564D01*
X229468Y356599D01*
X229522Y356631D01*
X229578Y356660D01*
X229636Y356685D01*
X229695Y356706D01*
X229755Y356724D01*
X229817Y356737D01*
X229879Y356747D01*
X229941Y356753D01*
X230004Y356755D01*
X230067Y356753D01*
X230129Y356747D01*
X230191Y356737D01*
X230253Y356724D01*
X230313Y356706D01*
X230372Y356685D01*
X230430Y356660D01*
X230486Y356631D01*
X230540Y356599D01*
X230592Y356564D01*
X230641Y356526D01*
X230689Y356484D01*
X230733Y356440D01*
X230775Y356392D01*
X230813Y356343D01*
X230848Y356291D01*
X230880Y356237D01*
X230909Y356181D01*
X230934Y356123D01*
X230955Y356064D01*
X230973Y356004D01*
X230986Y355942D01*
X230996Y355880D01*
X231002Y355818D01*
X231004Y355755D01*
X231002Y355692D01*
X230996Y355630D01*
X230986Y355568D01*
X230973Y355506D01*
X230955Y355446D01*
X230934Y355387D01*
X230909Y355329D01*
X230880Y355273D01*
X230848Y355219D01*
X230813Y355167D01*
X230775Y355118D01*
X230733Y355070D01*
X230689Y355026D01*
X230641Y354984D01*
X230592Y354946D01*
X230540Y354911D01*
X230486Y354879D01*
X230430Y354850D01*
X230372Y354825D01*
X230313Y354804D01*
X230253Y354786D01*
X230191Y354773D01*
X230129Y354763D01*
X230067Y354757D01*
X230004Y354755D01*
X229941Y354757D01*
X229879Y354763D01*
X229817Y354773D01*
X229755Y354786D01*
X229695Y354804D01*
X229636Y354825D01*
X229578Y354850D01*
X229522Y354879D01*
X229468Y354911D01*
X229416Y354946D01*
X229367Y354984D01*
X229319Y355026D01*
X229275Y355070D01*
X229233Y355118D01*
X229195Y355167D01*
X229160Y355219D01*
X229128Y355273D01*
X229099Y355329D01*
X229074Y355387D01*
X229053Y355446D01*
X229035Y355506D01*
X229022Y355568D01*
X229012Y355630D01*
X229006Y355692D01*
X229004Y355755D01*
D10*
X209562Y353270D02*
X207699Y358858D01*
X211424Y358858D02*
X209562Y353270D01*
X213715Y353270D02*
X213715Y358858D01*
X215267Y358858D01*
X215344Y358856D01*
X215422Y358850D01*
X215498Y358841D01*
X215575Y358827D01*
X215650Y358810D01*
X215724Y358789D01*
X215798Y358764D01*
X215870Y358736D01*
X215940Y358704D01*
X216009Y358669D01*
X216076Y358630D01*
X216141Y358588D01*
X216204Y358543D01*
X216265Y358495D01*
X216323Y358444D01*
X216378Y358390D01*
X216431Y358333D01*
X216480Y358274D01*
X216527Y358212D01*
X216571Y358148D01*
X216611Y358082D01*
X216648Y358014D01*
X216682Y357944D01*
X216712Y357873D01*
X216738Y357800D01*
X216761Y357726D01*
X216780Y357651D01*
X216795Y357576D01*
X216807Y357499D01*
X216815Y357422D01*
X216819Y357345D01*
X216819Y357267D01*
X216815Y357190D01*
X216807Y357113D01*
X216795Y357036D01*
X216780Y356961D01*
X216761Y356886D01*
X216738Y356812D01*
X216712Y356739D01*
X216682Y356668D01*
X216648Y356598D01*
X216611Y356530D01*
X216571Y356464D01*
X216527Y356400D01*
X216480Y356338D01*
X216431Y356279D01*
X216378Y356222D01*
X216323Y356168D01*
X216265Y356117D01*
X216204Y356069D01*
X216141Y356024D01*
X216076Y355982D01*
X216009Y355943D01*
X215940Y355908D01*
X215870Y355876D01*
X215798Y355848D01*
X215724Y355823D01*
X215650Y355802D01*
X215575Y355785D01*
X215498Y355771D01*
X215422Y355762D01*
X215344Y355756D01*
X215267Y355754D01*
X213715Y355754D01*
X215577Y355754D02*
X216819Y353270D01*
X219165Y357616D02*
X220717Y358858D01*
X220717Y353270D01*
X219165Y353270D02*
X222270Y353270D01*
D14*
X85894Y267474D02*
X85896Y267537D01*
X85902Y267599D01*
X85912Y267661D01*
X85925Y267723D01*
X85943Y267783D01*
X85964Y267842D01*
X85989Y267900D01*
X86018Y267956D01*
X86050Y268010D01*
X86085Y268062D01*
X86123Y268111D01*
X86165Y268159D01*
X86209Y268203D01*
X86257Y268245D01*
X86306Y268283D01*
X86358Y268318D01*
X86412Y268350D01*
X86468Y268379D01*
X86526Y268404D01*
X86585Y268425D01*
X86645Y268443D01*
X86707Y268456D01*
X86769Y268466D01*
X86831Y268472D01*
X86894Y268474D01*
X86957Y268472D01*
X87019Y268466D01*
X87081Y268456D01*
X87143Y268443D01*
X87203Y268425D01*
X87262Y268404D01*
X87320Y268379D01*
X87376Y268350D01*
X87430Y268318D01*
X87482Y268283D01*
X87531Y268245D01*
X87579Y268203D01*
X87623Y268159D01*
X87665Y268111D01*
X87703Y268062D01*
X87738Y268010D01*
X87770Y267956D01*
X87799Y267900D01*
X87824Y267842D01*
X87845Y267783D01*
X87863Y267723D01*
X87876Y267661D01*
X87886Y267599D01*
X87892Y267537D01*
X87894Y267474D01*
X87892Y267411D01*
X87886Y267349D01*
X87876Y267287D01*
X87863Y267225D01*
X87845Y267165D01*
X87824Y267106D01*
X87799Y267048D01*
X87770Y266992D01*
X87738Y266938D01*
X87703Y266886D01*
X87665Y266837D01*
X87623Y266789D01*
X87579Y266745D01*
X87531Y266703D01*
X87482Y266665D01*
X87430Y266630D01*
X87376Y266598D01*
X87320Y266569D01*
X87262Y266544D01*
X87203Y266523D01*
X87143Y266505D01*
X87081Y266492D01*
X87019Y266482D01*
X86957Y266476D01*
X86894Y266474D01*
X86831Y266476D01*
X86769Y266482D01*
X86707Y266492D01*
X86645Y266505D01*
X86585Y266523D01*
X86526Y266544D01*
X86468Y266569D01*
X86412Y266598D01*
X86358Y266630D01*
X86306Y266665D01*
X86257Y266703D01*
X86209Y266745D01*
X86165Y266789D01*
X86123Y266837D01*
X86085Y266886D01*
X86050Y266938D01*
X86018Y266992D01*
X85989Y267048D01*
X85964Y267106D01*
X85943Y267165D01*
X85925Y267225D01*
X85912Y267287D01*
X85902Y267349D01*
X85896Y267411D01*
X85894Y267474D01*
D10*
X73807Y258082D02*
X71945Y260721D01*
X73807Y258082D02*
X75670Y260721D01*
X73807Y258082D02*
X73807Y255133D01*
X77742Y259479D02*
X79294Y260721D01*
X79294Y255133D01*
X77742Y255133D02*
X80846Y255133D01*
X70104Y184436D02*
X70104Y178848D01*
X70104Y184436D02*
X71656Y184436D01*
X71733Y184434D01*
X71811Y184428D01*
X71887Y184419D01*
X71964Y184405D01*
X72039Y184388D01*
X72113Y184367D01*
X72187Y184342D01*
X72259Y184314D01*
X72329Y184282D01*
X72398Y184247D01*
X72465Y184208D01*
X72530Y184166D01*
X72593Y184121D01*
X72654Y184073D01*
X72712Y184022D01*
X72767Y183968D01*
X72820Y183911D01*
X72869Y183852D01*
X72916Y183790D01*
X72960Y183726D01*
X73000Y183660D01*
X73037Y183592D01*
X73071Y183522D01*
X73101Y183451D01*
X73127Y183378D01*
X73150Y183304D01*
X73169Y183229D01*
X73184Y183154D01*
X73196Y183077D01*
X73204Y183000D01*
X73208Y182923D01*
X73208Y182845D01*
X73204Y182768D01*
X73196Y182691D01*
X73184Y182614D01*
X73169Y182539D01*
X73150Y182464D01*
X73127Y182390D01*
X73101Y182317D01*
X73071Y182246D01*
X73037Y182176D01*
X73000Y182108D01*
X72960Y182042D01*
X72916Y181978D01*
X72869Y181916D01*
X72820Y181857D01*
X72767Y181800D01*
X72712Y181746D01*
X72654Y181695D01*
X72593Y181647D01*
X72530Y181602D01*
X72465Y181560D01*
X72398Y181521D01*
X72329Y181486D01*
X72259Y181454D01*
X72187Y181426D01*
X72113Y181401D01*
X72039Y181380D01*
X71964Y181363D01*
X71887Y181349D01*
X71811Y181340D01*
X71733Y181334D01*
X71656Y181332D01*
X71656Y181331D02*
X70104Y181331D01*
X71967Y181331D02*
X73208Y178848D01*
X76796Y181331D02*
X78659Y181331D01*
X76796Y181331D02*
X76726Y181333D01*
X76657Y181339D01*
X76588Y181349D01*
X76520Y181362D01*
X76452Y181380D01*
X76386Y181401D01*
X76321Y181426D01*
X76257Y181454D01*
X76195Y181486D01*
X76135Y181521D01*
X76077Y181560D01*
X76022Y181602D01*
X75968Y181647D01*
X75918Y181695D01*
X75870Y181745D01*
X75825Y181799D01*
X75783Y181854D01*
X75744Y181912D01*
X75709Y181972D01*
X75677Y182034D01*
X75649Y182098D01*
X75624Y182163D01*
X75603Y182229D01*
X75585Y182297D01*
X75572Y182365D01*
X75562Y182434D01*
X75556Y182503D01*
X75554Y182573D01*
X75554Y182884D01*
X75555Y182884D02*
X75557Y182961D01*
X75563Y183039D01*
X75572Y183115D01*
X75586Y183192D01*
X75603Y183267D01*
X75624Y183341D01*
X75649Y183415D01*
X75677Y183487D01*
X75709Y183557D01*
X75744Y183626D01*
X75783Y183693D01*
X75825Y183758D01*
X75870Y183821D01*
X75918Y183882D01*
X75969Y183940D01*
X76023Y183995D01*
X76080Y184048D01*
X76139Y184097D01*
X76201Y184144D01*
X76265Y184188D01*
X76331Y184228D01*
X76399Y184265D01*
X76469Y184299D01*
X76540Y184329D01*
X76613Y184355D01*
X76687Y184378D01*
X76762Y184397D01*
X76837Y184412D01*
X76914Y184424D01*
X76991Y184432D01*
X77068Y184436D01*
X77146Y184436D01*
X77223Y184432D01*
X77300Y184424D01*
X77377Y184412D01*
X77452Y184397D01*
X77527Y184378D01*
X77601Y184355D01*
X77674Y184329D01*
X77745Y184299D01*
X77815Y184265D01*
X77883Y184228D01*
X77949Y184188D01*
X78013Y184144D01*
X78075Y184097D01*
X78134Y184048D01*
X78191Y183995D01*
X78245Y183940D01*
X78296Y183882D01*
X78344Y183821D01*
X78389Y183758D01*
X78431Y183693D01*
X78470Y183626D01*
X78505Y183557D01*
X78537Y183487D01*
X78565Y183415D01*
X78590Y183341D01*
X78611Y183267D01*
X78628Y183192D01*
X78642Y183115D01*
X78651Y183039D01*
X78657Y182961D01*
X78659Y182884D01*
X78659Y181331D01*
X78657Y181233D01*
X78651Y181136D01*
X78642Y181039D01*
X78628Y180942D01*
X78611Y180846D01*
X78590Y180751D01*
X78566Y180657D01*
X78537Y180563D01*
X78505Y180471D01*
X78470Y180380D01*
X78431Y180291D01*
X78388Y180203D01*
X78342Y180117D01*
X78293Y180033D01*
X78240Y179951D01*
X78185Y179871D01*
X78126Y179793D01*
X78064Y179718D01*
X77999Y179645D01*
X77931Y179575D01*
X77861Y179507D01*
X77788Y179442D01*
X77713Y179380D01*
X77635Y179321D01*
X77555Y179266D01*
X77473Y179213D01*
X77389Y179164D01*
X77303Y179118D01*
X77215Y179075D01*
X77126Y179036D01*
X77035Y179001D01*
X76943Y178969D01*
X76849Y178940D01*
X76755Y178916D01*
X76660Y178895D01*
X76564Y178878D01*
X76467Y178864D01*
X76370Y178855D01*
X76272Y178849D01*
X76175Y178847D01*
X37663Y263779D02*
X36421Y263779D01*
X36351Y263781D01*
X36282Y263787D01*
X36213Y263797D01*
X36145Y263810D01*
X36077Y263828D01*
X36011Y263849D01*
X35946Y263874D01*
X35882Y263902D01*
X35820Y263934D01*
X35760Y263969D01*
X35702Y264008D01*
X35647Y264050D01*
X35593Y264095D01*
X35543Y264143D01*
X35495Y264193D01*
X35450Y264247D01*
X35408Y264302D01*
X35369Y264360D01*
X35334Y264420D01*
X35302Y264482D01*
X35274Y264546D01*
X35249Y264611D01*
X35228Y264677D01*
X35210Y264745D01*
X35197Y264813D01*
X35187Y264882D01*
X35181Y264951D01*
X35179Y265021D01*
X35179Y268125D01*
X35181Y268195D01*
X35187Y268264D01*
X35197Y268333D01*
X35210Y268401D01*
X35228Y268469D01*
X35249Y268535D01*
X35274Y268600D01*
X35302Y268664D01*
X35334Y268726D01*
X35369Y268786D01*
X35408Y268844D01*
X35450Y268899D01*
X35495Y268953D01*
X35543Y269003D01*
X35593Y269051D01*
X35647Y269096D01*
X35702Y269138D01*
X35760Y269177D01*
X35820Y269212D01*
X35882Y269244D01*
X35946Y269272D01*
X36011Y269297D01*
X36077Y269318D01*
X36145Y269336D01*
X36213Y269349D01*
X36282Y269359D01*
X36351Y269365D01*
X36421Y269367D01*
X37663Y269367D01*
X39767Y266883D02*
X41630Y266883D01*
X41630Y266884D02*
X41700Y266882D01*
X41769Y266876D01*
X41838Y266866D01*
X41906Y266853D01*
X41974Y266835D01*
X42040Y266814D01*
X42105Y266789D01*
X42169Y266761D01*
X42231Y266729D01*
X42291Y266694D01*
X42349Y266655D01*
X42404Y266613D01*
X42458Y266568D01*
X42508Y266520D01*
X42556Y266470D01*
X42601Y266416D01*
X42643Y266361D01*
X42682Y266303D01*
X42717Y266243D01*
X42749Y266181D01*
X42777Y266117D01*
X42802Y266052D01*
X42823Y265986D01*
X42841Y265918D01*
X42854Y265850D01*
X42864Y265781D01*
X42870Y265712D01*
X42872Y265642D01*
X42872Y265331D01*
X42871Y265331D02*
X42869Y265254D01*
X42863Y265176D01*
X42854Y265100D01*
X42840Y265023D01*
X42823Y264948D01*
X42802Y264874D01*
X42777Y264800D01*
X42749Y264728D01*
X42717Y264658D01*
X42682Y264589D01*
X42643Y264522D01*
X42601Y264457D01*
X42556Y264394D01*
X42508Y264333D01*
X42457Y264275D01*
X42403Y264220D01*
X42346Y264167D01*
X42287Y264118D01*
X42225Y264071D01*
X42161Y264027D01*
X42095Y263987D01*
X42027Y263950D01*
X41957Y263916D01*
X41886Y263886D01*
X41813Y263860D01*
X41739Y263837D01*
X41664Y263818D01*
X41589Y263803D01*
X41512Y263791D01*
X41435Y263783D01*
X41358Y263779D01*
X41280Y263779D01*
X41203Y263783D01*
X41126Y263791D01*
X41049Y263803D01*
X40974Y263818D01*
X40899Y263837D01*
X40825Y263860D01*
X40752Y263886D01*
X40681Y263916D01*
X40611Y263950D01*
X40543Y263987D01*
X40477Y264027D01*
X40413Y264071D01*
X40351Y264118D01*
X40292Y264167D01*
X40235Y264220D01*
X40181Y264275D01*
X40130Y264333D01*
X40082Y264394D01*
X40037Y264457D01*
X39995Y264522D01*
X39956Y264589D01*
X39921Y264658D01*
X39889Y264728D01*
X39861Y264800D01*
X39836Y264874D01*
X39815Y264948D01*
X39798Y265023D01*
X39784Y265100D01*
X39775Y265176D01*
X39769Y265254D01*
X39767Y265331D01*
X39767Y266883D01*
X39769Y266981D01*
X39775Y267078D01*
X39784Y267175D01*
X39798Y267272D01*
X39815Y267368D01*
X39836Y267463D01*
X39860Y267557D01*
X39889Y267651D01*
X39921Y267743D01*
X39956Y267834D01*
X39995Y267923D01*
X40038Y268011D01*
X40084Y268097D01*
X40133Y268181D01*
X40186Y268263D01*
X40241Y268343D01*
X40300Y268421D01*
X40362Y268496D01*
X40427Y268569D01*
X40495Y268639D01*
X40565Y268707D01*
X40638Y268772D01*
X40713Y268834D01*
X40791Y268893D01*
X40871Y268948D01*
X40953Y269001D01*
X41037Y269050D01*
X41123Y269096D01*
X41211Y269139D01*
X41300Y269178D01*
X41391Y269213D01*
X41483Y269245D01*
X41577Y269274D01*
X41671Y269298D01*
X41766Y269319D01*
X41862Y269336D01*
X41959Y269350D01*
X42056Y269359D01*
X42153Y269365D01*
X42251Y269367D01*
D17*
X124206Y132881D02*
X128206Y132881D01*
X128206Y125881D02*
X124206Y125881D01*
D18*
X124956Y132256D03*
D10*
X116460Y135667D02*
X116460Y141255D01*
X116460Y135667D02*
X118944Y135667D01*
X121215Y135667D02*
X123699Y135667D01*
X121215Y135667D02*
X121215Y141255D01*
X123699Y141255D01*
X123078Y138771D02*
X121215Y138771D01*
X125959Y141255D02*
X125959Y135667D01*
X125959Y141255D02*
X127511Y141255D01*
X127511Y141254D02*
X127587Y141252D01*
X127663Y141247D01*
X127739Y141237D01*
X127814Y141224D01*
X127888Y141207D01*
X127962Y141187D01*
X128034Y141163D01*
X128105Y141136D01*
X128175Y141105D01*
X128243Y141071D01*
X128309Y141033D01*
X128373Y140992D01*
X128436Y140949D01*
X128496Y140902D01*
X128553Y140852D01*
X128608Y140799D01*
X128661Y140744D01*
X128711Y140687D01*
X128758Y140627D01*
X128801Y140564D01*
X128842Y140500D01*
X128880Y140434D01*
X128914Y140366D01*
X128945Y140296D01*
X128972Y140225D01*
X128996Y140152D01*
X129016Y140079D01*
X129033Y140005D01*
X129046Y139930D01*
X129056Y139854D01*
X129061Y139778D01*
X129063Y139702D01*
X129063Y137219D01*
X129061Y137140D01*
X129055Y137062D01*
X129045Y136984D01*
X129031Y136907D01*
X129013Y136830D01*
X128992Y136754D01*
X128966Y136680D01*
X128937Y136607D01*
X128904Y136536D01*
X128868Y136466D01*
X128828Y136398D01*
X128785Y136332D01*
X128738Y136269D01*
X128689Y136208D01*
X128636Y136150D01*
X128580Y136094D01*
X128522Y136041D01*
X128461Y135992D01*
X128398Y135945D01*
X128332Y135902D01*
X128264Y135862D01*
X128195Y135826D01*
X128123Y135793D01*
X128050Y135764D01*
X127976Y135738D01*
X127900Y135717D01*
X127823Y135699D01*
X127746Y135685D01*
X127668Y135675D01*
X127590Y135669D01*
X127511Y135667D01*
X125959Y135667D01*
X133336Y141255D02*
X133409Y141253D01*
X133482Y141247D01*
X133555Y141238D01*
X133626Y141224D01*
X133698Y141207D01*
X133768Y141187D01*
X133837Y141162D01*
X133904Y141134D01*
X133970Y141103D01*
X134035Y141068D01*
X134097Y141030D01*
X134157Y140988D01*
X134215Y140944D01*
X134271Y140896D01*
X134324Y140846D01*
X134374Y140793D01*
X134422Y140737D01*
X134466Y140679D01*
X134508Y140619D01*
X134546Y140557D01*
X134581Y140492D01*
X134612Y140426D01*
X134640Y140359D01*
X134665Y140290D01*
X134685Y140220D01*
X134702Y140148D01*
X134716Y140077D01*
X134725Y140004D01*
X134731Y139931D01*
X134733Y139858D01*
X133336Y141255D02*
X133252Y141253D01*
X133169Y141247D01*
X133086Y141238D01*
X133004Y141224D01*
X132922Y141207D01*
X132841Y141185D01*
X132761Y141160D01*
X132683Y141132D01*
X132605Y141100D01*
X132530Y141064D01*
X132456Y141025D01*
X132384Y140982D01*
X132314Y140936D01*
X132247Y140887D01*
X132181Y140834D01*
X132119Y140779D01*
X132059Y140721D01*
X132001Y140660D01*
X131947Y140597D01*
X131895Y140531D01*
X131847Y140463D01*
X131802Y140392D01*
X131760Y140320D01*
X131722Y140245D01*
X131687Y140169D01*
X131656Y140092D01*
X131628Y140013D01*
X134266Y138772D02*
X134320Y138825D01*
X134371Y138882D01*
X134419Y138941D01*
X134464Y139002D01*
X134505Y139065D01*
X134544Y139131D01*
X134579Y139198D01*
X134611Y139267D01*
X134639Y139338D01*
X134663Y139409D01*
X134684Y139482D01*
X134701Y139556D01*
X134715Y139631D01*
X134724Y139706D01*
X134730Y139782D01*
X134732Y139858D01*
X134267Y138771D02*
X131628Y135667D01*
X134733Y135667D01*
D17*
X68675Y148756D02*
X64675Y148756D01*
X64675Y141756D02*
X68675Y141756D01*
D18*
X65425Y148131D03*
D10*
X57723Y151542D02*
X57723Y157130D01*
X57723Y151542D02*
X60206Y151542D01*
X62478Y151542D02*
X64961Y151542D01*
X62478Y151542D02*
X62478Y157130D01*
X64961Y157130D01*
X64340Y154646D02*
X62478Y154646D01*
X67221Y157130D02*
X67221Y151542D01*
X67221Y157130D02*
X68774Y157130D01*
X68774Y157129D02*
X68850Y157127D01*
X68926Y157122D01*
X69002Y157112D01*
X69077Y157099D01*
X69151Y157082D01*
X69225Y157062D01*
X69297Y157038D01*
X69368Y157011D01*
X69438Y156980D01*
X69506Y156946D01*
X69572Y156908D01*
X69636Y156867D01*
X69699Y156824D01*
X69759Y156777D01*
X69816Y156727D01*
X69871Y156674D01*
X69924Y156619D01*
X69974Y156562D01*
X70021Y156502D01*
X70064Y156439D01*
X70105Y156375D01*
X70143Y156309D01*
X70177Y156241D01*
X70208Y156171D01*
X70235Y156100D01*
X70259Y156027D01*
X70279Y155954D01*
X70296Y155880D01*
X70309Y155805D01*
X70319Y155729D01*
X70324Y155653D01*
X70326Y155577D01*
X70326Y153094D01*
X70324Y153015D01*
X70318Y152937D01*
X70308Y152859D01*
X70294Y152782D01*
X70276Y152705D01*
X70255Y152629D01*
X70229Y152555D01*
X70200Y152482D01*
X70167Y152411D01*
X70131Y152341D01*
X70091Y152273D01*
X70048Y152207D01*
X70001Y152144D01*
X69952Y152083D01*
X69899Y152025D01*
X69843Y151969D01*
X69785Y151916D01*
X69724Y151867D01*
X69661Y151820D01*
X69595Y151777D01*
X69527Y151737D01*
X69458Y151701D01*
X69386Y151668D01*
X69313Y151639D01*
X69239Y151613D01*
X69163Y151592D01*
X69086Y151574D01*
X69009Y151560D01*
X68931Y151550D01*
X68853Y151544D01*
X68774Y151542D01*
X67221Y151542D01*
X72891Y155888D02*
X74443Y157130D01*
X74443Y151542D01*
X72891Y151542D02*
X75995Y151542D01*
M02*
