G04 EAGLE Gerber RS-274X export*
G75*
%MOMM*%
%FSLAX34Y34*%
%LPD*%
%INBottom Copper*%
%IPPOS*%
%AMOC8*
5,1,8,0,0,1.08239X$1,22.5*%
G01*
%ADD10C,1.108000*%
%ADD11R,1.440000X1.440000*%
%ADD12P,1.558642X8X22.500000*%
%ADD13C,1.800000*%
%ADD14C,0.402400*%
%ADD15C,0.352400*%
%ADD16C,0.203200*%
%ADD17C,0.502400*%

G36*
X225335Y2062D02*
X225335Y2062D01*
X225410Y2075D01*
X225486Y2077D01*
X225530Y2094D01*
X225577Y2102D01*
X225645Y2138D01*
X225716Y2165D01*
X225753Y2195D01*
X225795Y2217D01*
X225847Y2273D01*
X225906Y2321D01*
X225931Y2361D01*
X225964Y2396D01*
X225996Y2465D01*
X226036Y2529D01*
X226047Y2576D01*
X226067Y2619D01*
X226076Y2695D01*
X226093Y2768D01*
X226089Y2816D01*
X226094Y2863D01*
X226078Y2938D01*
X226071Y3013D01*
X226052Y3057D01*
X226042Y3104D01*
X226003Y3169D01*
X225972Y3239D01*
X225940Y3274D01*
X225916Y3315D01*
X225858Y3364D01*
X225807Y3420D01*
X225752Y3455D01*
X225729Y3475D01*
X225705Y3484D01*
X225664Y3509D01*
X219521Y6468D01*
X214774Y12421D01*
X213079Y19844D01*
X214774Y27267D01*
X219521Y33219D01*
X226381Y36523D01*
X233994Y36523D01*
X240854Y33219D01*
X245601Y27267D01*
X245683Y26911D01*
X245697Y26876D01*
X245703Y26838D01*
X245743Y26763D01*
X245775Y26684D01*
X245800Y26655D01*
X245818Y26621D01*
X245880Y26562D01*
X245936Y26497D01*
X245969Y26478D01*
X245996Y26451D01*
X246074Y26415D01*
X246147Y26372D01*
X246185Y26364D01*
X246219Y26348D01*
X246304Y26338D01*
X246388Y26320D01*
X246426Y26325D01*
X246464Y26321D01*
X246548Y26339D01*
X246632Y26348D01*
X246667Y26365D01*
X246704Y26373D01*
X246778Y26417D01*
X246855Y26453D01*
X246883Y26479D01*
X246915Y26499D01*
X246971Y26564D01*
X247033Y26623D01*
X247051Y26657D01*
X247075Y26686D01*
X247107Y26765D01*
X247147Y26841D01*
X247153Y26878D01*
X247167Y26914D01*
X247186Y27081D01*
X247229Y172943D01*
X247218Y173014D01*
X247216Y173086D01*
X247198Y173134D01*
X247190Y173186D01*
X247156Y173249D01*
X247132Y173317D01*
X247099Y173357D01*
X247075Y173403D01*
X247023Y173453D01*
X246978Y173509D01*
X246934Y173537D01*
X246896Y173573D01*
X246831Y173603D01*
X246771Y173642D01*
X246721Y173654D01*
X246673Y173676D01*
X246602Y173684D01*
X246532Y173702D01*
X246481Y173698D01*
X246429Y173703D01*
X246359Y173688D01*
X246287Y173683D01*
X246239Y173662D01*
X246189Y173651D01*
X246127Y173615D01*
X246061Y173586D01*
X246005Y173542D01*
X245977Y173525D01*
X245962Y173507D01*
X245930Y173482D01*
X245437Y172988D01*
X236849Y164401D01*
X144138Y164401D01*
X144047Y164386D01*
X143957Y164379D01*
X143927Y164366D01*
X143895Y164361D01*
X143814Y164318D01*
X143730Y164283D01*
X143698Y164257D01*
X143677Y164246D01*
X143655Y164223D01*
X143599Y164178D01*
X127922Y148501D01*
X127869Y148427D01*
X127810Y148357D01*
X127797Y148327D01*
X127779Y148301D01*
X127752Y148214D01*
X127718Y148129D01*
X127713Y148088D01*
X127706Y148066D01*
X127707Y148034D01*
X127699Y147962D01*
X127699Y89122D01*
X127714Y89032D01*
X127721Y88941D01*
X127734Y88911D01*
X127739Y88879D01*
X127782Y88798D01*
X127817Y88715D01*
X127843Y88682D01*
X127854Y88662D01*
X127877Y88640D01*
X127922Y88584D01*
X128695Y87811D01*
X128695Y85091D01*
X126772Y83168D01*
X124053Y83168D01*
X122130Y85091D01*
X122130Y87811D01*
X122903Y88584D01*
X122956Y88657D01*
X123015Y88727D01*
X123028Y88757D01*
X123046Y88783D01*
X123073Y88870D01*
X123107Y88955D01*
X123112Y88996D01*
X123119Y89018D01*
X123118Y89051D01*
X123126Y89122D01*
X123126Y150172D01*
X141928Y168974D01*
X234639Y168974D01*
X234729Y168989D01*
X234820Y168996D01*
X234850Y169009D01*
X234882Y169014D01*
X234963Y169057D01*
X235047Y169092D01*
X235079Y169118D01*
X235100Y169129D01*
X235122Y169152D01*
X235178Y169197D01*
X241323Y175343D01*
X241376Y175417D01*
X241436Y175486D01*
X241448Y175516D01*
X241467Y175542D01*
X241493Y175629D01*
X241528Y175714D01*
X241532Y175755D01*
X241539Y175777D01*
X241538Y175810D01*
X241546Y175881D01*
X241546Y185674D01*
X241535Y185745D01*
X241533Y185817D01*
X241515Y185866D01*
X241506Y185917D01*
X241473Y185980D01*
X241448Y186048D01*
X241416Y186088D01*
X241391Y186134D01*
X241339Y186184D01*
X241294Y186240D01*
X241251Y186268D01*
X241213Y186304D01*
X241148Y186334D01*
X241088Y186373D01*
X241037Y186386D01*
X240990Y186407D01*
X240919Y186415D01*
X240849Y186433D01*
X240797Y186429D01*
X240745Y186435D01*
X240675Y186419D01*
X240604Y186414D01*
X240556Y186393D01*
X240505Y186382D01*
X240443Y186345D01*
X240378Y186317D01*
X240322Y186273D01*
X240294Y186256D01*
X240279Y186238D01*
X240247Y186213D01*
X235622Y181589D01*
X235581Y181530D01*
X235531Y181478D01*
X235509Y181431D01*
X235479Y181389D01*
X235458Y181320D01*
X235428Y181255D01*
X235422Y181203D01*
X235407Y181154D01*
X235408Y181082D01*
X235400Y181011D01*
X235412Y180960D01*
X235413Y180908D01*
X235438Y180840D01*
X235453Y180770D01*
X235479Y180726D01*
X235497Y180677D01*
X235542Y180621D01*
X235579Y180559D01*
X235618Y180525D01*
X235651Y180485D01*
X235711Y180446D01*
X235766Y180399D01*
X235814Y180380D01*
X235858Y180352D01*
X235927Y180334D01*
X235994Y180307D01*
X236065Y180300D01*
X236096Y180292D01*
X236120Y180294D01*
X236161Y180289D01*
X237104Y180289D01*
X239026Y178366D01*
X239026Y175646D01*
X237104Y173724D01*
X234384Y173724D01*
X233611Y174497D01*
X233537Y174550D01*
X233468Y174609D01*
X233437Y174621D01*
X233411Y174640D01*
X233324Y174667D01*
X233239Y174701D01*
X233198Y174706D01*
X233176Y174712D01*
X233144Y174712D01*
X233073Y174720D01*
X161861Y174720D01*
X161771Y174705D01*
X161680Y174698D01*
X161650Y174685D01*
X161619Y174680D01*
X161538Y174637D01*
X161454Y174601D01*
X161422Y174576D01*
X161401Y174565D01*
X161379Y174541D01*
X161323Y174497D01*
X160800Y173974D01*
X158288Y173974D01*
X156511Y175750D01*
X156511Y178281D01*
X156522Y178293D01*
X156544Y178340D01*
X156575Y178382D01*
X156596Y178451D01*
X156626Y178516D01*
X156632Y178567D01*
X156647Y178617D01*
X156645Y178689D01*
X156653Y178760D01*
X156642Y178811D01*
X156641Y178863D01*
X156616Y178930D01*
X156601Y179001D01*
X156574Y179045D01*
X156556Y179094D01*
X156511Y179150D01*
X156475Y179212D01*
X156435Y179246D01*
X156403Y179286D01*
X156342Y179325D01*
X156288Y179372D01*
X156239Y179391D01*
X156196Y179419D01*
X156126Y179437D01*
X156060Y179464D01*
X155988Y179471D01*
X155957Y179479D01*
X155934Y179477D01*
X155893Y179482D01*
X149694Y179482D01*
X149604Y179467D01*
X149513Y179460D01*
X149483Y179448D01*
X149451Y179442D01*
X149370Y179400D01*
X149286Y179364D01*
X149254Y179338D01*
X149234Y179327D01*
X149211Y179304D01*
X149155Y179259D01*
X118397Y148501D01*
X118344Y148427D01*
X118285Y148357D01*
X118272Y148327D01*
X118254Y148301D01*
X118227Y148214D01*
X118193Y148129D01*
X118188Y148088D01*
X118181Y148066D01*
X118182Y148034D01*
X118174Y147962D01*
X118174Y56646D01*
X118189Y56556D01*
X118196Y56465D01*
X118209Y56435D01*
X118214Y56403D01*
X118257Y56323D01*
X118292Y56239D01*
X118318Y56207D01*
X118329Y56186D01*
X118352Y56164D01*
X118397Y56108D01*
X119170Y55335D01*
X119170Y52615D01*
X117247Y50692D01*
X114528Y50692D01*
X112605Y52615D01*
X112605Y55335D01*
X113378Y56108D01*
X113431Y56182D01*
X113490Y56251D01*
X113503Y56281D01*
X113521Y56308D01*
X113548Y56394D01*
X113582Y56479D01*
X113587Y56520D01*
X113594Y56543D01*
X113593Y56575D01*
X113601Y56646D01*
X113601Y150172D01*
X115163Y151735D01*
X147167Y183739D01*
X147209Y183797D01*
X147259Y183849D01*
X147281Y183896D01*
X147311Y183938D01*
X147332Y184007D01*
X147362Y184072D01*
X147368Y184124D01*
X147383Y184174D01*
X147381Y184245D01*
X147389Y184316D01*
X147378Y184367D01*
X147377Y184419D01*
X147352Y184487D01*
X147337Y184557D01*
X147310Y184602D01*
X147292Y184650D01*
X147248Y184706D01*
X147211Y184768D01*
X147171Y184802D01*
X147139Y184842D01*
X147078Y184881D01*
X147024Y184928D01*
X146976Y184947D01*
X146932Y184975D01*
X146862Y184993D01*
X146796Y185020D01*
X146724Y185028D01*
X146693Y185036D01*
X146670Y185034D01*
X146629Y185038D01*
X146519Y185038D01*
X146429Y185024D01*
X146338Y185016D01*
X146308Y185004D01*
X146276Y184999D01*
X146195Y184956D01*
X146111Y184920D01*
X146079Y184894D01*
X146059Y184883D01*
X146036Y184860D01*
X145980Y184815D01*
X123978Y162813D01*
X65457Y162813D01*
X63894Y164376D01*
X59390Y168880D01*
X59390Y178268D01*
X59376Y178359D01*
X59368Y178449D01*
X59356Y178479D01*
X59351Y178511D01*
X59308Y178592D01*
X59272Y178676D01*
X59246Y178708D01*
X59235Y178729D01*
X59212Y178751D01*
X59167Y178807D01*
X58394Y179580D01*
X58394Y182299D01*
X60317Y184222D01*
X63037Y184222D01*
X64960Y182299D01*
X64960Y179580D01*
X64187Y178807D01*
X64134Y178733D01*
X64074Y178663D01*
X64062Y178633D01*
X64043Y178607D01*
X64016Y178520D01*
X63982Y178435D01*
X63978Y178394D01*
X63971Y178372D01*
X63972Y178340D01*
X63964Y178268D01*
X63964Y171090D01*
X63978Y170999D01*
X63986Y170909D01*
X63998Y170879D01*
X64003Y170847D01*
X64046Y170766D01*
X64082Y170682D01*
X64108Y170650D01*
X64119Y170629D01*
X64142Y170607D01*
X64187Y170551D01*
X67128Y167610D01*
X67202Y167557D01*
X67272Y167497D01*
X67302Y167485D01*
X67328Y167466D01*
X67415Y167439D01*
X67500Y167405D01*
X67541Y167401D01*
X67563Y167394D01*
X67595Y167395D01*
X67666Y167387D01*
X121769Y167387D01*
X121859Y167401D01*
X121950Y167409D01*
X121980Y167421D01*
X122011Y167426D01*
X122092Y167469D01*
X122176Y167505D01*
X122208Y167531D01*
X122229Y167542D01*
X122251Y167565D01*
X122307Y167610D01*
X144309Y189612D01*
X148623Y189612D01*
X148631Y189613D01*
X148639Y189612D01*
X148752Y189633D01*
X148866Y189651D01*
X148873Y189655D01*
X148881Y189657D01*
X148982Y189713D01*
X149083Y189767D01*
X149089Y189772D01*
X149096Y189776D01*
X149174Y189862D01*
X149253Y189945D01*
X149256Y189952D01*
X149261Y189958D01*
X149308Y190064D01*
X149356Y190168D01*
X149357Y190176D01*
X149360Y190183D01*
X149371Y190298D01*
X149383Y190412D01*
X149382Y190420D01*
X149382Y190428D01*
X149355Y190540D01*
X149331Y190653D01*
X149327Y190660D01*
X149325Y190667D01*
X149264Y190764D01*
X149205Y190864D01*
X149199Y190869D01*
X149194Y190876D01*
X149070Y190989D01*
X147657Y192016D01*
X146372Y193300D01*
X145304Y194770D01*
X144480Y196389D01*
X143918Y198116D01*
X143732Y199296D01*
X154413Y199296D01*
X154433Y199299D01*
X154452Y199297D01*
X154554Y199319D01*
X154656Y199335D01*
X154673Y199345D01*
X154693Y199349D01*
X154782Y199402D01*
X154873Y199450D01*
X154887Y199465D01*
X154904Y199475D01*
X154971Y199554D01*
X155042Y199629D01*
X155051Y199647D01*
X155064Y199662D01*
X155102Y199758D01*
X155146Y199852D01*
X155148Y199872D01*
X155156Y199890D01*
X155174Y200057D01*
X155174Y200820D01*
X155176Y200820D01*
X155176Y200057D01*
X155179Y200037D01*
X155177Y200017D01*
X155199Y199916D01*
X155216Y199814D01*
X155225Y199796D01*
X155229Y199777D01*
X155282Y199688D01*
X155331Y199597D01*
X155345Y199583D01*
X155355Y199566D01*
X155434Y199498D01*
X155509Y199427D01*
X155527Y199419D01*
X155542Y199406D01*
X155638Y199367D01*
X155732Y199324D01*
X155752Y199321D01*
X155770Y199314D01*
X155937Y199296D01*
X166618Y199296D01*
X166432Y198116D01*
X165870Y196389D01*
X165046Y194770D01*
X163978Y193300D01*
X162693Y192016D01*
X161280Y190989D01*
X161274Y190983D01*
X161267Y190979D01*
X161188Y190896D01*
X161107Y190814D01*
X161103Y190807D01*
X161097Y190801D01*
X161049Y190696D01*
X160998Y190593D01*
X160997Y190585D01*
X160994Y190578D01*
X160981Y190464D01*
X160966Y190349D01*
X160968Y190341D01*
X160967Y190334D01*
X160991Y190221D01*
X161013Y190108D01*
X161017Y190101D01*
X161019Y190093D01*
X161078Y189995D01*
X161135Y189894D01*
X161141Y189889D01*
X161145Y189882D01*
X161233Y189807D01*
X161319Y189730D01*
X161326Y189727D01*
X161332Y189722D01*
X161439Y189679D01*
X161545Y189634D01*
X161553Y189633D01*
X161560Y189630D01*
X161727Y189612D01*
X196381Y189612D01*
X196471Y189626D01*
X196562Y189634D01*
X196592Y189646D01*
X196624Y189651D01*
X196705Y189694D01*
X196789Y189730D01*
X196821Y189756D01*
X196841Y189767D01*
X196864Y189790D01*
X196920Y189835D01*
X203865Y196780D01*
X203918Y196854D01*
X203978Y196924D01*
X203990Y196954D01*
X204009Y196980D01*
X204036Y197067D01*
X204070Y197152D01*
X204074Y197193D01*
X204081Y197215D01*
X204080Y197247D01*
X204088Y197319D01*
X204088Y283873D01*
X204074Y283963D01*
X204066Y284054D01*
X204054Y284083D01*
X204049Y284115D01*
X204006Y284196D01*
X203970Y284280D01*
X203944Y284312D01*
X203933Y284333D01*
X203910Y284355D01*
X203865Y284411D01*
X203092Y285184D01*
X203092Y287904D01*
X205015Y289826D01*
X207735Y289826D01*
X209658Y287904D01*
X209658Y285184D01*
X208885Y284411D01*
X208832Y284337D01*
X208772Y284268D01*
X208760Y284237D01*
X208741Y284211D01*
X208714Y284124D01*
X208680Y284039D01*
X208676Y283998D01*
X208669Y283976D01*
X208670Y283944D01*
X208662Y283873D01*
X208662Y195109D01*
X198908Y185355D01*
X198866Y185297D01*
X198816Y185245D01*
X198795Y185198D01*
X198764Y185155D01*
X198743Y185087D01*
X198713Y185022D01*
X198707Y184970D01*
X198692Y184920D01*
X198694Y184848D01*
X198686Y184777D01*
X198697Y184726D01*
X198698Y184674D01*
X198723Y184607D01*
X198738Y184537D01*
X198765Y184492D01*
X198783Y184443D01*
X198827Y184387D01*
X198864Y184326D01*
X198904Y184292D01*
X198936Y184251D01*
X198997Y184213D01*
X199051Y184166D01*
X199099Y184146D01*
X199143Y184118D01*
X199213Y184101D01*
X199279Y184074D01*
X199351Y184066D01*
X199382Y184058D01*
X199405Y184060D01*
X199446Y184055D01*
X231306Y184055D01*
X231396Y184070D01*
X231487Y184077D01*
X231517Y184090D01*
X231549Y184095D01*
X231630Y184138D01*
X231714Y184174D01*
X231746Y184199D01*
X231766Y184210D01*
X231789Y184234D01*
X231845Y184278D01*
X235615Y188049D01*
X235668Y188123D01*
X235728Y188193D01*
X235740Y188223D01*
X235759Y188249D01*
X235786Y188336D01*
X235820Y188421D01*
X235824Y188462D01*
X235831Y188484D01*
X235830Y188516D01*
X235838Y188588D01*
X235838Y293219D01*
X235824Y293309D01*
X235816Y293400D01*
X235804Y293430D01*
X235799Y293461D01*
X235756Y293542D01*
X235720Y293626D01*
X235694Y293658D01*
X235683Y293679D01*
X235660Y293701D01*
X235615Y293757D01*
X225495Y303878D01*
X225421Y303931D01*
X225351Y303990D01*
X225321Y304003D01*
X225295Y304021D01*
X225208Y304048D01*
X225123Y304082D01*
X225082Y304087D01*
X225060Y304094D01*
X225028Y304093D01*
X224956Y304101D01*
X203994Y304101D01*
X203923Y304089D01*
X203851Y304087D01*
X203803Y304069D01*
X203751Y304061D01*
X203688Y304027D01*
X203620Y304003D01*
X203580Y303970D01*
X203534Y303946D01*
X203484Y303894D01*
X203428Y303849D01*
X203400Y303805D01*
X203365Y303768D01*
X203334Y303702D01*
X203295Y303642D01*
X203283Y303592D01*
X203261Y303545D01*
X203253Y303473D01*
X203235Y303404D01*
X203240Y303352D01*
X203234Y303300D01*
X203249Y303230D01*
X203255Y303158D01*
X203275Y303111D01*
X203286Y303060D01*
X203308Y303023D01*
X203308Y300230D01*
X202733Y299655D01*
X202691Y299597D01*
X202642Y299545D01*
X202620Y299498D01*
X202589Y299455D01*
X202568Y299387D01*
X202538Y299322D01*
X202532Y299270D01*
X202517Y299220D01*
X202519Y299148D01*
X202511Y299077D01*
X202522Y299026D01*
X202523Y298974D01*
X202548Y298907D01*
X202563Y298837D01*
X202590Y298792D01*
X202608Y298743D01*
X202653Y298687D01*
X202689Y298626D01*
X202729Y298592D01*
X202762Y298551D01*
X202822Y298513D01*
X202876Y298466D01*
X202925Y298446D01*
X202969Y298418D01*
X203038Y298401D01*
X203105Y298374D01*
X203176Y298366D01*
X203207Y298358D01*
X203230Y298360D01*
X203271Y298355D01*
X216847Y298355D01*
X224537Y290666D01*
X224537Y232065D01*
X224551Y231975D01*
X224559Y231884D01*
X224571Y231854D01*
X224576Y231822D01*
X224619Y231741D01*
X224655Y231658D01*
X224681Y231625D01*
X224692Y231605D01*
X224715Y231583D01*
X224760Y231527D01*
X225533Y230754D01*
X225533Y228034D01*
X223610Y226111D01*
X220890Y226111D01*
X218967Y228034D01*
X218967Y230754D01*
X219740Y231527D01*
X219793Y231600D01*
X219853Y231670D01*
X219865Y231700D01*
X219884Y231726D01*
X219911Y231813D01*
X219945Y231898D01*
X219949Y231939D01*
X219956Y231961D01*
X219955Y231994D01*
X219963Y232065D01*
X219963Y288456D01*
X219949Y288546D01*
X219941Y288637D01*
X219929Y288667D01*
X219924Y288699D01*
X219881Y288780D01*
X219845Y288864D01*
X219819Y288896D01*
X219808Y288916D01*
X219785Y288939D01*
X219740Y288995D01*
X215176Y293559D01*
X215102Y293612D01*
X215032Y293672D01*
X215002Y293684D01*
X214976Y293703D01*
X214889Y293729D01*
X214804Y293764D01*
X214763Y293768D01*
X214741Y293775D01*
X214709Y293774D01*
X214637Y293782D01*
X192413Y293782D01*
X192323Y293767D01*
X192232Y293760D01*
X192202Y293748D01*
X192170Y293742D01*
X192089Y293700D01*
X192006Y293664D01*
X191973Y293638D01*
X191953Y293627D01*
X191931Y293604D01*
X191875Y293559D01*
X191066Y292751D01*
X188346Y292751D01*
X186424Y294673D01*
X186424Y297393D01*
X187069Y298039D01*
X187111Y298097D01*
X187160Y298149D01*
X187182Y298196D01*
X187213Y298238D01*
X187234Y298307D01*
X187264Y298372D01*
X187270Y298424D01*
X187285Y298474D01*
X187283Y298545D01*
X187291Y298616D01*
X187280Y298667D01*
X187279Y298719D01*
X187254Y298787D01*
X187239Y298857D01*
X187212Y298902D01*
X187194Y298950D01*
X187149Y299006D01*
X187113Y299068D01*
X187073Y299102D01*
X187041Y299142D01*
X186980Y299181D01*
X186926Y299228D01*
X186878Y299247D01*
X186834Y299275D01*
X186764Y299293D01*
X186698Y299320D01*
X186626Y299328D01*
X186595Y299336D01*
X186572Y299334D01*
X186531Y299338D01*
X177475Y299338D01*
X177385Y299324D01*
X177294Y299316D01*
X177264Y299304D01*
X177232Y299299D01*
X177152Y299256D01*
X177068Y299220D01*
X177036Y299194D01*
X177015Y299183D01*
X176993Y299160D01*
X176937Y299115D01*
X168403Y290582D01*
X168350Y290508D01*
X168291Y290439D01*
X168279Y290408D01*
X168260Y290382D01*
X168233Y290295D01*
X168199Y290210D01*
X168194Y290170D01*
X168188Y290147D01*
X168188Y290115D01*
X168180Y290044D01*
X168180Y264255D01*
X168195Y264165D01*
X168202Y264074D01*
X168215Y264044D01*
X168220Y264012D01*
X168263Y263932D01*
X168299Y263848D01*
X168324Y263816D01*
X168335Y263795D01*
X168359Y263773D01*
X168403Y263717D01*
X168926Y263194D01*
X168926Y260681D01*
X167150Y258905D01*
X164638Y258905D01*
X162861Y260681D01*
X162861Y263194D01*
X163384Y263717D01*
X163437Y263791D01*
X163497Y263860D01*
X163509Y263890D01*
X163528Y263916D01*
X163554Y264003D01*
X163589Y264088D01*
X163593Y264129D01*
X163600Y264152D01*
X163599Y264184D01*
X163607Y264255D01*
X163607Y292253D01*
X165169Y293816D01*
X165170Y293816D01*
X173703Y302349D01*
X174155Y302801D01*
X174197Y302860D01*
X174246Y302911D01*
X174268Y302959D01*
X174298Y303001D01*
X174319Y303069D01*
X174350Y303135D01*
X174355Y303186D01*
X174371Y303236D01*
X174369Y303308D01*
X174377Y303379D01*
X174366Y303430D01*
X174364Y303482D01*
X174340Y303549D01*
X174325Y303619D01*
X174298Y303664D01*
X174280Y303713D01*
X174235Y303769D01*
X174198Y303830D01*
X174159Y303864D01*
X174126Y303905D01*
X174066Y303944D01*
X174011Y303990D01*
X173963Y304010D01*
X173919Y304038D01*
X173850Y304055D01*
X173783Y304082D01*
X173712Y304090D01*
X173681Y304098D01*
X173657Y304096D01*
X173617Y304101D01*
X131609Y304101D01*
X123920Y311790D01*
X123920Y331752D01*
X123908Y331822D01*
X123906Y331894D01*
X123888Y331943D01*
X123880Y331994D01*
X123846Y332058D01*
X123822Y332125D01*
X123789Y332166D01*
X123765Y332212D01*
X123713Y332261D01*
X123668Y332317D01*
X123624Y332345D01*
X123586Y332381D01*
X123521Y332411D01*
X123461Y332450D01*
X123411Y332463D01*
X123363Y332485D01*
X123292Y332493D01*
X123222Y332510D01*
X123171Y332506D01*
X123119Y332512D01*
X123049Y332497D01*
X122977Y332491D01*
X122929Y332471D01*
X122878Y332460D01*
X122817Y332423D01*
X122751Y332395D01*
X122695Y332350D01*
X122667Y332334D01*
X122652Y332316D01*
X122620Y332290D01*
X122366Y332036D01*
X122313Y331962D01*
X122253Y331893D01*
X122241Y331862D01*
X122222Y331836D01*
X122196Y331749D01*
X122161Y331664D01*
X122157Y331623D01*
X122150Y331601D01*
X122151Y331569D01*
X122143Y331498D01*
X122143Y187172D01*
X114453Y179482D01*
X96774Y179482D01*
X96684Y179467D01*
X96593Y179460D01*
X96563Y179448D01*
X96531Y179442D01*
X96450Y179400D01*
X96366Y179364D01*
X96334Y179338D01*
X96314Y179327D01*
X96291Y179304D01*
X96235Y179259D01*
X95712Y178736D01*
X93200Y178736D01*
X91424Y180513D01*
X91424Y183025D01*
X91607Y183209D01*
X91619Y183225D01*
X91634Y183237D01*
X91691Y183325D01*
X91751Y183408D01*
X91757Y183427D01*
X91767Y183444D01*
X91793Y183545D01*
X91823Y183644D01*
X91823Y183663D01*
X91828Y183683D01*
X91820Y183786D01*
X91817Y183889D01*
X91810Y183908D01*
X91808Y183928D01*
X91768Y184023D01*
X91732Y184120D01*
X91720Y184136D01*
X91712Y184154D01*
X91607Y184285D01*
X89828Y186065D01*
X89821Y186105D01*
X89814Y186196D01*
X89802Y186226D01*
X89796Y186257D01*
X89754Y186338D01*
X89718Y186422D01*
X89692Y186454D01*
X89681Y186475D01*
X89658Y186497D01*
X89613Y186553D01*
X86613Y189553D01*
X86613Y199295D01*
X86599Y199385D01*
X86591Y199476D01*
X86579Y199506D01*
X86574Y199538D01*
X86531Y199618D01*
X86495Y199702D01*
X86469Y199734D01*
X86458Y199755D01*
X86435Y199777D01*
X86390Y199833D01*
X85867Y200356D01*
X85867Y202869D01*
X87644Y204645D01*
X90156Y204645D01*
X91933Y202869D01*
X91933Y200356D01*
X91410Y199833D01*
X91357Y199759D01*
X91297Y199690D01*
X91285Y199660D01*
X91266Y199634D01*
X91239Y199547D01*
X91205Y199462D01*
X91201Y199421D01*
X91194Y199398D01*
X91195Y199366D01*
X91187Y199295D01*
X91187Y191763D01*
X91201Y191672D01*
X91209Y191582D01*
X91221Y191552D01*
X91226Y191520D01*
X91269Y191439D01*
X91305Y191355D01*
X91331Y191323D01*
X91342Y191302D01*
X91365Y191280D01*
X91410Y191224D01*
X92065Y190568D01*
X92139Y190515D01*
X92209Y190456D01*
X92239Y190444D01*
X92265Y190425D01*
X92352Y190398D01*
X92437Y190364D01*
X92478Y190359D01*
X92500Y190353D01*
X92532Y190353D01*
X92604Y190345D01*
X94125Y190345D01*
X95901Y188569D01*
X95901Y186057D01*
X95718Y185873D01*
X95706Y185857D01*
X95691Y185844D01*
X95634Y185757D01*
X95574Y185673D01*
X95568Y185654D01*
X95558Y185637D01*
X95532Y185537D01*
X95502Y185438D01*
X95502Y185418D01*
X95497Y185399D01*
X95505Y185296D01*
X95508Y185192D01*
X95515Y185173D01*
X95517Y185154D01*
X95557Y185059D01*
X95593Y184961D01*
X95605Y184945D01*
X95613Y184927D01*
X95718Y184796D01*
X96235Y184278D01*
X96309Y184225D01*
X96379Y184166D01*
X96409Y184154D01*
X96435Y184135D01*
X96522Y184108D01*
X96607Y184074D01*
X96648Y184069D01*
X96670Y184063D01*
X96702Y184063D01*
X96774Y184055D01*
X112244Y184055D01*
X112334Y184070D01*
X112425Y184077D01*
X112455Y184090D01*
X112486Y184095D01*
X112567Y184138D01*
X112651Y184174D01*
X112683Y184199D01*
X112704Y184210D01*
X112726Y184234D01*
X112782Y184278D01*
X117347Y188843D01*
X117400Y188917D01*
X117459Y188986D01*
X117471Y189017D01*
X117490Y189043D01*
X117517Y189130D01*
X117551Y189215D01*
X117556Y189255D01*
X117562Y189278D01*
X117562Y189310D01*
X117570Y189381D01*
X117570Y331498D01*
X117555Y331588D01*
X117548Y331679D01*
X117535Y331708D01*
X117530Y331740D01*
X117487Y331821D01*
X117451Y331905D01*
X117426Y331937D01*
X117415Y331958D01*
X117391Y331980D01*
X117347Y332036D01*
X116574Y332809D01*
X116574Y335529D01*
X118496Y337451D01*
X121216Y337451D01*
X122620Y336047D01*
X122678Y336006D01*
X122730Y335956D01*
X122777Y335934D01*
X122820Y335904D01*
X122888Y335883D01*
X122953Y335853D01*
X123005Y335847D01*
X123055Y335832D01*
X123127Y335833D01*
X123198Y335826D01*
X123249Y335837D01*
X123301Y335838D01*
X123368Y335863D01*
X123438Y335878D01*
X123483Y335905D01*
X123532Y335922D01*
X123588Y335967D01*
X123649Y336004D01*
X123683Y336044D01*
X123724Y336076D01*
X123762Y336136D01*
X123809Y336191D01*
X123829Y336239D01*
X123857Y336283D01*
X123874Y336352D01*
X123901Y336419D01*
X123909Y336490D01*
X123917Y336522D01*
X123915Y336545D01*
X123920Y336586D01*
X123920Y338462D01*
X123905Y338553D01*
X123898Y338643D01*
X123885Y338673D01*
X123880Y338705D01*
X123837Y338786D01*
X123801Y338870D01*
X123776Y338902D01*
X123765Y338923D01*
X123741Y338945D01*
X123697Y339001D01*
X121513Y341184D01*
X121439Y341237D01*
X121370Y341297D01*
X121340Y341309D01*
X121314Y341328D01*
X121227Y341354D01*
X121142Y341389D01*
X121101Y341393D01*
X121078Y341400D01*
X121046Y341399D01*
X120975Y341407D01*
X93338Y341407D01*
X93247Y341392D01*
X93157Y341385D01*
X93127Y341373D01*
X93095Y341367D01*
X93014Y341325D01*
X92930Y341289D01*
X92898Y341263D01*
X92877Y341252D01*
X92855Y341229D01*
X92799Y341184D01*
X89028Y337413D01*
X88984Y337352D01*
X88952Y337318D01*
X88947Y337306D01*
X88916Y337270D01*
X88904Y337240D01*
X88885Y337214D01*
X88858Y337127D01*
X88824Y337042D01*
X88819Y337001D01*
X88813Y336978D01*
X88813Y336946D01*
X88805Y336875D01*
X88805Y253142D01*
X88808Y253127D01*
X88807Y253113D01*
X88821Y253049D01*
X88827Y252961D01*
X88840Y252932D01*
X88845Y252900D01*
X88858Y252875D01*
X88859Y252873D01*
X88865Y252863D01*
X88888Y252819D01*
X88924Y252735D01*
X88949Y252703D01*
X88960Y252682D01*
X88984Y252660D01*
X89028Y252604D01*
X89551Y252081D01*
X89551Y249569D01*
X87775Y247792D01*
X85263Y247792D01*
X83486Y249569D01*
X83486Y252081D01*
X84009Y252604D01*
X84062Y252678D01*
X84122Y252748D01*
X84134Y252778D01*
X84153Y252804D01*
X84179Y252891D01*
X84191Y252921D01*
X84204Y252948D01*
X84205Y252953D01*
X84214Y252976D01*
X84218Y253017D01*
X84225Y253039D01*
X84224Y253071D01*
X84232Y253142D01*
X84232Y339085D01*
X85794Y340647D01*
X85795Y340647D01*
X89565Y344418D01*
X91128Y345980D01*
X123185Y345980D01*
X128493Y340672D01*
X128493Y314000D01*
X128508Y313910D01*
X128515Y313819D01*
X128527Y313789D01*
X128533Y313757D01*
X128575Y313677D01*
X128611Y313593D01*
X128637Y313561D01*
X128648Y313540D01*
X128671Y313518D01*
X128716Y313462D01*
X133280Y308897D01*
X133354Y308844D01*
X133424Y308785D01*
X133454Y308772D01*
X133480Y308754D01*
X133567Y308727D01*
X133652Y308693D01*
X133693Y308688D01*
X133715Y308681D01*
X133747Y308682D01*
X133819Y308674D01*
X226798Y308674D01*
X226869Y308686D01*
X226940Y308688D01*
X226989Y308706D01*
X227041Y308714D01*
X227104Y308748D01*
X227171Y308772D01*
X227212Y308805D01*
X227258Y308829D01*
X227307Y308881D01*
X227363Y308926D01*
X227391Y308970D01*
X227427Y309007D01*
X227458Y309072D01*
X227496Y309133D01*
X227509Y309183D01*
X227531Y309230D01*
X227539Y309302D01*
X227556Y309371D01*
X227552Y309423D01*
X227558Y309475D01*
X227543Y309545D01*
X227537Y309616D01*
X227517Y309664D01*
X227506Y309715D01*
X227469Y309777D01*
X227441Y309843D01*
X227396Y309899D01*
X227380Y309926D01*
X227362Y309942D01*
X227336Y309974D01*
X226288Y311022D01*
X226214Y311075D01*
X226145Y311134D01*
X226115Y311146D01*
X226089Y311165D01*
X226001Y311192D01*
X225917Y311226D01*
X225876Y311231D01*
X225853Y311237D01*
X225821Y311237D01*
X225750Y311245D01*
X141134Y311245D01*
X133420Y318959D01*
X133419Y318959D01*
X131857Y320522D01*
X131857Y340844D01*
X131842Y340934D01*
X131835Y341025D01*
X131823Y341055D01*
X131817Y341086D01*
X131775Y341167D01*
X131739Y341251D01*
X131713Y341283D01*
X131702Y341304D01*
X131679Y341326D01*
X131634Y341382D01*
X123895Y349122D01*
X123821Y349175D01*
X123751Y349234D01*
X123721Y349246D01*
X123695Y349265D01*
X123608Y349292D01*
X123523Y349326D01*
X123482Y349331D01*
X123460Y349337D01*
X123428Y349337D01*
X123356Y349345D01*
X89369Y349345D01*
X89279Y349330D01*
X89188Y349323D01*
X89158Y349310D01*
X89126Y349305D01*
X89045Y349262D01*
X88961Y349226D01*
X88929Y349201D01*
X88909Y349190D01*
X88886Y349166D01*
X88830Y349122D01*
X81091Y341382D01*
X81038Y341308D01*
X80978Y341239D01*
X80966Y341208D01*
X80947Y341182D01*
X80921Y341095D01*
X80886Y341010D01*
X80882Y340970D01*
X80875Y340947D01*
X80876Y340915D01*
X80868Y340844D01*
X80868Y257022D01*
X75535Y251688D01*
X73972Y250126D01*
X70492Y250126D01*
X70402Y250111D01*
X70311Y250104D01*
X70281Y250091D01*
X70249Y250086D01*
X70168Y250043D01*
X70084Y250008D01*
X70052Y249982D01*
X70031Y249971D01*
X70015Y249954D01*
X70013Y249953D01*
X70006Y249945D01*
X69953Y249903D01*
X69395Y249344D01*
X66882Y249344D01*
X65106Y251121D01*
X65106Y253633D01*
X66882Y255410D01*
X69395Y255410D01*
X69882Y254922D01*
X69956Y254869D01*
X70026Y254810D01*
X70056Y254798D01*
X70082Y254779D01*
X70169Y254752D01*
X70254Y254718D01*
X70295Y254713D01*
X70317Y254706D01*
X70349Y254707D01*
X70421Y254699D01*
X71763Y254699D01*
X71853Y254714D01*
X71944Y254721D01*
X71973Y254734D01*
X72005Y254739D01*
X72086Y254782D01*
X72170Y254817D01*
X72202Y254843D01*
X72223Y254854D01*
X72245Y254877D01*
X72301Y254922D01*
X76072Y258693D01*
X76125Y258767D01*
X76184Y258836D01*
X76196Y258866D01*
X76215Y258893D01*
X76242Y258980D01*
X76258Y259019D01*
X76266Y259038D01*
X76267Y259042D01*
X76276Y259065D01*
X76281Y259105D01*
X76287Y259128D01*
X76287Y259160D01*
X76295Y259231D01*
X76295Y343053D01*
X87159Y353918D01*
X125566Y353918D01*
X127128Y352356D01*
X127128Y352355D01*
X136430Y343053D01*
X136430Y322731D01*
X136445Y322641D01*
X136452Y322550D01*
X136465Y322520D01*
X136470Y322488D01*
X136513Y322408D01*
X136549Y322324D01*
X136574Y322292D01*
X136585Y322271D01*
X136609Y322249D01*
X136653Y322193D01*
X142805Y316041D01*
X142879Y315988D01*
X142949Y315928D01*
X142979Y315916D01*
X143005Y315897D01*
X143092Y315871D01*
X143177Y315836D01*
X143218Y315832D01*
X143240Y315825D01*
X143272Y315826D01*
X143344Y315818D01*
X227960Y315818D01*
X244558Y299220D01*
X244558Y299219D01*
X245801Y297977D01*
X245967Y297810D01*
X246025Y297769D01*
X246077Y297719D01*
X246125Y297697D01*
X246167Y297667D01*
X246235Y297646D01*
X246300Y297616D01*
X246352Y297610D01*
X246402Y297594D01*
X246474Y297596D01*
X246545Y297588D01*
X246596Y297600D01*
X246648Y297601D01*
X246715Y297625D01*
X246785Y297641D01*
X246830Y297667D01*
X246879Y297685D01*
X246935Y297730D01*
X246996Y297767D01*
X247030Y297806D01*
X247071Y297839D01*
X247110Y297899D01*
X247156Y297954D01*
X247176Y298002D01*
X247204Y298046D01*
X247221Y298115D01*
X247248Y298182D01*
X247256Y298253D01*
X247264Y298284D01*
X247262Y298308D01*
X247267Y298348D01*
X247289Y372627D01*
X247283Y372665D01*
X247285Y372703D01*
X247263Y372785D01*
X247249Y372869D01*
X247231Y372903D01*
X247221Y372940D01*
X247174Y373011D01*
X247134Y373087D01*
X247106Y373113D01*
X247085Y373145D01*
X247018Y373197D01*
X246956Y373256D01*
X246921Y373272D01*
X246891Y373296D01*
X246810Y373324D01*
X246733Y373360D01*
X246695Y373364D01*
X246658Y373377D01*
X246573Y373378D01*
X246488Y373387D01*
X246451Y373379D01*
X246412Y373379D01*
X246331Y373353D01*
X246248Y373335D01*
X246215Y373315D01*
X246178Y373303D01*
X246110Y373252D01*
X246037Y373209D01*
X246012Y373179D01*
X245981Y373157D01*
X245932Y373087D01*
X245877Y373022D01*
X245863Y372986D01*
X245841Y372955D01*
X245786Y372796D01*
X245601Y371990D01*
X240854Y366037D01*
X233994Y362733D01*
X226381Y362733D01*
X219521Y366037D01*
X214774Y371990D01*
X213079Y379412D01*
X214774Y386835D01*
X219521Y392788D01*
X226381Y396092D01*
X233994Y396092D01*
X239912Y393242D01*
X239965Y393226D01*
X240015Y393201D01*
X240083Y393192D01*
X240148Y393172D01*
X240203Y393174D01*
X240258Y393167D01*
X240326Y393179D01*
X240394Y393182D01*
X240446Y393201D01*
X240500Y393211D01*
X240560Y393244D01*
X240624Y393269D01*
X240667Y393304D01*
X240715Y393331D01*
X240761Y393381D01*
X240814Y393425D01*
X240844Y393472D01*
X240881Y393512D01*
X240908Y393575D01*
X240945Y393633D01*
X240958Y393687D01*
X240980Y393737D01*
X240986Y393806D01*
X241002Y393873D01*
X240997Y393927D01*
X241002Y393982D01*
X240986Y394049D01*
X240980Y394118D01*
X240958Y394168D01*
X240945Y394222D01*
X240909Y394280D01*
X240881Y394343D01*
X240844Y394383D01*
X240814Y394430D01*
X240736Y394502D01*
X240715Y394524D01*
X240702Y394533D01*
X240691Y394543D01*
X237569Y396814D01*
X237537Y396830D01*
X237510Y396853D01*
X237357Y396922D01*
X232225Y398592D01*
X232219Y398593D01*
X232214Y398596D01*
X232049Y398627D01*
X229351Y398841D01*
X229329Y398839D01*
X229291Y398843D01*
X20000Y398843D01*
X19978Y398839D01*
X19940Y398841D01*
X17244Y398628D01*
X17238Y398627D01*
X17232Y398627D01*
X17068Y398594D01*
X11939Y396927D01*
X11907Y396911D01*
X11872Y396902D01*
X11727Y396819D01*
X7363Y393649D01*
X7338Y393623D01*
X7308Y393604D01*
X7195Y393480D01*
X4025Y389117D01*
X4009Y389086D01*
X4007Y389083D01*
X4006Y389081D01*
X3986Y389058D01*
X3917Y388905D01*
X2250Y383776D01*
X2249Y383770D01*
X2247Y383765D01*
X2215Y383600D01*
X2003Y380903D01*
X2005Y380882D01*
X2001Y380844D01*
X2001Y379471D01*
X2007Y379434D01*
X2005Y379395D01*
X2005Y379393D01*
X2001Y379354D01*
X2001Y358775D01*
X2004Y358755D01*
X2002Y358736D01*
X2024Y358634D01*
X2040Y358532D01*
X2050Y358515D01*
X2054Y358495D01*
X2107Y358406D01*
X2156Y358315D01*
X2170Y358301D01*
X2180Y358284D01*
X2259Y358217D01*
X2334Y358146D01*
X2352Y358137D01*
X2367Y358124D01*
X2463Y358085D01*
X2557Y358042D01*
X2577Y358040D01*
X2595Y358032D01*
X2762Y358014D01*
X44483Y358014D01*
X44483Y299211D01*
X2762Y299211D01*
X2742Y299208D01*
X2723Y299210D01*
X2621Y299188D01*
X2519Y299172D01*
X2502Y299162D01*
X2482Y299158D01*
X2393Y299105D01*
X2302Y299056D01*
X2288Y299042D01*
X2271Y299032D01*
X2204Y298953D01*
X2132Y298878D01*
X2124Y298860D01*
X2111Y298845D01*
X2072Y298749D01*
X2029Y298655D01*
X2027Y298635D01*
X2019Y298617D01*
X2001Y298450D01*
X2001Y23380D01*
X2007Y23342D01*
X2005Y23304D01*
X2027Y23222D01*
X2040Y23138D01*
X2058Y23104D01*
X2068Y23067D01*
X2116Y22996D01*
X2156Y22920D01*
X2183Y22894D01*
X2205Y22862D01*
X2272Y22810D01*
X2334Y22751D01*
X2369Y22735D01*
X2399Y22711D01*
X2480Y22683D01*
X2557Y22647D01*
X2595Y22643D01*
X2631Y22630D01*
X2717Y22630D01*
X2801Y22620D01*
X2839Y22628D01*
X2877Y22628D01*
X2958Y22654D01*
X3042Y22672D01*
X3075Y22692D01*
X3111Y22704D01*
X3180Y22755D01*
X3253Y22799D01*
X3278Y22828D01*
X3309Y22851D01*
X3357Y22921D01*
X3413Y22985D01*
X3427Y23021D01*
X3449Y23053D01*
X3504Y23211D01*
X4430Y27267D01*
X9177Y33219D01*
X16037Y36523D01*
X23651Y36523D01*
X30511Y33219D01*
X35258Y27267D01*
X36952Y19844D01*
X35258Y12421D01*
X30511Y6468D01*
X24113Y3387D01*
X24051Y3343D01*
X23983Y3308D01*
X23951Y3273D01*
X23912Y3246D01*
X23866Y3185D01*
X23814Y3129D01*
X23794Y3086D01*
X23766Y3048D01*
X23742Y2975D01*
X23710Y2906D01*
X23705Y2859D01*
X23691Y2814D01*
X23692Y2737D01*
X23683Y2661D01*
X23693Y2615D01*
X23694Y2568D01*
X23719Y2496D01*
X23736Y2421D01*
X23760Y2381D01*
X23776Y2336D01*
X23823Y2276D01*
X23862Y2210D01*
X23898Y2179D01*
X23927Y2142D01*
X23991Y2100D01*
X24049Y2050D01*
X24093Y2033D01*
X24132Y2007D01*
X24206Y1987D01*
X24277Y1959D01*
X24340Y1952D01*
X24370Y1944D01*
X24396Y1945D01*
X24444Y1940D01*
X225335Y2062D01*
G37*
%LPC*%
G36*
X44678Y168167D02*
X44678Y168167D01*
X43905Y168940D01*
X43831Y168993D01*
X43761Y169053D01*
X43731Y169065D01*
X43705Y169084D01*
X43618Y169111D01*
X43533Y169145D01*
X43492Y169149D01*
X43470Y169156D01*
X43438Y169155D01*
X43366Y169163D01*
X22072Y169163D01*
X13588Y177647D01*
X13588Y215610D01*
X13574Y215700D01*
X13566Y215791D01*
X13554Y215821D01*
X13549Y215853D01*
X13506Y215934D01*
X13470Y216017D01*
X13444Y216050D01*
X13433Y216070D01*
X13410Y216092D01*
X13365Y216148D01*
X12592Y216921D01*
X12592Y219641D01*
X14515Y221564D01*
X17235Y221564D01*
X17845Y220954D01*
X17903Y220912D01*
X17955Y220863D01*
X18002Y220841D01*
X18045Y220810D01*
X18113Y220789D01*
X18178Y220759D01*
X18230Y220753D01*
X18280Y220738D01*
X18352Y220740D01*
X18423Y220732D01*
X18474Y220743D01*
X18526Y220744D01*
X18593Y220769D01*
X18663Y220784D01*
X18708Y220811D01*
X18757Y220829D01*
X18813Y220874D01*
X18874Y220910D01*
X18908Y220950D01*
X18949Y220982D01*
X18987Y221043D01*
X19034Y221097D01*
X19054Y221145D01*
X19082Y221189D01*
X19099Y221259D01*
X19126Y221325D01*
X19134Y221397D01*
X19142Y221428D01*
X19140Y221451D01*
X19145Y221492D01*
X19145Y233516D01*
X34772Y249143D01*
X48744Y249143D01*
X48834Y249158D01*
X48925Y249165D01*
X48955Y249177D01*
X48986Y249183D01*
X49067Y249225D01*
X49151Y249261D01*
X49183Y249287D01*
X49204Y249298D01*
X49226Y249321D01*
X49282Y249366D01*
X68134Y268218D01*
X68187Y268292D01*
X68247Y268361D01*
X68259Y268392D01*
X68278Y268418D01*
X68304Y268505D01*
X68339Y268590D01*
X68343Y268630D01*
X68350Y268653D01*
X68349Y268685D01*
X68357Y268756D01*
X68357Y347022D01*
X82397Y361062D01*
X125123Y361062D01*
X125213Y361076D01*
X125304Y361084D01*
X125333Y361096D01*
X125365Y361101D01*
X125446Y361144D01*
X125530Y361180D01*
X125562Y361206D01*
X125583Y361217D01*
X125605Y361240D01*
X125661Y361285D01*
X126434Y362058D01*
X129154Y362058D01*
X131076Y360135D01*
X131076Y357415D01*
X129154Y355492D01*
X126434Y355492D01*
X125661Y356265D01*
X125587Y356318D01*
X125518Y356378D01*
X125487Y356390D01*
X125461Y356409D01*
X125374Y356436D01*
X125289Y356470D01*
X125248Y356474D01*
X125226Y356481D01*
X125194Y356480D01*
X125123Y356488D01*
X84606Y356488D01*
X84516Y356474D01*
X84425Y356466D01*
X84395Y356454D01*
X84364Y356449D01*
X84283Y356406D01*
X84199Y356370D01*
X84167Y356344D01*
X84146Y356333D01*
X84124Y356310D01*
X84068Y356265D01*
X73153Y345351D01*
X73100Y345277D01*
X73041Y345207D01*
X73029Y345177D01*
X73010Y345151D01*
X72983Y345064D01*
X72949Y344979D01*
X72944Y344938D01*
X72938Y344916D01*
X72938Y344884D01*
X72930Y344812D01*
X72930Y266547D01*
X50953Y244570D01*
X36981Y244570D01*
X36891Y244555D01*
X36800Y244548D01*
X36770Y244535D01*
X36739Y244530D01*
X36658Y244487D01*
X36574Y244451D01*
X36542Y244426D01*
X36521Y244415D01*
X36499Y244391D01*
X36443Y244347D01*
X23941Y231845D01*
X23888Y231771D01*
X23828Y231701D01*
X23816Y231671D01*
X23797Y231645D01*
X23771Y231558D01*
X23736Y231473D01*
X23732Y231432D01*
X23725Y231410D01*
X23726Y231378D01*
X23718Y231306D01*
X23718Y210634D01*
X23733Y210543D01*
X23740Y210453D01*
X23752Y210423D01*
X23758Y210391D01*
X23800Y210310D01*
X23836Y210226D01*
X23862Y210194D01*
X23873Y210173D01*
X23896Y210151D01*
X23941Y210095D01*
X24714Y209322D01*
X24714Y206603D01*
X22791Y204680D01*
X20071Y204680D01*
X19461Y205290D01*
X19403Y205332D01*
X19351Y205381D01*
X19304Y205403D01*
X19262Y205434D01*
X19193Y205455D01*
X19128Y205485D01*
X19076Y205491D01*
X19026Y205506D01*
X18955Y205504D01*
X18884Y205512D01*
X18833Y205501D01*
X18781Y205500D01*
X18713Y205475D01*
X18643Y205460D01*
X18598Y205433D01*
X18550Y205415D01*
X18494Y205370D01*
X18432Y205334D01*
X18398Y205294D01*
X18358Y205261D01*
X18319Y205201D01*
X18272Y205147D01*
X18253Y205098D01*
X18225Y205054D01*
X18207Y204985D01*
X18180Y204918D01*
X18172Y204847D01*
X18164Y204816D01*
X18166Y204793D01*
X18162Y204752D01*
X18162Y199267D01*
X18173Y199196D01*
X18175Y199125D01*
X18193Y199076D01*
X18201Y199024D01*
X18235Y198961D01*
X18260Y198894D01*
X18292Y198853D01*
X18317Y198807D01*
X18369Y198758D01*
X18413Y198702D01*
X18457Y198673D01*
X18495Y198638D01*
X18560Y198607D01*
X18620Y198569D01*
X18671Y198556D01*
X18718Y198534D01*
X18789Y198526D01*
X18859Y198508D01*
X18911Y198513D01*
X18962Y198507D01*
X19033Y198522D01*
X19104Y198528D01*
X19152Y198548D01*
X19203Y198559D01*
X19264Y198596D01*
X19330Y198624D01*
X19386Y198669D01*
X19414Y198685D01*
X19429Y198703D01*
X19461Y198729D01*
X20865Y200133D01*
X23585Y200133D01*
X25508Y198210D01*
X25508Y195490D01*
X24897Y194880D01*
X24856Y194822D01*
X24806Y194770D01*
X24784Y194723D01*
X24754Y194680D01*
X24733Y194612D01*
X24703Y194547D01*
X24697Y194495D01*
X24682Y194445D01*
X24683Y194373D01*
X24676Y194302D01*
X24687Y194251D01*
X24688Y194199D01*
X24713Y194132D01*
X24728Y194062D01*
X24755Y194017D01*
X24772Y193968D01*
X24817Y193912D01*
X24854Y193851D01*
X24894Y193817D01*
X24926Y193776D01*
X24986Y193738D01*
X25041Y193691D01*
X25089Y193671D01*
X25133Y193643D01*
X25203Y193626D01*
X25269Y193599D01*
X25340Y193591D01*
X25372Y193583D01*
X25395Y193585D01*
X25436Y193580D01*
X80322Y193580D01*
X84837Y189066D01*
X84837Y178269D01*
X84851Y178179D01*
X84859Y178088D01*
X84871Y178058D01*
X84876Y178026D01*
X84919Y177946D01*
X84955Y177861D01*
X84981Y177829D01*
X84992Y177809D01*
X85015Y177787D01*
X85060Y177730D01*
X87243Y175547D01*
X87317Y175494D01*
X87386Y175435D01*
X87416Y175423D01*
X87443Y175404D01*
X87530Y175377D01*
X87615Y175343D01*
X87655Y175338D01*
X87678Y175331D01*
X87710Y175332D01*
X87781Y175324D01*
X117006Y175324D01*
X117096Y175339D01*
X117187Y175346D01*
X117217Y175359D01*
X117249Y175364D01*
X117330Y175407D01*
X117414Y175442D01*
X117446Y175468D01*
X117466Y175479D01*
X117489Y175502D01*
X117545Y175547D01*
X125284Y183287D01*
X125337Y183361D01*
X125397Y183430D01*
X125409Y183460D01*
X125428Y183486D01*
X125454Y183573D01*
X125489Y183658D01*
X125493Y183699D01*
X125500Y183722D01*
X125499Y183754D01*
X125507Y183825D01*
X125507Y220022D01*
X133990Y228505D01*
X182273Y228505D01*
X182363Y228520D01*
X182454Y228527D01*
X182483Y228540D01*
X182515Y228545D01*
X182596Y228588D01*
X182680Y228624D01*
X182712Y228649D01*
X182733Y228660D01*
X182755Y228684D01*
X182811Y228728D01*
X183584Y229501D01*
X186304Y229501D01*
X188226Y227579D01*
X188226Y224859D01*
X186304Y222936D01*
X183584Y222936D01*
X182811Y223709D01*
X182737Y223762D01*
X182668Y223822D01*
X182637Y223834D01*
X182611Y223853D01*
X182524Y223879D01*
X182439Y223914D01*
X182398Y223918D01*
X182376Y223925D01*
X182344Y223924D01*
X182273Y223932D01*
X136200Y223932D01*
X136110Y223917D01*
X136019Y223910D01*
X135989Y223898D01*
X135957Y223892D01*
X135877Y223850D01*
X135793Y223814D01*
X135761Y223788D01*
X135740Y223777D01*
X135718Y223754D01*
X135662Y223709D01*
X130303Y218351D01*
X130250Y218277D01*
X130191Y218207D01*
X130179Y218177D01*
X130160Y218151D01*
X130133Y218064D01*
X130099Y217979D01*
X130094Y217938D01*
X130088Y217916D01*
X130088Y217884D01*
X130080Y217812D01*
X130080Y181615D01*
X119216Y170751D01*
X85572Y170751D01*
X84009Y172313D01*
X80263Y176059D01*
X80263Y186856D01*
X80249Y186946D01*
X80241Y187037D01*
X80229Y187067D01*
X80224Y187099D01*
X80181Y187180D01*
X80145Y187264D01*
X80119Y187296D01*
X80108Y187316D01*
X80085Y187339D01*
X80040Y187395D01*
X78651Y188784D01*
X78577Y188837D01*
X78507Y188897D01*
X78477Y188909D01*
X78451Y188928D01*
X78364Y188954D01*
X78279Y188989D01*
X78238Y188993D01*
X78216Y189000D01*
X78184Y188999D01*
X78112Y189007D01*
X22865Y189007D01*
X21303Y190569D01*
X21303Y190570D01*
X19938Y191934D01*
X19938Y194179D01*
X19924Y194269D01*
X19916Y194360D01*
X19904Y194390D01*
X19899Y194422D01*
X19856Y194502D01*
X19820Y194586D01*
X19794Y194618D01*
X19783Y194639D01*
X19760Y194661D01*
X19715Y194717D01*
X19461Y194971D01*
X19403Y195013D01*
X19351Y195062D01*
X19304Y195084D01*
X19262Y195115D01*
X19193Y195136D01*
X19128Y195166D01*
X19076Y195172D01*
X19026Y195187D01*
X18955Y195185D01*
X18884Y195193D01*
X18833Y195182D01*
X18781Y195181D01*
X18713Y195156D01*
X18643Y195141D01*
X18598Y195114D01*
X18550Y195096D01*
X18494Y195052D01*
X18432Y195015D01*
X18398Y194975D01*
X18358Y194943D01*
X18319Y194882D01*
X18272Y194828D01*
X18253Y194779D01*
X18225Y194736D01*
X18207Y194666D01*
X18180Y194600D01*
X18172Y194528D01*
X18164Y194497D01*
X18166Y194474D01*
X18162Y194433D01*
X18162Y179856D01*
X18176Y179766D01*
X18184Y179675D01*
X18196Y179645D01*
X18201Y179614D01*
X18244Y179533D01*
X18280Y179449D01*
X18306Y179417D01*
X18317Y179396D01*
X18340Y179374D01*
X18385Y179318D01*
X23743Y173960D01*
X23817Y173907D01*
X23886Y173847D01*
X23917Y173835D01*
X23943Y173816D01*
X24030Y173789D01*
X24115Y173755D01*
X24155Y173751D01*
X24178Y173744D01*
X24210Y173745D01*
X24281Y173737D01*
X43366Y173737D01*
X43457Y173751D01*
X43547Y173759D01*
X43577Y173771D01*
X43609Y173776D01*
X43690Y173819D01*
X43774Y173855D01*
X43806Y173881D01*
X43827Y173892D01*
X43849Y173915D01*
X43905Y173960D01*
X44678Y174733D01*
X47397Y174733D01*
X49320Y172810D01*
X49320Y170090D01*
X47397Y168167D01*
X44678Y168167D01*
G37*
%LPD*%
%LPC*%
G36*
X16831Y362733D02*
X16831Y362733D01*
X9971Y366037D01*
X5224Y371990D01*
X3529Y379412D01*
X5224Y386835D01*
X9971Y392788D01*
X16831Y396092D01*
X24444Y396092D01*
X31304Y392788D01*
X36051Y386835D01*
X37746Y379413D01*
X36051Y371990D01*
X31304Y366037D01*
X24444Y362733D01*
X16831Y362733D01*
G37*
%LPD*%
%LPC*%
G36*
X145484Y83236D02*
X145484Y83236D01*
X143561Y85159D01*
X143561Y87879D01*
X145484Y89801D01*
X148204Y89801D01*
X148977Y89028D01*
X149050Y88975D01*
X149120Y88916D01*
X149150Y88904D01*
X149176Y88885D01*
X149263Y88858D01*
X149348Y88824D01*
X149389Y88819D01*
X149411Y88813D01*
X149444Y88813D01*
X149515Y88805D01*
X156694Y88805D01*
X156784Y88820D01*
X156875Y88827D01*
X156905Y88840D01*
X156936Y88845D01*
X157017Y88888D01*
X157101Y88924D01*
X157133Y88949D01*
X157154Y88960D01*
X157176Y88984D01*
X157232Y89028D01*
X158622Y90418D01*
X158675Y90492D01*
X158734Y90561D01*
X158746Y90592D01*
X158765Y90618D01*
X158792Y90705D01*
X158826Y90790D01*
X158831Y90830D01*
X158837Y90853D01*
X158837Y90885D01*
X158845Y90956D01*
X158845Y111450D01*
X158830Y111540D01*
X158823Y111631D01*
X158810Y111661D01*
X158805Y111693D01*
X158762Y111773D01*
X158726Y111857D01*
X158701Y111889D01*
X158690Y111910D01*
X158666Y111932D01*
X158622Y111988D01*
X158026Y112584D01*
X157952Y112637D01*
X157882Y112697D01*
X157852Y112709D01*
X157826Y112728D01*
X157739Y112754D01*
X157654Y112789D01*
X157613Y112793D01*
X157591Y112800D01*
X157559Y112799D01*
X157487Y112807D01*
X157099Y112807D01*
X157009Y112792D01*
X156918Y112785D01*
X156888Y112773D01*
X156856Y112767D01*
X156775Y112725D01*
X156691Y112689D01*
X156659Y112663D01*
X156639Y112652D01*
X156616Y112629D01*
X156560Y112584D01*
X156037Y112061D01*
X153986Y112061D01*
X153915Y112049D01*
X153844Y112048D01*
X153795Y112030D01*
X153743Y112021D01*
X153680Y111988D01*
X153613Y111963D01*
X153572Y111931D01*
X153526Y111906D01*
X153476Y111854D01*
X153420Y111809D01*
X153392Y111766D01*
X153356Y111728D01*
X153326Y111663D01*
X153287Y111603D01*
X153275Y111552D01*
X153253Y111505D01*
X153245Y111434D01*
X153227Y111364D01*
X153231Y111312D01*
X153226Y111260D01*
X153241Y111190D01*
X153247Y111119D01*
X153267Y111071D01*
X153278Y111020D01*
X153315Y110958D01*
X153343Y110892D01*
X153388Y110836D01*
X153404Y110809D01*
X153422Y110794D01*
X153448Y110761D01*
X155480Y108729D01*
X155480Y99136D01*
X150137Y93793D01*
X147892Y93793D01*
X147802Y93778D01*
X147711Y93771D01*
X147681Y93758D01*
X147649Y93753D01*
X147568Y93710D01*
X147485Y93674D01*
X147452Y93649D01*
X147432Y93638D01*
X147410Y93614D01*
X147354Y93570D01*
X146581Y92797D01*
X143861Y92797D01*
X141938Y94719D01*
X141938Y97439D01*
X143861Y99362D01*
X146581Y99362D01*
X147354Y98589D01*
X147427Y98536D01*
X147497Y98476D01*
X147527Y98464D01*
X147553Y98445D01*
X147640Y98419D01*
X147725Y98384D01*
X147766Y98380D01*
X147788Y98373D01*
X147821Y98374D01*
X147859Y98370D01*
X147863Y98369D01*
X147865Y98369D01*
X147892Y98366D01*
X147927Y98366D01*
X148004Y98379D01*
X148034Y98379D01*
X148044Y98383D01*
X148108Y98388D01*
X148138Y98400D01*
X148170Y98406D01*
X148250Y98448D01*
X148334Y98484D01*
X148366Y98510D01*
X148387Y98521D01*
X148409Y98544D01*
X148465Y98589D01*
X150684Y100808D01*
X150737Y100882D01*
X150797Y100951D01*
X150809Y100981D01*
X150828Y101007D01*
X150854Y101094D01*
X150889Y101179D01*
X150893Y101220D01*
X150900Y101243D01*
X150899Y101275D01*
X150907Y101346D01*
X150907Y106519D01*
X150892Y106609D01*
X150885Y106700D01*
X150873Y106730D01*
X150867Y106762D01*
X150825Y106842D01*
X150789Y106926D01*
X150763Y106958D01*
X150752Y106979D01*
X150729Y107001D01*
X150684Y107057D01*
X148447Y109295D01*
X148447Y130845D01*
X148432Y130935D01*
X148425Y131026D01*
X148412Y131056D01*
X148407Y131088D01*
X148364Y131168D01*
X148328Y131252D01*
X148303Y131284D01*
X148292Y131305D01*
X148268Y131327D01*
X148224Y131383D01*
X146236Y133371D01*
X146236Y136504D01*
X148452Y138720D01*
X151586Y138720D01*
X153801Y136504D01*
X153801Y133371D01*
X153243Y132812D01*
X153190Y132738D01*
X153130Y132669D01*
X153118Y132639D01*
X153099Y132612D01*
X153073Y132525D01*
X153038Y132441D01*
X153034Y132400D01*
X153027Y132377D01*
X153028Y132345D01*
X153020Y132274D01*
X153020Y118888D01*
X153023Y118868D01*
X153021Y118848D01*
X153043Y118747D01*
X153060Y118645D01*
X153069Y118627D01*
X153073Y118608D01*
X153126Y118519D01*
X153175Y118428D01*
X153189Y118414D01*
X153199Y118397D01*
X153278Y118329D01*
X153353Y118258D01*
X153371Y118250D01*
X153386Y118237D01*
X153483Y118198D01*
X153576Y118155D01*
X153596Y118152D01*
X153615Y118145D01*
X153781Y118126D01*
X156037Y118126D01*
X156560Y117603D01*
X156634Y117550D01*
X156704Y117491D01*
X156734Y117479D01*
X156760Y117460D01*
X156847Y117433D01*
X156932Y117399D01*
X156973Y117394D01*
X156995Y117388D01*
X157027Y117388D01*
X157099Y117380D01*
X159697Y117380D01*
X163418Y113660D01*
X163418Y88747D01*
X158903Y84232D01*
X149515Y84232D01*
X149425Y84217D01*
X149334Y84210D01*
X149304Y84198D01*
X149272Y84192D01*
X149191Y84150D01*
X149108Y84114D01*
X149075Y84088D01*
X149055Y84077D01*
X149033Y84054D01*
X148977Y84009D01*
X148204Y83236D01*
X145484Y83236D01*
G37*
%LPD*%
%LPC*%
G36*
X58171Y69742D02*
X58171Y69742D01*
X56249Y71665D01*
X56249Y74385D01*
X57022Y75158D01*
X57075Y75232D01*
X57134Y75301D01*
X57146Y75331D01*
X57165Y75358D01*
X57192Y75444D01*
X57226Y75529D01*
X57231Y75570D01*
X57237Y75593D01*
X57237Y75625D01*
X57245Y75696D01*
X57245Y82703D01*
X63311Y88770D01*
X99137Y88770D01*
X99208Y88782D01*
X99280Y88783D01*
X99329Y88801D01*
X99380Y88810D01*
X99443Y88843D01*
X99511Y88868D01*
X99551Y88900D01*
X99597Y88925D01*
X99647Y88977D01*
X99703Y89022D01*
X99731Y89065D01*
X99767Y89103D01*
X99797Y89168D01*
X99836Y89229D01*
X99848Y89279D01*
X99870Y89326D01*
X99878Y89397D01*
X99896Y89467D01*
X99892Y89519D01*
X99897Y89571D01*
X99882Y89641D01*
X99877Y89712D01*
X99856Y89760D01*
X99845Y89811D01*
X99808Y89873D01*
X99780Y89939D01*
X99735Y89995D01*
X99719Y90022D01*
X99701Y90037D01*
X99676Y90070D01*
X99030Y90715D01*
X98956Y90769D01*
X98886Y90828D01*
X98856Y90840D01*
X98830Y90859D01*
X98743Y90886D01*
X98658Y90920D01*
X98617Y90924D01*
X98595Y90931D01*
X98563Y90930D01*
X98491Y90938D01*
X87597Y90938D01*
X84409Y94126D01*
X84335Y94179D01*
X84266Y94238D01*
X84236Y94250D01*
X84210Y94269D01*
X84123Y94296D01*
X84038Y94330D01*
X83997Y94335D01*
X83974Y94341D01*
X83942Y94341D01*
X83871Y94349D01*
X82778Y94349D01*
X80855Y96271D01*
X80855Y98991D01*
X82778Y100914D01*
X85497Y100914D01*
X87420Y98991D01*
X87420Y97898D01*
X87435Y97808D01*
X87442Y97717D01*
X87455Y97687D01*
X87460Y97655D01*
X87503Y97574D01*
X87538Y97490D01*
X87564Y97458D01*
X87575Y97438D01*
X87598Y97415D01*
X87643Y97359D01*
X89268Y95735D01*
X89342Y95682D01*
X89411Y95622D01*
X89442Y95610D01*
X89468Y95591D01*
X89555Y95564D01*
X89640Y95530D01*
X89680Y95526D01*
X89703Y95519D01*
X89735Y95520D01*
X89806Y95512D01*
X98491Y95512D01*
X98582Y95526D01*
X98672Y95534D01*
X98702Y95546D01*
X98734Y95551D01*
X98815Y95594D01*
X98899Y95630D01*
X98931Y95656D01*
X98952Y95667D01*
X98974Y95690D01*
X99030Y95735D01*
X99803Y96508D01*
X102522Y96508D01*
X104445Y94585D01*
X104445Y91865D01*
X103645Y91066D01*
X103604Y91007D01*
X103554Y90955D01*
X103532Y90908D01*
X103502Y90866D01*
X103481Y90797D01*
X103451Y90732D01*
X103445Y90680D01*
X103430Y90631D01*
X103431Y90559D01*
X103424Y90488D01*
X103435Y90437D01*
X103436Y90385D01*
X103461Y90317D01*
X103476Y90247D01*
X103503Y90203D01*
X103520Y90154D01*
X103565Y90098D01*
X103602Y90036D01*
X103642Y90002D01*
X103674Y89962D01*
X103734Y89923D01*
X103789Y89876D01*
X103837Y89857D01*
X103881Y89829D01*
X103951Y89811D01*
X104017Y89784D01*
X104088Y89777D01*
X104120Y89769D01*
X104143Y89771D01*
X104184Y89766D01*
X106929Y89766D01*
X108851Y87843D01*
X108851Y85123D01*
X106929Y83201D01*
X104209Y83201D01*
X103436Y83974D01*
X103362Y84027D01*
X103293Y84086D01*
X103262Y84098D01*
X103236Y84117D01*
X103149Y84144D01*
X103064Y84178D01*
X103023Y84183D01*
X103001Y84189D01*
X102969Y84189D01*
X102898Y84197D01*
X84738Y84197D01*
X84715Y84193D01*
X84692Y84195D01*
X84594Y84173D01*
X84495Y84157D01*
X84475Y84146D01*
X84452Y84141D01*
X84366Y84089D01*
X84277Y84042D01*
X84262Y84025D01*
X84242Y84013D01*
X84177Y83936D01*
X84108Y83863D01*
X84098Y83842D01*
X84084Y83825D01*
X84047Y83731D01*
X84004Y83640D01*
X84002Y83617D01*
X83993Y83596D01*
X83988Y83496D01*
X83977Y83396D01*
X83982Y83373D01*
X83981Y83350D01*
X84008Y83253D01*
X84030Y83155D01*
X84041Y83136D01*
X84048Y83113D01*
X84104Y83030D01*
X84156Y82944D01*
X84173Y82929D01*
X84186Y82910D01*
X84315Y82802D01*
X84670Y82565D01*
X85727Y81508D01*
X86558Y80265D01*
X87130Y78883D01*
X87422Y77416D01*
X87422Y74110D01*
X87433Y74046D01*
X87433Y73980D01*
X87456Y73900D01*
X87462Y73868D01*
X87471Y73851D01*
X87480Y73819D01*
X87601Y73526D01*
X87772Y72668D01*
X84881Y72668D01*
X84881Y76669D01*
X84878Y76672D01*
X84880Y76674D01*
X84755Y77787D01*
X84749Y77793D01*
X84752Y77798D01*
X84383Y78854D01*
X84376Y78859D01*
X84378Y78864D01*
X83782Y79812D01*
X83774Y79815D01*
X83775Y79821D01*
X82984Y80613D01*
X82975Y80614D01*
X82975Y80620D01*
X82027Y81215D01*
X82019Y81215D01*
X82017Y81220D01*
X81331Y81460D01*
X81331Y83435D01*
X81327Y83455D01*
X81329Y83475D01*
X81307Y83576D01*
X81291Y83678D01*
X81281Y83696D01*
X81277Y83715D01*
X81224Y83804D01*
X81176Y83895D01*
X81161Y83909D01*
X81151Y83926D01*
X81072Y83994D01*
X80997Y84065D01*
X80979Y84073D01*
X80964Y84086D01*
X80868Y84125D01*
X80774Y84168D01*
X80755Y84171D01*
X80736Y84178D01*
X80569Y84197D01*
X79093Y84197D01*
X79074Y84193D01*
X79054Y84195D01*
X78952Y84173D01*
X78850Y84157D01*
X78833Y84147D01*
X78813Y84143D01*
X78724Y84090D01*
X78633Y84042D01*
X78619Y84027D01*
X78602Y84017D01*
X78535Y83938D01*
X78464Y83863D01*
X78455Y83845D01*
X78442Y83830D01*
X78404Y83734D01*
X78360Y83640D01*
X78358Y83621D01*
X78350Y83602D01*
X78332Y83435D01*
X78332Y81460D01*
X77646Y81220D01*
X77641Y81213D01*
X77636Y81215D01*
X76688Y80620D01*
X76685Y80612D01*
X76679Y80613D01*
X75887Y79821D01*
X75886Y79813D01*
X75880Y79812D01*
X75285Y78864D01*
X75285Y78858D01*
X75281Y78855D01*
X75282Y78855D01*
X75280Y78854D01*
X74910Y77798D01*
X74913Y77790D01*
X74908Y77787D01*
X74782Y76674D01*
X74784Y76671D01*
X74782Y76669D01*
X74782Y72668D01*
X71890Y72668D01*
X72061Y73526D01*
X72183Y73819D01*
X72197Y73883D01*
X72222Y73944D01*
X72231Y74027D01*
X72239Y74059D01*
X72237Y74078D01*
X72240Y74111D01*
X72240Y77416D01*
X72532Y78883D01*
X73023Y80067D01*
X73104Y80264D01*
X73829Y81349D01*
X73935Y81508D01*
X74992Y82565D01*
X75348Y82802D01*
X75365Y82818D01*
X75385Y82829D01*
X75454Y82902D01*
X75528Y82970D01*
X75539Y82990D01*
X75554Y83007D01*
X75597Y83098D01*
X75644Y83187D01*
X75648Y83209D01*
X75658Y83230D01*
X75669Y83330D01*
X75686Y83429D01*
X75683Y83452D01*
X75685Y83475D01*
X75664Y83573D01*
X75648Y83672D01*
X75638Y83692D01*
X75633Y83715D01*
X75581Y83801D01*
X75535Y83890D01*
X75519Y83906D01*
X75507Y83926D01*
X75430Y83992D01*
X75358Y84061D01*
X75337Y84071D01*
X75320Y84086D01*
X75226Y84124D01*
X75136Y84167D01*
X75113Y84169D01*
X75092Y84178D01*
X74925Y84197D01*
X65521Y84197D01*
X65431Y84182D01*
X65340Y84175D01*
X65310Y84162D01*
X65278Y84157D01*
X65197Y84114D01*
X65113Y84078D01*
X65081Y84053D01*
X65061Y84042D01*
X65038Y84018D01*
X64982Y83974D01*
X62041Y81032D01*
X61988Y80958D01*
X61928Y80889D01*
X61916Y80858D01*
X61897Y80832D01*
X61871Y80745D01*
X61836Y80660D01*
X61832Y80620D01*
X61825Y80597D01*
X61826Y80565D01*
X61818Y80494D01*
X61818Y75696D01*
X61833Y75606D01*
X61840Y75515D01*
X61852Y75485D01*
X61858Y75453D01*
X61900Y75373D01*
X61936Y75289D01*
X61962Y75257D01*
X61973Y75236D01*
X61996Y75214D01*
X62041Y75158D01*
X62814Y74385D01*
X62814Y71665D01*
X60891Y69742D01*
X58171Y69742D01*
G37*
%LPD*%
%LPC*%
G36*
X103132Y190548D02*
X103132Y190548D01*
X99357Y192112D01*
X96468Y195001D01*
X94904Y198776D01*
X94904Y202862D01*
X96468Y206637D01*
X99357Y209526D01*
X103132Y211089D01*
X107218Y211089D01*
X110993Y209526D01*
X113882Y206637D01*
X115446Y202862D01*
X115446Y198776D01*
X113882Y195001D01*
X110993Y192112D01*
X107218Y190548D01*
X103132Y190548D01*
G37*
%LPD*%
%LPC*%
G36*
X212936Y74554D02*
X212936Y74554D01*
X212192Y75299D01*
X212192Y90751D01*
X212936Y91496D01*
X228389Y91496D01*
X229133Y90751D01*
X229133Y75299D01*
X228389Y74554D01*
X212936Y74554D01*
G37*
%LPD*%
%LPC*%
G36*
X8959Y230874D02*
X8959Y230874D01*
X7036Y232796D01*
X7036Y235516D01*
X8959Y237439D01*
X10052Y237439D01*
X10142Y237454D01*
X10233Y237461D01*
X10263Y237473D01*
X10295Y237479D01*
X10376Y237521D01*
X10460Y237557D01*
X10492Y237583D01*
X10512Y237594D01*
X10535Y237617D01*
X10591Y237662D01*
X27653Y254724D01*
X27706Y254798D01*
X27765Y254868D01*
X27778Y254898D01*
X27796Y254924D01*
X27823Y255011D01*
X27857Y255096D01*
X27862Y255137D01*
X27869Y255159D01*
X27868Y255191D01*
X27876Y255263D01*
X27876Y259710D01*
X29215Y261049D01*
X38130Y261049D01*
X38220Y261064D01*
X38311Y261071D01*
X38340Y261084D01*
X38372Y261089D01*
X38453Y261132D01*
X38537Y261167D01*
X38569Y261193D01*
X38590Y261204D01*
X38612Y261227D01*
X38668Y261272D01*
X39441Y262045D01*
X42161Y262045D01*
X44083Y260122D01*
X44083Y257403D01*
X42161Y255480D01*
X39441Y255480D01*
X38668Y256253D01*
X38594Y256306D01*
X38525Y256365D01*
X38494Y256378D01*
X38468Y256396D01*
X38381Y256423D01*
X38296Y256457D01*
X38255Y256462D01*
X38233Y256469D01*
X38201Y256468D01*
X38130Y256476D01*
X33210Y256476D01*
X33191Y256473D01*
X33171Y256475D01*
X33070Y256453D01*
X32968Y256436D01*
X32950Y256427D01*
X32931Y256422D01*
X32842Y256369D01*
X32750Y256321D01*
X32737Y256307D01*
X32720Y256296D01*
X32652Y256218D01*
X32581Y256143D01*
X32573Y256125D01*
X32560Y256109D01*
X32521Y256013D01*
X32477Y255920D01*
X32475Y255900D01*
X32468Y255881D01*
X32449Y255715D01*
X32449Y253053D01*
X13824Y234428D01*
X13771Y234354D01*
X13712Y234285D01*
X13700Y234254D01*
X13681Y234228D01*
X13654Y234141D01*
X13620Y234056D01*
X13615Y234016D01*
X13609Y233993D01*
X13609Y233961D01*
X13601Y233890D01*
X13601Y232796D01*
X11679Y230874D01*
X8959Y230874D01*
G37*
%LPD*%
%LPC*%
G36*
X202171Y90524D02*
X202171Y90524D01*
X199414Y91666D01*
X197304Y93776D01*
X196162Y96533D01*
X196162Y99517D01*
X197304Y102274D01*
X199414Y104384D01*
X202171Y105526D01*
X205154Y105526D01*
X207911Y104384D01*
X210021Y102274D01*
X211163Y99517D01*
X211163Y96533D01*
X210021Y93776D01*
X207911Y91666D01*
X205154Y90524D01*
X202171Y90524D01*
G37*
%LPD*%
%LPC*%
G36*
X164017Y58370D02*
X164017Y58370D01*
X162636Y58942D01*
X161392Y59773D01*
X160335Y60830D01*
X159504Y62073D01*
X158932Y63455D01*
X158690Y64673D01*
X158673Y64719D01*
X158665Y64767D01*
X158630Y64833D01*
X158604Y64903D01*
X158573Y64941D01*
X158550Y64985D01*
X158495Y65036D01*
X158448Y65094D01*
X158407Y65120D01*
X158371Y65154D01*
X158304Y65186D01*
X158240Y65226D01*
X158193Y65237D01*
X158148Y65258D01*
X158074Y65266D01*
X158001Y65284D01*
X157952Y65279D01*
X157904Y65285D01*
X157831Y65269D01*
X157756Y65263D01*
X157711Y65243D01*
X157663Y65233D01*
X157599Y65194D01*
X157531Y65164D01*
X157494Y65132D01*
X157452Y65106D01*
X157404Y65050D01*
X157348Y64999D01*
X157324Y64957D01*
X157292Y64919D01*
X157264Y64850D01*
X157228Y64785D01*
X157219Y64737D01*
X157200Y64691D01*
X157187Y64567D01*
X157182Y64543D01*
X157183Y64534D01*
X157182Y64525D01*
X157182Y63994D01*
X154106Y60918D01*
X149756Y60918D01*
X146681Y63994D01*
X146681Y68344D01*
X149756Y71419D01*
X154106Y71419D01*
X157120Y68405D01*
X157139Y68392D01*
X157154Y68374D01*
X157238Y68320D01*
X157320Y68262D01*
X157342Y68255D01*
X157362Y68243D01*
X157459Y68219D01*
X157555Y68189D01*
X157578Y68190D01*
X157601Y68185D01*
X157700Y68193D01*
X157801Y68196D01*
X157823Y68204D01*
X157846Y68206D01*
X157938Y68246D01*
X158032Y68280D01*
X158050Y68295D01*
X158071Y68304D01*
X158146Y68371D01*
X158224Y68434D01*
X158237Y68453D01*
X158254Y68469D01*
X158303Y68556D01*
X158357Y68641D01*
X158363Y68663D01*
X158374Y68683D01*
X158393Y68782D01*
X158417Y68879D01*
X158415Y68902D01*
X158420Y68925D01*
X158405Y69092D01*
X158290Y69669D01*
X161182Y69669D01*
X161182Y65669D01*
X161185Y65665D01*
X161182Y65663D01*
X161308Y64551D01*
X161313Y64545D01*
X161310Y64540D01*
X161680Y63483D01*
X161687Y63479D01*
X161685Y63473D01*
X162280Y62525D01*
X162288Y62522D01*
X162287Y62517D01*
X163079Y61725D01*
X163087Y61724D01*
X163088Y61718D01*
X164036Y61122D01*
X164044Y61123D01*
X164046Y61117D01*
X164732Y60877D01*
X164732Y58228D01*
X164017Y58370D01*
G37*
%LPD*%
%LPC*%
G36*
X81331Y60877D02*
X81331Y60877D01*
X82017Y61117D01*
X82021Y61124D01*
X82027Y61122D01*
X82975Y61718D01*
X82978Y61726D01*
X82984Y61725D01*
X83775Y62517D01*
X83776Y62525D01*
X83782Y62525D01*
X84378Y63473D01*
X84377Y63481D01*
X84383Y63483D01*
X84752Y64540D01*
X84751Y64544D01*
X84754Y64546D01*
X84752Y64549D01*
X84755Y64551D01*
X84880Y65663D01*
X84878Y65667D01*
X84881Y65669D01*
X84881Y69669D01*
X87772Y69669D01*
X87657Y69092D01*
X87656Y69069D01*
X87650Y69047D01*
X87652Y68947D01*
X87649Y68846D01*
X87655Y68824D01*
X87656Y68801D01*
X87691Y68707D01*
X87719Y68611D01*
X87733Y68592D01*
X87740Y68570D01*
X87803Y68492D01*
X87861Y68410D01*
X87880Y68396D01*
X87894Y68378D01*
X87979Y68324D01*
X88060Y68265D01*
X88082Y68258D01*
X88101Y68245D01*
X88199Y68221D01*
X88294Y68190D01*
X88317Y68191D01*
X88340Y68185D01*
X88440Y68193D01*
X88540Y68195D01*
X88562Y68202D01*
X88585Y68204D01*
X88677Y68243D01*
X88772Y68277D01*
X88790Y68291D01*
X88811Y68300D01*
X88942Y68405D01*
X91956Y71419D01*
X96306Y71419D01*
X99382Y68344D01*
X99382Y63994D01*
X96306Y60918D01*
X91956Y60918D01*
X88881Y63994D01*
X88881Y64525D01*
X88873Y64573D01*
X88874Y64622D01*
X88853Y64694D01*
X88841Y64767D01*
X88818Y64811D01*
X88804Y64858D01*
X88761Y64919D01*
X88726Y64985D01*
X88690Y65018D01*
X88662Y65059D01*
X88602Y65103D01*
X88547Y65154D01*
X88503Y65175D01*
X88463Y65204D01*
X88392Y65226D01*
X88324Y65258D01*
X88276Y65263D01*
X88229Y65278D01*
X88154Y65277D01*
X88080Y65285D01*
X88032Y65274D01*
X87983Y65274D01*
X87913Y65249D01*
X87839Y65233D01*
X87797Y65207D01*
X87751Y65191D01*
X87692Y65145D01*
X87628Y65106D01*
X87597Y65069D01*
X87558Y65039D01*
X87517Y64976D01*
X87468Y64920D01*
X87450Y64874D01*
X87423Y64833D01*
X87385Y64714D01*
X87376Y64691D01*
X87375Y64682D01*
X87373Y64673D01*
X87130Y63455D01*
X86558Y62073D01*
X85727Y60830D01*
X84670Y59773D01*
X83427Y58942D01*
X82045Y58370D01*
X81331Y58228D01*
X81331Y60877D01*
G37*
%LPD*%
%LPC*%
G36*
X156698Y202342D02*
X156698Y202342D01*
X156698Y212262D01*
X157877Y212075D01*
X159605Y211514D01*
X161224Y210689D01*
X162693Y209621D01*
X163978Y208337D01*
X165046Y206867D01*
X165870Y205249D01*
X166432Y203521D01*
X166618Y202342D01*
X156698Y202342D01*
G37*
%LPD*%
%LPC*%
G36*
X143732Y202342D02*
X143732Y202342D01*
X143918Y203521D01*
X144480Y205249D01*
X145304Y206867D01*
X146372Y208337D01*
X147657Y209621D01*
X149126Y210689D01*
X150745Y211514D01*
X152473Y212075D01*
X153652Y212262D01*
X153652Y202342D01*
X143732Y202342D01*
G37*
%LPD*%
%LPC*%
G36*
X222186Y64548D02*
X222186Y64548D01*
X222186Y72766D01*
X224697Y72766D01*
X230403Y67060D01*
X230403Y64548D01*
X222186Y64548D01*
G37*
%LPD*%
%LPC*%
G36*
X210922Y64548D02*
X210922Y64548D01*
X210922Y67060D01*
X216628Y72766D01*
X219139Y72766D01*
X219139Y64548D01*
X210922Y64548D01*
G37*
%LPD*%
%LPC*%
G36*
X222186Y53284D02*
X222186Y53284D01*
X222186Y61502D01*
X230403Y61502D01*
X230403Y58990D01*
X224697Y53284D01*
X222186Y53284D01*
G37*
%LPD*%
%LPC*%
G36*
X216628Y53284D02*
X216628Y53284D01*
X210922Y58990D01*
X210922Y61502D01*
X219139Y61502D01*
X219139Y53284D01*
X216628Y53284D01*
G37*
%LPD*%
%LPC*%
G36*
X77617Y58370D02*
X77617Y58370D01*
X76236Y58942D01*
X74992Y59773D01*
X73935Y60830D01*
X73104Y62073D01*
X72532Y63455D01*
X72240Y64921D01*
X72240Y68227D01*
X72230Y68292D01*
X72229Y68357D01*
X72206Y68437D01*
X72201Y68470D01*
X72192Y68487D01*
X72183Y68518D01*
X72061Y68812D01*
X71890Y69669D01*
X74782Y69669D01*
X74782Y65669D01*
X74785Y65665D01*
X74782Y65663D01*
X74908Y64551D01*
X74913Y64545D01*
X74910Y64540D01*
X75280Y63483D01*
X75287Y63479D01*
X75285Y63473D01*
X75880Y62525D01*
X75888Y62522D01*
X75887Y62517D01*
X76679Y61725D01*
X76687Y61724D01*
X76688Y61718D01*
X77636Y61122D01*
X77644Y61123D01*
X77646Y61117D01*
X78332Y60877D01*
X78332Y58228D01*
X77617Y58370D01*
G37*
%LPD*%
%LPC*%
G36*
X158290Y72668D02*
X158290Y72668D01*
X158461Y73526D01*
X158583Y73819D01*
X158597Y73883D01*
X158622Y73944D01*
X158631Y74027D01*
X158639Y74059D01*
X158637Y74078D01*
X158640Y74111D01*
X158640Y77416D01*
X158932Y78883D01*
X159328Y79839D01*
X159504Y80264D01*
X160017Y81032D01*
X160335Y81507D01*
X161392Y82565D01*
X162636Y83396D01*
X164017Y83968D01*
X164732Y84110D01*
X164732Y81460D01*
X164046Y81220D01*
X164041Y81213D01*
X164036Y81215D01*
X163088Y80620D01*
X163085Y80612D01*
X163079Y80613D01*
X162287Y79821D01*
X162286Y79813D01*
X162280Y79812D01*
X161685Y78864D01*
X161685Y78858D01*
X161681Y78855D01*
X161682Y78855D01*
X161680Y78854D01*
X161310Y77798D01*
X161313Y77790D01*
X161308Y77787D01*
X161182Y76674D01*
X161184Y76671D01*
X161182Y76669D01*
X161182Y72668D01*
X158290Y72668D01*
G37*
%LPD*%
%LPC*%
G36*
X167731Y60877D02*
X167731Y60877D01*
X168417Y61117D01*
X168421Y61124D01*
X168427Y61122D01*
X169375Y61718D01*
X169378Y61726D01*
X169384Y61725D01*
X170175Y62517D01*
X170176Y62525D01*
X170182Y62525D01*
X170778Y63473D01*
X170777Y63481D01*
X170783Y63483D01*
X171152Y64540D01*
X171151Y64544D01*
X171154Y64546D01*
X171152Y64549D01*
X171155Y64551D01*
X171280Y65663D01*
X171278Y65667D01*
X171281Y65669D01*
X171281Y69669D01*
X174172Y69669D01*
X174001Y68812D01*
X173880Y68518D01*
X173865Y68455D01*
X173840Y68394D01*
X173831Y68311D01*
X173824Y68279D01*
X173826Y68260D01*
X173822Y68227D01*
X173822Y64921D01*
X173530Y63455D01*
X172958Y62073D01*
X172127Y60830D01*
X171337Y60039D01*
X171070Y59773D01*
X169827Y58942D01*
X168445Y58370D01*
X167731Y58228D01*
X167731Y60877D01*
G37*
%LPD*%
%LPC*%
G36*
X171281Y72668D02*
X171281Y72668D01*
X171281Y76669D01*
X171278Y76672D01*
X171280Y76674D01*
X171155Y77787D01*
X171149Y77793D01*
X171152Y77798D01*
X170783Y78854D01*
X170776Y78859D01*
X170778Y78864D01*
X170182Y79812D01*
X170174Y79815D01*
X170175Y79821D01*
X169384Y80613D01*
X169375Y80614D01*
X169375Y80620D01*
X168427Y81215D01*
X168419Y81215D01*
X168417Y81220D01*
X167731Y81460D01*
X167731Y84110D01*
X168445Y83968D01*
X169366Y83587D01*
X169827Y83396D01*
X170749Y82779D01*
X171070Y82565D01*
X172127Y81508D01*
X172958Y80265D01*
X173530Y78883D01*
X173822Y77416D01*
X173822Y74110D01*
X173833Y74046D01*
X173833Y73980D01*
X173856Y73900D01*
X173862Y73868D01*
X173871Y73851D01*
X173880Y73819D01*
X174001Y73526D01*
X174172Y72668D01*
X171281Y72668D01*
G37*
%LPD*%
%LPC*%
G36*
X164017Y18070D02*
X164017Y18070D01*
X163106Y18447D01*
X162636Y18642D01*
X161392Y19473D01*
X160335Y20530D01*
X159504Y21773D01*
X158932Y23155D01*
X158640Y24621D01*
X158640Y26427D01*
X158630Y26492D01*
X158629Y26557D01*
X158606Y26637D01*
X158601Y26670D01*
X158592Y26687D01*
X158583Y26718D01*
X158461Y27012D01*
X158290Y27869D01*
X161182Y27869D01*
X161182Y25369D01*
X161185Y25365D01*
X161182Y25363D01*
X161308Y24251D01*
X161313Y24245D01*
X161310Y24240D01*
X161680Y23183D01*
X161687Y23179D01*
X161685Y23173D01*
X162280Y22225D01*
X162288Y22222D01*
X162287Y22217D01*
X163079Y21425D01*
X163087Y21424D01*
X163088Y21418D01*
X164036Y20822D01*
X164044Y20823D01*
X164046Y20817D01*
X164732Y20577D01*
X164732Y17928D01*
X164017Y18070D01*
G37*
%LPD*%
%LPC*%
G36*
X77617Y18070D02*
X77617Y18070D01*
X76892Y18370D01*
X76236Y18642D01*
X74992Y19473D01*
X73935Y20530D01*
X73104Y21773D01*
X72532Y23155D01*
X72240Y24621D01*
X72240Y26427D01*
X72230Y26492D01*
X72229Y26557D01*
X72206Y26637D01*
X72201Y26670D01*
X72192Y26687D01*
X72183Y26718D01*
X72061Y27012D01*
X71890Y27869D01*
X74782Y27869D01*
X74782Y25369D01*
X74785Y25365D01*
X74782Y25363D01*
X74908Y24251D01*
X74913Y24245D01*
X74910Y24240D01*
X75280Y23183D01*
X75287Y23179D01*
X75285Y23173D01*
X75880Y22225D01*
X75888Y22222D01*
X75887Y22217D01*
X76679Y21425D01*
X76687Y21424D01*
X76688Y21418D01*
X77636Y20822D01*
X77644Y20823D01*
X77646Y20817D01*
X78332Y20577D01*
X78332Y17928D01*
X77617Y18070D01*
G37*
%LPD*%
%LPC*%
G36*
X158290Y30868D02*
X158290Y30868D01*
X158461Y31726D01*
X158583Y32019D01*
X158597Y32083D01*
X158622Y32144D01*
X158631Y32227D01*
X158639Y32259D01*
X158637Y32278D01*
X158640Y32311D01*
X158640Y34116D01*
X158932Y35583D01*
X159357Y36608D01*
X159504Y36964D01*
X160094Y37846D01*
X160094Y37847D01*
X160335Y38208D01*
X161392Y39265D01*
X162636Y40096D01*
X164017Y40668D01*
X164732Y40810D01*
X164732Y38160D01*
X164046Y37920D01*
X164041Y37913D01*
X164036Y37915D01*
X163088Y37320D01*
X163085Y37312D01*
X163079Y37313D01*
X162287Y36521D01*
X162286Y36513D01*
X162280Y36512D01*
X161685Y35564D01*
X161685Y35556D01*
X161680Y35554D01*
X161310Y34498D01*
X161313Y34490D01*
X161308Y34487D01*
X161182Y33374D01*
X161184Y33371D01*
X161182Y33369D01*
X161182Y30868D01*
X158290Y30868D01*
G37*
%LPD*%
%LPC*%
G36*
X71890Y30868D02*
X71890Y30868D01*
X72061Y31726D01*
X72183Y32019D01*
X72197Y32083D01*
X72222Y32144D01*
X72231Y32227D01*
X72239Y32259D01*
X72237Y32278D01*
X72240Y32311D01*
X72240Y34116D01*
X72532Y35583D01*
X72817Y36271D01*
X73104Y36964D01*
X73346Y37326D01*
X73935Y38208D01*
X74992Y39265D01*
X76236Y40096D01*
X77617Y40668D01*
X78332Y40810D01*
X78332Y38160D01*
X77646Y37920D01*
X77641Y37913D01*
X77636Y37915D01*
X76688Y37320D01*
X76685Y37312D01*
X76679Y37313D01*
X75887Y36521D01*
X75886Y36513D01*
X75880Y36512D01*
X75285Y35564D01*
X75285Y35556D01*
X75280Y35554D01*
X74910Y34498D01*
X74913Y34490D01*
X74908Y34487D01*
X74782Y33374D01*
X74784Y33371D01*
X74782Y33369D01*
X74782Y30868D01*
X71890Y30868D01*
G37*
%LPD*%
%LPC*%
G36*
X167731Y20577D02*
X167731Y20577D01*
X168417Y20817D01*
X168421Y20824D01*
X168427Y20822D01*
X169375Y21418D01*
X169378Y21426D01*
X169384Y21425D01*
X170175Y22217D01*
X170176Y22225D01*
X170182Y22225D01*
X170778Y23173D01*
X170777Y23181D01*
X170783Y23183D01*
X171152Y24240D01*
X171151Y24244D01*
X171154Y24246D01*
X171152Y24249D01*
X171155Y24251D01*
X171280Y25363D01*
X171278Y25367D01*
X171281Y25369D01*
X171281Y27869D01*
X174172Y27869D01*
X174001Y27012D01*
X173880Y26718D01*
X173865Y26655D01*
X173840Y26594D01*
X173831Y26511D01*
X173824Y26479D01*
X173826Y26460D01*
X173822Y26427D01*
X173822Y24621D01*
X173530Y23155D01*
X172958Y21773D01*
X172127Y20530D01*
X171230Y19633D01*
X171070Y19473D01*
X169827Y18642D01*
X168445Y18070D01*
X167731Y17928D01*
X167731Y20577D01*
G37*
%LPD*%
%LPC*%
G36*
X81331Y20577D02*
X81331Y20577D01*
X82017Y20817D01*
X82021Y20824D01*
X82027Y20822D01*
X82975Y21418D01*
X82978Y21426D01*
X82984Y21425D01*
X83775Y22217D01*
X83776Y22225D01*
X83782Y22225D01*
X84378Y23173D01*
X84377Y23181D01*
X84383Y23183D01*
X84752Y24240D01*
X84751Y24244D01*
X84754Y24246D01*
X84752Y24249D01*
X84755Y24251D01*
X84880Y25363D01*
X84878Y25367D01*
X84881Y25369D01*
X84881Y27869D01*
X87772Y27869D01*
X87601Y27012D01*
X87480Y26718D01*
X87465Y26655D01*
X87440Y26594D01*
X87431Y26511D01*
X87424Y26479D01*
X87426Y26460D01*
X87422Y26427D01*
X87422Y24621D01*
X87130Y23155D01*
X86558Y21773D01*
X85727Y20530D01*
X84965Y19767D01*
X84670Y19473D01*
X83427Y18642D01*
X82045Y18070D01*
X81331Y17928D01*
X81331Y20577D01*
G37*
%LPD*%
%LPC*%
G36*
X84881Y30868D02*
X84881Y30868D01*
X84881Y33369D01*
X84878Y33372D01*
X84880Y33374D01*
X84755Y34487D01*
X84749Y34493D01*
X84752Y34498D01*
X84383Y35554D01*
X84376Y35559D01*
X84378Y35564D01*
X83782Y36512D01*
X83774Y36515D01*
X83775Y36521D01*
X82984Y37313D01*
X82975Y37314D01*
X82975Y37320D01*
X82027Y37915D01*
X82019Y37915D01*
X82017Y37920D01*
X81331Y38160D01*
X81331Y40810D01*
X82046Y40668D01*
X82916Y40307D01*
X83427Y40095D01*
X84309Y39506D01*
X84670Y39265D01*
X85727Y38208D01*
X86558Y36965D01*
X87130Y35583D01*
X87422Y34116D01*
X87422Y32310D01*
X87433Y32246D01*
X87433Y32180D01*
X87456Y32100D01*
X87462Y32068D01*
X87471Y32051D01*
X87480Y32019D01*
X87601Y31726D01*
X87772Y30868D01*
X84881Y30868D01*
G37*
%LPD*%
%LPC*%
G36*
X171281Y30868D02*
X171281Y30868D01*
X171281Y33369D01*
X171278Y33372D01*
X171280Y33374D01*
X171155Y34487D01*
X171149Y34493D01*
X171152Y34498D01*
X170783Y35554D01*
X170776Y35559D01*
X170778Y35564D01*
X170182Y36512D01*
X170174Y36515D01*
X170175Y36521D01*
X169384Y37313D01*
X169375Y37314D01*
X169375Y37320D01*
X168427Y37915D01*
X168419Y37915D01*
X168417Y37920D01*
X167731Y38160D01*
X167731Y40810D01*
X168445Y40668D01*
X169576Y40200D01*
X169576Y40199D01*
X169827Y40096D01*
X170911Y39371D01*
X171070Y39265D01*
X172127Y38208D01*
X172958Y36965D01*
X173530Y35583D01*
X173822Y34116D01*
X173822Y32310D01*
X173833Y32246D01*
X173833Y32180D01*
X173856Y32100D01*
X173862Y32068D01*
X173871Y32051D01*
X173880Y32019D01*
X174001Y31726D01*
X174172Y30868D01*
X171281Y30868D01*
G37*
%LPD*%
%LPC*%
G36*
X220662Y63024D02*
X220662Y63024D01*
X220662Y63026D01*
X220663Y63026D01*
X220663Y63024D01*
X220662Y63024D01*
G37*
%LPD*%
D10*
X79831Y29369D03*
X166231Y29369D03*
X79831Y71169D03*
X166231Y71169D03*
D11*
X220663Y83025D03*
D12*
X220663Y63025D03*
D13*
X105175Y200819D03*
X155175Y200819D03*
D14*
X4763Y361156D03*
X9525Y361156D03*
X14288Y361156D03*
X31750Y361950D03*
X38100Y361950D03*
X44450Y361950D03*
X50800Y361950D03*
X50800Y355600D03*
X50800Y349250D03*
X50800Y342900D03*
X50800Y336550D03*
X50800Y330200D03*
X50800Y323850D03*
X50800Y317500D03*
X50800Y304800D03*
X50800Y298450D03*
D15*
X42069Y295275D03*
D14*
X34131Y295275D03*
X12700Y295275D03*
X5556Y295275D03*
X50800Y311150D03*
X41275Y280158D03*
X55583Y267474D03*
X230188Y223838D03*
D15*
X100806Y255588D03*
X149225Y260350D03*
D14*
X230981Y262731D03*
X223838Y172244D03*
X146844Y104775D03*
X46831Y141288D03*
X64294Y229394D03*
X146844Y86519D03*
D16*
X161131Y112713D02*
X158750Y115094D01*
X154781Y115094D01*
X161131Y112713D02*
X161131Y89694D01*
X157956Y86519D02*
X146844Y86519D01*
X157956Y86519D02*
X161131Y89694D01*
D15*
X154781Y115094D03*
D14*
X105569Y86483D03*
D16*
X64258Y86483D01*
X59531Y81756D01*
X59531Y73025D01*
D14*
X59531Y73025D03*
X125413Y86451D03*
D16*
X125413Y149225D01*
X142875Y166688D01*
X235902Y166688D01*
X243833Y174618D01*
X243834Y296710D01*
X227013Y313531D02*
X142081Y313531D01*
X134144Y321469D01*
X134144Y342106D01*
X124619Y351631D01*
X78581Y342106D02*
X78581Y257969D01*
X73025Y252413D01*
X68174Y252413D02*
X68139Y252377D01*
D15*
X68139Y252377D03*
D16*
X227013Y313531D02*
X243834Y296710D01*
X124619Y351631D02*
X88106Y351631D01*
X78581Y342106D01*
X73025Y252413D02*
X68174Y252413D01*
D15*
X86519Y250825D03*
D16*
X86519Y338138D02*
X92075Y343694D01*
X122238Y343694D01*
X126206Y339725D01*
X126206Y312738D02*
X132556Y306388D01*
X226219Y306388D01*
X238125Y294481D01*
X238125Y187325D01*
X86519Y250825D02*
X86519Y338138D01*
X126206Y339725D02*
X126206Y312738D01*
X238125Y187325D02*
X232569Y181769D01*
X148431Y181769D01*
X115888Y149225D01*
D14*
X115888Y53975D03*
D16*
X115888Y149225D01*
D14*
X21431Y207963D03*
D16*
X21431Y232569D02*
X35719Y246856D01*
X21431Y232569D02*
X21431Y207963D01*
X35719Y246856D02*
X50006Y246856D01*
X70644Y267494D02*
X70644Y346075D01*
X83344Y358775D01*
X127794Y358775D01*
D14*
X127794Y358775D03*
D16*
X70644Y267494D02*
X50006Y246856D01*
D14*
X10319Y234156D03*
D16*
X30163Y254000D02*
X30163Y258763D01*
X30163Y254000D02*
X10319Y234156D01*
D14*
X40801Y258763D03*
D16*
X30163Y258763D01*
D14*
X222250Y229394D03*
D16*
X222250Y289719D01*
X215900Y296069D01*
X189706Y296069D01*
X189706Y296033D01*
D14*
X189706Y296033D03*
D15*
X88900Y201613D03*
D16*
X88900Y190500D01*
X92087Y187313D02*
X92869Y187313D01*
X92087Y187313D02*
X88900Y190500D01*
D15*
X92869Y187313D03*
X94456Y181769D03*
D16*
X113506Y181769D01*
X119856Y188119D01*
D14*
X119856Y334169D03*
D16*
X119856Y188119D01*
D17*
X150019Y134938D03*
D14*
X145221Y96079D03*
D16*
X153194Y100084D02*
X153194Y107782D01*
X150733Y110242D01*
X150733Y134223D02*
X150019Y134938D01*
X150733Y134223D02*
X150733Y110242D01*
X153194Y100084D02*
X149190Y96079D01*
X145221Y96079D01*
D14*
X101163Y93225D03*
D16*
X88544Y93225D01*
X84138Y97631D01*
D14*
X84138Y97631D03*
D15*
X165894Y261938D03*
D16*
X165894Y291306D01*
X176213Y301625D02*
X200025Y301625D01*
X200025Y301590D01*
D14*
X200025Y301590D03*
D16*
X176213Y301625D02*
X165894Y291306D01*
D14*
X61677Y180940D03*
D16*
X61677Y169827D01*
X66404Y165100D01*
X145256Y187325D02*
X197644Y187325D01*
X206375Y196056D02*
X206375Y286544D01*
X206375Y196056D02*
X197644Y187325D01*
D14*
X206375Y286544D03*
D16*
X123031Y165100D02*
X66404Y165100D01*
X123031Y165100D02*
X145256Y187325D01*
D14*
X22225Y196850D03*
D16*
X22225Y192881D01*
X23813Y191294D01*
X82550Y188119D02*
X82550Y177006D01*
X86519Y173038D01*
X118269Y173038D02*
X127794Y182563D01*
X127794Y219075D01*
X134938Y226219D01*
X184944Y226219D01*
D14*
X184944Y226219D03*
D16*
X79375Y191294D02*
X23813Y191294D01*
X79375Y191294D02*
X82550Y188119D01*
X86519Y173038D02*
X118269Y173038D01*
D15*
X159544Y177006D03*
D16*
X235744Y177006D01*
D14*
X235744Y177006D03*
X15875Y218281D03*
D16*
X15875Y178594D02*
X23019Y171450D01*
X46038Y171450D01*
D14*
X46038Y171450D03*
D16*
X15875Y178594D02*
X15875Y218281D01*
M02*
