G04 EAGLE Gerber RS-274X export*
G75*
%MOMM*%
%FSLAX34Y34*%
%LPD*%
%INSoldermask Top*%
%IPPOS*%
%AMOC8*
5,1,8,0,0,1.08239X$1,22.5*%
G01*
%ADD10R,1.303200X1.203200*%
%ADD11R,1.203200X1.303200*%
%ADD12R,2.003200X2.403200*%
%ADD13C,0.853200*%
%ADD14R,0.803200X1.353200*%
%ADD15R,0.503200X1.353200*%
%ADD16R,1.643200X1.643200*%
%ADD17P,1.778583X8X22.500000*%
%ADD18C,1.303200*%
%ADD19C,0.357806*%
%ADD20C,2.003200*%
%ADD21R,1.003200X2.203200*%
%ADD22R,2.603200X0.803200*%
%ADD23R,2.603200X0.838200*%
%ADD24C,0.269722*%
%ADD25R,3.903200X3.903200*%
%ADD26R,0.993200X0.463200*%
%ADD27R,0.463200X0.993200*%
%ADD28C,0.222403*%
%ADD29R,1.828200X1.628200*%
%ADD30C,0.362206*%
%ADD31R,0.978200X1.078200*%
%ADD32R,1.003200X1.003200*%
%ADD33C,0.605600*%
%ADD34C,0.555600*%
%ADD35C,0.705600*%

G36*
X167407Y59735D02*
X167407Y59735D01*
X167412Y59740D01*
X167416Y59737D01*
X168542Y60078D01*
X168546Y60084D01*
X168551Y60082D01*
X169588Y60637D01*
X169591Y60643D01*
X169596Y60642D01*
X170505Y61388D01*
X170507Y61395D01*
X170512Y61395D01*
X171258Y62304D01*
X171258Y62311D01*
X171264Y62312D01*
X171818Y63349D01*
X171817Y63357D01*
X171822Y63358D01*
X171938Y63743D01*
X172133Y64383D01*
X172163Y64484D01*
X172161Y64491D01*
X172165Y64493D01*
X172280Y65664D01*
X172278Y65667D01*
X172281Y65669D01*
X172281Y76669D01*
X172278Y76672D01*
X172280Y76674D01*
X172165Y77844D01*
X172160Y77849D01*
X172163Y77854D01*
X171822Y78979D01*
X171816Y78983D01*
X171818Y78988D01*
X171264Y80025D01*
X171257Y80028D01*
X171258Y80033D01*
X170512Y80943D01*
X170505Y80944D01*
X170505Y80949D01*
X169596Y81696D01*
X169589Y81696D01*
X169588Y81701D01*
X168551Y82255D01*
X168543Y82254D01*
X168542Y82259D01*
X167416Y82601D01*
X167409Y82598D01*
X167407Y82602D01*
X166236Y82718D01*
X166235Y82717D01*
X166234Y82718D01*
X166229Y82718D01*
X166227Y82717D01*
X166226Y82718D01*
X165056Y82602D01*
X165051Y82598D01*
X165046Y82601D01*
X163921Y82259D01*
X163917Y82253D01*
X163912Y82255D01*
X162875Y81701D01*
X162872Y81694D01*
X162867Y81696D01*
X161957Y80949D01*
X161956Y80942D01*
X161951Y80943D01*
X161204Y80033D01*
X161204Y80026D01*
X161199Y80025D01*
X160645Y78988D01*
X160646Y78981D01*
X160641Y78979D01*
X160599Y78840D01*
X160405Y78200D01*
X160299Y77854D01*
X160302Y77847D01*
X160298Y77844D01*
X160182Y76674D01*
X160184Y76670D01*
X160182Y76669D01*
X160182Y65669D01*
X160184Y65666D01*
X160182Y65664D01*
X160298Y64493D01*
X160302Y64488D01*
X160299Y64484D01*
X160641Y63358D01*
X160647Y63354D01*
X160645Y63349D01*
X161199Y62312D01*
X161206Y62309D01*
X161204Y62304D01*
X161951Y61395D01*
X161958Y61393D01*
X161957Y61388D01*
X162867Y60642D01*
X162874Y60642D01*
X162875Y60637D01*
X163912Y60082D01*
X163919Y60083D01*
X163921Y60078D01*
X165046Y59737D01*
X165053Y59739D01*
X165056Y59735D01*
X166226Y59620D01*
X166233Y59624D01*
X166236Y59620D01*
X167407Y59735D01*
G37*
G36*
X81007Y59735D02*
X81007Y59735D01*
X81012Y59740D01*
X81016Y59737D01*
X82142Y60078D01*
X82146Y60084D01*
X82151Y60082D01*
X83188Y60637D01*
X83191Y60643D01*
X83196Y60642D01*
X84105Y61388D01*
X84107Y61395D01*
X84112Y61395D01*
X84858Y62304D01*
X84858Y62311D01*
X84864Y62312D01*
X85418Y63349D01*
X85417Y63357D01*
X85422Y63358D01*
X85538Y63743D01*
X85733Y64383D01*
X85763Y64484D01*
X85761Y64491D01*
X85765Y64493D01*
X85880Y65664D01*
X85878Y65667D01*
X85881Y65669D01*
X85881Y76669D01*
X85878Y76672D01*
X85880Y76674D01*
X85765Y77844D01*
X85760Y77849D01*
X85763Y77854D01*
X85422Y78979D01*
X85416Y78983D01*
X85418Y78988D01*
X84864Y80025D01*
X84857Y80028D01*
X84858Y80033D01*
X84112Y80943D01*
X84105Y80944D01*
X84105Y80949D01*
X83196Y81696D01*
X83189Y81696D01*
X83188Y81701D01*
X82151Y82255D01*
X82143Y82254D01*
X82142Y82259D01*
X81016Y82601D01*
X81009Y82598D01*
X81007Y82602D01*
X79836Y82718D01*
X79835Y82717D01*
X79834Y82718D01*
X79829Y82718D01*
X79827Y82717D01*
X79826Y82718D01*
X78656Y82602D01*
X78651Y82598D01*
X78646Y82601D01*
X77521Y82259D01*
X77517Y82253D01*
X77512Y82255D01*
X76475Y81701D01*
X76472Y81694D01*
X76467Y81696D01*
X75557Y80949D01*
X75556Y80942D01*
X75551Y80943D01*
X74804Y80033D01*
X74804Y80026D01*
X74799Y80025D01*
X74245Y78988D01*
X74246Y78981D01*
X74241Y78979D01*
X74199Y78840D01*
X74005Y78200D01*
X73899Y77854D01*
X73902Y77847D01*
X73898Y77844D01*
X73782Y76674D01*
X73784Y76670D01*
X73782Y76669D01*
X73782Y65669D01*
X73784Y65666D01*
X73782Y65664D01*
X73898Y64493D01*
X73902Y64488D01*
X73899Y64484D01*
X74241Y63358D01*
X74247Y63354D01*
X74245Y63349D01*
X74799Y62312D01*
X74806Y62309D01*
X74804Y62304D01*
X75551Y61395D01*
X75558Y61393D01*
X75557Y61388D01*
X76467Y60642D01*
X76474Y60642D01*
X76475Y60637D01*
X77512Y60082D01*
X77519Y60083D01*
X77521Y60078D01*
X78646Y59737D01*
X78653Y59739D01*
X78656Y59735D01*
X79826Y59620D01*
X79833Y59624D01*
X79836Y59620D01*
X81007Y59735D01*
G37*
G36*
X81007Y19435D02*
X81007Y19435D01*
X81012Y19440D01*
X81016Y19437D01*
X82142Y19778D01*
X82146Y19784D01*
X82151Y19782D01*
X83188Y20337D01*
X83191Y20343D01*
X83196Y20342D01*
X84105Y21088D01*
X84107Y21095D01*
X84112Y21095D01*
X84858Y22004D01*
X84858Y22011D01*
X84864Y22012D01*
X85418Y23049D01*
X85417Y23057D01*
X85422Y23058D01*
X85538Y23443D01*
X85733Y24083D01*
X85763Y24184D01*
X85761Y24191D01*
X85765Y24193D01*
X85880Y25364D01*
X85878Y25367D01*
X85881Y25369D01*
X85881Y33369D01*
X85878Y33372D01*
X85880Y33374D01*
X85765Y34544D01*
X85760Y34549D01*
X85763Y34554D01*
X85422Y35679D01*
X85416Y35683D01*
X85418Y35688D01*
X84864Y36725D01*
X84857Y36728D01*
X84858Y36733D01*
X84112Y37643D01*
X84105Y37644D01*
X84105Y37649D01*
X83196Y38396D01*
X83189Y38396D01*
X83188Y38401D01*
X82151Y38955D01*
X82143Y38954D01*
X82142Y38959D01*
X81016Y39301D01*
X81009Y39298D01*
X81007Y39302D01*
X79836Y39418D01*
X79830Y39414D01*
X79826Y39418D01*
X78656Y39302D01*
X78651Y39298D01*
X78646Y39301D01*
X77521Y38959D01*
X77517Y38953D01*
X77512Y38955D01*
X76475Y38401D01*
X76472Y38394D01*
X76467Y38396D01*
X75557Y37649D01*
X75556Y37642D01*
X75551Y37643D01*
X74804Y36733D01*
X74804Y36726D01*
X74799Y36725D01*
X74245Y35688D01*
X74245Y35685D01*
X74244Y35684D01*
X74246Y35681D01*
X74241Y35679D01*
X74063Y35093D01*
X74048Y35044D01*
X73899Y34554D01*
X73900Y34552D01*
X73899Y34551D01*
X73902Y34548D01*
X73902Y34547D01*
X73898Y34544D01*
X73782Y33374D01*
X73784Y33370D01*
X73782Y33369D01*
X73782Y25369D01*
X73784Y25366D01*
X73782Y25364D01*
X73898Y24193D01*
X73902Y24188D01*
X73899Y24184D01*
X74241Y23058D01*
X74247Y23054D01*
X74245Y23049D01*
X74799Y22012D01*
X74806Y22009D01*
X74804Y22004D01*
X75551Y21095D01*
X75558Y21093D01*
X75557Y21088D01*
X76467Y20342D01*
X76474Y20342D01*
X76475Y20337D01*
X77512Y19782D01*
X77519Y19783D01*
X77521Y19778D01*
X78646Y19437D01*
X78653Y19439D01*
X78656Y19435D01*
X79826Y19320D01*
X79833Y19324D01*
X79836Y19320D01*
X81007Y19435D01*
G37*
G36*
X167407Y19435D02*
X167407Y19435D01*
X167412Y19440D01*
X167416Y19437D01*
X168542Y19778D01*
X168546Y19784D01*
X168551Y19782D01*
X169588Y20337D01*
X169591Y20343D01*
X169596Y20342D01*
X170505Y21088D01*
X170507Y21095D01*
X170512Y21095D01*
X171258Y22004D01*
X171258Y22011D01*
X171264Y22012D01*
X171818Y23049D01*
X171817Y23057D01*
X171822Y23058D01*
X171938Y23443D01*
X172133Y24083D01*
X172163Y24184D01*
X172161Y24191D01*
X172165Y24193D01*
X172280Y25364D01*
X172278Y25367D01*
X172281Y25369D01*
X172281Y33369D01*
X172278Y33372D01*
X172280Y33374D01*
X172165Y34544D01*
X172160Y34549D01*
X172163Y34554D01*
X171822Y35679D01*
X171816Y35683D01*
X171818Y35688D01*
X171264Y36725D01*
X171257Y36728D01*
X171258Y36733D01*
X170512Y37643D01*
X170505Y37644D01*
X170505Y37649D01*
X169596Y38396D01*
X169589Y38396D01*
X169588Y38401D01*
X168551Y38955D01*
X168543Y38954D01*
X168542Y38959D01*
X167416Y39301D01*
X167409Y39298D01*
X167407Y39302D01*
X166236Y39418D01*
X166230Y39414D01*
X166226Y39418D01*
X165056Y39302D01*
X165051Y39298D01*
X165046Y39301D01*
X163921Y38959D01*
X163917Y38953D01*
X163912Y38955D01*
X162875Y38401D01*
X162872Y38394D01*
X162867Y38396D01*
X161957Y37649D01*
X161956Y37642D01*
X161951Y37643D01*
X161204Y36733D01*
X161204Y36726D01*
X161199Y36725D01*
X160645Y35688D01*
X160645Y35685D01*
X160644Y35684D01*
X160646Y35681D01*
X160641Y35679D01*
X160463Y35093D01*
X160448Y35044D01*
X160299Y34554D01*
X160300Y34552D01*
X160299Y34551D01*
X160302Y34548D01*
X160302Y34547D01*
X160298Y34544D01*
X160182Y33374D01*
X160184Y33370D01*
X160182Y33369D01*
X160182Y25369D01*
X160184Y25366D01*
X160182Y25364D01*
X160298Y24193D01*
X160302Y24188D01*
X160299Y24184D01*
X160641Y23058D01*
X160647Y23054D01*
X160645Y23049D01*
X161199Y22012D01*
X161206Y22009D01*
X161204Y22004D01*
X161951Y21095D01*
X161958Y21093D01*
X161957Y21088D01*
X162867Y20342D01*
X162874Y20342D01*
X162875Y20337D01*
X163912Y19782D01*
X163919Y19783D01*
X163921Y19778D01*
X165046Y19437D01*
X165053Y19439D01*
X165056Y19435D01*
X166226Y19320D01*
X166233Y19324D01*
X166236Y19320D01*
X167407Y19435D01*
G37*
D10*
X98656Y269081D03*
X115656Y269081D03*
X220894Y273844D03*
X237894Y273844D03*
X237894Y251619D03*
X220894Y251619D03*
X72794Y119063D03*
X55794Y119063D03*
X174856Y152400D03*
X191856Y152400D03*
X72000Y97631D03*
X55000Y97631D03*
X135169Y249238D03*
X152169Y249238D03*
X33900Y173831D03*
X16900Y173831D03*
X33900Y153194D03*
X16900Y153194D03*
X62938Y300831D03*
X79938Y300831D03*
X98656Y292100D03*
X115656Y292100D03*
X11344Y280988D03*
X28344Y280988D03*
D11*
X136525Y370119D03*
X136525Y387119D03*
X112713Y370119D03*
X112713Y387119D03*
D10*
X212956Y300831D03*
X229956Y300831D03*
D11*
X185738Y341875D03*
X185738Y324875D03*
D10*
X215338Y158750D03*
X232338Y158750D03*
D12*
X149325Y152400D03*
X98325Y152400D03*
D13*
X151931Y66169D03*
X94131Y66169D03*
D14*
X91031Y76919D03*
X155031Y76919D03*
X99031Y76919D03*
X147031Y76919D03*
D15*
X125531Y76919D03*
X120531Y76919D03*
X130531Y76919D03*
X135531Y76919D03*
X140531Y76919D03*
X115531Y76919D03*
X110531Y76919D03*
X105531Y76919D03*
D16*
X220663Y83025D03*
D17*
X220663Y63025D03*
D18*
X203663Y98025D03*
D19*
X232298Y132547D02*
X232298Y141901D01*
X236852Y141901D01*
X236852Y132547D01*
X232298Y132547D01*
X232298Y135946D02*
X236852Y135946D01*
X236852Y139345D02*
X232298Y139345D01*
X223148Y120501D02*
X223148Y111147D01*
X223148Y120501D02*
X227702Y120501D01*
X227702Y111147D01*
X223148Y111147D01*
X223148Y114546D02*
X227702Y114546D01*
X227702Y117945D02*
X223148Y117945D01*
X213998Y132547D02*
X213998Y141901D01*
X218552Y141901D01*
X218552Y132547D01*
X213998Y132547D01*
X213998Y135946D02*
X218552Y135946D01*
X218552Y139345D02*
X213998Y139345D01*
D11*
X153756Y346869D03*
X136756Y346869D03*
X165331Y126206D03*
X182331Y126206D03*
X119308Y347186D03*
X102308Y347186D03*
D10*
X59531Y32775D03*
X59531Y49775D03*
X185738Y28806D03*
X185738Y45806D03*
D11*
X194238Y273844D03*
X177238Y273844D03*
X195031Y250825D03*
X178031Y250825D03*
X182331Y105569D03*
X165331Y105569D03*
X135169Y272256D03*
X152169Y272256D03*
D20*
X105175Y200819D03*
X155175Y200819D03*
D21*
X200388Y379413D03*
X158388Y379413D03*
X48850Y381794D03*
X90850Y381794D03*
D22*
X15875Y302419D03*
D23*
X15875Y353219D03*
D24*
X35457Y192445D02*
X37493Y192445D01*
X35457Y192445D02*
X35457Y199881D01*
X37493Y199881D01*
X37493Y192445D01*
X37493Y195007D02*
X35457Y195007D01*
X35457Y197569D02*
X37493Y197569D01*
X40457Y192445D02*
X42493Y192445D01*
X40457Y192445D02*
X40457Y199881D01*
X42493Y199881D01*
X42493Y192445D01*
X42493Y195007D02*
X40457Y195007D01*
X40457Y197569D02*
X42493Y197569D01*
X45457Y192445D02*
X47493Y192445D01*
X45457Y192445D02*
X45457Y199881D01*
X47493Y199881D01*
X47493Y192445D01*
X47493Y195007D02*
X45457Y195007D01*
X45457Y197569D02*
X47493Y197569D01*
X50457Y192445D02*
X52493Y192445D01*
X50457Y192445D02*
X50457Y199881D01*
X52493Y199881D01*
X52493Y192445D01*
X52493Y195007D02*
X50457Y195007D01*
X50457Y197569D02*
X52493Y197569D01*
X55457Y192445D02*
X57493Y192445D01*
X55457Y192445D02*
X55457Y199881D01*
X57493Y199881D01*
X57493Y192445D01*
X57493Y195007D02*
X55457Y195007D01*
X55457Y197569D02*
X57493Y197569D01*
X60457Y192445D02*
X62493Y192445D01*
X60457Y192445D02*
X60457Y199881D01*
X62493Y199881D01*
X62493Y192445D01*
X62493Y195007D02*
X60457Y195007D01*
X60457Y197569D02*
X62493Y197569D01*
X65457Y192445D02*
X67493Y192445D01*
X65457Y192445D02*
X65457Y199881D01*
X67493Y199881D01*
X67493Y192445D01*
X67493Y195007D02*
X65457Y195007D01*
X65457Y197569D02*
X67493Y197569D01*
X70457Y192445D02*
X72493Y192445D01*
X70457Y192445D02*
X70457Y199881D01*
X72493Y199881D01*
X72493Y192445D01*
X72493Y195007D02*
X70457Y195007D01*
X70457Y197569D02*
X72493Y197569D01*
X72493Y241445D02*
X70457Y241445D01*
X70457Y248881D01*
X72493Y248881D01*
X72493Y241445D01*
X72493Y244007D02*
X70457Y244007D01*
X70457Y246569D02*
X72493Y246569D01*
X67493Y241445D02*
X65457Y241445D01*
X65457Y248881D01*
X67493Y248881D01*
X67493Y241445D01*
X67493Y244007D02*
X65457Y244007D01*
X65457Y246569D02*
X67493Y246569D01*
X62493Y241445D02*
X60457Y241445D01*
X60457Y248881D01*
X62493Y248881D01*
X62493Y241445D01*
X62493Y244007D02*
X60457Y244007D01*
X60457Y246569D02*
X62493Y246569D01*
X57493Y241445D02*
X55457Y241445D01*
X55457Y248881D01*
X57493Y248881D01*
X57493Y241445D01*
X57493Y244007D02*
X55457Y244007D01*
X55457Y246569D02*
X57493Y246569D01*
X52493Y241445D02*
X50457Y241445D01*
X50457Y248881D01*
X52493Y248881D01*
X52493Y241445D01*
X52493Y244007D02*
X50457Y244007D01*
X50457Y246569D02*
X52493Y246569D01*
X47493Y241445D02*
X45457Y241445D01*
X45457Y248881D01*
X47493Y248881D01*
X47493Y241445D01*
X47493Y244007D02*
X45457Y244007D01*
X45457Y246569D02*
X47493Y246569D01*
X42493Y241445D02*
X40457Y241445D01*
X40457Y248881D01*
X42493Y248881D01*
X42493Y241445D01*
X42493Y244007D02*
X40457Y244007D01*
X40457Y246569D02*
X42493Y246569D01*
X37493Y241445D02*
X35457Y241445D01*
X35457Y248881D01*
X37493Y248881D01*
X37493Y241445D01*
X37493Y244007D02*
X35457Y244007D01*
X35457Y246569D02*
X37493Y246569D01*
X33193Y237145D02*
X25757Y237145D01*
X25757Y239181D01*
X33193Y239181D01*
X33193Y237145D01*
X33193Y232145D02*
X25757Y232145D01*
X25757Y234181D01*
X33193Y234181D01*
X33193Y232145D01*
X33193Y227145D02*
X25757Y227145D01*
X25757Y229181D01*
X33193Y229181D01*
X33193Y227145D01*
X33193Y222145D02*
X25757Y222145D01*
X25757Y224181D01*
X33193Y224181D01*
X33193Y222145D01*
X33193Y217145D02*
X25757Y217145D01*
X25757Y219181D01*
X33193Y219181D01*
X33193Y217145D01*
X33193Y212145D02*
X25757Y212145D01*
X25757Y214181D01*
X33193Y214181D01*
X33193Y212145D01*
X33193Y207145D02*
X25757Y207145D01*
X25757Y209181D01*
X33193Y209181D01*
X33193Y207145D01*
X33193Y202145D02*
X25757Y202145D01*
X25757Y204181D01*
X33193Y204181D01*
X33193Y202145D01*
X74757Y202145D02*
X82193Y202145D01*
X74757Y202145D02*
X74757Y204181D01*
X82193Y204181D01*
X82193Y202145D01*
X82193Y207145D02*
X74757Y207145D01*
X74757Y209181D01*
X82193Y209181D01*
X82193Y207145D01*
X82193Y212145D02*
X74757Y212145D01*
X74757Y214181D01*
X82193Y214181D01*
X82193Y212145D01*
X82193Y217145D02*
X74757Y217145D01*
X74757Y219181D01*
X82193Y219181D01*
X82193Y217145D01*
X82193Y222145D02*
X74757Y222145D01*
X74757Y224181D01*
X82193Y224181D01*
X82193Y222145D01*
X82193Y227145D02*
X74757Y227145D01*
X74757Y229181D01*
X82193Y229181D01*
X82193Y227145D01*
X82193Y232145D02*
X74757Y232145D01*
X74757Y234181D01*
X82193Y234181D01*
X82193Y232145D01*
X82193Y237145D02*
X74757Y237145D01*
X74757Y239181D01*
X82193Y239181D01*
X82193Y237145D01*
D25*
X53975Y220663D03*
D26*
X186675Y213319D03*
X186675Y208319D03*
X186675Y203319D03*
X186675Y198319D03*
X186675Y193319D03*
X186675Y188319D03*
D27*
X193875Y181119D03*
X198875Y181119D03*
X203875Y181119D03*
X208875Y181119D03*
X213875Y181119D03*
X218875Y181119D03*
D26*
X226075Y188319D03*
X226075Y193319D03*
X226075Y198319D03*
X226075Y203319D03*
X226075Y208319D03*
X226075Y213319D03*
D27*
X218875Y220519D03*
X213875Y220519D03*
X208875Y220519D03*
X203875Y220519D03*
X198875Y220519D03*
X193875Y220519D03*
D28*
X112785Y111815D02*
X104577Y111815D01*
X104577Y114323D01*
X112785Y114323D01*
X112785Y111815D01*
X112785Y113928D02*
X104577Y113928D01*
X104577Y106815D02*
X112785Y106815D01*
X104577Y106815D02*
X104577Y109323D01*
X112785Y109323D01*
X112785Y106815D01*
X112785Y108928D02*
X104577Y108928D01*
X104577Y101815D02*
X112785Y101815D01*
X104577Y101815D02*
X104577Y104323D01*
X112785Y104323D01*
X112785Y101815D01*
X112785Y103928D02*
X104577Y103928D01*
X104577Y96815D02*
X112785Y96815D01*
X104577Y96815D02*
X104577Y99323D01*
X112785Y99323D01*
X112785Y96815D01*
X112785Y98928D02*
X104577Y98928D01*
X133277Y99323D02*
X141485Y99323D01*
X141485Y96815D01*
X133277Y96815D01*
X133277Y99323D01*
X133277Y98928D02*
X141485Y98928D01*
X141485Y104323D02*
X133277Y104323D01*
X141485Y104323D02*
X141485Y101815D01*
X133277Y101815D01*
X133277Y104323D01*
X133277Y103928D02*
X141485Y103928D01*
X141485Y109323D02*
X133277Y109323D01*
X141485Y109323D02*
X141485Y106815D01*
X133277Y106815D01*
X133277Y109323D01*
X133277Y108928D02*
X141485Y108928D01*
X141485Y114323D02*
X133277Y114323D01*
X141485Y114323D02*
X141485Y111815D01*
X133277Y111815D01*
X133277Y114323D01*
X133277Y113928D02*
X141485Y113928D01*
D29*
X123031Y105569D03*
D30*
X227699Y337450D02*
X227699Y348060D01*
X232309Y348060D01*
X232309Y337450D01*
X227699Y337450D01*
X227699Y340891D02*
X232309Y340891D01*
X232309Y344332D02*
X227699Y344332D01*
X227699Y347773D02*
X232309Y347773D01*
X208699Y348060D02*
X208699Y337450D01*
X208699Y348060D02*
X213309Y348060D01*
X213309Y337450D01*
X208699Y337450D01*
X208699Y340891D02*
X213309Y340891D01*
X213309Y344332D02*
X208699Y344332D01*
X208699Y347773D02*
X213309Y347773D01*
X218199Y326760D02*
X218199Y316150D01*
X218199Y326760D02*
X222809Y326760D01*
X222809Y316150D01*
X218199Y316150D01*
X218199Y319591D02*
X222809Y319591D01*
X222809Y323032D02*
X218199Y323032D01*
X218199Y326473D02*
X222809Y326473D01*
D31*
X75514Y267474D03*
X75514Y280214D03*
X65774Y280214D03*
X65774Y267474D03*
D11*
X74381Y171450D03*
X57381Y171450D03*
D10*
X11344Y259556D03*
X28344Y259556D03*
D32*
X118706Y129381D03*
X133706Y129381D03*
X59175Y145256D03*
X74175Y145256D03*
D33*
X4763Y361156D03*
X9525Y361156D03*
X14288Y361156D03*
X31750Y361950D03*
X38100Y361950D03*
X44450Y361950D03*
X50800Y361950D03*
X50800Y355600D03*
X50800Y349250D03*
X50800Y342900D03*
X50800Y336550D03*
X50800Y330200D03*
X50800Y323850D03*
X50800Y317500D03*
X50800Y304800D03*
X50800Y298450D03*
D34*
X42069Y295275D03*
D33*
X34131Y295275D03*
X12700Y295275D03*
X5556Y295275D03*
X50800Y311150D03*
X41275Y280158D03*
X55583Y267474D03*
X230188Y223838D03*
D34*
X100806Y255588D03*
X149225Y260350D03*
D33*
X230981Y262731D03*
X223838Y172244D03*
X146844Y104775D03*
X46831Y141288D03*
X64294Y229394D03*
X146844Y86519D03*
D34*
X154781Y115094D03*
D33*
X105569Y86483D03*
X59531Y73025D03*
X125413Y86451D03*
D34*
X68139Y252377D03*
X86519Y250825D03*
D33*
X115888Y53975D03*
X21431Y207963D03*
X127794Y358775D03*
X10319Y234156D03*
X40801Y258763D03*
X222250Y229394D03*
X189706Y296033D03*
D34*
X88900Y201613D03*
X92869Y187313D03*
X94456Y181769D03*
D33*
X119856Y334169D03*
D35*
X150019Y134938D03*
D33*
X145221Y96079D03*
X101163Y93225D03*
X84138Y97631D03*
D34*
X165894Y261938D03*
D33*
X200025Y301590D03*
X61677Y180940D03*
X206375Y286544D03*
X22225Y196850D03*
X184944Y226219D03*
D34*
X159544Y177006D03*
D33*
X235744Y177006D03*
X15875Y218281D03*
X46038Y171450D03*
M02*
