M48
;GenerationSoftware,Autodesk,EAGLE,9.6.2*%
;CreationDate,2024-04-24T15:20:37Z*%
FMAT,2
ICI,OFF
METRIC,TZ,000.000
T8C0.200
T7C0.250
T6C0.350
T5C0.600
T4C0.650
T3C0.800
T2C1.000
T1C1.100
%
G90
M71
T1
X20366Y9803
T2
X15517Y20082
X10518Y20082
T3
X22066Y8303
X22066Y6302
T4
X15193Y6617
X9413Y6617
T5
X7983Y2937
X16623Y2937
X7983Y7117
X16623Y7117
T6
X15002Y13494
T7
X5080Y36195
X5080Y35560
X5080Y34925
X5080Y33655
X5080Y33020
X5080Y32385
X5080Y31750
X5080Y30480
X5080Y29845
X3413Y29527
X1270Y29527
X556Y29527
X5080Y31115
X4128Y28016
X5558Y26747
X23019Y22384
X23098Y26273
X22384Y17224
X14684Y10478
X4683Y14129
X6429Y22939
X14684Y8652
X10557Y8648
X5953Y7302
X12541Y8645
X5080Y34290
X11589Y5398
X2143Y20796
X12779Y35878
X1032Y23416
X4080Y25876
X22225Y22939
X18971Y29603
X11986Y33417
X14522Y9608
X10116Y9323
X8414Y9763
X20003Y30159
X20638Y28654
X2223Y19685
X18494Y22622
X23574Y17701
X1587Y21828
X4604Y17145
X476Y36116
X952Y36116
X1429Y36116
X3175Y36195
X3810Y36195
X4445Y36195
X6168Y18094
T8
X14922Y26035
X8652Y25082
X10081Y25559
X4207Y29527
X9287Y18731
X9446Y18177
X8890Y20161
X15954Y17701
X16589Y26194
X6814Y25238
X15478Y11509
M30