G04 EAGLE Gerber RS-274X export*
G75*
%MOMM*%
%FSLAX34Y34*%
%LPD*%
%INBoard Outline*%
%IPPOS*%
%AMOC8*
5,1,8,0,0,1.08239X$1,22.5*%
G01*
%ADD10C,0.000000*%
%ADD11C,0.025400*%
%ADD12C,0.254000*%


D10*
X20012Y-63D02*
X229197Y64D01*
X229680Y70D01*
X230164Y88D01*
X230646Y117D01*
X231128Y159D01*
X231609Y211D01*
X232088Y276D01*
X232566Y352D01*
X233042Y439D01*
X233515Y538D01*
X233986Y649D01*
X234454Y770D01*
X234919Y903D01*
X235381Y1048D01*
X235839Y1203D01*
X236293Y1369D01*
X236743Y1547D01*
X237188Y1735D01*
X237629Y1934D01*
X238065Y2143D01*
X238496Y2363D01*
X238921Y2594D01*
X239341Y2834D01*
X239754Y3085D01*
X240162Y3345D01*
X240563Y3616D01*
X240957Y3896D01*
X241345Y4185D01*
X241725Y4484D01*
X242098Y4791D01*
X242464Y5108D01*
X242822Y5434D01*
X243171Y5768D01*
X243513Y6110D01*
X243846Y6461D01*
X244171Y6819D01*
X244487Y7185D01*
X244794Y7559D01*
X245092Y7940D01*
X245380Y8329D01*
X245659Y8724D01*
X245928Y9125D01*
X246188Y9533D01*
X246438Y9948D01*
X246677Y10368D01*
X246907Y10794D01*
X247126Y11225D01*
X247334Y11661D01*
X247532Y12103D01*
X247719Y12549D01*
X247895Y12999D01*
X248061Y13454D01*
X248215Y13912D01*
X248358Y14374D01*
X248490Y14839D01*
X248611Y15308D01*
X248720Y15779D01*
X248818Y16252D01*
X248904Y16728D01*
X248979Y17206D01*
X249042Y17686D01*
X249094Y18167D01*
X249134Y18649D01*
X249162Y19131D01*
X249179Y19615D01*
X249184Y20098D01*
X249185Y20099D02*
X249292Y380821D01*
X249286Y381304D01*
X249269Y381788D01*
X249240Y382270D01*
X249200Y382752D01*
X249148Y383233D01*
X249084Y383712D01*
X249009Y384190D01*
X248922Y384666D01*
X248824Y385139D01*
X248714Y385610D01*
X248593Y386078D01*
X248460Y386544D01*
X248317Y387005D01*
X248162Y387464D01*
X247996Y387918D01*
X247820Y388368D01*
X247632Y388814D01*
X247434Y389255D01*
X247225Y389691D01*
X247006Y390122D01*
X246776Y390548D01*
X246537Y390968D01*
X246287Y391382D01*
X246027Y391790D01*
X245757Y392191D01*
X245478Y392586D01*
X245189Y392974D01*
X244891Y393355D01*
X244584Y393728D01*
X244268Y394094D01*
X243943Y394452D01*
X243610Y394803D01*
X243268Y395145D01*
X242918Y395479D01*
X242560Y395804D01*
X242194Y396120D01*
X241821Y396428D01*
X241441Y396726D01*
X241053Y397016D01*
X240659Y397295D01*
X240257Y397565D01*
X239850Y397826D01*
X239436Y398076D01*
X239017Y398316D01*
X238591Y398546D01*
X238160Y398766D01*
X237724Y398976D01*
X237284Y399174D01*
X236838Y399362D01*
X236388Y399539D01*
X235934Y399706D01*
X235476Y399861D01*
X235014Y400005D01*
X234549Y400138D01*
X234081Y400259D01*
X233610Y400370D01*
X233137Y400469D01*
X232661Y400556D01*
X232184Y400632D01*
X231704Y400696D01*
X231224Y400749D01*
X230742Y400790D01*
X230259Y400819D01*
X229776Y400837D01*
X229292Y400843D01*
X229292Y400844D02*
X20000Y400844D01*
X19517Y400838D01*
X19034Y400821D01*
X18551Y400791D01*
X18070Y400751D01*
X17589Y400698D01*
X17110Y400634D01*
X16633Y400559D01*
X16157Y400471D01*
X15684Y400373D01*
X15214Y400263D01*
X14746Y400142D01*
X14281Y400009D01*
X13820Y399865D01*
X13362Y399710D01*
X12908Y399544D01*
X12458Y399367D01*
X12013Y399180D01*
X11572Y398981D01*
X11136Y398773D01*
X10706Y398553D01*
X10280Y398323D01*
X9861Y398083D01*
X9447Y397833D01*
X9040Y397573D01*
X8639Y397304D01*
X8244Y397024D01*
X7857Y396736D01*
X7476Y396437D01*
X7103Y396130D01*
X6738Y395814D01*
X6380Y395489D01*
X6030Y395156D01*
X5688Y394814D01*
X5355Y394464D01*
X5030Y394106D01*
X4714Y393741D01*
X4407Y393368D01*
X4108Y392987D01*
X3820Y392600D01*
X3540Y392205D01*
X3271Y391804D01*
X3011Y391397D01*
X2761Y390983D01*
X2521Y390564D01*
X2291Y390138D01*
X2071Y389708D01*
X1863Y389272D01*
X1664Y388831D01*
X1477Y388386D01*
X1300Y387936D01*
X1134Y387482D01*
X979Y387024D01*
X835Y386563D01*
X702Y386098D01*
X581Y385630D01*
X471Y385160D01*
X373Y384687D01*
X285Y384211D01*
X210Y383734D01*
X146Y383255D01*
X93Y382774D01*
X53Y382293D01*
X23Y381810D01*
X6Y381327D01*
X0Y380844D01*
X0Y19937D01*
X6Y19454D01*
X23Y18970D01*
X53Y18488D01*
X93Y18006D01*
X146Y17525D01*
X210Y17046D01*
X286Y16569D01*
X373Y16093D01*
X472Y15620D01*
X582Y15149D01*
X703Y14681D01*
X836Y14216D01*
X980Y13754D01*
X1135Y13296D01*
X1301Y12842D01*
X1478Y12392D01*
X1665Y11947D01*
X1864Y11506D01*
X2073Y11070D01*
X2293Y10639D01*
X2523Y10214D01*
X2763Y9794D01*
X3013Y9381D01*
X3273Y8973D01*
X3543Y8572D01*
X3823Y8177D01*
X4112Y7790D01*
X4410Y7409D01*
X4717Y7036D01*
X5034Y6670D01*
X5359Y6312D01*
X5692Y5962D01*
X6034Y5621D01*
X6384Y5287D01*
X6742Y4962D01*
X7108Y4646D01*
X7482Y4339D01*
X7862Y4041D01*
X8250Y3752D01*
X8645Y3473D01*
X9046Y3203D01*
X9454Y2943D01*
X9868Y2694D01*
X10288Y2454D01*
X10713Y2224D01*
X11144Y2005D01*
X11580Y1796D01*
X12021Y1598D01*
X12467Y1410D01*
X12917Y1233D01*
X13371Y1068D01*
X13829Y913D01*
X14291Y769D01*
X14756Y637D01*
X15224Y516D01*
X15695Y406D01*
X16168Y308D01*
X16644Y221D01*
X17121Y145D01*
X17600Y81D01*
X18081Y29D01*
X18563Y-11D01*
X19045Y-40D01*
X19529Y-57D01*
X20012Y-63D01*
D11*
X5638Y379413D02*
X5643Y379781D01*
X5656Y380149D01*
X5679Y380516D01*
X5710Y380883D01*
X5751Y381249D01*
X5800Y381614D01*
X5859Y381977D01*
X5926Y382339D01*
X6002Y382700D01*
X6088Y383058D01*
X6181Y383414D01*
X6284Y383767D01*
X6395Y384118D01*
X6515Y384466D01*
X6643Y384811D01*
X6780Y385153D01*
X6925Y385492D01*
X7078Y385826D01*
X7240Y386157D01*
X7409Y386484D01*
X7587Y386806D01*
X7772Y387125D01*
X7965Y387438D01*
X8166Y387747D01*
X8374Y388050D01*
X8590Y388348D01*
X8813Y388641D01*
X9043Y388929D01*
X9280Y389211D01*
X9524Y389486D01*
X9774Y389756D01*
X10031Y390020D01*
X10295Y390277D01*
X10565Y390527D01*
X10840Y390771D01*
X11122Y391008D01*
X11410Y391238D01*
X11703Y391461D01*
X12001Y391677D01*
X12304Y391885D01*
X12613Y392086D01*
X12926Y392279D01*
X13245Y392464D01*
X13567Y392642D01*
X13894Y392811D01*
X14225Y392973D01*
X14559Y393126D01*
X14898Y393271D01*
X15240Y393408D01*
X15585Y393536D01*
X15933Y393656D01*
X16284Y393767D01*
X16637Y393870D01*
X16993Y393963D01*
X17351Y394049D01*
X17712Y394125D01*
X18074Y394192D01*
X18437Y394251D01*
X18802Y394300D01*
X19168Y394341D01*
X19535Y394372D01*
X19902Y394395D01*
X20270Y394408D01*
X20638Y394413D01*
X21006Y394408D01*
X21374Y394395D01*
X21741Y394372D01*
X22108Y394341D01*
X22474Y394300D01*
X22839Y394251D01*
X23202Y394192D01*
X23564Y394125D01*
X23925Y394049D01*
X24283Y393963D01*
X24639Y393870D01*
X24992Y393767D01*
X25343Y393656D01*
X25691Y393536D01*
X26036Y393408D01*
X26378Y393271D01*
X26717Y393126D01*
X27051Y392973D01*
X27382Y392811D01*
X27709Y392642D01*
X28031Y392464D01*
X28350Y392279D01*
X28663Y392086D01*
X28972Y391885D01*
X29275Y391677D01*
X29573Y391461D01*
X29866Y391238D01*
X30154Y391008D01*
X30436Y390771D01*
X30711Y390527D01*
X30981Y390277D01*
X31245Y390020D01*
X31502Y389756D01*
X31752Y389486D01*
X31996Y389211D01*
X32233Y388929D01*
X32463Y388641D01*
X32686Y388348D01*
X32902Y388050D01*
X33110Y387747D01*
X33311Y387438D01*
X33504Y387125D01*
X33689Y386806D01*
X33867Y386484D01*
X34036Y386157D01*
X34198Y385826D01*
X34351Y385492D01*
X34496Y385153D01*
X34633Y384811D01*
X34761Y384466D01*
X34881Y384118D01*
X34992Y383767D01*
X35095Y383414D01*
X35188Y383058D01*
X35274Y382700D01*
X35350Y382339D01*
X35417Y381977D01*
X35476Y381614D01*
X35525Y381249D01*
X35566Y380883D01*
X35597Y380516D01*
X35620Y380149D01*
X35633Y379781D01*
X35638Y379413D01*
X35633Y379045D01*
X35620Y378677D01*
X35597Y378310D01*
X35566Y377943D01*
X35525Y377577D01*
X35476Y377212D01*
X35417Y376849D01*
X35350Y376487D01*
X35274Y376126D01*
X35188Y375768D01*
X35095Y375412D01*
X34992Y375059D01*
X34881Y374708D01*
X34761Y374360D01*
X34633Y374015D01*
X34496Y373673D01*
X34351Y373334D01*
X34198Y373000D01*
X34036Y372669D01*
X33867Y372342D01*
X33689Y372020D01*
X33504Y371701D01*
X33311Y371388D01*
X33110Y371079D01*
X32902Y370776D01*
X32686Y370478D01*
X32463Y370185D01*
X32233Y369897D01*
X31996Y369615D01*
X31752Y369340D01*
X31502Y369070D01*
X31245Y368806D01*
X30981Y368549D01*
X30711Y368299D01*
X30436Y368055D01*
X30154Y367818D01*
X29866Y367588D01*
X29573Y367365D01*
X29275Y367149D01*
X28972Y366941D01*
X28663Y366740D01*
X28350Y366547D01*
X28031Y366362D01*
X27709Y366184D01*
X27382Y366015D01*
X27051Y365853D01*
X26717Y365700D01*
X26378Y365555D01*
X26036Y365418D01*
X25691Y365290D01*
X25343Y365170D01*
X24992Y365059D01*
X24639Y364956D01*
X24283Y364863D01*
X23925Y364777D01*
X23564Y364701D01*
X23202Y364634D01*
X22839Y364575D01*
X22474Y364526D01*
X22108Y364485D01*
X21741Y364454D01*
X21374Y364431D01*
X21006Y364418D01*
X20638Y364413D01*
X20270Y364418D01*
X19902Y364431D01*
X19535Y364454D01*
X19168Y364485D01*
X18802Y364526D01*
X18437Y364575D01*
X18074Y364634D01*
X17712Y364701D01*
X17351Y364777D01*
X16993Y364863D01*
X16637Y364956D01*
X16284Y365059D01*
X15933Y365170D01*
X15585Y365290D01*
X15240Y365418D01*
X14898Y365555D01*
X14559Y365700D01*
X14225Y365853D01*
X13894Y366015D01*
X13567Y366184D01*
X13245Y366362D01*
X12926Y366547D01*
X12613Y366740D01*
X12304Y366941D01*
X12001Y367149D01*
X11703Y367365D01*
X11410Y367588D01*
X11122Y367818D01*
X10840Y368055D01*
X10565Y368299D01*
X10295Y368549D01*
X10031Y368806D01*
X9774Y369070D01*
X9524Y369340D01*
X9280Y369615D01*
X9043Y369897D01*
X8813Y370185D01*
X8590Y370478D01*
X8374Y370776D01*
X8166Y371079D01*
X7965Y371388D01*
X7772Y371701D01*
X7587Y372020D01*
X7409Y372342D01*
X7240Y372669D01*
X7078Y373000D01*
X6925Y373334D01*
X6780Y373673D01*
X6643Y374015D01*
X6515Y374360D01*
X6395Y374708D01*
X6284Y375059D01*
X6181Y375412D01*
X6088Y375768D01*
X6002Y376126D01*
X5926Y376487D01*
X5859Y376849D01*
X5800Y377212D01*
X5751Y377577D01*
X5710Y377943D01*
X5679Y378310D01*
X5656Y378677D01*
X5643Y379045D01*
X5638Y379413D01*
X215188Y19844D02*
X215193Y20212D01*
X215206Y20580D01*
X215229Y20947D01*
X215260Y21314D01*
X215301Y21680D01*
X215350Y22045D01*
X215409Y22408D01*
X215476Y22770D01*
X215552Y23131D01*
X215638Y23489D01*
X215731Y23845D01*
X215834Y24198D01*
X215945Y24549D01*
X216065Y24897D01*
X216193Y25242D01*
X216330Y25584D01*
X216475Y25923D01*
X216628Y26257D01*
X216790Y26588D01*
X216959Y26915D01*
X217137Y27237D01*
X217322Y27556D01*
X217515Y27869D01*
X217716Y28178D01*
X217924Y28481D01*
X218140Y28779D01*
X218363Y29072D01*
X218593Y29360D01*
X218830Y29642D01*
X219074Y29917D01*
X219324Y30187D01*
X219581Y30451D01*
X219845Y30708D01*
X220115Y30958D01*
X220390Y31202D01*
X220672Y31439D01*
X220960Y31669D01*
X221253Y31892D01*
X221551Y32108D01*
X221854Y32316D01*
X222163Y32517D01*
X222476Y32710D01*
X222795Y32895D01*
X223117Y33073D01*
X223444Y33242D01*
X223775Y33404D01*
X224109Y33557D01*
X224448Y33702D01*
X224790Y33839D01*
X225135Y33967D01*
X225483Y34087D01*
X225834Y34198D01*
X226187Y34301D01*
X226543Y34394D01*
X226901Y34480D01*
X227262Y34556D01*
X227624Y34623D01*
X227987Y34682D01*
X228352Y34731D01*
X228718Y34772D01*
X229085Y34803D01*
X229452Y34826D01*
X229820Y34839D01*
X230188Y34844D01*
X230556Y34839D01*
X230924Y34826D01*
X231291Y34803D01*
X231658Y34772D01*
X232024Y34731D01*
X232389Y34682D01*
X232752Y34623D01*
X233114Y34556D01*
X233475Y34480D01*
X233833Y34394D01*
X234189Y34301D01*
X234542Y34198D01*
X234893Y34087D01*
X235241Y33967D01*
X235586Y33839D01*
X235928Y33702D01*
X236267Y33557D01*
X236601Y33404D01*
X236932Y33242D01*
X237259Y33073D01*
X237581Y32895D01*
X237900Y32710D01*
X238213Y32517D01*
X238522Y32316D01*
X238825Y32108D01*
X239123Y31892D01*
X239416Y31669D01*
X239704Y31439D01*
X239986Y31202D01*
X240261Y30958D01*
X240531Y30708D01*
X240795Y30451D01*
X241052Y30187D01*
X241302Y29917D01*
X241546Y29642D01*
X241783Y29360D01*
X242013Y29072D01*
X242236Y28779D01*
X242452Y28481D01*
X242660Y28178D01*
X242861Y27869D01*
X243054Y27556D01*
X243239Y27237D01*
X243417Y26915D01*
X243586Y26588D01*
X243748Y26257D01*
X243901Y25923D01*
X244046Y25584D01*
X244183Y25242D01*
X244311Y24897D01*
X244431Y24549D01*
X244542Y24198D01*
X244645Y23845D01*
X244738Y23489D01*
X244824Y23131D01*
X244900Y22770D01*
X244967Y22408D01*
X245026Y22045D01*
X245075Y21680D01*
X245116Y21314D01*
X245147Y20947D01*
X245170Y20580D01*
X245183Y20212D01*
X245188Y19844D01*
X245183Y19476D01*
X245170Y19108D01*
X245147Y18741D01*
X245116Y18374D01*
X245075Y18008D01*
X245026Y17643D01*
X244967Y17280D01*
X244900Y16918D01*
X244824Y16557D01*
X244738Y16199D01*
X244645Y15843D01*
X244542Y15490D01*
X244431Y15139D01*
X244311Y14791D01*
X244183Y14446D01*
X244046Y14104D01*
X243901Y13765D01*
X243748Y13431D01*
X243586Y13100D01*
X243417Y12773D01*
X243239Y12451D01*
X243054Y12132D01*
X242861Y11819D01*
X242660Y11510D01*
X242452Y11207D01*
X242236Y10909D01*
X242013Y10616D01*
X241783Y10328D01*
X241546Y10046D01*
X241302Y9771D01*
X241052Y9501D01*
X240795Y9237D01*
X240531Y8980D01*
X240261Y8730D01*
X239986Y8486D01*
X239704Y8249D01*
X239416Y8019D01*
X239123Y7796D01*
X238825Y7580D01*
X238522Y7372D01*
X238213Y7171D01*
X237900Y6978D01*
X237581Y6793D01*
X237259Y6615D01*
X236932Y6446D01*
X236601Y6284D01*
X236267Y6131D01*
X235928Y5986D01*
X235586Y5849D01*
X235241Y5721D01*
X234893Y5601D01*
X234542Y5490D01*
X234189Y5387D01*
X233833Y5294D01*
X233475Y5208D01*
X233114Y5132D01*
X232752Y5065D01*
X232389Y5006D01*
X232024Y4957D01*
X231658Y4916D01*
X231291Y4885D01*
X230924Y4862D01*
X230556Y4849D01*
X230188Y4844D01*
X229820Y4849D01*
X229452Y4862D01*
X229085Y4885D01*
X228718Y4916D01*
X228352Y4957D01*
X227987Y5006D01*
X227624Y5065D01*
X227262Y5132D01*
X226901Y5208D01*
X226543Y5294D01*
X226187Y5387D01*
X225834Y5490D01*
X225483Y5601D01*
X225135Y5721D01*
X224790Y5849D01*
X224448Y5986D01*
X224109Y6131D01*
X223775Y6284D01*
X223444Y6446D01*
X223117Y6615D01*
X222795Y6793D01*
X222476Y6978D01*
X222163Y7171D01*
X221854Y7372D01*
X221551Y7580D01*
X221253Y7796D01*
X220960Y8019D01*
X220672Y8249D01*
X220390Y8486D01*
X220115Y8730D01*
X219845Y8980D01*
X219581Y9237D01*
X219324Y9501D01*
X219074Y9771D01*
X218830Y10046D01*
X218593Y10328D01*
X218363Y10616D01*
X218140Y10909D01*
X217924Y11207D01*
X217716Y11510D01*
X217515Y11819D01*
X217322Y12132D01*
X217137Y12451D01*
X216959Y12773D01*
X216790Y13100D01*
X216628Y13431D01*
X216475Y13765D01*
X216330Y14104D01*
X216193Y14446D01*
X216065Y14791D01*
X215945Y15139D01*
X215834Y15490D01*
X215731Y15843D01*
X215638Y16199D01*
X215552Y16557D01*
X215476Y16918D01*
X215409Y17280D01*
X215350Y17643D01*
X215301Y18008D01*
X215260Y18374D01*
X215229Y18741D01*
X215206Y19108D01*
X215193Y19476D01*
X215188Y19844D01*
X215188Y379413D02*
X215193Y379781D01*
X215206Y380149D01*
X215229Y380516D01*
X215260Y380883D01*
X215301Y381249D01*
X215350Y381614D01*
X215409Y381977D01*
X215476Y382339D01*
X215552Y382700D01*
X215638Y383058D01*
X215731Y383414D01*
X215834Y383767D01*
X215945Y384118D01*
X216065Y384466D01*
X216193Y384811D01*
X216330Y385153D01*
X216475Y385492D01*
X216628Y385826D01*
X216790Y386157D01*
X216959Y386484D01*
X217137Y386806D01*
X217322Y387125D01*
X217515Y387438D01*
X217716Y387747D01*
X217924Y388050D01*
X218140Y388348D01*
X218363Y388641D01*
X218593Y388929D01*
X218830Y389211D01*
X219074Y389486D01*
X219324Y389756D01*
X219581Y390020D01*
X219845Y390277D01*
X220115Y390527D01*
X220390Y390771D01*
X220672Y391008D01*
X220960Y391238D01*
X221253Y391461D01*
X221551Y391677D01*
X221854Y391885D01*
X222163Y392086D01*
X222476Y392279D01*
X222795Y392464D01*
X223117Y392642D01*
X223444Y392811D01*
X223775Y392973D01*
X224109Y393126D01*
X224448Y393271D01*
X224790Y393408D01*
X225135Y393536D01*
X225483Y393656D01*
X225834Y393767D01*
X226187Y393870D01*
X226543Y393963D01*
X226901Y394049D01*
X227262Y394125D01*
X227624Y394192D01*
X227987Y394251D01*
X228352Y394300D01*
X228718Y394341D01*
X229085Y394372D01*
X229452Y394395D01*
X229820Y394408D01*
X230188Y394413D01*
X230556Y394408D01*
X230924Y394395D01*
X231291Y394372D01*
X231658Y394341D01*
X232024Y394300D01*
X232389Y394251D01*
X232752Y394192D01*
X233114Y394125D01*
X233475Y394049D01*
X233833Y393963D01*
X234189Y393870D01*
X234542Y393767D01*
X234893Y393656D01*
X235241Y393536D01*
X235586Y393408D01*
X235928Y393271D01*
X236267Y393126D01*
X236601Y392973D01*
X236932Y392811D01*
X237259Y392642D01*
X237581Y392464D01*
X237900Y392279D01*
X238213Y392086D01*
X238522Y391885D01*
X238825Y391677D01*
X239123Y391461D01*
X239416Y391238D01*
X239704Y391008D01*
X239986Y390771D01*
X240261Y390527D01*
X240531Y390277D01*
X240795Y390020D01*
X241052Y389756D01*
X241302Y389486D01*
X241546Y389211D01*
X241783Y388929D01*
X242013Y388641D01*
X242236Y388348D01*
X242452Y388050D01*
X242660Y387747D01*
X242861Y387438D01*
X243054Y387125D01*
X243239Y386806D01*
X243417Y386484D01*
X243586Y386157D01*
X243748Y385826D01*
X243901Y385492D01*
X244046Y385153D01*
X244183Y384811D01*
X244311Y384466D01*
X244431Y384118D01*
X244542Y383767D01*
X244645Y383414D01*
X244738Y383058D01*
X244824Y382700D01*
X244900Y382339D01*
X244967Y381977D01*
X245026Y381614D01*
X245075Y381249D01*
X245116Y380883D01*
X245147Y380516D01*
X245170Y380149D01*
X245183Y379781D01*
X245188Y379413D01*
X245183Y379045D01*
X245170Y378677D01*
X245147Y378310D01*
X245116Y377943D01*
X245075Y377577D01*
X245026Y377212D01*
X244967Y376849D01*
X244900Y376487D01*
X244824Y376126D01*
X244738Y375768D01*
X244645Y375412D01*
X244542Y375059D01*
X244431Y374708D01*
X244311Y374360D01*
X244183Y374015D01*
X244046Y373673D01*
X243901Y373334D01*
X243748Y373000D01*
X243586Y372669D01*
X243417Y372342D01*
X243239Y372020D01*
X243054Y371701D01*
X242861Y371388D01*
X242660Y371079D01*
X242452Y370776D01*
X242236Y370478D01*
X242013Y370185D01*
X241783Y369897D01*
X241546Y369615D01*
X241302Y369340D01*
X241052Y369070D01*
X240795Y368806D01*
X240531Y368549D01*
X240261Y368299D01*
X239986Y368055D01*
X239704Y367818D01*
X239416Y367588D01*
X239123Y367365D01*
X238825Y367149D01*
X238522Y366941D01*
X238213Y366740D01*
X237900Y366547D01*
X237581Y366362D01*
X237259Y366184D01*
X236932Y366015D01*
X236601Y365853D01*
X236267Y365700D01*
X235928Y365555D01*
X235586Y365418D01*
X235241Y365290D01*
X234893Y365170D01*
X234542Y365059D01*
X234189Y364956D01*
X233833Y364863D01*
X233475Y364777D01*
X233114Y364701D01*
X232752Y364634D01*
X232389Y364575D01*
X232024Y364526D01*
X231658Y364485D01*
X231291Y364454D01*
X230924Y364431D01*
X230556Y364418D01*
X230188Y364413D01*
X229820Y364418D01*
X229452Y364431D01*
X229085Y364454D01*
X228718Y364485D01*
X228352Y364526D01*
X227987Y364575D01*
X227624Y364634D01*
X227262Y364701D01*
X226901Y364777D01*
X226543Y364863D01*
X226187Y364956D01*
X225834Y365059D01*
X225483Y365170D01*
X225135Y365290D01*
X224790Y365418D01*
X224448Y365555D01*
X224109Y365700D01*
X223775Y365853D01*
X223444Y366015D01*
X223117Y366184D01*
X222795Y366362D01*
X222476Y366547D01*
X222163Y366740D01*
X221854Y366941D01*
X221551Y367149D01*
X221253Y367365D01*
X220960Y367588D01*
X220672Y367818D01*
X220390Y368055D01*
X220115Y368299D01*
X219845Y368549D01*
X219581Y368806D01*
X219324Y369070D01*
X219074Y369340D01*
X218830Y369615D01*
X218593Y369897D01*
X218363Y370185D01*
X218140Y370478D01*
X217924Y370776D01*
X217716Y371079D01*
X217515Y371388D01*
X217322Y371701D01*
X217137Y372020D01*
X216959Y372342D01*
X216790Y372669D01*
X216628Y373000D01*
X216475Y373334D01*
X216330Y373673D01*
X216193Y374015D01*
X216065Y374360D01*
X215945Y374708D01*
X215834Y375059D01*
X215731Y375412D01*
X215638Y375768D01*
X215552Y376126D01*
X215476Y376487D01*
X215409Y376849D01*
X215350Y377212D01*
X215301Y377577D01*
X215260Y377943D01*
X215229Y378310D01*
X215206Y378677D01*
X215193Y379045D01*
X215188Y379413D01*
X4844Y19844D02*
X4849Y20212D01*
X4862Y20580D01*
X4885Y20947D01*
X4916Y21314D01*
X4957Y21680D01*
X5006Y22045D01*
X5065Y22408D01*
X5132Y22770D01*
X5208Y23131D01*
X5294Y23489D01*
X5387Y23845D01*
X5490Y24198D01*
X5601Y24549D01*
X5721Y24897D01*
X5849Y25242D01*
X5986Y25584D01*
X6131Y25923D01*
X6284Y26257D01*
X6446Y26588D01*
X6615Y26915D01*
X6793Y27237D01*
X6978Y27556D01*
X7171Y27869D01*
X7372Y28178D01*
X7580Y28481D01*
X7796Y28779D01*
X8019Y29072D01*
X8249Y29360D01*
X8486Y29642D01*
X8730Y29917D01*
X8980Y30187D01*
X9237Y30451D01*
X9501Y30708D01*
X9771Y30958D01*
X10046Y31202D01*
X10328Y31439D01*
X10616Y31669D01*
X10909Y31892D01*
X11207Y32108D01*
X11510Y32316D01*
X11819Y32517D01*
X12132Y32710D01*
X12451Y32895D01*
X12773Y33073D01*
X13100Y33242D01*
X13431Y33404D01*
X13765Y33557D01*
X14104Y33702D01*
X14446Y33839D01*
X14791Y33967D01*
X15139Y34087D01*
X15490Y34198D01*
X15843Y34301D01*
X16199Y34394D01*
X16557Y34480D01*
X16918Y34556D01*
X17280Y34623D01*
X17643Y34682D01*
X18008Y34731D01*
X18374Y34772D01*
X18741Y34803D01*
X19108Y34826D01*
X19476Y34839D01*
X19844Y34844D01*
X20212Y34839D01*
X20580Y34826D01*
X20947Y34803D01*
X21314Y34772D01*
X21680Y34731D01*
X22045Y34682D01*
X22408Y34623D01*
X22770Y34556D01*
X23131Y34480D01*
X23489Y34394D01*
X23845Y34301D01*
X24198Y34198D01*
X24549Y34087D01*
X24897Y33967D01*
X25242Y33839D01*
X25584Y33702D01*
X25923Y33557D01*
X26257Y33404D01*
X26588Y33242D01*
X26915Y33073D01*
X27237Y32895D01*
X27556Y32710D01*
X27869Y32517D01*
X28178Y32316D01*
X28481Y32108D01*
X28779Y31892D01*
X29072Y31669D01*
X29360Y31439D01*
X29642Y31202D01*
X29917Y30958D01*
X30187Y30708D01*
X30451Y30451D01*
X30708Y30187D01*
X30958Y29917D01*
X31202Y29642D01*
X31439Y29360D01*
X31669Y29072D01*
X31892Y28779D01*
X32108Y28481D01*
X32316Y28178D01*
X32517Y27869D01*
X32710Y27556D01*
X32895Y27237D01*
X33073Y26915D01*
X33242Y26588D01*
X33404Y26257D01*
X33557Y25923D01*
X33702Y25584D01*
X33839Y25242D01*
X33967Y24897D01*
X34087Y24549D01*
X34198Y24198D01*
X34301Y23845D01*
X34394Y23489D01*
X34480Y23131D01*
X34556Y22770D01*
X34623Y22408D01*
X34682Y22045D01*
X34731Y21680D01*
X34772Y21314D01*
X34803Y20947D01*
X34826Y20580D01*
X34839Y20212D01*
X34844Y19844D01*
X34839Y19476D01*
X34826Y19108D01*
X34803Y18741D01*
X34772Y18374D01*
X34731Y18008D01*
X34682Y17643D01*
X34623Y17280D01*
X34556Y16918D01*
X34480Y16557D01*
X34394Y16199D01*
X34301Y15843D01*
X34198Y15490D01*
X34087Y15139D01*
X33967Y14791D01*
X33839Y14446D01*
X33702Y14104D01*
X33557Y13765D01*
X33404Y13431D01*
X33242Y13100D01*
X33073Y12773D01*
X32895Y12451D01*
X32710Y12132D01*
X32517Y11819D01*
X32316Y11510D01*
X32108Y11207D01*
X31892Y10909D01*
X31669Y10616D01*
X31439Y10328D01*
X31202Y10046D01*
X30958Y9771D01*
X30708Y9501D01*
X30451Y9237D01*
X30187Y8980D01*
X29917Y8730D01*
X29642Y8486D01*
X29360Y8249D01*
X29072Y8019D01*
X28779Y7796D01*
X28481Y7580D01*
X28178Y7372D01*
X27869Y7171D01*
X27556Y6978D01*
X27237Y6793D01*
X26915Y6615D01*
X26588Y6446D01*
X26257Y6284D01*
X25923Y6131D01*
X25584Y5986D01*
X25242Y5849D01*
X24897Y5721D01*
X24549Y5601D01*
X24198Y5490D01*
X23845Y5387D01*
X23489Y5294D01*
X23131Y5208D01*
X22770Y5132D01*
X22408Y5065D01*
X22045Y5006D01*
X21680Y4957D01*
X21314Y4916D01*
X20947Y4885D01*
X20580Y4862D01*
X20212Y4849D01*
X19844Y4844D01*
X19476Y4849D01*
X19108Y4862D01*
X18741Y4885D01*
X18374Y4916D01*
X18008Y4957D01*
X17643Y5006D01*
X17280Y5065D01*
X16918Y5132D01*
X16557Y5208D01*
X16199Y5294D01*
X15843Y5387D01*
X15490Y5490D01*
X15139Y5601D01*
X14791Y5721D01*
X14446Y5849D01*
X14104Y5986D01*
X13765Y6131D01*
X13431Y6284D01*
X13100Y6446D01*
X12773Y6615D01*
X12451Y6793D01*
X12132Y6978D01*
X11819Y7171D01*
X11510Y7372D01*
X11207Y7580D01*
X10909Y7796D01*
X10616Y8019D01*
X10328Y8249D01*
X10046Y8486D01*
X9771Y8730D01*
X9501Y8980D01*
X9237Y9237D01*
X8980Y9501D01*
X8730Y9771D01*
X8486Y10046D01*
X8249Y10328D01*
X8019Y10616D01*
X7796Y10909D01*
X7580Y11207D01*
X7372Y11510D01*
X7171Y11819D01*
X6978Y12132D01*
X6793Y12451D01*
X6615Y12773D01*
X6446Y13100D01*
X6284Y13431D01*
X6131Y13765D01*
X5986Y14104D01*
X5849Y14446D01*
X5721Y14791D01*
X5601Y15139D01*
X5490Y15490D01*
X5387Y15843D01*
X5294Y16199D01*
X5208Y16557D01*
X5132Y16918D01*
X5065Y17280D01*
X5006Y17643D01*
X4957Y18008D01*
X4916Y18374D01*
X4885Y18741D01*
X4862Y19108D01*
X4849Y19476D01*
X4844Y19844D01*
D10*
X79831Y36369D02*
X79938Y36367D01*
X80045Y36361D01*
X80152Y36352D01*
X80258Y36338D01*
X80364Y36321D01*
X80469Y36300D01*
X80573Y36276D01*
X80676Y36247D01*
X80778Y36215D01*
X80879Y36180D01*
X80979Y36141D01*
X81077Y36098D01*
X81174Y36052D01*
X81269Y36002D01*
X81362Y35949D01*
X81453Y35893D01*
X81542Y35833D01*
X81629Y35771D01*
X81713Y35705D01*
X81796Y35636D01*
X81875Y35565D01*
X81952Y35490D01*
X82027Y35413D01*
X82098Y35334D01*
X82167Y35251D01*
X82233Y35167D01*
X82295Y35080D01*
X82355Y34991D01*
X82411Y34900D01*
X82464Y34807D01*
X82514Y34712D01*
X82560Y34615D01*
X82603Y34517D01*
X82642Y34417D01*
X82677Y34316D01*
X82709Y34214D01*
X82738Y34111D01*
X82762Y34007D01*
X82783Y33902D01*
X82800Y33796D01*
X82814Y33690D01*
X82823Y33583D01*
X82829Y33476D01*
X82831Y33369D01*
X82831Y25369D01*
X82829Y25262D01*
X82823Y25155D01*
X82814Y25048D01*
X82800Y24942D01*
X82783Y24836D01*
X82762Y24731D01*
X82738Y24627D01*
X82709Y24524D01*
X82677Y24422D01*
X82642Y24321D01*
X82603Y24221D01*
X82560Y24123D01*
X82514Y24026D01*
X82464Y23931D01*
X82411Y23838D01*
X82355Y23747D01*
X82295Y23658D01*
X82233Y23571D01*
X82167Y23487D01*
X82098Y23404D01*
X82027Y23325D01*
X81952Y23248D01*
X81875Y23173D01*
X81796Y23102D01*
X81713Y23033D01*
X81629Y22967D01*
X81542Y22905D01*
X81453Y22845D01*
X81362Y22789D01*
X81269Y22736D01*
X81174Y22686D01*
X81077Y22640D01*
X80979Y22597D01*
X80879Y22558D01*
X80778Y22523D01*
X80676Y22491D01*
X80573Y22462D01*
X80469Y22438D01*
X80364Y22417D01*
X80258Y22400D01*
X80152Y22386D01*
X80045Y22377D01*
X79938Y22371D01*
X79831Y22369D01*
X79724Y22371D01*
X79617Y22377D01*
X79510Y22386D01*
X79404Y22400D01*
X79298Y22417D01*
X79193Y22438D01*
X79089Y22462D01*
X78986Y22491D01*
X78884Y22523D01*
X78783Y22558D01*
X78683Y22597D01*
X78585Y22640D01*
X78488Y22686D01*
X78393Y22736D01*
X78300Y22789D01*
X78209Y22845D01*
X78120Y22905D01*
X78033Y22967D01*
X77949Y23033D01*
X77866Y23102D01*
X77787Y23173D01*
X77710Y23248D01*
X77635Y23325D01*
X77564Y23404D01*
X77495Y23487D01*
X77429Y23571D01*
X77367Y23658D01*
X77307Y23747D01*
X77251Y23838D01*
X77198Y23931D01*
X77148Y24026D01*
X77102Y24123D01*
X77059Y24221D01*
X77020Y24321D01*
X76985Y24422D01*
X76953Y24524D01*
X76924Y24627D01*
X76900Y24731D01*
X76879Y24836D01*
X76862Y24942D01*
X76848Y25048D01*
X76839Y25155D01*
X76833Y25262D01*
X76831Y25369D01*
X76831Y33369D01*
X76833Y33476D01*
X76839Y33583D01*
X76848Y33690D01*
X76862Y33796D01*
X76879Y33902D01*
X76900Y34007D01*
X76924Y34111D01*
X76953Y34214D01*
X76985Y34316D01*
X77020Y34417D01*
X77059Y34517D01*
X77102Y34615D01*
X77148Y34712D01*
X77198Y34807D01*
X77251Y34900D01*
X77307Y34991D01*
X77367Y35080D01*
X77429Y35167D01*
X77495Y35251D01*
X77564Y35334D01*
X77635Y35413D01*
X77710Y35490D01*
X77787Y35565D01*
X77866Y35636D01*
X77949Y35705D01*
X78033Y35771D01*
X78120Y35833D01*
X78209Y35893D01*
X78300Y35949D01*
X78393Y36002D01*
X78488Y36052D01*
X78585Y36098D01*
X78683Y36141D01*
X78783Y36180D01*
X78884Y36215D01*
X78986Y36247D01*
X79089Y36276D01*
X79193Y36300D01*
X79298Y36321D01*
X79404Y36338D01*
X79510Y36352D01*
X79617Y36361D01*
X79724Y36367D01*
X79831Y36369D01*
X166231Y36369D02*
X166338Y36367D01*
X166445Y36361D01*
X166552Y36352D01*
X166658Y36338D01*
X166764Y36321D01*
X166869Y36300D01*
X166973Y36276D01*
X167076Y36247D01*
X167178Y36215D01*
X167279Y36180D01*
X167379Y36141D01*
X167477Y36098D01*
X167574Y36052D01*
X167669Y36002D01*
X167762Y35949D01*
X167853Y35893D01*
X167942Y35833D01*
X168029Y35771D01*
X168113Y35705D01*
X168196Y35636D01*
X168275Y35565D01*
X168352Y35490D01*
X168427Y35413D01*
X168498Y35334D01*
X168567Y35251D01*
X168633Y35167D01*
X168695Y35080D01*
X168755Y34991D01*
X168811Y34900D01*
X168864Y34807D01*
X168914Y34712D01*
X168960Y34615D01*
X169003Y34517D01*
X169042Y34417D01*
X169077Y34316D01*
X169109Y34214D01*
X169138Y34111D01*
X169162Y34007D01*
X169183Y33902D01*
X169200Y33796D01*
X169214Y33690D01*
X169223Y33583D01*
X169229Y33476D01*
X169231Y33369D01*
X169231Y25369D01*
X169229Y25262D01*
X169223Y25155D01*
X169214Y25048D01*
X169200Y24942D01*
X169183Y24836D01*
X169162Y24731D01*
X169138Y24627D01*
X169109Y24524D01*
X169077Y24422D01*
X169042Y24321D01*
X169003Y24221D01*
X168960Y24123D01*
X168914Y24026D01*
X168864Y23931D01*
X168811Y23838D01*
X168755Y23747D01*
X168695Y23658D01*
X168633Y23571D01*
X168567Y23487D01*
X168498Y23404D01*
X168427Y23325D01*
X168352Y23248D01*
X168275Y23173D01*
X168196Y23102D01*
X168113Y23033D01*
X168029Y22967D01*
X167942Y22905D01*
X167853Y22845D01*
X167762Y22789D01*
X167669Y22736D01*
X167574Y22686D01*
X167477Y22640D01*
X167379Y22597D01*
X167279Y22558D01*
X167178Y22523D01*
X167076Y22491D01*
X166973Y22462D01*
X166869Y22438D01*
X166764Y22417D01*
X166658Y22400D01*
X166552Y22386D01*
X166445Y22377D01*
X166338Y22371D01*
X166231Y22369D01*
X166124Y22371D01*
X166017Y22377D01*
X165910Y22386D01*
X165804Y22400D01*
X165698Y22417D01*
X165593Y22438D01*
X165489Y22462D01*
X165386Y22491D01*
X165284Y22523D01*
X165183Y22558D01*
X165083Y22597D01*
X164985Y22640D01*
X164888Y22686D01*
X164793Y22736D01*
X164700Y22789D01*
X164609Y22845D01*
X164520Y22905D01*
X164433Y22967D01*
X164349Y23033D01*
X164266Y23102D01*
X164187Y23173D01*
X164110Y23248D01*
X164035Y23325D01*
X163964Y23404D01*
X163895Y23487D01*
X163829Y23571D01*
X163767Y23658D01*
X163707Y23747D01*
X163651Y23838D01*
X163598Y23931D01*
X163548Y24026D01*
X163502Y24123D01*
X163459Y24221D01*
X163420Y24321D01*
X163385Y24422D01*
X163353Y24524D01*
X163324Y24627D01*
X163300Y24731D01*
X163279Y24836D01*
X163262Y24942D01*
X163248Y25048D01*
X163239Y25155D01*
X163233Y25262D01*
X163231Y25369D01*
X163231Y33369D01*
X163233Y33476D01*
X163239Y33583D01*
X163248Y33690D01*
X163262Y33796D01*
X163279Y33902D01*
X163300Y34007D01*
X163324Y34111D01*
X163353Y34214D01*
X163385Y34316D01*
X163420Y34417D01*
X163459Y34517D01*
X163502Y34615D01*
X163548Y34712D01*
X163598Y34807D01*
X163651Y34900D01*
X163707Y34991D01*
X163767Y35080D01*
X163829Y35167D01*
X163895Y35251D01*
X163964Y35334D01*
X164035Y35413D01*
X164110Y35490D01*
X164187Y35565D01*
X164266Y35636D01*
X164349Y35705D01*
X164433Y35771D01*
X164520Y35833D01*
X164609Y35893D01*
X164700Y35949D01*
X164793Y36002D01*
X164888Y36052D01*
X164985Y36098D01*
X165083Y36141D01*
X165183Y36180D01*
X165284Y36215D01*
X165386Y36247D01*
X165489Y36276D01*
X165593Y36300D01*
X165698Y36321D01*
X165804Y36338D01*
X165910Y36352D01*
X166017Y36361D01*
X166124Y36367D01*
X166231Y36369D01*
X82831Y76669D02*
X82829Y76776D01*
X82823Y76883D01*
X82814Y76990D01*
X82800Y77096D01*
X82783Y77202D01*
X82762Y77307D01*
X82738Y77411D01*
X82709Y77514D01*
X82677Y77616D01*
X82642Y77717D01*
X82603Y77817D01*
X82560Y77915D01*
X82514Y78012D01*
X82464Y78107D01*
X82411Y78200D01*
X82355Y78291D01*
X82295Y78380D01*
X82233Y78467D01*
X82167Y78551D01*
X82098Y78634D01*
X82027Y78713D01*
X81952Y78790D01*
X81875Y78865D01*
X81796Y78936D01*
X81713Y79005D01*
X81629Y79071D01*
X81542Y79133D01*
X81453Y79193D01*
X81362Y79249D01*
X81269Y79302D01*
X81174Y79352D01*
X81077Y79398D01*
X80979Y79441D01*
X80879Y79480D01*
X80778Y79515D01*
X80676Y79547D01*
X80573Y79576D01*
X80469Y79600D01*
X80364Y79621D01*
X80258Y79638D01*
X80152Y79652D01*
X80045Y79661D01*
X79938Y79667D01*
X79831Y79669D01*
X82831Y76669D02*
X82831Y65669D01*
X82829Y65562D01*
X82823Y65455D01*
X82814Y65348D01*
X82800Y65242D01*
X82783Y65136D01*
X82762Y65031D01*
X82738Y64927D01*
X82709Y64824D01*
X82677Y64722D01*
X82642Y64621D01*
X82603Y64521D01*
X82560Y64423D01*
X82514Y64326D01*
X82464Y64231D01*
X82411Y64138D01*
X82355Y64047D01*
X82295Y63958D01*
X82233Y63871D01*
X82167Y63787D01*
X82098Y63704D01*
X82027Y63625D01*
X81952Y63548D01*
X81875Y63473D01*
X81796Y63402D01*
X81713Y63333D01*
X81629Y63267D01*
X81542Y63205D01*
X81453Y63145D01*
X81362Y63089D01*
X81269Y63036D01*
X81174Y62986D01*
X81077Y62940D01*
X80979Y62897D01*
X80879Y62858D01*
X80778Y62823D01*
X80676Y62791D01*
X80573Y62762D01*
X80469Y62738D01*
X80364Y62717D01*
X80258Y62700D01*
X80152Y62686D01*
X80045Y62677D01*
X79938Y62671D01*
X79831Y62669D01*
X79724Y62671D01*
X79617Y62677D01*
X79510Y62686D01*
X79404Y62700D01*
X79298Y62717D01*
X79193Y62738D01*
X79089Y62762D01*
X78986Y62791D01*
X78884Y62823D01*
X78783Y62858D01*
X78683Y62897D01*
X78585Y62940D01*
X78488Y62986D01*
X78393Y63036D01*
X78300Y63089D01*
X78209Y63145D01*
X78120Y63205D01*
X78033Y63267D01*
X77949Y63333D01*
X77866Y63402D01*
X77787Y63473D01*
X77710Y63548D01*
X77635Y63625D01*
X77564Y63704D01*
X77495Y63787D01*
X77429Y63871D01*
X77367Y63958D01*
X77307Y64047D01*
X77251Y64138D01*
X77198Y64231D01*
X77148Y64326D01*
X77102Y64423D01*
X77059Y64521D01*
X77020Y64621D01*
X76985Y64722D01*
X76953Y64824D01*
X76924Y64927D01*
X76900Y65031D01*
X76879Y65136D01*
X76862Y65242D01*
X76848Y65348D01*
X76839Y65455D01*
X76833Y65562D01*
X76831Y65669D01*
X76831Y76669D01*
X76833Y76776D01*
X76839Y76883D01*
X76848Y76990D01*
X76862Y77096D01*
X76879Y77202D01*
X76900Y77307D01*
X76924Y77411D01*
X76953Y77514D01*
X76985Y77616D01*
X77020Y77717D01*
X77059Y77817D01*
X77102Y77915D01*
X77148Y78012D01*
X77198Y78107D01*
X77251Y78200D01*
X77307Y78291D01*
X77367Y78380D01*
X77429Y78467D01*
X77495Y78551D01*
X77564Y78634D01*
X77635Y78713D01*
X77710Y78790D01*
X77787Y78865D01*
X77866Y78936D01*
X77949Y79005D01*
X78033Y79071D01*
X78120Y79133D01*
X78209Y79193D01*
X78300Y79249D01*
X78393Y79302D01*
X78488Y79352D01*
X78585Y79398D01*
X78683Y79441D01*
X78783Y79480D01*
X78884Y79515D01*
X78986Y79547D01*
X79089Y79576D01*
X79193Y79600D01*
X79298Y79621D01*
X79404Y79638D01*
X79510Y79652D01*
X79617Y79661D01*
X79724Y79667D01*
X79831Y79669D01*
X166231Y79669D02*
X166338Y79667D01*
X166445Y79661D01*
X166552Y79652D01*
X166658Y79638D01*
X166764Y79621D01*
X166869Y79600D01*
X166973Y79576D01*
X167076Y79547D01*
X167178Y79515D01*
X167279Y79480D01*
X167379Y79441D01*
X167477Y79398D01*
X167574Y79352D01*
X167669Y79302D01*
X167762Y79249D01*
X167853Y79193D01*
X167942Y79133D01*
X168029Y79071D01*
X168113Y79005D01*
X168196Y78936D01*
X168275Y78865D01*
X168352Y78790D01*
X168427Y78713D01*
X168498Y78634D01*
X168567Y78551D01*
X168633Y78467D01*
X168695Y78380D01*
X168755Y78291D01*
X168811Y78200D01*
X168864Y78107D01*
X168914Y78012D01*
X168960Y77915D01*
X169003Y77817D01*
X169042Y77717D01*
X169077Y77616D01*
X169109Y77514D01*
X169138Y77411D01*
X169162Y77307D01*
X169183Y77202D01*
X169200Y77096D01*
X169214Y76990D01*
X169223Y76883D01*
X169229Y76776D01*
X169231Y76669D01*
X169231Y65669D01*
X169229Y65562D01*
X169223Y65455D01*
X169214Y65348D01*
X169200Y65242D01*
X169183Y65136D01*
X169162Y65031D01*
X169138Y64927D01*
X169109Y64824D01*
X169077Y64722D01*
X169042Y64621D01*
X169003Y64521D01*
X168960Y64423D01*
X168914Y64326D01*
X168864Y64231D01*
X168811Y64138D01*
X168755Y64047D01*
X168695Y63958D01*
X168633Y63871D01*
X168567Y63787D01*
X168498Y63704D01*
X168427Y63625D01*
X168352Y63548D01*
X168275Y63473D01*
X168196Y63402D01*
X168113Y63333D01*
X168029Y63267D01*
X167942Y63205D01*
X167853Y63145D01*
X167762Y63089D01*
X167669Y63036D01*
X167574Y62986D01*
X167477Y62940D01*
X167379Y62897D01*
X167279Y62858D01*
X167178Y62823D01*
X167076Y62791D01*
X166973Y62762D01*
X166869Y62738D01*
X166764Y62717D01*
X166658Y62700D01*
X166552Y62686D01*
X166445Y62677D01*
X166338Y62671D01*
X166231Y62669D01*
X166124Y62671D01*
X166017Y62677D01*
X165910Y62686D01*
X165804Y62700D01*
X165698Y62717D01*
X165593Y62738D01*
X165489Y62762D01*
X165386Y62791D01*
X165284Y62823D01*
X165183Y62858D01*
X165083Y62897D01*
X164985Y62940D01*
X164888Y62986D01*
X164793Y63036D01*
X164700Y63089D01*
X164609Y63145D01*
X164520Y63205D01*
X164433Y63267D01*
X164349Y63333D01*
X164266Y63402D01*
X164187Y63473D01*
X164110Y63548D01*
X164035Y63625D01*
X163964Y63704D01*
X163895Y63787D01*
X163829Y63871D01*
X163767Y63958D01*
X163707Y64047D01*
X163651Y64138D01*
X163598Y64231D01*
X163548Y64326D01*
X163502Y64423D01*
X163459Y64521D01*
X163420Y64621D01*
X163385Y64722D01*
X163353Y64824D01*
X163324Y64927D01*
X163300Y65031D01*
X163279Y65136D01*
X163262Y65242D01*
X163248Y65348D01*
X163239Y65455D01*
X163233Y65562D01*
X163231Y65669D01*
X163231Y76669D01*
X163233Y76776D01*
X163239Y76883D01*
X163248Y76990D01*
X163262Y77096D01*
X163279Y77202D01*
X163300Y77307D01*
X163324Y77411D01*
X163353Y77514D01*
X163385Y77616D01*
X163420Y77717D01*
X163459Y77817D01*
X163502Y77915D01*
X163548Y78012D01*
X163598Y78107D01*
X163651Y78200D01*
X163707Y78291D01*
X163767Y78380D01*
X163829Y78467D01*
X163895Y78551D01*
X163964Y78634D01*
X164035Y78713D01*
X164110Y78790D01*
X164187Y78865D01*
X164266Y78936D01*
X164349Y79005D01*
X164433Y79071D01*
X164520Y79133D01*
X164609Y79193D01*
X164700Y79249D01*
X164793Y79302D01*
X164888Y79352D01*
X164985Y79398D01*
X165083Y79441D01*
X165183Y79480D01*
X165284Y79515D01*
X165386Y79547D01*
X165489Y79576D01*
X165593Y79600D01*
X165698Y79621D01*
X165804Y79638D01*
X165910Y79652D01*
X166017Y79661D01*
X166124Y79667D01*
X166231Y79669D01*
X148681Y66169D02*
X148683Y66282D01*
X148689Y66396D01*
X148699Y66509D01*
X148713Y66621D01*
X148730Y66733D01*
X148752Y66845D01*
X148778Y66955D01*
X148807Y67065D01*
X148840Y67173D01*
X148877Y67281D01*
X148918Y67386D01*
X148962Y67491D01*
X149010Y67594D01*
X149061Y67695D01*
X149116Y67794D01*
X149175Y67891D01*
X149237Y67986D01*
X149302Y68079D01*
X149370Y68170D01*
X149441Y68258D01*
X149516Y68344D01*
X149593Y68427D01*
X149673Y68507D01*
X149756Y68584D01*
X149842Y68659D01*
X149930Y68730D01*
X150021Y68798D01*
X150114Y68863D01*
X150209Y68925D01*
X150306Y68984D01*
X150405Y69039D01*
X150506Y69090D01*
X150609Y69138D01*
X150714Y69182D01*
X150819Y69223D01*
X150927Y69260D01*
X151035Y69293D01*
X151145Y69322D01*
X151255Y69348D01*
X151367Y69370D01*
X151479Y69387D01*
X151591Y69401D01*
X151704Y69411D01*
X151818Y69417D01*
X151931Y69419D01*
X152044Y69417D01*
X152158Y69411D01*
X152271Y69401D01*
X152383Y69387D01*
X152495Y69370D01*
X152607Y69348D01*
X152717Y69322D01*
X152827Y69293D01*
X152935Y69260D01*
X153043Y69223D01*
X153148Y69182D01*
X153253Y69138D01*
X153356Y69090D01*
X153457Y69039D01*
X153556Y68984D01*
X153653Y68925D01*
X153748Y68863D01*
X153841Y68798D01*
X153932Y68730D01*
X154020Y68659D01*
X154106Y68584D01*
X154189Y68507D01*
X154269Y68427D01*
X154346Y68344D01*
X154421Y68258D01*
X154492Y68170D01*
X154560Y68079D01*
X154625Y67986D01*
X154687Y67891D01*
X154746Y67794D01*
X154801Y67695D01*
X154852Y67594D01*
X154900Y67491D01*
X154944Y67386D01*
X154985Y67281D01*
X155022Y67173D01*
X155055Y67065D01*
X155084Y66955D01*
X155110Y66845D01*
X155132Y66733D01*
X155149Y66621D01*
X155163Y66509D01*
X155173Y66396D01*
X155179Y66282D01*
X155181Y66169D01*
X155179Y66056D01*
X155173Y65942D01*
X155163Y65829D01*
X155149Y65717D01*
X155132Y65605D01*
X155110Y65493D01*
X155084Y65383D01*
X155055Y65273D01*
X155022Y65165D01*
X154985Y65057D01*
X154944Y64952D01*
X154900Y64847D01*
X154852Y64744D01*
X154801Y64643D01*
X154746Y64544D01*
X154687Y64447D01*
X154625Y64352D01*
X154560Y64259D01*
X154492Y64168D01*
X154421Y64080D01*
X154346Y63994D01*
X154269Y63911D01*
X154189Y63831D01*
X154106Y63754D01*
X154020Y63679D01*
X153932Y63608D01*
X153841Y63540D01*
X153748Y63475D01*
X153653Y63413D01*
X153556Y63354D01*
X153457Y63299D01*
X153356Y63248D01*
X153253Y63200D01*
X153148Y63156D01*
X153043Y63115D01*
X152935Y63078D01*
X152827Y63045D01*
X152717Y63016D01*
X152607Y62990D01*
X152495Y62968D01*
X152383Y62951D01*
X152271Y62937D01*
X152158Y62927D01*
X152044Y62921D01*
X151931Y62919D01*
X151818Y62921D01*
X151704Y62927D01*
X151591Y62937D01*
X151479Y62951D01*
X151367Y62968D01*
X151255Y62990D01*
X151145Y63016D01*
X151035Y63045D01*
X150927Y63078D01*
X150819Y63115D01*
X150714Y63156D01*
X150609Y63200D01*
X150506Y63248D01*
X150405Y63299D01*
X150306Y63354D01*
X150209Y63413D01*
X150114Y63475D01*
X150021Y63540D01*
X149930Y63608D01*
X149842Y63679D01*
X149756Y63754D01*
X149673Y63831D01*
X149593Y63911D01*
X149516Y63994D01*
X149441Y64080D01*
X149370Y64168D01*
X149302Y64259D01*
X149237Y64352D01*
X149175Y64447D01*
X149116Y64544D01*
X149061Y64643D01*
X149010Y64744D01*
X148962Y64847D01*
X148918Y64952D01*
X148877Y65057D01*
X148840Y65165D01*
X148807Y65273D01*
X148778Y65383D01*
X148752Y65493D01*
X148730Y65605D01*
X148713Y65717D01*
X148699Y65829D01*
X148689Y65942D01*
X148683Y66056D01*
X148681Y66169D01*
X90881Y66169D02*
X90883Y66282D01*
X90889Y66396D01*
X90899Y66509D01*
X90913Y66621D01*
X90930Y66733D01*
X90952Y66845D01*
X90978Y66955D01*
X91007Y67065D01*
X91040Y67173D01*
X91077Y67281D01*
X91118Y67386D01*
X91162Y67491D01*
X91210Y67594D01*
X91261Y67695D01*
X91316Y67794D01*
X91375Y67891D01*
X91437Y67986D01*
X91502Y68079D01*
X91570Y68170D01*
X91641Y68258D01*
X91716Y68344D01*
X91793Y68427D01*
X91873Y68507D01*
X91956Y68584D01*
X92042Y68659D01*
X92130Y68730D01*
X92221Y68798D01*
X92314Y68863D01*
X92409Y68925D01*
X92506Y68984D01*
X92605Y69039D01*
X92706Y69090D01*
X92809Y69138D01*
X92914Y69182D01*
X93019Y69223D01*
X93127Y69260D01*
X93235Y69293D01*
X93345Y69322D01*
X93455Y69348D01*
X93567Y69370D01*
X93679Y69387D01*
X93791Y69401D01*
X93904Y69411D01*
X94018Y69417D01*
X94131Y69419D01*
X94244Y69417D01*
X94358Y69411D01*
X94471Y69401D01*
X94583Y69387D01*
X94695Y69370D01*
X94807Y69348D01*
X94917Y69322D01*
X95027Y69293D01*
X95135Y69260D01*
X95243Y69223D01*
X95348Y69182D01*
X95453Y69138D01*
X95556Y69090D01*
X95657Y69039D01*
X95756Y68984D01*
X95853Y68925D01*
X95948Y68863D01*
X96041Y68798D01*
X96132Y68730D01*
X96220Y68659D01*
X96306Y68584D01*
X96389Y68507D01*
X96469Y68427D01*
X96546Y68344D01*
X96621Y68258D01*
X96692Y68170D01*
X96760Y68079D01*
X96825Y67986D01*
X96887Y67891D01*
X96946Y67794D01*
X97001Y67695D01*
X97052Y67594D01*
X97100Y67491D01*
X97144Y67386D01*
X97185Y67281D01*
X97222Y67173D01*
X97255Y67065D01*
X97284Y66955D01*
X97310Y66845D01*
X97332Y66733D01*
X97349Y66621D01*
X97363Y66509D01*
X97373Y66396D01*
X97379Y66282D01*
X97381Y66169D01*
X97379Y66056D01*
X97373Y65942D01*
X97363Y65829D01*
X97349Y65717D01*
X97332Y65605D01*
X97310Y65493D01*
X97284Y65383D01*
X97255Y65273D01*
X97222Y65165D01*
X97185Y65057D01*
X97144Y64952D01*
X97100Y64847D01*
X97052Y64744D01*
X97001Y64643D01*
X96946Y64544D01*
X96887Y64447D01*
X96825Y64352D01*
X96760Y64259D01*
X96692Y64168D01*
X96621Y64080D01*
X96546Y63994D01*
X96469Y63911D01*
X96389Y63831D01*
X96306Y63754D01*
X96220Y63679D01*
X96132Y63608D01*
X96041Y63540D01*
X95948Y63475D01*
X95853Y63413D01*
X95756Y63354D01*
X95657Y63299D01*
X95556Y63248D01*
X95453Y63200D01*
X95348Y63156D01*
X95243Y63115D01*
X95135Y63078D01*
X95027Y63045D01*
X94917Y63016D01*
X94807Y62990D01*
X94695Y62968D01*
X94583Y62951D01*
X94471Y62937D01*
X94358Y62927D01*
X94244Y62921D01*
X94131Y62919D01*
X94018Y62921D01*
X93904Y62927D01*
X93791Y62937D01*
X93679Y62951D01*
X93567Y62968D01*
X93455Y62990D01*
X93345Y63016D01*
X93235Y63045D01*
X93127Y63078D01*
X93019Y63115D01*
X92914Y63156D01*
X92809Y63200D01*
X92706Y63248D01*
X92605Y63299D01*
X92506Y63354D01*
X92409Y63413D01*
X92314Y63475D01*
X92221Y63540D01*
X92130Y63608D01*
X92042Y63679D01*
X91956Y63754D01*
X91873Y63831D01*
X91793Y63911D01*
X91716Y63994D01*
X91641Y64080D01*
X91570Y64168D01*
X91502Y64259D01*
X91437Y64352D01*
X91375Y64447D01*
X91316Y64544D01*
X91261Y64643D01*
X91210Y64744D01*
X91162Y64847D01*
X91118Y64952D01*
X91077Y65057D01*
X91040Y65165D01*
X91007Y65273D01*
X90978Y65383D01*
X90952Y65493D01*
X90930Y65605D01*
X90913Y65717D01*
X90899Y65829D01*
X90889Y65942D01*
X90883Y66056D01*
X90881Y66169D01*
X198163Y98025D02*
X198165Y98173D01*
X198171Y98321D01*
X198181Y98469D01*
X198195Y98617D01*
X198213Y98764D01*
X198235Y98911D01*
X198261Y99057D01*
X198290Y99202D01*
X198324Y99347D01*
X198362Y99490D01*
X198403Y99633D01*
X198448Y99774D01*
X198498Y99914D01*
X198550Y100052D01*
X198607Y100190D01*
X198667Y100325D01*
X198731Y100459D01*
X198798Y100591D01*
X198869Y100721D01*
X198944Y100850D01*
X199022Y100976D01*
X199103Y101100D01*
X199187Y101222D01*
X199275Y101341D01*
X199366Y101458D01*
X199460Y101573D01*
X199558Y101685D01*
X199658Y101794D01*
X199761Y101901D01*
X199867Y102005D01*
X199975Y102106D01*
X200087Y102204D01*
X200201Y102299D01*
X200317Y102390D01*
X200436Y102479D01*
X200557Y102564D01*
X200681Y102646D01*
X200807Y102725D01*
X200934Y102800D01*
X201064Y102872D01*
X201196Y102941D01*
X201329Y103005D01*
X201464Y103066D01*
X201601Y103124D01*
X201739Y103178D01*
X201879Y103228D01*
X202020Y103274D01*
X202162Y103316D01*
X202305Y103355D01*
X202449Y103389D01*
X202595Y103420D01*
X202740Y103447D01*
X202887Y103470D01*
X203034Y103489D01*
X203182Y103504D01*
X203329Y103515D01*
X203478Y103522D01*
X203626Y103525D01*
X203774Y103524D01*
X203922Y103519D01*
X204070Y103510D01*
X204218Y103497D01*
X204366Y103480D01*
X204512Y103459D01*
X204659Y103434D01*
X204804Y103405D01*
X204949Y103373D01*
X205092Y103336D01*
X205235Y103296D01*
X205377Y103251D01*
X205517Y103203D01*
X205656Y103151D01*
X205793Y103096D01*
X205929Y103036D01*
X206064Y102973D01*
X206196Y102907D01*
X206327Y102837D01*
X206456Y102763D01*
X206582Y102686D01*
X206707Y102606D01*
X206829Y102522D01*
X206950Y102435D01*
X207067Y102345D01*
X207183Y102251D01*
X207295Y102155D01*
X207405Y102056D01*
X207513Y101953D01*
X207617Y101848D01*
X207719Y101740D01*
X207817Y101629D01*
X207913Y101516D01*
X208006Y101400D01*
X208095Y101282D01*
X208181Y101161D01*
X208264Y101038D01*
X208344Y100913D01*
X208420Y100786D01*
X208493Y100656D01*
X208562Y100525D01*
X208627Y100392D01*
X208690Y100258D01*
X208748Y100121D01*
X208803Y99983D01*
X208853Y99844D01*
X208901Y99703D01*
X208944Y99562D01*
X208984Y99419D01*
X209019Y99275D01*
X209051Y99130D01*
X209079Y98984D01*
X209103Y98838D01*
X209123Y98691D01*
X209139Y98543D01*
X209151Y98396D01*
X209159Y98247D01*
X209163Y98099D01*
X209163Y97951D01*
X209159Y97803D01*
X209151Y97654D01*
X209139Y97507D01*
X209123Y97359D01*
X209103Y97212D01*
X209079Y97066D01*
X209051Y96920D01*
X209019Y96775D01*
X208984Y96631D01*
X208944Y96488D01*
X208901Y96347D01*
X208853Y96206D01*
X208803Y96067D01*
X208748Y95929D01*
X208690Y95792D01*
X208627Y95658D01*
X208562Y95525D01*
X208493Y95394D01*
X208420Y95264D01*
X208344Y95137D01*
X208264Y95012D01*
X208181Y94889D01*
X208095Y94768D01*
X208006Y94650D01*
X207913Y94534D01*
X207817Y94421D01*
X207719Y94310D01*
X207617Y94202D01*
X207513Y94097D01*
X207405Y93994D01*
X207295Y93895D01*
X207183Y93799D01*
X207067Y93705D01*
X206950Y93615D01*
X206829Y93528D01*
X206707Y93444D01*
X206582Y93364D01*
X206456Y93287D01*
X206327Y93213D01*
X206196Y93143D01*
X206064Y93077D01*
X205929Y93014D01*
X205793Y92954D01*
X205656Y92899D01*
X205517Y92847D01*
X205377Y92799D01*
X205235Y92754D01*
X205092Y92714D01*
X204949Y92677D01*
X204804Y92645D01*
X204659Y92616D01*
X204512Y92591D01*
X204366Y92570D01*
X204218Y92553D01*
X204070Y92540D01*
X203922Y92531D01*
X203774Y92526D01*
X203626Y92525D01*
X203478Y92528D01*
X203329Y92535D01*
X203182Y92546D01*
X203034Y92561D01*
X202887Y92580D01*
X202740Y92603D01*
X202595Y92630D01*
X202449Y92661D01*
X202305Y92695D01*
X202162Y92734D01*
X202020Y92776D01*
X201879Y92822D01*
X201739Y92872D01*
X201601Y92926D01*
X201464Y92984D01*
X201329Y93045D01*
X201196Y93109D01*
X201064Y93178D01*
X200934Y93250D01*
X200807Y93325D01*
X200681Y93404D01*
X200557Y93486D01*
X200436Y93571D01*
X200317Y93660D01*
X200201Y93751D01*
X200087Y93846D01*
X199975Y93944D01*
X199867Y94045D01*
X199761Y94149D01*
X199658Y94256D01*
X199558Y94365D01*
X199460Y94477D01*
X199366Y94592D01*
X199275Y94709D01*
X199187Y94828D01*
X199103Y94950D01*
X199022Y95074D01*
X198944Y95200D01*
X198869Y95329D01*
X198798Y95459D01*
X198731Y95591D01*
X198667Y95725D01*
X198607Y95860D01*
X198550Y95998D01*
X198498Y96136D01*
X198448Y96276D01*
X198403Y96417D01*
X198362Y96560D01*
X198324Y96703D01*
X198290Y96848D01*
X198261Y96993D01*
X198235Y97139D01*
X198213Y97286D01*
X198195Y97433D01*
X198181Y97581D01*
X198171Y97729D01*
X198165Y97877D01*
X198163Y98025D01*
D12*
X0Y19937D02*
X76Y18194D01*
X304Y16464D01*
X681Y14760D01*
X1206Y13096D01*
X1874Y11484D01*
X2679Y9937D01*
X3617Y8465D01*
X4679Y7081D01*
X5858Y5795D01*
X7144Y4616D01*
X8528Y3554D01*
X10000Y2616D01*
X11548Y1811D01*
X13160Y1143D01*
X14824Y618D01*
X16527Y241D01*
X18257Y13D01*
X20000Y-63D01*
X20012Y-63D01*
X229197Y64D01*
X230940Y141D01*
X232669Y370D01*
X234372Y748D01*
X236036Y1274D01*
X237647Y1942D01*
X239195Y2748D01*
X240665Y3687D01*
X242049Y4749D01*
X243335Y5929D01*
X244513Y7216D01*
X245574Y8600D01*
X246511Y10072D01*
X247315Y11620D01*
X247982Y13232D01*
X248506Y14897D01*
X248883Y16600D01*
X249109Y18330D01*
X249185Y20073D01*
X249185Y20099D01*
X249292Y380821D01*
X249217Y382565D01*
X248991Y384296D01*
X248614Y386000D01*
X248090Y387665D01*
X247424Y389278D01*
X246619Y390827D01*
X245682Y392300D01*
X244620Y393686D01*
X243442Y394973D01*
X242156Y396153D01*
X240772Y397217D01*
X239300Y398156D01*
X237753Y398963D01*
X236140Y399632D01*
X234476Y400158D01*
X232772Y400537D01*
X231042Y400766D01*
X229298Y400844D01*
X229292Y400844D01*
X20000Y400844D01*
X18257Y400768D01*
X16527Y400540D01*
X14824Y400162D01*
X13160Y399638D01*
X11548Y398970D01*
X10000Y398164D01*
X8528Y397227D01*
X7144Y396165D01*
X5858Y394986D01*
X4679Y393700D01*
X3617Y392315D01*
X2680Y390844D01*
X1874Y389296D01*
X1206Y387684D01*
X681Y386020D01*
X304Y384317D01*
X76Y382587D01*
X0Y380844D01*
X0Y19937D01*
X163231Y65669D02*
X163243Y65407D01*
X163277Y65148D01*
X163333Y64892D01*
X163412Y64643D01*
X163512Y64401D01*
X163633Y64169D01*
X163774Y63948D01*
X163933Y63740D01*
X164110Y63547D01*
X164303Y63371D01*
X164511Y63211D01*
X164731Y63071D01*
X164963Y62950D01*
X165205Y62850D01*
X165455Y62771D01*
X165710Y62714D01*
X165970Y62680D01*
X166231Y62669D01*
X166493Y62680D01*
X166752Y62714D01*
X167008Y62771D01*
X167257Y62850D01*
X167499Y62950D01*
X167731Y63071D01*
X167952Y63211D01*
X168160Y63371D01*
X168353Y63547D01*
X168529Y63740D01*
X168689Y63948D01*
X168829Y64169D01*
X168950Y64401D01*
X169050Y64643D01*
X169129Y64892D01*
X169186Y65148D01*
X169220Y65407D01*
X169231Y65669D01*
X169231Y76669D01*
X169220Y76930D01*
X169186Y77190D01*
X169129Y77445D01*
X169050Y77695D01*
X168950Y77937D01*
X168829Y78169D01*
X168689Y78389D01*
X168529Y78597D01*
X168353Y78790D01*
X168160Y78967D01*
X167952Y79126D01*
X167731Y79267D01*
X167499Y79388D01*
X167257Y79488D01*
X167008Y79567D01*
X166752Y79623D01*
X166493Y79657D01*
X166231Y79669D01*
X165970Y79657D01*
X165710Y79623D01*
X165455Y79567D01*
X165205Y79488D01*
X164963Y79388D01*
X164731Y79267D01*
X164511Y79126D01*
X164303Y78967D01*
X164110Y78790D01*
X163933Y78597D01*
X163774Y78389D01*
X163633Y78169D01*
X163512Y77937D01*
X163412Y77695D01*
X163333Y77445D01*
X163277Y77190D01*
X163243Y76930D01*
X163231Y76669D01*
X163231Y65669D01*
X76831Y65669D02*
X76843Y65407D01*
X76877Y65148D01*
X76933Y64892D01*
X77012Y64643D01*
X77112Y64401D01*
X77233Y64169D01*
X77374Y63948D01*
X77533Y63740D01*
X77710Y63547D01*
X77903Y63371D01*
X78111Y63211D01*
X78331Y63071D01*
X78563Y62950D01*
X78805Y62850D01*
X79055Y62771D01*
X79310Y62714D01*
X79570Y62680D01*
X79831Y62669D01*
X80093Y62680D01*
X80352Y62714D01*
X80608Y62771D01*
X80857Y62850D01*
X81099Y62950D01*
X81331Y63071D01*
X81552Y63211D01*
X81760Y63371D01*
X81953Y63547D01*
X82129Y63740D01*
X82289Y63948D01*
X82429Y64169D01*
X82550Y64401D01*
X82650Y64643D01*
X82729Y64892D01*
X82786Y65148D01*
X82820Y65407D01*
X82831Y65669D01*
X82831Y76669D01*
X82820Y76930D01*
X82786Y77190D01*
X82729Y77445D01*
X82650Y77695D01*
X82550Y77937D01*
X82429Y78169D01*
X82289Y78389D01*
X82129Y78597D01*
X81953Y78790D01*
X81760Y78967D01*
X81552Y79126D01*
X81331Y79267D01*
X81099Y79388D01*
X80857Y79488D01*
X80608Y79567D01*
X80352Y79623D01*
X80093Y79657D01*
X79831Y79669D01*
X79570Y79657D01*
X79310Y79623D01*
X79055Y79567D01*
X78805Y79488D01*
X78563Y79388D01*
X78331Y79267D01*
X78111Y79126D01*
X77903Y78967D01*
X77710Y78790D01*
X77533Y78597D01*
X77374Y78389D01*
X77233Y78169D01*
X77112Y77937D01*
X77012Y77695D01*
X76933Y77445D01*
X76877Y77190D01*
X76843Y76930D01*
X76831Y76669D01*
X76831Y65669D01*
X163231Y25369D02*
X163243Y25107D01*
X163277Y24848D01*
X163333Y24592D01*
X163412Y24343D01*
X163512Y24101D01*
X163633Y23869D01*
X163774Y23648D01*
X163933Y23440D01*
X164110Y23247D01*
X164303Y23071D01*
X164511Y22911D01*
X164731Y22771D01*
X164963Y22650D01*
X165205Y22550D01*
X165455Y22471D01*
X165710Y22414D01*
X165970Y22380D01*
X166231Y22369D01*
X166493Y22380D01*
X166752Y22414D01*
X167008Y22471D01*
X167257Y22550D01*
X167499Y22650D01*
X167731Y22771D01*
X167952Y22911D01*
X168160Y23071D01*
X168353Y23247D01*
X168529Y23440D01*
X168689Y23648D01*
X168829Y23869D01*
X168950Y24101D01*
X169050Y24343D01*
X169129Y24592D01*
X169186Y24848D01*
X169220Y25107D01*
X169231Y25369D01*
X169231Y33369D01*
X169220Y33630D01*
X169186Y33890D01*
X169129Y34145D01*
X169050Y34395D01*
X168950Y34637D01*
X168829Y34869D01*
X168689Y35089D01*
X168529Y35297D01*
X168353Y35490D01*
X168160Y35667D01*
X167952Y35826D01*
X167731Y35967D01*
X167499Y36088D01*
X167257Y36188D01*
X167008Y36267D01*
X166752Y36323D01*
X166493Y36357D01*
X166231Y36369D01*
X165970Y36357D01*
X165710Y36323D01*
X165455Y36267D01*
X165205Y36188D01*
X164963Y36088D01*
X164731Y35967D01*
X164511Y35826D01*
X164303Y35667D01*
X164110Y35490D01*
X163933Y35297D01*
X163774Y35089D01*
X163633Y34869D01*
X163512Y34637D01*
X163412Y34395D01*
X163333Y34145D01*
X163277Y33890D01*
X163243Y33630D01*
X163231Y33369D01*
X163231Y25369D01*
X76831Y25369D02*
X76843Y25107D01*
X76877Y24848D01*
X76933Y24592D01*
X77012Y24343D01*
X77112Y24101D01*
X77233Y23869D01*
X77374Y23648D01*
X77533Y23440D01*
X77710Y23247D01*
X77903Y23071D01*
X78111Y22911D01*
X78331Y22771D01*
X78563Y22650D01*
X78805Y22550D01*
X79055Y22471D01*
X79310Y22414D01*
X79570Y22380D01*
X79831Y22369D01*
X80093Y22380D01*
X80352Y22414D01*
X80608Y22471D01*
X80857Y22550D01*
X81099Y22650D01*
X81331Y22771D01*
X81552Y22911D01*
X81760Y23071D01*
X81953Y23247D01*
X82129Y23440D01*
X82289Y23648D01*
X82429Y23869D01*
X82550Y24101D01*
X82650Y24343D01*
X82729Y24592D01*
X82786Y24848D01*
X82820Y25107D01*
X82831Y25369D01*
X82831Y33369D01*
X82820Y33630D01*
X82786Y33890D01*
X82729Y34145D01*
X82650Y34395D01*
X82550Y34637D01*
X82429Y34869D01*
X82289Y35089D01*
X82129Y35297D01*
X81953Y35490D01*
X81760Y35667D01*
X81552Y35826D01*
X81331Y35967D01*
X81099Y36088D01*
X80857Y36188D01*
X80608Y36267D01*
X80352Y36323D01*
X80093Y36357D01*
X79831Y36369D01*
X79570Y36357D01*
X79310Y36323D01*
X79055Y36267D01*
X78805Y36188D01*
X78563Y36088D01*
X78331Y35967D01*
X78111Y35826D01*
X77903Y35667D01*
X77710Y35490D01*
X77533Y35297D01*
X77374Y35089D01*
X77233Y34869D01*
X77112Y34637D01*
X77012Y34395D01*
X76933Y34145D01*
X76877Y33890D01*
X76843Y33630D01*
X76831Y33369D01*
X76831Y25369D01*
X35638Y378877D02*
X35638Y379948D01*
X35561Y381017D01*
X35409Y382078D01*
X35181Y383124D01*
X34879Y384153D01*
X34505Y385156D01*
X34059Y386131D01*
X33546Y387071D01*
X32967Y387973D01*
X32325Y388831D01*
X31623Y389640D01*
X30865Y390398D01*
X30056Y391100D01*
X29198Y391742D01*
X28296Y392321D01*
X27356Y392834D01*
X26381Y393280D01*
X25378Y393654D01*
X24349Y393956D01*
X23303Y394184D01*
X22242Y394336D01*
X21173Y394413D01*
X20102Y394413D01*
X19033Y394336D01*
X17973Y394184D01*
X16926Y393956D01*
X15898Y393654D01*
X14894Y393280D01*
X13919Y392834D01*
X12979Y392321D01*
X12077Y391742D01*
X11219Y391100D01*
X10410Y390398D01*
X9652Y389640D01*
X8950Y388831D01*
X8308Y387973D01*
X7729Y387071D01*
X7216Y386131D01*
X6770Y385156D01*
X6396Y384153D01*
X6094Y383124D01*
X5866Y382078D01*
X5714Y381017D01*
X5638Y379948D01*
X5638Y378877D01*
X5714Y377808D01*
X5866Y376748D01*
X6094Y375701D01*
X6396Y374673D01*
X6770Y373669D01*
X7216Y372694D01*
X7729Y371754D01*
X8308Y370852D01*
X8950Y369994D01*
X9652Y369185D01*
X10410Y368427D01*
X11219Y367725D01*
X12077Y367083D01*
X12979Y366504D01*
X13919Y365991D01*
X14894Y365545D01*
X15898Y365171D01*
X16926Y364869D01*
X17973Y364641D01*
X19033Y364489D01*
X20102Y364413D01*
X21173Y364413D01*
X22242Y364489D01*
X23303Y364641D01*
X24349Y364869D01*
X25378Y365171D01*
X26381Y365545D01*
X27356Y365991D01*
X28296Y366504D01*
X29198Y367083D01*
X30056Y367725D01*
X30865Y368427D01*
X31623Y369185D01*
X32325Y369994D01*
X32967Y370852D01*
X33546Y371754D01*
X34059Y372694D01*
X34505Y373669D01*
X34879Y374673D01*
X35181Y375701D01*
X35409Y376748D01*
X35561Y377808D01*
X35638Y378877D01*
X245188Y19308D02*
X245188Y20379D01*
X245111Y21448D01*
X244959Y22509D01*
X244731Y23556D01*
X244429Y24584D01*
X244055Y25588D01*
X243609Y26562D01*
X243096Y27503D01*
X242517Y28404D01*
X241875Y29262D01*
X241173Y30072D01*
X240415Y30829D01*
X239606Y31531D01*
X238748Y32173D01*
X237846Y32752D01*
X236906Y33266D01*
X235931Y33711D01*
X234928Y34085D01*
X233899Y34387D01*
X232853Y34615D01*
X231792Y34767D01*
X230723Y34844D01*
X229652Y34844D01*
X228583Y34767D01*
X227523Y34615D01*
X226476Y34387D01*
X225448Y34085D01*
X224444Y33711D01*
X223469Y33266D01*
X222529Y32752D01*
X221627Y32173D01*
X220769Y31531D01*
X219960Y30829D01*
X219202Y30072D01*
X218500Y29262D01*
X217858Y28404D01*
X217279Y27503D01*
X216766Y26562D01*
X216320Y25588D01*
X215946Y24584D01*
X215644Y23556D01*
X215416Y22509D01*
X215264Y21448D01*
X215188Y20379D01*
X215188Y19308D01*
X215264Y18239D01*
X215416Y17179D01*
X215644Y16132D01*
X215946Y15104D01*
X216320Y14100D01*
X216766Y13125D01*
X217279Y12185D01*
X217858Y11283D01*
X218500Y10426D01*
X219202Y9616D01*
X219960Y8858D01*
X220769Y8157D01*
X221627Y7515D01*
X222529Y6935D01*
X223469Y6422D01*
X224444Y5977D01*
X225448Y5602D01*
X226476Y5300D01*
X227523Y5073D01*
X228583Y4920D01*
X229652Y4844D01*
X230723Y4844D01*
X231792Y4920D01*
X232853Y5073D01*
X233899Y5300D01*
X234928Y5602D01*
X235931Y5977D01*
X236906Y6422D01*
X237846Y6935D01*
X238748Y7515D01*
X239606Y8157D01*
X240415Y8858D01*
X241173Y9616D01*
X241875Y10426D01*
X242517Y11283D01*
X243096Y12185D01*
X243609Y13125D01*
X244055Y14100D01*
X244429Y15104D01*
X244731Y16132D01*
X244959Y17179D01*
X245111Y18239D01*
X245188Y19308D01*
X245188Y378877D02*
X245188Y379948D01*
X245111Y381017D01*
X244959Y382078D01*
X244731Y383124D01*
X244429Y384153D01*
X244055Y385156D01*
X243609Y386131D01*
X243096Y387071D01*
X242517Y387973D01*
X241875Y388831D01*
X241173Y389640D01*
X240415Y390398D01*
X239606Y391100D01*
X238748Y391742D01*
X237846Y392321D01*
X236906Y392834D01*
X235931Y393280D01*
X234928Y393654D01*
X233899Y393956D01*
X232853Y394184D01*
X231792Y394336D01*
X230723Y394413D01*
X229652Y394413D01*
X228583Y394336D01*
X227523Y394184D01*
X226476Y393956D01*
X225448Y393654D01*
X224444Y393280D01*
X223469Y392834D01*
X222529Y392321D01*
X221627Y391742D01*
X220769Y391100D01*
X219960Y390398D01*
X219202Y389640D01*
X218500Y388831D01*
X217858Y387973D01*
X217279Y387071D01*
X216766Y386131D01*
X216320Y385156D01*
X215946Y384153D01*
X215644Y383124D01*
X215416Y382078D01*
X215264Y381017D01*
X215188Y379948D01*
X215188Y378877D01*
X215264Y377808D01*
X215416Y376748D01*
X215644Y375701D01*
X215946Y374673D01*
X216320Y373669D01*
X216766Y372694D01*
X217279Y371754D01*
X217858Y370852D01*
X218500Y369994D01*
X219202Y369185D01*
X219960Y368427D01*
X220769Y367725D01*
X221627Y367083D01*
X222529Y366504D01*
X223469Y365991D01*
X224444Y365545D01*
X225448Y365171D01*
X226476Y364869D01*
X227523Y364641D01*
X228583Y364489D01*
X229652Y364413D01*
X230723Y364413D01*
X231792Y364489D01*
X232853Y364641D01*
X233899Y364869D01*
X234928Y365171D01*
X235931Y365545D01*
X236906Y365991D01*
X237846Y366504D01*
X238748Y367083D01*
X239606Y367725D01*
X240415Y368427D01*
X241173Y369185D01*
X241875Y369994D01*
X242517Y370852D01*
X243096Y371754D01*
X243609Y372694D01*
X244055Y373669D01*
X244429Y374673D01*
X244731Y375701D01*
X244959Y376748D01*
X245111Y377808D01*
X245188Y378877D01*
X34844Y19308D02*
X34844Y20379D01*
X34767Y21448D01*
X34615Y22509D01*
X34387Y23556D01*
X34085Y24584D01*
X33711Y25588D01*
X33266Y26562D01*
X32752Y27503D01*
X32173Y28404D01*
X31531Y29262D01*
X30829Y30072D01*
X30072Y30829D01*
X29262Y31531D01*
X28404Y32173D01*
X27503Y32752D01*
X26562Y33266D01*
X25588Y33711D01*
X24584Y34085D01*
X23556Y34387D01*
X22509Y34615D01*
X21448Y34767D01*
X20379Y34844D01*
X19308Y34844D01*
X18239Y34767D01*
X17179Y34615D01*
X16132Y34387D01*
X15104Y34085D01*
X14100Y33711D01*
X13125Y33266D01*
X12185Y32752D01*
X11283Y32173D01*
X10426Y31531D01*
X9616Y30829D01*
X8858Y30072D01*
X8157Y29262D01*
X7515Y28404D01*
X6935Y27503D01*
X6422Y26562D01*
X5977Y25588D01*
X5602Y24584D01*
X5300Y23556D01*
X5073Y22509D01*
X4920Y21448D01*
X4844Y20379D01*
X4844Y19308D01*
X4920Y18239D01*
X5073Y17179D01*
X5300Y16132D01*
X5602Y15104D01*
X5977Y14100D01*
X6422Y13125D01*
X6935Y12185D01*
X7515Y11283D01*
X8157Y10426D01*
X8858Y9616D01*
X9616Y8858D01*
X10426Y8157D01*
X11283Y7515D01*
X12185Y6935D01*
X13125Y6422D01*
X14100Y5977D01*
X15104Y5602D01*
X16132Y5300D01*
X17179Y5073D01*
X18239Y4920D01*
X19308Y4844D01*
X20379Y4844D01*
X21448Y4920D01*
X22509Y5073D01*
X23556Y5300D01*
X24584Y5602D01*
X25588Y5977D01*
X26562Y6422D01*
X27503Y6935D01*
X28404Y7515D01*
X29262Y8157D01*
X30072Y8858D01*
X30829Y9616D01*
X31531Y10426D01*
X32173Y11283D01*
X32752Y12185D01*
X33266Y13125D01*
X33711Y14100D01*
X34085Y15104D01*
X34387Y16132D01*
X34615Y17179D01*
X34767Y18239D01*
X34844Y19308D01*
X155181Y65956D02*
X155126Y65533D01*
X155015Y65122D01*
X154852Y64728D01*
X154639Y64359D01*
X154380Y64021D01*
X154079Y63720D01*
X153741Y63461D01*
X153372Y63248D01*
X152978Y63085D01*
X152567Y62974D01*
X152144Y62919D01*
X151718Y62919D01*
X151296Y62974D01*
X150884Y63085D01*
X150491Y63248D01*
X150122Y63461D01*
X149784Y63720D01*
X149483Y64021D01*
X149223Y64359D01*
X149010Y64728D01*
X148847Y65122D01*
X148737Y65533D01*
X148681Y65956D01*
X148681Y66382D01*
X148737Y66804D01*
X148847Y67216D01*
X149010Y67609D01*
X149223Y67978D01*
X149483Y68316D01*
X149784Y68617D01*
X150122Y68877D01*
X150491Y69090D01*
X150884Y69253D01*
X151296Y69363D01*
X151718Y69419D01*
X152144Y69419D01*
X152567Y69363D01*
X152978Y69253D01*
X153372Y69090D01*
X153741Y68877D01*
X154079Y68617D01*
X154380Y68316D01*
X154639Y67978D01*
X154852Y67609D01*
X155015Y67216D01*
X155126Y66804D01*
X155181Y66382D01*
X155181Y65956D01*
X97381Y65956D02*
X97326Y65533D01*
X97215Y65122D01*
X97052Y64728D01*
X96839Y64359D01*
X96580Y64021D01*
X96279Y63720D01*
X95941Y63461D01*
X95572Y63248D01*
X95178Y63085D01*
X94767Y62974D01*
X94344Y62919D01*
X93918Y62919D01*
X93496Y62974D01*
X93084Y63085D01*
X92691Y63248D01*
X92322Y63461D01*
X91984Y63720D01*
X91683Y64021D01*
X91423Y64359D01*
X91210Y64728D01*
X91047Y65122D01*
X90937Y65533D01*
X90881Y65956D01*
X90881Y66382D01*
X90937Y66804D01*
X91047Y67216D01*
X91210Y67609D01*
X91423Y67978D01*
X91683Y68316D01*
X91984Y68617D01*
X92322Y68877D01*
X92691Y69090D01*
X93084Y69253D01*
X93496Y69363D01*
X93918Y69419D01*
X94344Y69419D01*
X94767Y69363D01*
X95178Y69253D01*
X95572Y69090D01*
X95941Y68877D01*
X96279Y68617D01*
X96580Y68316D01*
X96839Y67978D01*
X97052Y67609D01*
X97215Y67216D01*
X97326Y66804D01*
X97381Y66382D01*
X97381Y65956D01*
X203354Y92525D02*
X202740Y92594D01*
X202138Y92732D01*
X201554Y92936D01*
X200998Y93204D01*
X200475Y93532D01*
X199992Y93918D01*
X199555Y94354D01*
X199170Y94837D01*
X198841Y95360D01*
X198573Y95917D01*
X198369Y96500D01*
X198232Y97102D01*
X198163Y97716D01*
X198163Y98334D01*
X198232Y98948D01*
X198369Y99550D01*
X198573Y100133D01*
X198841Y100690D01*
X199170Y101213D01*
X199555Y101696D01*
X199992Y102133D01*
X200475Y102518D01*
X200998Y102846D01*
X201554Y103114D01*
X202138Y103318D01*
X202740Y103456D01*
X203354Y103525D01*
X203971Y103525D01*
X204585Y103456D01*
X205188Y103318D01*
X205771Y103114D01*
X206327Y102846D01*
X206850Y102518D01*
X207333Y102133D01*
X207770Y101696D01*
X208155Y101213D01*
X208484Y100690D01*
X208752Y100133D01*
X208956Y99550D01*
X209093Y98948D01*
X209163Y98334D01*
X209163Y97716D01*
X209093Y97102D01*
X208956Y96500D01*
X208752Y95917D01*
X208484Y95360D01*
X208155Y94837D01*
X207770Y94354D01*
X207333Y93918D01*
X206850Y93532D01*
X206327Y93204D01*
X205771Y92936D01*
X205188Y92732D01*
X204585Y92594D01*
X203971Y92525D01*
X203354Y92525D01*
M02*
